ISO-10303-21;
HEADER;
/* Generated by software containing ST-Developer
 * from STEP Tools, Inc. (www.steptools.com) 
 */

FILE_DESCRIPTION(
/* description */ (''),
/* implementation_level */ '2;1');

FILE_NAME(
/* name */ '',
/* time_stamp */ '2026-07-15T12:37:49+08:00',
/* author */ (''),
/* organization */ (''),
/* preprocessor_version */ 'ST-DEVELOPER v20.1',
/* originating_system */ 'Autodesk Translation Framework v15.8.0.0',
/* authorisation */ '');

FILE_SCHEMA (('AUTOMOTIVE_DESIGN { 1 0 10303 214 3 1 1 }'));
ENDSEC;

DATA;
#10=MECHANICAL_DESIGN_GEOMETRIC_PRESENTATION_REPRESENTATION('',(#13),#1311);
#11=SHAPE_REPRESENTATION_RELATIONSHIP('SRR','None',#1318,#12);
#12=ADVANCED_BREP_SHAPE_REPRESENTATION('',(#14),#1310);
#13=STYLED_ITEM('',(#1327),#14);
#14=MANIFOLD_SOLID_BREP('\X2\819D76D64F2052A8\X0\2',#739);
#15=FACE_BOUND('',#86,.T.);
#16=FACE_BOUND('',#98,.T.);
#17=FACE_BOUND('',#100,.T.);
#18=FACE_BOUND('',#101,.T.);
#19=FACE_BOUND('',#103,.T.);
#20=FACE_BOUND('',#105,.T.);
#21=FACE_BOUND('',#119,.T.);
#22=FACE_BOUND('',#120,.T.);
#23=PLANE('',#791);
#24=PLANE('',#801);
#25=PLANE('',#804);
#26=PLANE('',#810);
#27=PLANE('',#814);
#28=PLANE('',#815);
#29=PLANE('',#817);
#30=PLANE('',#820);
#31=PLANE('',#824);
#32=PLANE('',#832);
#33=PLANE('',#837);
#34=PLANE('',#840);
#35=PLANE('',#843);
#36=PLANE('',#846);
#37=FACE_OUTER_BOUND('',#75,.T.);
#38=FACE_OUTER_BOUND('',#76,.T.);
#39=FACE_OUTER_BOUND('',#77,.T.);
#40=FACE_OUTER_BOUND('',#78,.T.);
#41=FACE_OUTER_BOUND('',#79,.T.);
#42=FACE_OUTER_BOUND('',#80,.T.);
#43=FACE_OUTER_BOUND('',#81,.T.);
#44=FACE_OUTER_BOUND('',#82,.T.);
#45=FACE_OUTER_BOUND('',#83,.T.);
#46=FACE_OUTER_BOUND('',#84,.T.);
#47=FACE_OUTER_BOUND('',#85,.T.);
#48=FACE_OUTER_BOUND('',#87,.T.);
#49=FACE_OUTER_BOUND('',#88,.T.);
#50=FACE_OUTER_BOUND('',#89,.T.);
#51=FACE_OUTER_BOUND('',#90,.T.);
#52=FACE_OUTER_BOUND('',#91,.T.);
#53=FACE_OUTER_BOUND('',#92,.T.);
#54=FACE_OUTER_BOUND('',#93,.T.);
#55=FACE_OUTER_BOUND('',#94,.T.);
#56=FACE_OUTER_BOUND('',#95,.T.);
#57=FACE_OUTER_BOUND('',#96,.T.);
#58=FACE_OUTER_BOUND('',#97,.T.);
#59=FACE_OUTER_BOUND('',#99,.T.);
#60=FACE_OUTER_BOUND('',#102,.T.);
#61=FACE_OUTER_BOUND('',#104,.T.);
#62=FACE_OUTER_BOUND('',#106,.T.);
#63=FACE_OUTER_BOUND('',#107,.T.);
#64=FACE_OUTER_BOUND('',#108,.T.);
#65=FACE_OUTER_BOUND('',#109,.T.);
#66=FACE_OUTER_BOUND('',#110,.T.);
#67=FACE_OUTER_BOUND('',#111,.T.);
#68=FACE_OUTER_BOUND('',#112,.T.);
#69=FACE_OUTER_BOUND('',#113,.T.);
#70=FACE_OUTER_BOUND('',#114,.T.);
#71=FACE_OUTER_BOUND('',#115,.T.);
#72=FACE_OUTER_BOUND('',#116,.T.);
#73=FACE_OUTER_BOUND('',#117,.T.);
#74=FACE_OUTER_BOUND('',#118,.T.);
#75=EDGE_LOOP('',(#461,#462,#463,#464));
#76=EDGE_LOOP('',(#465,#466,#467,#468));
#77=EDGE_LOOP('',(#469,#470,#471,#472));
#78=EDGE_LOOP('',(#473,#474,#475,#476));
#79=EDGE_LOOP('',(#477,#478,#479,#480));
#80=EDGE_LOOP('',(#481,#482,#483,#484,#485,#486,#487,#488,#489,#490,#491,
#492));
#81=EDGE_LOOP('',(#493,#494,#495,#496));
#82=EDGE_LOOP('',(#497,#498,#499,#500,#501,#502,#503,#504,#505,#506,#507,
#508));
#83=EDGE_LOOP('',(#509,#510,#511,#512));
#84=EDGE_LOOP('',(#513,#514,#515,#516));
#85=EDGE_LOOP('',(#517,#518,#519,#520,#521,#522,#523,#524,#525,#526));
#86=EDGE_LOOP('',(#527));
#87=EDGE_LOOP('',(#528,#529,#530,#531));
#88=EDGE_LOOP('',(#532,#533,#534,#535));
#89=EDGE_LOOP('',(#536,#537,#538,#539));
#90=EDGE_LOOP('',(#540,#541,#542,#543));
#91=EDGE_LOOP('',(#544,#545,#546,#547));
#92=EDGE_LOOP('',(#548,#549,#550,#551));
#93=EDGE_LOOP('',(#552,#553,#554,#555));
#94=EDGE_LOOP('',(#556,#557,#558,#559));
#95=EDGE_LOOP('',(#560,#561,#562,#563));
#96=EDGE_LOOP('',(#564,#565,#566,#567));
#97=EDGE_LOOP('',(#568,#569,#570,#571,#572,#573,#574,#575,#576,#577));
#98=EDGE_LOOP('',(#578));
#99=EDGE_LOOP('',(#579,#580,#581,#582,#583,#584,#585,#586,#587,#588,#589,
#590));
#100=EDGE_LOOP('',(#591));
#101=EDGE_LOOP('',(#592));
#102=EDGE_LOOP('',(#593,#594,#595,#596,#597,#598,#599,#600,#601,#602));
#103=EDGE_LOOP('',(#603));
#104=EDGE_LOOP('',(#604,#605,#606,#607,#608,#609,#610,#611,#612,#613));
#105=EDGE_LOOP('',(#614));
#106=EDGE_LOOP('',(#615,#616,#617,#618));
#107=EDGE_LOOP('',(#619,#620,#621,#622));
#108=EDGE_LOOP('',(#623,#624,#625,#626));
#109=EDGE_LOOP('',(#627,#628,#629,#630));
#110=EDGE_LOOP('',(#631,#632,#633,#634));
#111=EDGE_LOOP('',(#635,#636,#637,#638));
#112=EDGE_LOOP('',(#639,#640,#641,#642));
#113=EDGE_LOOP('',(#643,#644,#645,#646));
#114=EDGE_LOOP('',(#647,#648,#649,#650));
#115=EDGE_LOOP('',(#651,#652,#653,#654));
#116=EDGE_LOOP('',(#655,#656,#657,#658));
#117=EDGE_LOOP('',(#659,#660,#661,#662));
#118=EDGE_LOOP('',(#663,#664,#665,#666,#667,#668,#669,#670,#671,#672,#673,
#674));
#119=EDGE_LOOP('',(#675));
#120=EDGE_LOOP('',(#676));
#121=LINE('',#1095,#173);
#122=LINE('',#1098,#174);
#123=LINE('',#1103,#175);
#124=LINE('',#1110,#176);
#125=LINE('',#1113,#177);
#126=LINE('',#1119,#178);
#127=LINE('',#1125,#179);
#128=LINE('',#1128,#180);
#129=LINE('',#1133,#181);
#130=LINE('',#1137,#182);
#131=LINE('',#1142,#183);
#132=LINE('',#1146,#184);
#133=LINE('',#1153,#185);
#134=LINE('',#1156,#186);
#135=LINE('',#1161,#187);
#136=LINE('',#1165,#188);
#137=LINE('',#1170,#189);
#138=LINE('',#1177,#190);
#139=LINE('',#1186,#191);
#140=LINE('',#1190,#192);
#141=LINE('',#1198,#193);
#142=LINE('',#1203,#194);
#143=LINE('',#1206,#195);
#144=LINE('',#1208,#196);
#145=LINE('',#1209,#197);
#146=LINE('',#1213,#198);
#147=LINE('',#1216,#199);
#148=LINE('',#1217,#200);
#149=LINE('',#1225,#201);
#150=LINE('',#1228,#202);
#151=LINE('',#1230,#203);
#152=LINE('',#1231,#204);
#153=LINE('',#1237,#205);
#154=LINE('',#1240,#206);
#155=LINE('',#1242,#207);
#156=LINE('',#1243,#208);
#157=LINE('',#1253,#209);
#158=LINE('',#1256,#210);
#159=LINE('',#1261,#211);
#160=LINE('',#1265,#212);
#161=LINE('',#1272,#213);
#162=LINE('',#1276,#214);
#163=LINE('',#1279,#215);
#164=LINE('',#1281,#216);
#165=LINE('',#1282,#217);
#166=LINE('',#1288,#218);
#167=LINE('',#1291,#219);
#168=LINE('',#1292,#220);
#169=LINE('',#1296,#221);
#170=LINE('',#1298,#222);
#171=LINE('',#1303,#223);
#172=LINE('',#1304,#224);
#173=VECTOR('',#853,2.);
#174=VECTOR('',#856,2.);
#175=VECTOR('',#861,10.);
#176=VECTOR('',#868,10.);
#177=VECTOR('',#871,10.);
#178=VECTOR('',#878,10.);
#179=VECTOR('',#883,10.);
#180=VECTOR('',#886,10.);
#181=VECTOR('',#891,10.);
#182=VECTOR('',#894,10.);
#183=VECTOR('',#899,10.);
#184=VECTOR('',#902,10.);
#185=VECTOR('',#909,2.);
#186=VECTOR('',#912,2.);
#187=VECTOR('',#917,10.);
#188=VECTOR('',#920,10.);
#189=VECTOR('',#925,10.);
#190=VECTOR('',#934,10.);
#191=VECTOR('',#947,10.);
#192=VECTOR('',#950,10.);
#193=VECTOR('',#959,1.05);
#194=VECTOR('',#966,1.05);
#195=VECTOR('',#969,10.);
#196=VECTOR('',#970,10.);
#197=VECTOR('',#971,10.);
#198=VECTOR('',#976,10.);
#199=VECTOR('',#979,10.);
#200=VECTOR('',#980,10.);
#201=VECTOR('',#991,10.);
#202=VECTOR('',#994,10.);
#203=VECTOR('',#995,10.);
#204=VECTOR('',#996,10.);
#205=VECTOR('',#1003,10.);
#206=VECTOR('',#1006,10.);
#207=VECTOR('',#1007,10.);
#208=VECTOR('',#1008,10.);
#209=VECTOR('',#1023,10.);
#210=VECTOR('',#1026,10.);
#211=VECTOR('',#1031,10.);
#212=VECTOR('',#1034,10.);
#213=VECTOR('',#1043,1.05);
#214=VECTOR('',#1048,1.05);
#215=VECTOR('',#1051,10.);
#216=VECTOR('',#1052,10.);
#217=VECTOR('',#1053,10.);
#218=VECTOR('',#1062,10.);
#219=VECTOR('',#1065,10.);
#220=VECTOR('',#1066,10.);
#221=VECTOR('',#1071,10.);
#222=VECTOR('',#1074,10.);
#223=VECTOR('',#1081,10.);
#224=VECTOR('',#1082,10.);
#225=CIRCLE('',#754,2.);
#226=CIRCLE('',#755,2.);
#227=CIRCLE('',#757,7.17165365242869);
#228=CIRCLE('',#758,7.17165365242869);
#229=CIRCLE('',#760,2.99999999999991);
#230=CIRCLE('',#761,2.99999999999991);
#231=CIRCLE('',#763,2.);
#232=CIRCLE('',#764,2.);
#233=CIRCLE('',#766,2.);
#234=CIRCLE('',#767,2.);
#235=CIRCLE('',#769,70.0000016146499);
#236=CIRCLE('',#770,70.0000016146499);
#237=CIRCLE('',#771,70.0000016146499);
#238=CIRCLE('',#772,70.0000016146499);
#239=CIRCLE('',#773,70.0000016146499);
#240=CIRCLE('',#774,70.0000016146499);
#241=CIRCLE('',#776,2.);
#242=CIRCLE('',#777,2.);
#243=CIRCLE('',#779,79.999999999998);
#244=CIRCLE('',#780,79.999999999998);
#245=CIRCLE('',#781,79.999999999998);
#246=CIRCLE('',#782,79.999999999998);
#247=CIRCLE('',#783,79.999999999998);
#248=CIRCLE('',#784,79.999999999998);
#249=CIRCLE('',#786,2.99999999999993);
#250=CIRCLE('',#787,2.99999999999993);
#251=CIRCLE('',#789,7.1716536524289);
#252=CIRCLE('',#790,7.1716536524289);
#253=CIRCLE('',#792,2.99999999999993);
#254=CIRCLE('',#793,3.);
#255=CIRCLE('',#794,2.99999999999871);
#256=CIRCLE('',#795,1.05);
#257=CIRCLE('',#797,1.05);
#258=CIRCLE('',#798,1.05);
#259=CIRCLE('',#800,1.05);
#260=CIRCLE('',#803,3.);
#261=CIRCLE('',#806,2.99999999999871);
#262=CIRCLE('',#808,2.99999999999998);
#263=CIRCLE('',#809,2.99999999999998);
#264=CIRCLE('',#812,3.0000000000062);
#265=CIRCLE('',#813,3.0000000000062);
#266=CIRCLE('',#816,2.99999999999991);
#267=CIRCLE('',#818,2.99999999999993);
#268=CIRCLE('',#819,2.99999999999991);
#269=CIRCLE('',#821,2.99999999999871);
#270=CIRCLE('',#822,3.);
#271=CIRCLE('',#823,1.05);
#272=CIRCLE('',#825,3.0000000000062);
#273=CIRCLE('',#826,2.99999999999998);
#274=CIRCLE('',#827,1.05);
#275=CIRCLE('',#829,1.05);
#276=CIRCLE('',#831,1.05);
#277=CIRCLE('',#834,2.99999999999998);
#278=CIRCLE('',#836,2.99999999999871);
#279=CIRCLE('',#839,3.);
#280=CIRCLE('',#845,3.0000000000062);
#281=VERTEX_POINT('',#1091);
#282=VERTEX_POINT('',#1092);
#283=VERTEX_POINT('',#1094);
#284=VERTEX_POINT('',#1096);
#285=VERTEX_POINT('',#1100);
#286=VERTEX_POINT('',#1102);
#287=VERTEX_POINT('',#1106);
#288=VERTEX_POINT('',#1107);
#289=VERTEX_POINT('',#1109);
#290=VERTEX_POINT('',#1111);
#291=VERTEX_POINT('',#1115);
#292=VERTEX_POINT('',#1117);
#293=VERTEX_POINT('',#1121);
#294=VERTEX_POINT('',#1122);
#295=VERTEX_POINT('',#1124);
#296=VERTEX_POINT('',#1126);
#297=VERTEX_POINT('',#1130);
#298=VERTEX_POINT('',#1132);
#299=VERTEX_POINT('',#1134);
#300=VERTEX_POINT('',#1136);
#301=VERTEX_POINT('',#1139);
#302=VERTEX_POINT('',#1141);
#303=VERTEX_POINT('',#1143);
#304=VERTEX_POINT('',#1145);
#305=VERTEX_POINT('',#1149);
#306=VERTEX_POINT('',#1150);
#307=VERTEX_POINT('',#1152);
#308=VERTEX_POINT('',#1154);
#309=VERTEX_POINT('',#1158);
#310=VERTEX_POINT('',#1160);
#311=VERTEX_POINT('',#1162);
#312=VERTEX_POINT('',#1164);
#313=VERTEX_POINT('',#1167);
#314=VERTEX_POINT('',#1169);
#315=VERTEX_POINT('',#1174);
#316=VERTEX_POINT('',#1176);
#317=VERTEX_POINT('',#1183);
#318=VERTEX_POINT('',#1185);
#319=VERTEX_POINT('',#1187);
#320=VERTEX_POINT('',#1189);
#321=VERTEX_POINT('',#1192);
#322=VERTEX_POINT('',#1195);
#323=VERTEX_POINT('',#1197);
#324=VERTEX_POINT('',#1201);
#325=VERTEX_POINT('',#1205);
#326=VERTEX_POINT('',#1207);
#327=VERTEX_POINT('',#1211);
#328=VERTEX_POINT('',#1215);
#329=VERTEX_POINT('',#1221);
#330=VERTEX_POINT('',#1223);
#331=VERTEX_POINT('',#1227);
#332=VERTEX_POINT('',#1229);
#333=VERTEX_POINT('',#1233);
#334=VERTEX_POINT('',#1235);
#335=VERTEX_POINT('',#1239);
#336=VERTEX_POINT('',#1241);
#337=VERTEX_POINT('',#1250);
#338=VERTEX_POINT('',#1252);
#339=VERTEX_POINT('',#1254);
#340=VERTEX_POINT('',#1257);
#341=VERTEX_POINT('',#1260);
#342=VERTEX_POINT('',#1262);
#343=VERTEX_POINT('',#1264);
#344=VERTEX_POINT('',#1267);
#345=VERTEX_POINT('',#1270);
#346=VERTEX_POINT('',#1274);
#347=VERTEX_POINT('',#1278);
#348=VERTEX_POINT('',#1280);
#349=VERTEX_POINT('',#1286);
#350=VERTEX_POINT('',#1290);
#351=VERTEX_POINT('',#1294);
#352=VERTEX_POINT('',#1302);
#353=EDGE_CURVE('',#281,#282,#225,.T.);
#354=EDGE_CURVE('',#281,#283,#121,.T.);
#355=EDGE_CURVE('',#283,#284,#226,.F.);
#356=EDGE_CURVE('',#284,#282,#122,.T.);
#357=EDGE_CURVE('',#285,#284,#227,.T.);
#358=EDGE_CURVE('',#286,#285,#123,.T.);
#359=EDGE_CURVE('',#282,#286,#228,.T.);
#360=EDGE_CURVE('',#287,#288,#229,.T.);
#361=EDGE_CURVE('',#287,#289,#124,.T.);
#362=EDGE_CURVE('',#290,#289,#230,.T.);
#363=EDGE_CURVE('',#288,#290,#125,.T.);
#364=EDGE_CURVE('',#291,#286,#231,.F.);
#365=EDGE_CURVE('',#285,#292,#232,.F.);
#366=EDGE_CURVE('',#292,#291,#126,.T.);
#367=EDGE_CURVE('',#293,#294,#233,.F.);
#368=EDGE_CURVE('',#294,#295,#127,.T.);
#369=EDGE_CURVE('',#295,#296,#234,.F.);
#370=EDGE_CURVE('',#296,#293,#128,.T.);
#371=EDGE_CURVE('',#297,#292,#235,.T.);
#372=EDGE_CURVE('',#297,#298,#129,.T.);
#373=EDGE_CURVE('',#299,#298,#236,.T.);
#374=EDGE_CURVE('',#300,#299,#130,.T.);
#375=EDGE_CURVE('',#295,#300,#237,.T.);
#376=EDGE_CURVE('',#301,#294,#238,.T.);
#377=EDGE_CURVE('',#301,#302,#131,.T.);
#378=EDGE_CURVE('',#303,#302,#239,.T.);
#379=EDGE_CURVE('',#304,#303,#132,.T.);
#380=EDGE_CURVE('',#291,#304,#240,.T.);
#381=EDGE_CURVE('',#305,#306,#241,.F.);
#382=EDGE_CURVE('',#306,#307,#133,.T.);
#383=EDGE_CURVE('',#308,#307,#242,.T.);
#384=EDGE_CURVE('',#308,#305,#134,.T.);
#385=EDGE_CURVE('',#309,#281,#243,.T.);
#386=EDGE_CURVE('',#310,#309,#135,.T.);
#387=EDGE_CURVE('',#311,#310,#244,.T.);
#388=EDGE_CURVE('',#311,#312,#136,.T.);
#389=EDGE_CURVE('',#305,#312,#245,.T.);
#390=EDGE_CURVE('',#313,#308,#246,.T.);
#391=EDGE_CURVE('',#313,#314,#137,.T.);
#392=EDGE_CURVE('',#289,#314,#247,.T.);
#393=EDGE_CURVE('',#283,#287,#248,.T.);
#394=EDGE_CURVE('',#313,#315,#249,.T.);
#395=EDGE_CURVE('',#315,#316,#138,.T.);
#396=EDGE_CURVE('',#314,#316,#250,.T.);
#397=EDGE_CURVE('',#307,#296,#251,.T.);
#398=EDGE_CURVE('',#293,#306,#252,.T.);
#399=EDGE_CURVE('',#312,#317,#253,.T.);
#400=EDGE_CURVE('',#317,#318,#139,.T.);
#401=EDGE_CURVE('',#318,#319,#254,.T.);
#402=EDGE_CURVE('',#319,#320,#140,.T.);
#403=EDGE_CURVE('',#320,#301,#255,.T.);
#404=EDGE_CURVE('',#321,#321,#256,.T.);
#405=EDGE_CURVE('',#322,#322,#257,.T.);
#406=EDGE_CURVE('',#322,#323,#141,.T.);
#407=EDGE_CURVE('',#323,#323,#258,.T.);
#408=EDGE_CURVE('',#324,#324,#259,.T.);
#409=EDGE_CURVE('',#324,#321,#142,.T.);
#410=EDGE_CURVE('',#317,#325,#143,.T.);
#411=EDGE_CURVE('',#326,#325,#144,.T.);
#412=EDGE_CURVE('',#318,#326,#145,.T.);
#413=EDGE_CURVE('',#327,#326,#260,.T.);
#414=EDGE_CURVE('',#319,#327,#146,.T.);
#415=EDGE_CURVE('',#328,#327,#147,.T.);
#416=EDGE_CURVE('',#320,#328,#148,.T.);
#417=EDGE_CURVE('',#302,#328,#261,.T.);
#418=EDGE_CURVE('',#304,#329,#262,.T.);
#419=EDGE_CURVE('',#330,#303,#263,.T.);
#420=EDGE_CURVE('',#329,#330,#149,.T.);
#421=EDGE_CURVE('',#329,#331,#150,.T.);
#422=EDGE_CURVE('',#332,#330,#151,.T.);
#423=EDGE_CURVE('',#331,#332,#152,.T.);
#424=EDGE_CURVE('',#331,#333,#264,.T.);
#425=EDGE_CURVE('',#334,#332,#265,.T.);
#426=EDGE_CURVE('',#333,#334,#153,.T.);
#427=EDGE_CURVE('',#333,#335,#154,.T.);
#428=EDGE_CURVE('',#336,#334,#155,.T.);
#429=EDGE_CURVE('',#335,#336,#156,.T.);
#430=EDGE_CURVE('',#335,#309,#266,.T.);
#431=EDGE_CURVE('',#325,#311,#267,.T.);
#432=EDGE_CURVE('',#310,#336,#268,.T.);
#433=EDGE_CURVE('',#300,#337,#269,.T.);
#434=EDGE_CURVE('',#338,#337,#157,.T.);
#435=EDGE_CURVE('',#339,#338,#270,.T.);
#436=EDGE_CURVE('',#339,#315,#158,.T.);
#437=EDGE_CURVE('',#340,#340,#271,.T.);
#438=EDGE_CURVE('',#341,#288,#159,.T.);
#439=EDGE_CURVE('',#342,#341,#272,.T.);
#440=EDGE_CURVE('',#342,#343,#160,.T.);
#441=EDGE_CURVE('',#343,#297,#273,.T.);
#442=EDGE_CURVE('',#344,#344,#274,.T.);
#443=EDGE_CURVE('',#345,#345,#275,.T.);
#444=EDGE_CURVE('',#345,#344,#161,.T.);
#445=EDGE_CURVE('',#346,#346,#276,.T.);
#446=EDGE_CURVE('',#346,#340,#162,.T.);
#447=EDGE_CURVE('',#342,#347,#163,.T.);
#448=EDGE_CURVE('',#348,#347,#164,.T.);
#449=EDGE_CURVE('',#343,#348,#165,.T.);
#450=EDGE_CURVE('',#298,#348,#277,.T.);
#451=EDGE_CURVE('',#349,#299,#278,.T.);
#452=EDGE_CURVE('',#337,#349,#166,.T.);
#453=EDGE_CURVE('',#350,#349,#167,.T.);
#454=EDGE_CURVE('',#338,#350,#168,.T.);
#455=EDGE_CURVE('',#351,#350,#279,.T.);
#456=EDGE_CURVE('',#339,#351,#169,.T.);
#457=EDGE_CURVE('',#316,#351,#170,.T.);
#458=EDGE_CURVE('',#352,#290,#171,.T.);
#459=EDGE_CURVE('',#341,#352,#172,.T.);
#460=EDGE_CURVE('',#347,#352,#280,.T.);
#461=ORIENTED_EDGE('',*,*,#353,.F.);
#462=ORIENTED_EDGE('',*,*,#354,.T.);
#463=ORIENTED_EDGE('',*,*,#355,.T.);
#464=ORIENTED_EDGE('',*,*,#356,.T.);
#465=ORIENTED_EDGE('',*,*,#356,.F.);
#466=ORIENTED_EDGE('',*,*,#357,.F.);
#467=ORIENTED_EDGE('',*,*,#358,.F.);
#468=ORIENTED_EDGE('',*,*,#359,.F.);
#469=ORIENTED_EDGE('',*,*,#360,.F.);
#470=ORIENTED_EDGE('',*,*,#361,.T.);
#471=ORIENTED_EDGE('',*,*,#362,.F.);
#472=ORIENTED_EDGE('',*,*,#363,.F.);
#473=ORIENTED_EDGE('',*,*,#364,.T.);
#474=ORIENTED_EDGE('',*,*,#358,.T.);
#475=ORIENTED_EDGE('',*,*,#365,.T.);
#476=ORIENTED_EDGE('',*,*,#366,.T.);
#477=ORIENTED_EDGE('',*,*,#367,.T.);
#478=ORIENTED_EDGE('',*,*,#368,.T.);
#479=ORIENTED_EDGE('',*,*,#369,.T.);
#480=ORIENTED_EDGE('',*,*,#370,.T.);
#481=ORIENTED_EDGE('',*,*,#371,.F.);
#482=ORIENTED_EDGE('',*,*,#372,.T.);
#483=ORIENTED_EDGE('',*,*,#373,.F.);
#484=ORIENTED_EDGE('',*,*,#374,.F.);
#485=ORIENTED_EDGE('',*,*,#375,.F.);
#486=ORIENTED_EDGE('',*,*,#368,.F.);
#487=ORIENTED_EDGE('',*,*,#376,.F.);
#488=ORIENTED_EDGE('',*,*,#377,.T.);
#489=ORIENTED_EDGE('',*,*,#378,.F.);
#490=ORIENTED_EDGE('',*,*,#379,.F.);
#491=ORIENTED_EDGE('',*,*,#380,.F.);
#492=ORIENTED_EDGE('',*,*,#366,.F.);
#493=ORIENTED_EDGE('',*,*,#381,.T.);
#494=ORIENTED_EDGE('',*,*,#382,.T.);
#495=ORIENTED_EDGE('',*,*,#383,.F.);
#496=ORIENTED_EDGE('',*,*,#384,.T.);
#497=ORIENTED_EDGE('',*,*,#385,.F.);
#498=ORIENTED_EDGE('',*,*,#386,.F.);
#499=ORIENTED_EDGE('',*,*,#387,.F.);
#500=ORIENTED_EDGE('',*,*,#388,.T.);
#501=ORIENTED_EDGE('',*,*,#389,.F.);
#502=ORIENTED_EDGE('',*,*,#384,.F.);
#503=ORIENTED_EDGE('',*,*,#390,.F.);
#504=ORIENTED_EDGE('',*,*,#391,.T.);
#505=ORIENTED_EDGE('',*,*,#392,.F.);
#506=ORIENTED_EDGE('',*,*,#361,.F.);
#507=ORIENTED_EDGE('',*,*,#393,.F.);
#508=ORIENTED_EDGE('',*,*,#354,.F.);
#509=ORIENTED_EDGE('',*,*,#394,.T.);
#510=ORIENTED_EDGE('',*,*,#395,.T.);
#511=ORIENTED_EDGE('',*,*,#396,.F.);
#512=ORIENTED_EDGE('',*,*,#391,.F.);
#513=ORIENTED_EDGE('',*,*,#370,.F.);
#514=ORIENTED_EDGE('',*,*,#397,.F.);
#515=ORIENTED_EDGE('',*,*,#382,.F.);
#516=ORIENTED_EDGE('',*,*,#398,.F.);
#517=ORIENTED_EDGE('',*,*,#398,.T.);
#518=ORIENTED_EDGE('',*,*,#381,.F.);
#519=ORIENTED_EDGE('',*,*,#389,.T.);
#520=ORIENTED_EDGE('',*,*,#399,.T.);
#521=ORIENTED_EDGE('',*,*,#400,.T.);
#522=ORIENTED_EDGE('',*,*,#401,.T.);
#523=ORIENTED_EDGE('',*,*,#402,.T.);
#524=ORIENTED_EDGE('',*,*,#403,.T.);
#525=ORIENTED_EDGE('',*,*,#376,.T.);
#526=ORIENTED_EDGE('',*,*,#367,.F.);
#527=ORIENTED_EDGE('',*,*,#404,.T.);
#528=ORIENTED_EDGE('',*,*,#405,.F.);
#529=ORIENTED_EDGE('',*,*,#406,.T.);
#530=ORIENTED_EDGE('',*,*,#407,.F.);
#531=ORIENTED_EDGE('',*,*,#406,.F.);
#532=ORIENTED_EDGE('',*,*,#408,.F.);
#533=ORIENTED_EDGE('',*,*,#409,.T.);
#534=ORIENTED_EDGE('',*,*,#404,.F.);
#535=ORIENTED_EDGE('',*,*,#409,.F.);
#536=ORIENTED_EDGE('',*,*,#400,.F.);
#537=ORIENTED_EDGE('',*,*,#410,.T.);
#538=ORIENTED_EDGE('',*,*,#411,.F.);
#539=ORIENTED_EDGE('',*,*,#412,.F.);
#540=ORIENTED_EDGE('',*,*,#401,.F.);
#541=ORIENTED_EDGE('',*,*,#412,.T.);
#542=ORIENTED_EDGE('',*,*,#413,.F.);
#543=ORIENTED_EDGE('',*,*,#414,.F.);
#544=ORIENTED_EDGE('',*,*,#402,.F.);
#545=ORIENTED_EDGE('',*,*,#414,.T.);
#546=ORIENTED_EDGE('',*,*,#415,.F.);
#547=ORIENTED_EDGE('',*,*,#416,.F.);
#548=ORIENTED_EDGE('',*,*,#403,.F.);
#549=ORIENTED_EDGE('',*,*,#416,.T.);
#550=ORIENTED_EDGE('',*,*,#417,.F.);
#551=ORIENTED_EDGE('',*,*,#377,.F.);
#552=ORIENTED_EDGE('',*,*,#418,.F.);
#553=ORIENTED_EDGE('',*,*,#379,.T.);
#554=ORIENTED_EDGE('',*,*,#419,.F.);
#555=ORIENTED_EDGE('',*,*,#420,.F.);
#556=ORIENTED_EDGE('',*,*,#421,.F.);
#557=ORIENTED_EDGE('',*,*,#420,.T.);
#558=ORIENTED_EDGE('',*,*,#422,.F.);
#559=ORIENTED_EDGE('',*,*,#423,.F.);
#560=ORIENTED_EDGE('',*,*,#424,.F.);
#561=ORIENTED_EDGE('',*,*,#423,.T.);
#562=ORIENTED_EDGE('',*,*,#425,.F.);
#563=ORIENTED_EDGE('',*,*,#426,.F.);
#564=ORIENTED_EDGE('',*,*,#427,.F.);
#565=ORIENTED_EDGE('',*,*,#426,.T.);
#566=ORIENTED_EDGE('',*,*,#428,.F.);
#567=ORIENTED_EDGE('',*,*,#429,.F.);
#568=ORIENTED_EDGE('',*,*,#359,.T.);
#569=ORIENTED_EDGE('',*,*,#364,.F.);
#570=ORIENTED_EDGE('',*,*,#380,.T.);
#571=ORIENTED_EDGE('',*,*,#418,.T.);
#572=ORIENTED_EDGE('',*,*,#421,.T.);
#573=ORIENTED_EDGE('',*,*,#424,.T.);
#574=ORIENTED_EDGE('',*,*,#427,.T.);
#575=ORIENTED_EDGE('',*,*,#430,.T.);
#576=ORIENTED_EDGE('',*,*,#385,.T.);
#577=ORIENTED_EDGE('',*,*,#353,.T.);
#578=ORIENTED_EDGE('',*,*,#407,.T.);
#579=ORIENTED_EDGE('',*,*,#428,.T.);
#580=ORIENTED_EDGE('',*,*,#425,.T.);
#581=ORIENTED_EDGE('',*,*,#422,.T.);
#582=ORIENTED_EDGE('',*,*,#419,.T.);
#583=ORIENTED_EDGE('',*,*,#378,.T.);
#584=ORIENTED_EDGE('',*,*,#417,.T.);
#585=ORIENTED_EDGE('',*,*,#415,.T.);
#586=ORIENTED_EDGE('',*,*,#413,.T.);
#587=ORIENTED_EDGE('',*,*,#411,.T.);
#588=ORIENTED_EDGE('',*,*,#431,.T.);
#589=ORIENTED_EDGE('',*,*,#387,.T.);
#590=ORIENTED_EDGE('',*,*,#432,.T.);
#591=ORIENTED_EDGE('',*,*,#408,.T.);
#592=ORIENTED_EDGE('',*,*,#405,.T.);
#593=ORIENTED_EDGE('',*,*,#397,.T.);
#594=ORIENTED_EDGE('',*,*,#369,.F.);
#595=ORIENTED_EDGE('',*,*,#375,.T.);
#596=ORIENTED_EDGE('',*,*,#433,.T.);
#597=ORIENTED_EDGE('',*,*,#434,.F.);
#598=ORIENTED_EDGE('',*,*,#435,.F.);
#599=ORIENTED_EDGE('',*,*,#436,.T.);
#600=ORIENTED_EDGE('',*,*,#394,.F.);
#601=ORIENTED_EDGE('',*,*,#390,.T.);
#602=ORIENTED_EDGE('',*,*,#383,.T.);
#603=ORIENTED_EDGE('',*,*,#437,.F.);
#604=ORIENTED_EDGE('',*,*,#357,.T.);
#605=ORIENTED_EDGE('',*,*,#355,.F.);
#606=ORIENTED_EDGE('',*,*,#393,.T.);
#607=ORIENTED_EDGE('',*,*,#360,.T.);
#608=ORIENTED_EDGE('',*,*,#438,.F.);
#609=ORIENTED_EDGE('',*,*,#439,.F.);
#610=ORIENTED_EDGE('',*,*,#440,.T.);
#611=ORIENTED_EDGE('',*,*,#441,.T.);
#612=ORIENTED_EDGE('',*,*,#371,.T.);
#613=ORIENTED_EDGE('',*,*,#365,.F.);
#614=ORIENTED_EDGE('',*,*,#442,.F.);
#615=ORIENTED_EDGE('',*,*,#443,.F.);
#616=ORIENTED_EDGE('',*,*,#444,.T.);
#617=ORIENTED_EDGE('',*,*,#442,.T.);
#618=ORIENTED_EDGE('',*,*,#444,.F.);
#619=ORIENTED_EDGE('',*,*,#445,.F.);
#620=ORIENTED_EDGE('',*,*,#446,.T.);
#621=ORIENTED_EDGE('',*,*,#437,.T.);
#622=ORIENTED_EDGE('',*,*,#446,.F.);
#623=ORIENTED_EDGE('',*,*,#440,.F.);
#624=ORIENTED_EDGE('',*,*,#447,.T.);
#625=ORIENTED_EDGE('',*,*,#448,.F.);
#626=ORIENTED_EDGE('',*,*,#449,.F.);
#627=ORIENTED_EDGE('',*,*,#441,.F.);
#628=ORIENTED_EDGE('',*,*,#449,.T.);
#629=ORIENTED_EDGE('',*,*,#450,.F.);
#630=ORIENTED_EDGE('',*,*,#372,.F.);
#631=ORIENTED_EDGE('',*,*,#433,.F.);
#632=ORIENTED_EDGE('',*,*,#374,.T.);
#633=ORIENTED_EDGE('',*,*,#451,.F.);
#634=ORIENTED_EDGE('',*,*,#452,.F.);
#635=ORIENTED_EDGE('',*,*,#434,.T.);
#636=ORIENTED_EDGE('',*,*,#452,.T.);
#637=ORIENTED_EDGE('',*,*,#453,.F.);
#638=ORIENTED_EDGE('',*,*,#454,.F.);
#639=ORIENTED_EDGE('',*,*,#435,.T.);
#640=ORIENTED_EDGE('',*,*,#454,.T.);
#641=ORIENTED_EDGE('',*,*,#455,.F.);
#642=ORIENTED_EDGE('',*,*,#456,.F.);
#643=ORIENTED_EDGE('',*,*,#436,.F.);
#644=ORIENTED_EDGE('',*,*,#456,.T.);
#645=ORIENTED_EDGE('',*,*,#457,.F.);
#646=ORIENTED_EDGE('',*,*,#395,.F.);
#647=ORIENTED_EDGE('',*,*,#399,.F.);
#648=ORIENTED_EDGE('',*,*,#388,.F.);
#649=ORIENTED_EDGE('',*,*,#431,.F.);
#650=ORIENTED_EDGE('',*,*,#410,.F.);
#651=ORIENTED_EDGE('',*,*,#430,.F.);
#652=ORIENTED_EDGE('',*,*,#429,.T.);
#653=ORIENTED_EDGE('',*,*,#432,.F.);
#654=ORIENTED_EDGE('',*,*,#386,.T.);
#655=ORIENTED_EDGE('',*,*,#438,.T.);
#656=ORIENTED_EDGE('',*,*,#363,.T.);
#657=ORIENTED_EDGE('',*,*,#458,.F.);
#658=ORIENTED_EDGE('',*,*,#459,.F.);
#659=ORIENTED_EDGE('',*,*,#439,.T.);
#660=ORIENTED_EDGE('',*,*,#459,.T.);
#661=ORIENTED_EDGE('',*,*,#460,.F.);
#662=ORIENTED_EDGE('',*,*,#447,.F.);
#663=ORIENTED_EDGE('',*,*,#460,.T.);
#664=ORIENTED_EDGE('',*,*,#458,.T.);
#665=ORIENTED_EDGE('',*,*,#362,.T.);
#666=ORIENTED_EDGE('',*,*,#392,.T.);
#667=ORIENTED_EDGE('',*,*,#396,.T.);
#668=ORIENTED_EDGE('',*,*,#457,.T.);
#669=ORIENTED_EDGE('',*,*,#455,.T.);
#670=ORIENTED_EDGE('',*,*,#453,.T.);
#671=ORIENTED_EDGE('',*,*,#451,.T.);
#672=ORIENTED_EDGE('',*,*,#373,.T.);
#673=ORIENTED_EDGE('',*,*,#450,.T.);
#674=ORIENTED_EDGE('',*,*,#448,.T.);
#675=ORIENTED_EDGE('',*,*,#445,.T.);
#676=ORIENTED_EDGE('',*,*,#443,.T.);
#677=CYLINDRICAL_SURFACE('',#753,2.);
#678=CYLINDRICAL_SURFACE('',#756,7.17165365242869);
#679=CYLINDRICAL_SURFACE('',#759,2.99999999999991);
#680=CYLINDRICAL_SURFACE('',#762,2.);
#681=CYLINDRICAL_SURFACE('',#765,2.);
#682=CYLINDRICAL_SURFACE('',#768,70.0000016146499);
#683=CYLINDRICAL_SURFACE('',#775,2.);
#684=CYLINDRICAL_SURFACE('',#778,79.999999999998);
#685=CYLINDRICAL_SURFACE('',#785,2.99999999999993);
#686=CYLINDRICAL_SURFACE('',#788,7.1716536524289);
#687=CYLINDRICAL_SURFACE('',#796,1.05);
#688=CYLINDRICAL_SURFACE('',#799,1.05);
#689=CYLINDRICAL_SURFACE('',#802,3.);
#690=CYLINDRICAL_SURFACE('',#805,2.99999999999871);
#691=CYLINDRICAL_SURFACE('',#807,2.99999999999998);
#692=CYLINDRICAL_SURFACE('',#811,3.0000000000062);
#693=CYLINDRICAL_SURFACE('',#828,1.05);
#694=CYLINDRICAL_SURFACE('',#830,1.05);
#695=CYLINDRICAL_SURFACE('',#833,2.99999999999998);
#696=CYLINDRICAL_SURFACE('',#835,2.99999999999871);
#697=CYLINDRICAL_SURFACE('',#838,3.);
#698=CYLINDRICAL_SURFACE('',#841,2.99999999999993);
#699=CYLINDRICAL_SURFACE('',#842,2.99999999999991);
#700=CYLINDRICAL_SURFACE('',#844,3.0000000000062);
#701=ADVANCED_FACE('',(#37),#677,.T.);
#702=ADVANCED_FACE('',(#38),#678,.F.);
#703=ADVANCED_FACE('',(#39),#679,.T.);
#704=ADVANCED_FACE('',(#40),#680,.T.);
#705=ADVANCED_FACE('',(#41),#681,.T.);
#706=ADVANCED_FACE('',(#42),#682,.F.);
#707=ADVANCED_FACE('',(#43),#683,.T.);
#708=ADVANCED_FACE('',(#44),#684,.T.);
#709=ADVANCED_FACE('',(#45),#685,.T.);
#710=ADVANCED_FACE('',(#46),#686,.F.);
#711=ADVANCED_FACE('',(#47,#15),#23,.F.);
#712=ADVANCED_FACE('',(#48),#687,.F.);
#713=ADVANCED_FACE('',(#49),#688,.F.);
#714=ADVANCED_FACE('',(#50),#24,.T.);
#715=ADVANCED_FACE('',(#51),#689,.T.);
#716=ADVANCED_FACE('',(#52),#25,.T.);
#717=ADVANCED_FACE('',(#53),#690,.F.);
#718=ADVANCED_FACE('',(#54),#691,.F.);
#719=ADVANCED_FACE('',(#55),#26,.T.);
#720=ADVANCED_FACE('',(#56),#692,.T.);
#721=ADVANCED_FACE('',(#57),#27,.T.);
#722=ADVANCED_FACE('',(#58,#16),#28,.F.);
#723=ADVANCED_FACE('',(#59,#17,#18),#29,.T.);
#724=ADVANCED_FACE('',(#60,#19),#30,.F.);
#725=ADVANCED_FACE('',(#61,#20),#31,.F.);
#726=ADVANCED_FACE('',(#62),#693,.F.);
#727=ADVANCED_FACE('',(#63),#694,.F.);
#728=ADVANCED_FACE('',(#64),#32,.T.);
#729=ADVANCED_FACE('',(#65),#695,.F.);
#730=ADVANCED_FACE('',(#66),#696,.F.);
#731=ADVANCED_FACE('',(#67),#33,.T.);
#732=ADVANCED_FACE('',(#68),#697,.T.);
#733=ADVANCED_FACE('',(#69),#34,.T.);
#734=ADVANCED_FACE('',(#70),#698,.T.);
#735=ADVANCED_FACE('',(#71),#699,.T.);
#736=ADVANCED_FACE('',(#72),#35,.T.);
#737=ADVANCED_FACE('',(#73),#700,.T.);
#738=ADVANCED_FACE('',(#74,#21,#22),#36,.T.);
#739=CLOSED_SHELL('',(#701,#702,#703,#704,#705,#706,#707,#708,#709,#710,
#711,#712,#713,#714,#715,#716,#717,#718,#719,#720,#721,#722,#723,#724,#725,
#726,#727,#728,#729,#730,#731,#732,#733,#734,#735,#736,#737,#738));
#740=DERIVED_UNIT_ELEMENT(#742,1.);
#741=DERIVED_UNIT_ELEMENT(#1313,-3.);
#742=(
MASS_UNIT()
NAMED_UNIT(*)
SI_UNIT(.KILO.,.GRAM.)
);
#743=DERIVED_UNIT((#740,#741));
#744=MEASURE_REPRESENTATION_ITEM('density measure',
POSITIVE_RATIO_MEASURE(7850.),#743);
#745=PROPERTY_DEFINITION_REPRESENTATION(#750,#747);
#746=PROPERTY_DEFINITION_REPRESENTATION(#751,#748);
#747=REPRESENTATION('material name',(#749),#1310);
#748=REPRESENTATION('density',(#744),#1310);
#749=DESCRIPTIVE_REPRESENTATION_ITEM('\X2\94A2\X0\','\X2\94A2\X0\');
#750=PROPERTY_DEFINITION('material property','material name',#1320);
#751=PROPERTY_DEFINITION('material property','density of part',#1320);
#752=AXIS2_PLACEMENT_3D('',#1089,#847,#848);
#753=AXIS2_PLACEMENT_3D('',#1090,#849,#850);
#754=AXIS2_PLACEMENT_3D('',#1093,#851,#852);
#755=AXIS2_PLACEMENT_3D('',#1097,#854,#855);
#756=AXIS2_PLACEMENT_3D('',#1099,#857,#858);
#757=AXIS2_PLACEMENT_3D('',#1101,#859,#860);
#758=AXIS2_PLACEMENT_3D('',#1104,#862,#863);
#759=AXIS2_PLACEMENT_3D('',#1105,#864,#865);
#760=AXIS2_PLACEMENT_3D('',#1108,#866,#867);
#761=AXIS2_PLACEMENT_3D('',#1112,#869,#870);
#762=AXIS2_PLACEMENT_3D('',#1114,#872,#873);
#763=AXIS2_PLACEMENT_3D('',#1116,#874,#875);
#764=AXIS2_PLACEMENT_3D('',#1118,#876,#877);
#765=AXIS2_PLACEMENT_3D('',#1120,#879,#880);
#766=AXIS2_PLACEMENT_3D('',#1123,#881,#882);
#767=AXIS2_PLACEMENT_3D('',#1127,#884,#885);
#768=AXIS2_PLACEMENT_3D('',#1129,#887,#888);
#769=AXIS2_PLACEMENT_3D('',#1131,#889,#890);
#770=AXIS2_PLACEMENT_3D('',#1135,#892,#893);
#771=AXIS2_PLACEMENT_3D('',#1138,#895,#896);
#772=AXIS2_PLACEMENT_3D('',#1140,#897,#898);
#773=AXIS2_PLACEMENT_3D('',#1144,#900,#901);
#774=AXIS2_PLACEMENT_3D('',#1147,#903,#904);
#775=AXIS2_PLACEMENT_3D('',#1148,#905,#906);
#776=AXIS2_PLACEMENT_3D('',#1151,#907,#908);
#777=AXIS2_PLACEMENT_3D('',#1155,#910,#911);
#778=AXIS2_PLACEMENT_3D('',#1157,#913,#914);
#779=AXIS2_PLACEMENT_3D('',#1159,#915,#916);
#780=AXIS2_PLACEMENT_3D('',#1163,#918,#919);
#781=AXIS2_PLACEMENT_3D('',#1166,#921,#922);
#782=AXIS2_PLACEMENT_3D('',#1168,#923,#924);
#783=AXIS2_PLACEMENT_3D('',#1171,#926,#927);
#784=AXIS2_PLACEMENT_3D('',#1172,#928,#929);
#785=AXIS2_PLACEMENT_3D('',#1173,#930,#931);
#786=AXIS2_PLACEMENT_3D('',#1175,#932,#933);
#787=AXIS2_PLACEMENT_3D('',#1178,#935,#936);
#788=AXIS2_PLACEMENT_3D('',#1179,#937,#938);
#789=AXIS2_PLACEMENT_3D('',#1180,#939,#940);
#790=AXIS2_PLACEMENT_3D('',#1181,#941,#942);
#791=AXIS2_PLACEMENT_3D('',#1182,#943,#944);
#792=AXIS2_PLACEMENT_3D('',#1184,#945,#946);
#793=AXIS2_PLACEMENT_3D('',#1188,#948,#949);
#794=AXIS2_PLACEMENT_3D('',#1191,#951,#952);
#795=AXIS2_PLACEMENT_3D('',#1193,#953,#954);
#796=AXIS2_PLACEMENT_3D('',#1194,#955,#956);
#797=AXIS2_PLACEMENT_3D('',#1196,#957,#958);
#798=AXIS2_PLACEMENT_3D('',#1199,#960,#961);
#799=AXIS2_PLACEMENT_3D('',#1200,#962,#963);
#800=AXIS2_PLACEMENT_3D('',#1202,#964,#965);
#801=AXIS2_PLACEMENT_3D('',#1204,#967,#968);
#802=AXIS2_PLACEMENT_3D('',#1210,#972,#973);
#803=AXIS2_PLACEMENT_3D('',#1212,#974,#975);
#804=AXIS2_PLACEMENT_3D('',#1214,#977,#978);
#805=AXIS2_PLACEMENT_3D('',#1218,#981,#982);
#806=AXIS2_PLACEMENT_3D('',#1219,#983,#984);
#807=AXIS2_PLACEMENT_3D('',#1220,#985,#986);
#808=AXIS2_PLACEMENT_3D('',#1222,#987,#988);
#809=AXIS2_PLACEMENT_3D('',#1224,#989,#990);
#810=AXIS2_PLACEMENT_3D('',#1226,#992,#993);
#811=AXIS2_PLACEMENT_3D('',#1232,#997,#998);
#812=AXIS2_PLACEMENT_3D('',#1234,#999,#1000);
#813=AXIS2_PLACEMENT_3D('',#1236,#1001,#1002);
#814=AXIS2_PLACEMENT_3D('',#1238,#1004,#1005);
#815=AXIS2_PLACEMENT_3D('',#1244,#1009,#1010);
#816=AXIS2_PLACEMENT_3D('',#1245,#1011,#1012);
#817=AXIS2_PLACEMENT_3D('',#1246,#1013,#1014);
#818=AXIS2_PLACEMENT_3D('',#1247,#1015,#1016);
#819=AXIS2_PLACEMENT_3D('',#1248,#1017,#1018);
#820=AXIS2_PLACEMENT_3D('',#1249,#1019,#1020);
#821=AXIS2_PLACEMENT_3D('',#1251,#1021,#1022);
#822=AXIS2_PLACEMENT_3D('',#1255,#1024,#1025);
#823=AXIS2_PLACEMENT_3D('',#1258,#1027,#1028);
#824=AXIS2_PLACEMENT_3D('',#1259,#1029,#1030);
#825=AXIS2_PLACEMENT_3D('',#1263,#1032,#1033);
#826=AXIS2_PLACEMENT_3D('',#1266,#1035,#1036);
#827=AXIS2_PLACEMENT_3D('',#1268,#1037,#1038);
#828=AXIS2_PLACEMENT_3D('',#1269,#1039,#1040);
#829=AXIS2_PLACEMENT_3D('',#1271,#1041,#1042);
#830=AXIS2_PLACEMENT_3D('',#1273,#1044,#1045);
#831=AXIS2_PLACEMENT_3D('',#1275,#1046,#1047);
#832=AXIS2_PLACEMENT_3D('',#1277,#1049,#1050);
#833=AXIS2_PLACEMENT_3D('',#1283,#1054,#1055);
#834=AXIS2_PLACEMENT_3D('',#1284,#1056,#1057);
#835=AXIS2_PLACEMENT_3D('',#1285,#1058,#1059);
#836=AXIS2_PLACEMENT_3D('',#1287,#1060,#1061);
#837=AXIS2_PLACEMENT_3D('',#1289,#1063,#1064);
#838=AXIS2_PLACEMENT_3D('',#1293,#1067,#1068);
#839=AXIS2_PLACEMENT_3D('',#1295,#1069,#1070);
#840=AXIS2_PLACEMENT_3D('',#1297,#1072,#1073);
#841=AXIS2_PLACEMENT_3D('',#1299,#1075,#1076);
#842=AXIS2_PLACEMENT_3D('',#1300,#1077,#1078);
#843=AXIS2_PLACEMENT_3D('',#1301,#1079,#1080);
#844=AXIS2_PLACEMENT_3D('',#1305,#1083,#1084);
#845=AXIS2_PLACEMENT_3D('',#1306,#1085,#1086);
#846=AXIS2_PLACEMENT_3D('',#1307,#1087,#1088);
#847=DIRECTION('axis',(0.,0.,1.));
#848=DIRECTION('refdir',(1.,0.,0.));
#849=DIRECTION('center_axis',(0.,-1.,0.));
#850=DIRECTION('ref_axis',(0.437630983781339,0.,0.899154670807296));
#851=DIRECTION('center_axis',(0.,1.,0.));
#852=DIRECTION('ref_axis',(0.437630983781339,0.,0.899154670807296));
#853=DIRECTION('',(0.,-1.,0.));
#854=DIRECTION('center_axis',(0.,-1.,0.));
#855=DIRECTION('ref_axis',(0.437630983781339,0.,0.899154670807296));
#856=DIRECTION('',(0.,1.,0.));
#857=DIRECTION('center_axis',(0.,-1.,0.));
#858=DIRECTION('ref_axis',(1.,0.,0.));
#859=DIRECTION('center_axis',(0.,1.,0.));
#860=DIRECTION('ref_axis',(1.,0.,0.));
#861=DIRECTION('',(0.,-1.,0.));
#862=DIRECTION('center_axis',(0.,-1.,0.));
#863=DIRECTION('ref_axis',(1.,0.,0.));
#864=DIRECTION('center_axis',(0.,-1.,0.));
#865=DIRECTION('ref_axis',(0.499999994285065,0.,-0.866025407083958));
#866=DIRECTION('center_axis',(0.,1.,0.));
#867=DIRECTION('ref_axis',(0.499999994285065,0.,-0.866025407083958));
#868=DIRECTION('',(0.,-1.,0.));
#869=DIRECTION('center_axis',(0.,-1.,0.));
#870=DIRECTION('ref_axis',(0.499999994285065,0.,-0.866025407083958));
#871=DIRECTION('',(0.,-1.,0.));
#872=DIRECTION('center_axis',(0.,-1.,0.));
#873=DIRECTION('ref_axis',(-0.699145205733861,0.,-0.714979706914369));
#874=DIRECTION('center_axis',(0.,1.,0.));
#875=DIRECTION('ref_axis',(-0.699145205733861,0.,-0.714979706914369));
#876=DIRECTION('center_axis',(0.,-1.,0.));
#877=DIRECTION('ref_axis',(-0.699145205733861,0.,-0.714979706914369));
#878=DIRECTION('',(0.,1.,0.));
#879=DIRECTION('center_axis',(0.,-1.,0.));
#880=DIRECTION('ref_axis',(-0.968763195518099,0.,-0.247987642856579));
#881=DIRECTION('center_axis',(0.,1.,0.));
#882=DIRECTION('ref_axis',(-0.968763195518099,0.,-0.247987642856579));
#883=DIRECTION('',(0.,-1.,0.));
#884=DIRECTION('center_axis',(0.,-1.,0.));
#885=DIRECTION('ref_axis',(-0.968763195518099,0.,-0.247987642856579));
#886=DIRECTION('',(0.,1.,0.));
#887=DIRECTION('center_axis',(0.,-1.,0.));
#888=DIRECTION('ref_axis',(0.972264342410066,0.,0.233884690559091));
#889=DIRECTION('center_axis',(0.,-1.,0.));
#890=DIRECTION('ref_axis',(0.972264342410066,0.,0.233884690559091));
#891=DIRECTION('',(0.,-1.,0.));
#892=DIRECTION('center_axis',(0.,1.,0.));
#893=DIRECTION('ref_axis',(0.972264342410066,0.,0.233884690559091));
#894=DIRECTION('',(0.,-1.,0.));
#895=DIRECTION('center_axis',(0.,-1.,0.));
#896=DIRECTION('ref_axis',(0.972264342410066,0.,0.233884690559091));
#897=DIRECTION('center_axis',(0.,1.,0.));
#898=DIRECTION('ref_axis',(0.972264342410066,0.,0.233884690559091));
#899=DIRECTION('',(0.,1.,0.));
#900=DIRECTION('center_axis',(0.,-1.,0.));
#901=DIRECTION('ref_axis',(0.972264342410066,0.,0.233884690559091));
#902=DIRECTION('',(0.,1.,0.));
#903=DIRECTION('center_axis',(0.,1.,0.));
#904=DIRECTION('ref_axis',(0.972264342410066,0.,0.233884690559091));
#905=DIRECTION('center_axis',(0.,-1.,0.));
#906=DIRECTION('ref_axis',(-0.710128764676588,0.,-0.704071827002688));
#907=DIRECTION('center_axis',(0.,1.,0.));
#908=DIRECTION('ref_axis',(-0.710128764676588,0.,-0.704071827002688));
#909=DIRECTION('',(0.,-1.,0.));
#910=DIRECTION('center_axis',(0.,-1.,0.));
#911=DIRECTION('ref_axis',(-0.710128764676588,0.,-0.704071827002688));
#912=DIRECTION('',(0.,1.,0.));
#913=DIRECTION('center_axis',(0.,-1.,0.));
#914=DIRECTION('ref_axis',(0.981446600039002,0.,0.191735680747959));
#915=DIRECTION('center_axis',(0.,-1.,0.));
#916=DIRECTION('ref_axis',(0.981446600039002,0.,0.191735680747959));
#917=DIRECTION('',(0.,-1.,0.));
#918=DIRECTION('center_axis',(0.,1.,0.));
#919=DIRECTION('ref_axis',(0.981446600039002,0.,0.191735680747959));
#920=DIRECTION('',(0.,-1.,0.));
#921=DIRECTION('center_axis',(0.,-1.,0.));
#922=DIRECTION('ref_axis',(0.981446600039002,0.,0.191735680747959));
#923=DIRECTION('center_axis',(0.,1.,0.));
#924=DIRECTION('ref_axis',(0.981446600039002,0.,0.191735680747959));
#925=DIRECTION('',(0.,-1.,0.));
#926=DIRECTION('center_axis',(0.,-1.,0.));
#927=DIRECTION('ref_axis',(0.981446600039002,0.,0.191735680747959));
#928=DIRECTION('center_axis',(0.,1.,0.));
#929=DIRECTION('ref_axis',(0.981446600039002,0.,0.191735680747959));
#930=DIRECTION('center_axis',(0.,-1.,0.));
#931=DIRECTION('ref_axis',(0.656771280311457,0.,0.754089839049731));
#932=DIRECTION('center_axis',(0.,-1.,0.));
#933=DIRECTION('ref_axis',(0.656771280311457,0.,0.754089839049731));
#934=DIRECTION('',(0.,-1.,0.));
#935=DIRECTION('center_axis',(0.,-1.,0.));
#936=DIRECTION('ref_axis',(0.656771280311457,0.,0.754089839049731));
#937=DIRECTION('center_axis',(0.,-1.,0.));
#938=DIRECTION('ref_axis',(1.,0.,0.));
#939=DIRECTION('center_axis',(0.,1.,0.));
#940=DIRECTION('ref_axis',(1.,0.,0.));
#941=DIRECTION('center_axis',(0.,-1.,0.));
#942=DIRECTION('ref_axis',(1.,0.,0.));
#943=DIRECTION('center_axis',(0.,1.,0.));
#944=DIRECTION('ref_axis',(0.,0.,1.));
#945=DIRECTION('center_axis',(0.,-1.,0.));
#946=DIRECTION('ref_axis',(0.656771280311457,0.,0.754089839049731));
#947=DIRECTION('',(-0.866025407083957,0.,-0.499999994285066));
#948=DIRECTION('center_axis',(0.,-1.,0.));
#949=DIRECTION('ref_axis',(1.,0.,0.));
#950=DIRECTION('',(0.866025407083938,0.,0.499999994285099));
#951=DIRECTION('center_axis',(0.,1.,0.));
#952=DIRECTION('ref_axis',(0.688682264354441,0.,0.725063265352507));
#953=DIRECTION('center_axis',(0.,1.,0.));
#954=DIRECTION('ref_axis',(1.,0.,0.));
#955=DIRECTION('center_axis',(0.,1.,0.));
#956=DIRECTION('ref_axis',(1.,0.,0.));
#957=DIRECTION('center_axis',(0.,-1.,0.));
#958=DIRECTION('ref_axis',(1.,0.,0.));
#959=DIRECTION('',(0.,-1.,0.));
#960=DIRECTION('center_axis',(0.,1.,0.));
#961=DIRECTION('ref_axis',(1.,0.,0.));
#962=DIRECTION('center_axis',(0.,1.,0.));
#963=DIRECTION('ref_axis',(1.,0.,0.));
#964=DIRECTION('center_axis',(0.,-1.,0.));
#965=DIRECTION('ref_axis',(1.,0.,0.));
#966=DIRECTION('',(0.,-1.,0.));
#967=DIRECTION('center_axis',(-0.499999994285066,0.,0.866025407083957));
#968=DIRECTION('ref_axis',(0.866025407083957,0.,0.499999994285066));
#969=DIRECTION('',(0.,1.,0.));
#970=DIRECTION('',(0.866025407083957,0.,0.499999994285066));
#971=DIRECTION('',(0.,1.,0.));
#972=DIRECTION('center_axis',(0.,1.,0.));
#973=DIRECTION('ref_axis',(-0.866025407083957,0.,-0.499999994285066));
#974=DIRECTION('center_axis',(0.,1.,0.));
#975=DIRECTION('ref_axis',(1.,0.,0.));
#976=DIRECTION('',(0.,1.,0.));
#977=DIRECTION('center_axis',(0.499999994285099,0.,-0.866025407083938));
#978=DIRECTION('ref_axis',(-0.866025407083938,0.,-0.499999994285099));
#979=DIRECTION('',(-0.866025407083938,0.,-0.499999994285099));
#980=DIRECTION('',(0.,1.,0.));
#981=DIRECTION('center_axis',(0.,1.,0.));
#982=DIRECTION('ref_axis',(0.688682264354441,0.,0.725063265352507));
#983=DIRECTION('center_axis',(0.,-1.,0.));
#984=DIRECTION('ref_axis',(0.688682264354441,0.,0.725063265352507));
#985=DIRECTION('center_axis',(0.,1.,0.));
#986=DIRECTION('ref_axis',(0.499999994285067,0.,-0.866025407083956));
#987=DIRECTION('center_axis',(0.,1.,0.));
#988=DIRECTION('ref_axis',(0.499999994285067,0.,-0.866025407083956));
#989=DIRECTION('center_axis',(0.,-1.,0.));
#990=DIRECTION('ref_axis',(0.499999994285067,0.,-0.866025407083956));
#991=DIRECTION('',(0.,1.,0.));
#992=DIRECTION('center_axis',(-0.499999994285063,0.,0.866025407083959));
#993=DIRECTION('ref_axis',(0.866025407083959,0.,0.499999994285062));
#994=DIRECTION('',(-0.866025407083959,0.,-0.499999994285062));
#995=DIRECTION('',(0.866025407083959,0.,0.499999994285062));
#996=DIRECTION('',(0.,1.,0.));
#997=DIRECTION('center_axis',(0.,1.,0.));
#998=DIRECTION('ref_axis',(-0.86602540708394,0.,-0.499999994285096));
#999=DIRECTION('center_axis',(0.,-1.,0.));
#1000=DIRECTION('ref_axis',(1.,0.,0.));
#1001=DIRECTION('center_axis',(0.,1.,0.));
#1002=DIRECTION('ref_axis',(1.,0.,0.));
#1003=DIRECTION('',(0.,1.,0.));
#1004=DIRECTION('center_axis',(0.499999994285423,0.,-0.866025407083751));
#1005=DIRECTION('ref_axis',(-0.866025407083751,0.,-0.499999994285423));
#1006=DIRECTION('',(0.866025407083751,0.,0.499999994285423));
#1007=DIRECTION('',(-0.866025407083751,0.,-0.499999994285423));
#1008=DIRECTION('',(0.,1.,0.));
#1009=DIRECTION('center_axis',(0.,1.,0.));
#1010=DIRECTION('ref_axis',(0.,0.,1.));
#1011=DIRECTION('center_axis',(0.,-1.,0.));
#1012=DIRECTION('ref_axis',(0.499999994285065,0.,-0.866025407083958));
#1013=DIRECTION('center_axis',(0.,1.,0.));
#1014=DIRECTION('ref_axis',(0.,0.,1.));
#1015=DIRECTION('center_axis',(0.,1.,0.));
#1016=DIRECTION('ref_axis',(0.656771280311457,0.,0.754089839049731));
#1017=DIRECTION('center_axis',(0.,1.,0.));
#1018=DIRECTION('ref_axis',(0.499999994285065,0.,-0.866025407083958));
#1019=DIRECTION('center_axis',(0.,-1.,0.));
#1020=DIRECTION('ref_axis',(1.,0.,0.));
#1021=DIRECTION('center_axis',(0.,-1.,0.));
#1022=DIRECTION('ref_axis',(0.688682264354441,0.,0.725063265352507));
#1023=DIRECTION('',(0.866025407083938,0.,0.499999994285099));
#1024=DIRECTION('center_axis',(0.,-1.,0.));
#1025=DIRECTION('ref_axis',(1.,0.,0.));
#1026=DIRECTION('',(0.866025407083957,0.,0.499999994285066));
#1027=DIRECTION('center_axis',(0.,1.,0.));
#1028=DIRECTION('ref_axis',(1.,0.,0.));
#1029=DIRECTION('center_axis',(0.,-1.,0.));
#1030=DIRECTION('ref_axis',(1.,0.,0.));
#1031=DIRECTION('',(0.866025407083751,0.,0.499999994285423));
#1032=DIRECTION('center_axis',(0.,-1.,0.));
#1033=DIRECTION('ref_axis',(1.,0.,0.));
#1034=DIRECTION('',(0.866025407083959,0.,0.499999994285062));
#1035=DIRECTION('center_axis',(0.,-1.,0.));
#1036=DIRECTION('ref_axis',(0.499999994285067,0.,-0.866025407083956));
#1037=DIRECTION('center_axis',(0.,1.,0.));
#1038=DIRECTION('ref_axis',(1.,0.,0.));
#1039=DIRECTION('center_axis',(0.,-1.,0.));
#1040=DIRECTION('ref_axis',(1.,0.,0.));
#1041=DIRECTION('center_axis',(0.,1.,0.));
#1042=DIRECTION('ref_axis',(1.,0.,0.));
#1043=DIRECTION('',(0.,1.,0.));
#1044=DIRECTION('center_axis',(0.,-1.,0.));
#1045=DIRECTION('ref_axis',(1.,0.,0.));
#1046=DIRECTION('center_axis',(0.,1.,0.));
#1047=DIRECTION('ref_axis',(1.,0.,0.));
#1048=DIRECTION('',(0.,1.,0.));
#1049=DIRECTION('center_axis',(-0.499999994285063,0.,0.866025407083959));
#1050=DIRECTION('ref_axis',(-0.866025407083959,0.,-0.499999994285062));
#1051=DIRECTION('',(0.,-1.,0.));
#1052=DIRECTION('',(-0.866025407083959,0.,-0.499999994285062));
#1053=DIRECTION('',(0.,-1.,0.));
#1054=DIRECTION('center_axis',(0.,-1.,0.));
#1055=DIRECTION('ref_axis',(0.499999994285067,0.,-0.866025407083956));
#1056=DIRECTION('center_axis',(0.,1.,0.));
#1057=DIRECTION('ref_axis',(0.499999994285067,0.,-0.866025407083956));
#1058=DIRECTION('center_axis',(0.,-1.,0.));
#1059=DIRECTION('ref_axis',(0.688682264354441,0.,0.725063265352507));
#1060=DIRECTION('center_axis',(0.,1.,0.));
#1061=DIRECTION('ref_axis',(0.688682264354441,0.,0.725063265352507));
#1062=DIRECTION('',(0.,-1.,0.));
#1063=DIRECTION('center_axis',(0.499999994285099,0.,-0.866025407083938));
#1064=DIRECTION('ref_axis',(0.866025407083938,0.,0.499999994285099));
#1065=DIRECTION('',(0.866025407083938,0.,0.499999994285099));
#1066=DIRECTION('',(0.,-1.,0.));
#1067=DIRECTION('center_axis',(0.,-1.,0.));
#1068=DIRECTION('ref_axis',(-0.866025407083957,0.,-0.499999994285066));
#1069=DIRECTION('center_axis',(0.,-1.,0.));
#1070=DIRECTION('ref_axis',(1.,0.,0.));
#1071=DIRECTION('',(0.,-1.,0.));
#1072=DIRECTION('center_axis',(-0.499999994285066,0.,0.866025407083957));
#1073=DIRECTION('ref_axis',(-0.866025407083957,0.,-0.499999994285066));
#1074=DIRECTION('',(-0.866025407083957,0.,-0.499999994285066));
#1075=DIRECTION('center_axis',(0.,-1.,0.));
#1076=DIRECTION('ref_axis',(0.656771280311457,0.,0.754089839049731));
#1077=DIRECTION('center_axis',(0.,-1.,0.));
#1078=DIRECTION('ref_axis',(0.499999994285065,0.,-0.866025407083958));
#1079=DIRECTION('center_axis',(0.499999994285423,0.,-0.866025407083751));
#1080=DIRECTION('ref_axis',(0.866025407083751,0.,0.499999994285423));
#1081=DIRECTION('',(0.866025407083751,0.,0.499999994285423));
#1082=DIRECTION('',(0.,-1.,0.));
#1083=DIRECTION('center_axis',(0.,-1.,0.));
#1084=DIRECTION('ref_axis',(-0.86602540708394,0.,-0.499999994285096));
#1085=DIRECTION('center_axis',(0.,-1.,0.));
#1086=DIRECTION('ref_axis',(1.,0.,0.));
#1087=DIRECTION('center_axis',(0.,-1.,0.));
#1088=DIRECTION('ref_axis',(1.,0.,0.));
#1089=CARTESIAN_POINT('',(0.,0.,0.));
#1090=CARTESIAN_POINT('Origin',(41.1381550828007,-1.5,-28.0545349686139));
#1091=CARTESIAN_POINT('',(43.0677720309647,-1.5,-27.5286277207479));
#1092=CARTESIAN_POINT('',(40.262893115238,-1.5,-29.8528443102285));
#1093=CARTESIAN_POINT('Origin',(41.1381550828007,-1.5,-28.0545349686139));
#1094=CARTESIAN_POINT('',(43.0677720309647,-4.5,-27.5286277207479));
#1095=CARTESIAN_POINT('',(43.0677720309647,-1.5,-27.5286277207479));
#1096=CARTESIAN_POINT('',(40.262893115238,-4.5,-29.8528443102285));
#1097=CARTESIAN_POINT('Origin',(41.1381550828007,-4.5,-28.0545349686139));
#1098=CARTESIAN_POINT('',(40.262893115238,-1.5,-29.8528443102285));
#1099=CARTESIAN_POINT('Origin',(37.1243552719866,-1.5,-36.3012701892219));
#1100=CARTESIAN_POINT('',(38.8491399120151,-4.5,-29.3401112299742));
#1101=CARTESIAN_POINT('Origin',(37.1243552719866,-4.5,-36.3012701892219));
#1102=CARTESIAN_POINT('',(38.8491399120151,-1.5,-29.3401112299742));
#1103=CARTESIAN_POINT('',(38.8491399120151,-4.5,-29.3401112299742));
#1104=CARTESIAN_POINT('Origin',(37.1243552719866,-1.5,-36.3012701892219));
#1105=CARTESIAN_POINT('Origin',(41.4544823074055,-4.5,-33.8012702177958));
#1106=CARTESIAN_POINT('',(44.3988221075224,-4.5,-33.2260631755519));
#1107=CARTESIAN_POINT('',(42.9544822902606,-4.5,-36.3993464390476));
#1108=CARTESIAN_POINT('Origin',(41.4544823074055,-4.5,-33.8012702177958));
#1109=CARTESIAN_POINT('',(44.3988221075224,-6.5,-33.2260631755519));
#1110=CARTESIAN_POINT('',(44.3988221075224,-4.5,-33.2260631755519));
#1111=CARTESIAN_POINT('',(42.9544822902606,-6.5,-36.3993464390476));
#1112=CARTESIAN_POINT('Origin',(41.4544823074055,-6.5,-33.8012702177958));
#1113=CARTESIAN_POINT('',(42.9544822902606,-4.5,-36.3993464390476));
#1114=CARTESIAN_POINT('Origin',(39.3301404520912,-4.5,-27.3988130868631));
#1115=CARTESIAN_POINT('',(37.4000995995384,-1.5,-27.9231625004006));
#1116=CARTESIAN_POINT('Origin',(39.3301404520912,-1.5,-27.3988130868631));
#1117=CARTESIAN_POINT('',(37.4000995995384,-4.5,-27.9231625004006));
#1118=CARTESIAN_POINT('Origin',(39.3301404520912,-4.5,-27.3988130868631));
#1119=CARTESIAN_POINT('',(37.4000995995384,-4.5,-27.9231625004006));
#1120=CARTESIAN_POINT('Origin',(20.9370022162424,-1.5,4.45903733377109));
#1121=CARTESIAN_POINT('',(19.0152884452636,-1.5,5.01312774374988));
#1122=CARTESIAN_POINT('',(19.5178818587832,-1.5,3.04974765061689));
#1123=CARTESIAN_POINT('Origin',(20.9370022162424,-1.5,4.45903733377109));
#1124=CARTESIAN_POINT('',(19.5178818587832,-4.5,3.04974765061689));
#1125=CARTESIAN_POINT('',(19.5178818587832,-1.5,3.04974765061689));
#1126=CARTESIAN_POINT('',(19.0152884452636,-4.5,5.01312774374988));
#1127=CARTESIAN_POINT('Origin',(20.9370022162424,-4.5,4.45903733377109));
#1128=CARTESIAN_POINT('',(19.0152884452636,-1.5,5.01312774374988));
#1129=CARTESIAN_POINT('Origin',(-30.1513317979808,-4.5,-46.2753923975341));
#1130=CARTESIAN_POINT('',(37.9071737405903,-4.5,-29.9034636807559));
#1131=CARTESIAN_POINT('Origin',(-30.1513317979808,-4.5,-46.2753923975341));
#1132=CARTESIAN_POINT('',(37.9071737405903,-6.5,-29.9034636807559));
#1133=CARTESIAN_POINT('',(37.9071737405903,-4.5,-29.9034636807559));
#1134=CARTESIAN_POINT('',(18.0564278188389,-6.5,4.47903734783794));
#1135=CARTESIAN_POINT('Origin',(-30.1513317979808,-6.5,-46.2753923975341));
#1136=CARTESIAN_POINT('',(18.0564278188389,-4.5,4.47903734783794));
#1137=CARTESIAN_POINT('',(18.0564278188389,-4.5,4.47903734783794));
#1138=CARTESIAN_POINT('Origin',(-30.1513317979808,-4.5,-46.2753923975341));
#1139=CARTESIAN_POINT('',(18.0564278188389,-1.5,4.47903734783794));
#1140=CARTESIAN_POINT('Origin',(-30.1513317979808,-1.5,-46.2753923975341));
#1141=CARTESIAN_POINT('',(18.0564278188389,0.5,4.47903734783794));
#1142=CARTESIAN_POINT('',(18.0564278188389,-1.5,4.47903734783794));
#1143=CARTESIAN_POINT('',(37.9071737405903,0.5,-29.9034636807559));
#1144=CARTESIAN_POINT('Origin',(-30.1513317979808,0.5,-46.2753923975341));
#1145=CARTESIAN_POINT('',(37.9071737405903,-1.5,-29.9034636807559));
#1146=CARTESIAN_POINT('',(37.9071737405903,-1.5,-29.9034636807559));
#1147=CARTESIAN_POINT('Origin',(-30.1513317979808,-1.5,-46.2753923975341));
#1148=CARTESIAN_POINT('Origin',(21.2731377491766,-4.5,6.35268487082007));
#1149=CARTESIAN_POINT('',(22.6933952785298,-1.5,7.76082852482545));
#1150=CARTESIAN_POINT('',(19.2781251935571,-1.5,6.49384046908201));
#1151=CARTESIAN_POINT('Origin',(21.2731377491766,-1.5,6.35268487082007));
#1152=CARTESIAN_POINT('',(19.2781251935571,-4.5,6.49384046908201));
#1153=CARTESIAN_POINT('',(19.2781251935571,-4.5,6.493840469082));
#1154=CARTESIAN_POINT('',(22.6933952785298,-4.5,7.76082852482545));
#1155=CARTESIAN_POINT('Origin',(21.2731377491766,-4.5,6.35268487082007));
#1156=CARTESIAN_POINT('',(22.6933952785298,-4.5,7.76082852482545));
#1157=CARTESIAN_POINT('Origin',(-34.1169058955958,-4.5,-48.5649176353882));
#1158=CARTESIAN_POINT('',(44.3988221075224,-1.5,-33.2260631755519));
#1159=CARTESIAN_POINT('Origin',(-34.1169058955958,-1.5,-48.5649176353882));
#1160=CARTESIAN_POINT('',(44.3988221075224,0.5,-33.2260631755519));
#1161=CARTESIAN_POINT('',(44.3988221075224,-4.5,-33.2260631755519));
#1162=CARTESIAN_POINT('',(18.4247965293367,0.5,11.7622694885738));
#1163=CARTESIAN_POINT('Origin',(-34.1169058955958,0.5,-48.5649176353882));
#1164=CARTESIAN_POINT('',(18.4247965293367,-1.5,11.7622694885738));
#1165=CARTESIAN_POINT('',(18.4247965293367,-4.5,11.7622694885738));
#1166=CARTESIAN_POINT('Origin',(-34.1169058955958,-1.5,-48.5649176353882));
#1167=CARTESIAN_POINT('',(18.4247965293367,-4.5,11.7622694885738));
#1168=CARTESIAN_POINT('Origin',(-34.1169058955958,-4.5,-48.5649176353882));
#1169=CARTESIAN_POINT('',(18.4247965293367,-6.5,11.7622694885738));
#1170=CARTESIAN_POINT('',(18.4247965293367,-4.5,11.7622694885738));
#1171=CARTESIAN_POINT('Origin',(-34.1169058955958,-6.5,-48.5649176353882));
#1172=CARTESIAN_POINT('Origin',(-34.1169058955958,-4.5,-48.5649176353882));
#1173=CARTESIAN_POINT('Origin',(16.4544826884023,-4.5,9.49999997142463));
#1174=CARTESIAN_POINT('',(14.9544827055472,-4.5,12.0980761926764));
#1175=CARTESIAN_POINT('Origin',(16.4544826884023,-4.5,9.49999997142463));
#1176=CARTESIAN_POINT('',(14.9544827055472,-6.5,12.0980761926764));
#1177=CARTESIAN_POINT('',(14.9544827055472,-4.5,12.0980761926764));
#1178=CARTESIAN_POINT('Origin',(16.4544826884023,-6.5,9.49999997142463));
#1179=CARTESIAN_POINT('Origin',(12.1243556529821,-1.5,7.));
#1180=CARTESIAN_POINT('Origin',(12.1243556529821,-4.5,7.));
#1181=CARTESIAN_POINT('Origin',(12.1243556529821,-1.5,7.));
#1182=CARTESIAN_POINT('Origin',(26.7894189801938,-1.5,-13.4006351089018));
#1183=CARTESIAN_POINT('',(14.9544827055472,-1.5,12.0980761926764));
#1184=CARTESIAN_POINT('Origin',(16.4544826884023,-1.5,9.49999997142463));
#1185=CARTESIAN_POINT('',(10.6243556701269,-1.5,9.59807622125187));
#1186=CARTESIAN_POINT('',(11.706887428981,-1.5,10.2230762141077));
#1187=CARTESIAN_POINT('',(13.6243556358373,-1.5,4.40192377874813));
#1188=CARTESIAN_POINT('Origin',(12.1243556529821,-1.5,7.));
#1189=CARTESIAN_POINT('',(14.4903810429219,-1.5,4.90192377303211));
#1190=CARTESIAN_POINT('',(15.1399000982329,-1.5,5.2769237687463));
#1191=CARTESIAN_POINT('Origin',(15.9903810257765,-1.5,2.30384755178136));
#1192=CARTESIAN_POINT('',(11.0743556529821,-1.5,7.));
#1193=CARTESIAN_POINT('Origin',(12.1243556529821,-1.5,7.));
#1194=CARTESIAN_POINT('Origin',(37.1243552719866,-1.5,-36.3012701892219));
#1195=CARTESIAN_POINT('',(36.0743552719866,0.5,-36.3012701892219));
#1196=CARTESIAN_POINT('Origin',(37.1243552719866,0.5,-36.3012701892219));
#1197=CARTESIAN_POINT('',(36.0743552719866,-1.5,-36.3012701892219));
#1198=CARTESIAN_POINT('',(36.0743552719866,-1.5,-36.3012701892219));
#1199=CARTESIAN_POINT('Origin',(37.1243552719866,-1.5,-36.3012701892219));
#1200=CARTESIAN_POINT('Origin',(12.1243556529821,-1.5,7.));
#1201=CARTESIAN_POINT('',(11.0743556529821,0.5,7.));
#1202=CARTESIAN_POINT('Origin',(12.1243556529821,0.5,7.));
#1203=CARTESIAN_POINT('',(11.0743556529821,-1.5,7.));
#1204=CARTESIAN_POINT('Origin',(10.6243556701269,-1.5,9.59807622125187));
#1205=CARTESIAN_POINT('',(14.9544827055472,0.5,12.0980761926764));
#1206=CARTESIAN_POINT('',(14.9544827055472,-1.5,12.0980761926764));
#1207=CARTESIAN_POINT('',(10.6243556701269,0.5,9.59807622125187));
#1208=CARTESIAN_POINT('',(11.706887428981,0.5,10.2230762141077));
#1209=CARTESIAN_POINT('',(10.6243556701269,-1.5,9.59807622125187));
#1210=CARTESIAN_POINT('Origin',(12.1243556529821,-1.5,7.));
#1211=CARTESIAN_POINT('',(13.6243556358373,0.5,4.40192377874812));
#1212=CARTESIAN_POINT('Origin',(12.1243556529821,0.5,7.));
#1213=CARTESIAN_POINT('',(13.6243556358373,-1.5,4.40192377874813));
#1214=CARTESIAN_POINT('Origin',(14.4903810429213,-1.5,4.90192377303323));
#1215=CARTESIAN_POINT('',(14.4903810429219,0.5,4.90192377303212));
#1216=CARTESIAN_POINT('',(15.1399000982329,0.5,5.2769237687463));
#1217=CARTESIAN_POINT('',(14.4903810429219,-1.5,4.90192377303211));
#1218=CARTESIAN_POINT('Origin',(15.9903810257765,-1.5,2.30384755178136));
#1219=CARTESIAN_POINT('Origin',(15.9903810257765,0.5,2.30384755178136));
#1220=CARTESIAN_POINT('Origin',(34.9903807133601,-1.5,-30.6051177524331));
#1221=CARTESIAN_POINT('',(36.4903806962153,-1.5,-33.203193973685));
#1222=CARTESIAN_POINT('Origin',(34.9903807133601,-1.5,-30.6051177524331));
#1223=CARTESIAN_POINT('',(36.4903806962153,0.5,-33.203193973685));
#1224=CARTESIAN_POINT('Origin',(34.9903807133601,0.5,-30.6051177524331));
#1225=CARTESIAN_POINT('',(36.4903806962153,-1.5,-33.203193973685));
#1226=CARTESIAN_POINT('Origin',(35.6243552891314,-1.5,-33.7031939679701));
#1227=CARTESIAN_POINT('',(35.6243552891314,-1.5,-33.7031939679701));
#1228=CARTESIAN_POINT('',(36.7068870479853,-1.5,-33.0781939751143));
#1229=CARTESIAN_POINT('',(35.6243552891314,0.5,-33.7031939679701));
#1230=CARTESIAN_POINT('',(36.7068870479853,0.5,-33.0781939751143));
#1231=CARTESIAN_POINT('',(35.6243552891314,-1.5,-33.7031939679701));
#1232=CARTESIAN_POINT('Origin',(37.1243552719866,-1.5,-36.3012701892219));
#1233=CARTESIAN_POINT('',(38.6243552548423,-1.5,-38.8993464104744));
#1234=CARTESIAN_POINT('Origin',(37.1243552719866,-1.5,-36.3012701892219));
#1235=CARTESIAN_POINT('',(38.6243552548423,0.5,-38.8993464104744));
#1236=CARTESIAN_POINT('Origin',(37.1243552719866,0.5,-36.3012701892219));
#1237=CARTESIAN_POINT('',(38.6243552548423,-1.5,-38.8993464104744));
#1238=CARTESIAN_POINT('Origin',(42.9544822902606,-1.5,-36.3993464390476));
#1239=CARTESIAN_POINT('',(42.9544822902606,-1.5,-36.3993464390476));
#1240=CARTESIAN_POINT('',(41.8719505314101,-1.5,-37.0243464319019));
#1241=CARTESIAN_POINT('',(42.9544822902606,0.5,-36.3993464390476));
#1242=CARTESIAN_POINT('',(41.8719505314101,0.5,-37.0243464319019));
#1243=CARTESIAN_POINT('',(42.9544822902606,-1.5,-36.3993464390476));
#1244=CARTESIAN_POINT('Origin',(26.7894189801938,-1.5,-13.4006351089018));
#1245=CARTESIAN_POINT('Origin',(41.4544823074055,-1.5,-33.8012702177958));
#1246=CARTESIAN_POINT('Origin',(26.7894189801938,0.5,-13.4006351089018));
#1247=CARTESIAN_POINT('Origin',(16.4544826884023,0.5,9.49999997142463));
#1248=CARTESIAN_POINT('Origin',(41.4544823074055,0.5,-33.8012702177958));
#1249=CARTESIAN_POINT('Origin',(26.7894189801938,-4.5,-13.4006351089018));
#1250=CARTESIAN_POINT('',(14.4903810429219,-4.5,4.90192377303211));
#1251=CARTESIAN_POINT('Origin',(15.9903810257765,-4.5,2.30384755178136));
#1252=CARTESIAN_POINT('',(13.6243556358373,-4.5,4.40192377874813));
#1253=CARTESIAN_POINT('',(13.6243556358373,-4.5,4.40192377874813));
#1254=CARTESIAN_POINT('',(10.6243556701269,-4.5,9.59807622125187));
#1255=CARTESIAN_POINT('Origin',(12.1243556529821,-4.5,7.));
#1256=CARTESIAN_POINT('',(10.6243556701269,-4.5,9.59807622125187));
#1257=CARTESIAN_POINT('',(11.0743556529821,-4.5,7.));
#1258=CARTESIAN_POINT('Origin',(12.1243556529821,-4.5,7.));
#1259=CARTESIAN_POINT('Origin',(26.7894189801938,-4.5,-13.4006351089018));
#1260=CARTESIAN_POINT('',(38.6243552548423,-4.5,-38.8993464104744));
#1261=CARTESIAN_POINT('',(38.6243552548423,-4.5,-38.8993464104744));
#1262=CARTESIAN_POINT('',(35.6243552891314,-4.5,-33.7031939679701));
#1263=CARTESIAN_POINT('Origin',(37.1243552719866,-4.5,-36.3012701892219));
#1264=CARTESIAN_POINT('',(36.4903806962153,-4.5,-33.203193973685));
#1265=CARTESIAN_POINT('',(35.6243552891314,-4.5,-33.7031939679701));
#1266=CARTESIAN_POINT('Origin',(34.9903807133601,-4.5,-30.6051177524331));
#1267=CARTESIAN_POINT('',(36.0743552719866,-4.5,-36.3012701892219));
#1268=CARTESIAN_POINT('Origin',(37.1243552719866,-4.5,-36.3012701892219));
#1269=CARTESIAN_POINT('Origin',(37.1243552719866,-4.5,-36.3012701892219));
#1270=CARTESIAN_POINT('',(36.0743552719866,-6.5,-36.3012701892219));
#1271=CARTESIAN_POINT('Origin',(37.1243552719866,-6.5,-36.3012701892219));
#1272=CARTESIAN_POINT('',(36.0743552719866,-4.5,-36.3012701892219));
#1273=CARTESIAN_POINT('Origin',(12.1243556529821,-4.5,7.));
#1274=CARTESIAN_POINT('',(11.0743556529821,-6.5,7.));
#1275=CARTESIAN_POINT('Origin',(12.1243556529821,-6.5,7.));
#1276=CARTESIAN_POINT('',(11.0743556529821,-4.5,7.));
#1277=CARTESIAN_POINT('Origin',(36.4903806962153,-4.5,-33.203193973685));
#1278=CARTESIAN_POINT('',(35.6243552891314,-6.5,-33.7031939679701));
#1279=CARTESIAN_POINT('',(35.6243552891314,-4.5,-33.7031939679701));
#1280=CARTESIAN_POINT('',(36.4903806962153,-6.5,-33.203193973685));
#1281=CARTESIAN_POINT('',(35.6243552891314,-6.5,-33.7031939679701));
#1282=CARTESIAN_POINT('',(36.4903806962153,-4.5,-33.203193973685));
#1283=CARTESIAN_POINT('Origin',(34.9903807133601,-4.5,-30.6051177524331));
#1284=CARTESIAN_POINT('Origin',(34.9903807133601,-6.5,-30.6051177524331));
#1285=CARTESIAN_POINT('Origin',(15.9903810257765,-4.5,2.30384755178136));
#1286=CARTESIAN_POINT('',(14.4903810429219,-6.5,4.90192377303211));
#1287=CARTESIAN_POINT('Origin',(15.9903810257765,-6.5,2.30384755178136));
#1288=CARTESIAN_POINT('',(14.4903810429219,-4.5,4.90192377303211));
#1289=CARTESIAN_POINT('Origin',(13.6243556358373,-4.5,4.40192377874813));
#1290=CARTESIAN_POINT('',(13.6243556358373,-6.5,4.40192377874813));
#1291=CARTESIAN_POINT('',(13.6243556358373,-6.5,4.40192377874813));
#1292=CARTESIAN_POINT('',(13.6243556358373,-4.5,4.40192377874813));
#1293=CARTESIAN_POINT('Origin',(12.1243556529821,-4.5,7.));
#1294=CARTESIAN_POINT('',(10.6243556701269,-6.5,9.59807622125187));
#1295=CARTESIAN_POINT('Origin',(12.1243556529821,-6.5,7.));
#1296=CARTESIAN_POINT('',(10.6243556701269,-4.5,9.59807622125187));
#1297=CARTESIAN_POINT('Origin',(14.9544827055467,-4.5,12.0980761926772));
#1298=CARTESIAN_POINT('',(10.6243556701269,-6.5,9.59807622125187));
#1299=CARTESIAN_POINT('Origin',(16.4544826884023,-4.5,9.49999997142463));
#1300=CARTESIAN_POINT('Origin',(41.4544823074055,-4.5,-33.8012702177958));
#1301=CARTESIAN_POINT('Origin',(38.6243552548423,-4.5,-38.8993464104744));
#1302=CARTESIAN_POINT('',(38.6243552548423,-6.5,-38.8993464104744));
#1303=CARTESIAN_POINT('',(38.6243552548423,-6.5,-38.8993464104744));
#1304=CARTESIAN_POINT('',(38.6243552548423,-4.5,-38.8993464104744));
#1305=CARTESIAN_POINT('Origin',(37.1243552719866,-4.5,-36.3012701892219));
#1306=CARTESIAN_POINT('Origin',(37.1243552719866,-6.5,-36.3012701892219));
#1307=CARTESIAN_POINT('Origin',(26.7894189801938,-6.5,-13.4006351089018));
#1308=UNCERTAINTY_MEASURE_WITH_UNIT(LENGTH_MEASURE(0.01),#1312,
'DISTANCE_ACCURACY_VALUE',
'Maximum model space distance between geometric entities at asserted c
onnectivities');
#1309=UNCERTAINTY_MEASURE_WITH_UNIT(LENGTH_MEASURE(0.01),#1312,
'DISTANCE_ACCURACY_VALUE',
'Maximum model space distance between geometric entities at asserted c
onnectivities');
#1310=(
GEOMETRIC_REPRESENTATION_CONTEXT(3)
GLOBAL_UNCERTAINTY_ASSIGNED_CONTEXT((#1308))
GLOBAL_UNIT_ASSIGNED_CONTEXT((#1312,#1314,#1315))
REPRESENTATION_CONTEXT('','3D')
);
#1311=(
GEOMETRIC_REPRESENTATION_CONTEXT(3)
GLOBAL_UNCERTAINTY_ASSIGNED_CONTEXT((#1309))
GLOBAL_UNIT_ASSIGNED_CONTEXT((#1312,#1314,#1315))
REPRESENTATION_CONTEXT('','3D')
);
#1312=(
LENGTH_UNIT()
NAMED_UNIT(*)
SI_UNIT(.MILLI.,.METRE.)
);
#1313=(
LENGTH_UNIT()
NAMED_UNIT(*)
SI_UNIT($,.METRE.)
);
#1314=(
NAMED_UNIT(*)
PLANE_ANGLE_UNIT()
SI_UNIT($,.RADIAN.)
);
#1315=(
NAMED_UNIT(*)
SI_UNIT($,.STERADIAN.)
SOLID_ANGLE_UNIT()
);
#1316=SHAPE_DEFINITION_REPRESENTATION(#1317,#1318);
#1317=PRODUCT_DEFINITION_SHAPE('',$,#1320);
#1318=SHAPE_REPRESENTATION('',(#752),#1310);
#1319=PRODUCT_DEFINITION_CONTEXT('part definition',#1324,'design');
#1320=PRODUCT_DEFINITION('\X2\819D76D64F2052A8\X0\2','\X2\819D76D64F2052A8\X0\2',
#1321,#1319);
#1321=PRODUCT_DEFINITION_FORMATION('',$,#1326);
#1322=PRODUCT_RELATED_PRODUCT_CATEGORY('\X2\819D76D64F2052A8\X0\2',
'\X2\819D76D64F2052A8\X0\2',(#1326));
#1323=APPLICATION_PROTOCOL_DEFINITION('international standard',
'automotive_design',2009,#1324);
#1324=APPLICATION_CONTEXT(
'Core Data for Automotive Mechanical Design Process');
#1325=PRODUCT_CONTEXT('part definition',#1324,'mechanical');
#1326=PRODUCT('\X2\819D76D64F2052A8\X0\2','\X2\819D76D64F2052A8\X0\2',$,
(#1325));
#1327=PRESENTATION_STYLE_ASSIGNMENT((#1328));
#1328=SURFACE_STYLE_USAGE(.BOTH.,#1329);
#1329=SURFACE_SIDE_STYLE('',(#1330));
#1330=SURFACE_STYLE_FILL_AREA(#1331);
#1331=FILL_AREA_STYLE('\X2\94A2\X0\ - \X2\7F0E5149\X0\',(#1332));
#1332=FILL_AREA_STYLE_COLOUR('\X2\94A2\X0\ - \X2\7F0E5149\X0\',#1333);
#1333=COLOUR_RGB('\X2\94A2\X0\ - \X2\7F0E5149\X0\',0.627450980392157,0.627450980392157,
0.627450980392157);
ENDSEC;
END-ISO-10303-21;
