ISO-10303-21;
HEADER;
/* Generated by software containing ST-Developer
 * from STEP Tools, Inc. (www.steptools.com) 
 */

FILE_DESCRIPTION(
/* description */ (''),
/* implementation_level */ '2;1');

FILE_NAME(
/* name */ '',
/* time_stamp */ '2026-07-15T11:32:03+08:00',
/* author */ (''),
/* organization */ (''),
/* preprocessor_version */ 'ST-DEVELOPER v20.1',
/* originating_system */ 'Autodesk Translation Framework v15.8.0.0',
/* authorisation */ '');

FILE_SCHEMA (('AUTOMOTIVE_DESIGN { 1 0 10303 214 3 1 1 }'));
ENDSEC;

DATA;
#10=MECHANICAL_DESIGN_GEOMETRIC_PRESENTATION_REPRESENTATION('',(#27,#28),
#640);
#11=ITEM_DEFINED_TRANSFORMATION($,$,#360,#412);
#12=(
REPRESENTATION_RELATIONSHIP($,$,#651,#650)
REPRESENTATION_RELATIONSHIP_WITH_TRANSFORMATION(#11)
SHAPE_REPRESENTATION_RELATIONSHIP()
);
#13=CONTEXT_DEPENDENT_SHAPE_REPRESENTATION(#12,#649);
#14=NEXT_ASSEMBLY_USAGE_OCCURRENCE('COL_\X2\5C0F817F8FDE63A5\X0\:1',
'COL_\X2\5C0F817F8FDE63A5\X0\:1','COL_\X2\5C0F817F8FDE63A5\X0\:1',#653,
#654,'COL_\X2\5C0F817F8FDE63A5\X0\:1');
#15=CONICAL_SURFACE('',#402,5.36567395951885,0.785398214196853);
#16=CONICAL_SURFACE('',#411,5.36567408591015,0.785398112598027);
#17=TOROIDAL_SURFACE('',#396,4.41766626729493,1.55);
#18=FACE_BOUND('',#71,.T.);
#19=FACE_BOUND('',#77,.T.);
#20=FACE_BOUND('',#79,.T.);
#21=FACE_BOUND('',#84,.T.);
#22=FACE_BOUND('',#86,.T.);
#23=SHAPE_REPRESENTATION_RELATIONSHIP('SRR','None',#651,#25);
#24=SHAPE_REPRESENTATION_RELATIONSHIP('SRR','None',#650,#26);
#25=ADVANCED_BREP_SHAPE_REPRESENTATION('',(#29),#639);
#26=ADVANCED_BREP_SHAPE_REPRESENTATION('',(#30),#638);
#27=STYLED_ITEM('',(#664),#29);
#28=STYLED_ITEM('',(#664),#30);
#29=MANIFOLD_SOLID_BREP('COL_\X2\5C0F817F8FDE63A5\X0\',#345);
#30=MANIFOLD_SOLID_BREP('\X2\5C0F817F\X0\',#346);
#31=PLANE('',#364);
#32=PLANE('',#365);
#33=PLANE('',#369);
#34=PLANE('',#373);
#35=PLANE('',#375);
#36=PLANE('',#394);
#37=PLANE('',#395);
#38=PLANE('',#406);
#39=PLANE('',#407);
#40=FACE_OUTER_BOUND('',#62,.T.);
#41=FACE_OUTER_BOUND('',#63,.T.);
#42=FACE_OUTER_BOUND('',#64,.T.);
#43=FACE_OUTER_BOUND('',#65,.T.);
#44=FACE_OUTER_BOUND('',#66,.T.);
#45=FACE_OUTER_BOUND('',#67,.T.);
#46=FACE_OUTER_BOUND('',#68,.T.);
#47=FACE_OUTER_BOUND('',#69,.T.);
#48=FACE_OUTER_BOUND('',#70,.T.);
#49=FACE_OUTER_BOUND('',#72,.T.);
#50=FACE_OUTER_BOUND('',#73,.T.);
#51=FACE_OUTER_BOUND('',#74,.T.);
#52=FACE_OUTER_BOUND('',#75,.T.);
#53=FACE_OUTER_BOUND('',#76,.T.);
#54=FACE_OUTER_BOUND('',#78,.T.);
#55=FACE_OUTER_BOUND('',#80,.T.);
#56=FACE_OUTER_BOUND('',#81,.T.);
#57=FACE_OUTER_BOUND('',#82,.T.);
#58=FACE_OUTER_BOUND('',#83,.T.);
#59=FACE_OUTER_BOUND('',#85,.T.);
#60=FACE_OUTER_BOUND('',#87,.T.);
#61=FACE_OUTER_BOUND('',#88,.T.);
#62=EDGE_LOOP('',(#223,#224,#225,#226));
#63=EDGE_LOOP('',(#227));
#64=EDGE_LOOP('',(#228));
#65=EDGE_LOOP('',(#229,#230,#231,#232));
#66=EDGE_LOOP('',(#233,#234,#235,#236));
#67=EDGE_LOOP('',(#237,#238,#239,#240));
#68=EDGE_LOOP('',(#241,#242,#243,#244));
#69=EDGE_LOOP('',(#245,#246,#247,#248));
#70=EDGE_LOOP('',(#249,#250,#251,#252));
#71=EDGE_LOOP('',(#253,#254,#255,#256));
#72=EDGE_LOOP('',(#257,#258,#259,#260));
#73=EDGE_LOOP('',(#261,#262,#263,#264));
#74=EDGE_LOOP('',(#265,#266,#267,#268));
#75=EDGE_LOOP('',(#269,#270,#271,#272));
#76=EDGE_LOOP('',(#273,#274,#275,#276));
#77=EDGE_LOOP('',(#277));
#78=EDGE_LOOP('',(#278,#279,#280,#281));
#79=EDGE_LOOP('',(#282));
#80=EDGE_LOOP('',(#283,#284,#285,#286,#287,#288));
#81=EDGE_LOOP('',(#289,#290,#291,#292,#293));
#82=EDGE_LOOP('',(#294,#295,#296,#297));
#83=EDGE_LOOP('',(#298,#299));
#84=EDGE_LOOP('',(#300));
#85=EDGE_LOOP('',(#301,#302));
#86=EDGE_LOOP('',(#303));
#87=EDGE_LOOP('',(#304,#305,#306,#307));
#88=EDGE_LOOP('',(#308,#309,#310,#311,#312));
#89=LINE('',#543,#105);
#90=LINE('',#552,#106);
#91=LINE('',#555,#107);
#92=LINE('',#559,#108);
#93=LINE('',#561,#109);
#94=LINE('',#563,#110);
#95=LINE('',#564,#111);
#96=LINE('',#577,#112);
#97=LINE('',#581,#113);
#98=LINE('',#587,#114);
#99=LINE('',#594,#115);
#100=LINE('',#597,#116);
#101=LINE('',#618,#117);
#102=LINE('',#622,#118);
#103=LINE('',#630,#119);
#104=LINE('',#633,#120);
#105=VECTOR('',#421,3.);
#106=VECTOR('',#432,10.);
#107=VECTOR('',#435,10.);
#108=VECTOR('',#438,10.);
#109=VECTOR('',#439,10.);
#110=VECTOR('',#440,10.);
#111=VECTOR('',#441,10.);
#112=VECTOR('',#462,10.);
#113=VECTOR('',#465,10.);
#114=VECTOR('',#472,1.15);
#115=VECTOR('',#479,10.);
#116=VECTOR('',#482,10.);
#117=VECTOR('',#513,5.36567395951885);
#118=VECTOR('',#518,5.21766616843848);
#119=VECTOR('',#529,5.21766636615137);
#120=VECTOR('',#534,5.36567408591015);
#121=CIRCLE('',#362,3.);
#122=CIRCLE('',#363,3.);
#123=CIRCLE('',#367,41.8290481690211);
#124=CIRCLE('',#368,41.8290481690211);
#125=CIRCLE('',#371,4.);
#126=CIRCLE('',#372,4.);
#127=CIRCLE('',#374,7.56766639429346);
#128=CIRCLE('',#376,7.56766614029639);
#129=CIRCLE('',#378,7.56766639429346);
#130=CIRCLE('',#379,7.56766614029639);
#131=CIRCLE('',#380,7.56766626729494);
#132=CIRCLE('',#381,7.56766626729494);
#133=CIRCLE('',#383,1.15);
#134=CIRCLE('',#384,1.15);
#135=CIRCLE('',#386,3.);
#136=CIRCLE('',#387,3.);
#137=CIRCLE('',#389,5.99999999999999);
#138=CIRCLE('',#390,5.99999999999999);
#139=CIRCLE('',#392,6.00000000000001);
#140=CIRCLE('',#393,6.00000000000001);
#141=CIRCLE('',#397,5.51368183381102);
#142=CIRCLE('',#398,1.55);
#143=CIRCLE('',#399,5.51368172245713);
#144=CIRCLE('',#400,5.51368172245713);
#145=CIRCLE('',#401,5.51368183381102);
#146=CIRCLE('',#403,5.21766619658057);
#147=CIRCLE('',#405,5.21766614029639);
#148=CIRCLE('',#408,5.21766639429346);
#149=CIRCLE('',#410,5.21766633800928);
#150=VERTEX_POINT('',#540);
#151=VERTEX_POINT('',#542);
#152=VERTEX_POINT('',#548);
#153=VERTEX_POINT('',#549);
#154=VERTEX_POINT('',#551);
#155=VERTEX_POINT('',#553);
#156=VERTEX_POINT('',#557);
#157=VERTEX_POINT('',#558);
#158=VERTEX_POINT('',#560);
#159=VERTEX_POINT('',#562);
#160=VERTEX_POINT('',#575);
#161=VERTEX_POINT('',#576);
#162=VERTEX_POINT('',#578);
#163=VERTEX_POINT('',#580);
#164=VERTEX_POINT('',#584);
#165=VERTEX_POINT('',#586);
#166=VERTEX_POINT('',#590);
#167=VERTEX_POINT('',#591);
#168=VERTEX_POINT('',#593);
#169=VERTEX_POINT('',#595);
#170=VERTEX_POINT('',#607);
#171=VERTEX_POINT('',#608);
#172=VERTEX_POINT('',#610);
#173=VERTEX_POINT('',#612);
#174=VERTEX_POINT('',#617);
#175=VERTEX_POINT('',#621);
#176=VERTEX_POINT('',#626);
#177=VERTEX_POINT('',#629);
#178=EDGE_CURVE('',#150,#150,#121,.T.);
#179=EDGE_CURVE('',#150,#151,#89,.T.);
#180=EDGE_CURVE('',#151,#151,#122,.T.);
#181=EDGE_CURVE('',#152,#153,#123,.T.);
#182=EDGE_CURVE('',#153,#154,#90,.T.);
#183=EDGE_CURVE('',#155,#154,#124,.T.);
#184=EDGE_CURVE('',#152,#155,#91,.T.);
#185=EDGE_CURVE('',#156,#157,#92,.T.);
#186=EDGE_CURVE('',#158,#157,#93,.T.);
#187=EDGE_CURVE('',#159,#158,#94,.T.);
#188=EDGE_CURVE('',#156,#159,#95,.T.);
#189=EDGE_CURVE('',#156,#153,#125,.T.);
#190=EDGE_CURVE('',#154,#159,#126,.T.);
#191=EDGE_CURVE('',#157,#152,#127,.T.);
#192=EDGE_CURVE('',#158,#155,#128,.T.);
#193=EDGE_CURVE('',#152,#157,#129,.T.);
#194=EDGE_CURVE('',#155,#158,#130,.T.);
#195=EDGE_CURVE('',#160,#161,#96,.T.);
#196=EDGE_CURVE('',#160,#162,#131,.T.);
#197=EDGE_CURVE('',#162,#163,#97,.T.);
#198=EDGE_CURVE('',#163,#161,#132,.T.);
#199=EDGE_CURVE('',#164,#164,#133,.T.);
#200=EDGE_CURVE('',#164,#165,#98,.T.);
#201=EDGE_CURVE('',#165,#165,#134,.T.);
#202=EDGE_CURVE('',#166,#167,#135,.T.);
#203=EDGE_CURVE('',#166,#168,#99,.T.);
#204=EDGE_CURVE('',#169,#168,#136,.T.);
#205=EDGE_CURVE('',#167,#169,#100,.T.);
#206=EDGE_CURVE('',#162,#167,#137,.T.);
#207=EDGE_CURVE('',#163,#169,#138,.T.);
#208=EDGE_CURVE('',#166,#160,#139,.T.);
#209=EDGE_CURVE('',#168,#161,#140,.T.);
#210=EDGE_CURVE('',#170,#171,#141,.T.);
#211=EDGE_CURVE('',#171,#172,#142,.T.);
#212=EDGE_CURVE('',#173,#172,#143,.T.);
#213=EDGE_CURVE('',#172,#173,#144,.T.);
#214=EDGE_CURVE('',#171,#170,#145,.T.);
#215=EDGE_CURVE('',#173,#174,#101,.T.);
#216=EDGE_CURVE('',#174,#174,#146,.T.);
#217=EDGE_CURVE('',#174,#175,#102,.T.);
#218=EDGE_CURVE('',#175,#175,#147,.T.);
#219=EDGE_CURVE('',#176,#176,#148,.T.);
#220=EDGE_CURVE('',#176,#177,#103,.T.);
#221=EDGE_CURVE('',#177,#177,#149,.T.);
#222=EDGE_CURVE('',#177,#170,#104,.T.);
#223=ORIENTED_EDGE('',*,*,#178,.F.);
#224=ORIENTED_EDGE('',*,*,#179,.T.);
#225=ORIENTED_EDGE('',*,*,#180,.F.);
#226=ORIENTED_EDGE('',*,*,#179,.F.);
#227=ORIENTED_EDGE('',*,*,#180,.T.);
#228=ORIENTED_EDGE('',*,*,#178,.T.);
#229=ORIENTED_EDGE('',*,*,#181,.T.);
#230=ORIENTED_EDGE('',*,*,#182,.T.);
#231=ORIENTED_EDGE('',*,*,#183,.F.);
#232=ORIENTED_EDGE('',*,*,#184,.F.);
#233=ORIENTED_EDGE('',*,*,#185,.T.);
#234=ORIENTED_EDGE('',*,*,#186,.F.);
#235=ORIENTED_EDGE('',*,*,#187,.F.);
#236=ORIENTED_EDGE('',*,*,#188,.F.);
#237=ORIENTED_EDGE('',*,*,#189,.F.);
#238=ORIENTED_EDGE('',*,*,#188,.T.);
#239=ORIENTED_EDGE('',*,*,#190,.F.);
#240=ORIENTED_EDGE('',*,*,#182,.F.);
#241=ORIENTED_EDGE('',*,*,#189,.T.);
#242=ORIENTED_EDGE('',*,*,#181,.F.);
#243=ORIENTED_EDGE('',*,*,#191,.F.);
#244=ORIENTED_EDGE('',*,*,#185,.F.);
#245=ORIENTED_EDGE('',*,*,#190,.T.);
#246=ORIENTED_EDGE('',*,*,#187,.T.);
#247=ORIENTED_EDGE('',*,*,#192,.T.);
#248=ORIENTED_EDGE('',*,*,#183,.T.);
#249=ORIENTED_EDGE('',*,*,#186,.T.);
#250=ORIENTED_EDGE('',*,*,#193,.F.);
#251=ORIENTED_EDGE('',*,*,#184,.T.);
#252=ORIENTED_EDGE('',*,*,#194,.T.);
#253=ORIENTED_EDGE('',*,*,#195,.F.);
#254=ORIENTED_EDGE('',*,*,#196,.T.);
#255=ORIENTED_EDGE('',*,*,#197,.T.);
#256=ORIENTED_EDGE('',*,*,#198,.T.);
#257=ORIENTED_EDGE('',*,*,#199,.F.);
#258=ORIENTED_EDGE('',*,*,#200,.T.);
#259=ORIENTED_EDGE('',*,*,#201,.F.);
#260=ORIENTED_EDGE('',*,*,#200,.F.);
#261=ORIENTED_EDGE('',*,*,#202,.F.);
#262=ORIENTED_EDGE('',*,*,#203,.T.);
#263=ORIENTED_EDGE('',*,*,#204,.F.);
#264=ORIENTED_EDGE('',*,*,#205,.F.);
#265=ORIENTED_EDGE('',*,*,#206,.T.);
#266=ORIENTED_EDGE('',*,*,#205,.T.);
#267=ORIENTED_EDGE('',*,*,#207,.F.);
#268=ORIENTED_EDGE('',*,*,#197,.F.);
#269=ORIENTED_EDGE('',*,*,#208,.T.);
#270=ORIENTED_EDGE('',*,*,#195,.T.);
#271=ORIENTED_EDGE('',*,*,#209,.F.);
#272=ORIENTED_EDGE('',*,*,#203,.F.);
#273=ORIENTED_EDGE('',*,*,#208,.F.);
#274=ORIENTED_EDGE('',*,*,#202,.T.);
#275=ORIENTED_EDGE('',*,*,#206,.F.);
#276=ORIENTED_EDGE('',*,*,#196,.F.);
#277=ORIENTED_EDGE('',*,*,#201,.T.);
#278=ORIENTED_EDGE('',*,*,#209,.T.);
#279=ORIENTED_EDGE('',*,*,#198,.F.);
#280=ORIENTED_EDGE('',*,*,#207,.T.);
#281=ORIENTED_EDGE('',*,*,#204,.T.);
#282=ORIENTED_EDGE('',*,*,#199,.T.);
#283=ORIENTED_EDGE('',*,*,#210,.T.);
#284=ORIENTED_EDGE('',*,*,#211,.T.);
#285=ORIENTED_EDGE('',*,*,#212,.F.);
#286=ORIENTED_EDGE('',*,*,#213,.F.);
#287=ORIENTED_EDGE('',*,*,#211,.F.);
#288=ORIENTED_EDGE('',*,*,#214,.T.);
#289=ORIENTED_EDGE('',*,*,#212,.T.);
#290=ORIENTED_EDGE('',*,*,#213,.T.);
#291=ORIENTED_EDGE('',*,*,#215,.T.);
#292=ORIENTED_EDGE('',*,*,#216,.F.);
#293=ORIENTED_EDGE('',*,*,#215,.F.);
#294=ORIENTED_EDGE('',*,*,#216,.T.);
#295=ORIENTED_EDGE('',*,*,#217,.T.);
#296=ORIENTED_EDGE('',*,*,#218,.F.);
#297=ORIENTED_EDGE('',*,*,#217,.F.);
#298=ORIENTED_EDGE('',*,*,#194,.F.);
#299=ORIENTED_EDGE('',*,*,#192,.F.);
#300=ORIENTED_EDGE('',*,*,#218,.T.);
#301=ORIENTED_EDGE('',*,*,#193,.T.);
#302=ORIENTED_EDGE('',*,*,#191,.T.);
#303=ORIENTED_EDGE('',*,*,#219,.F.);
#304=ORIENTED_EDGE('',*,*,#219,.T.);
#305=ORIENTED_EDGE('',*,*,#220,.T.);
#306=ORIENTED_EDGE('',*,*,#221,.F.);
#307=ORIENTED_EDGE('',*,*,#220,.F.);
#308=ORIENTED_EDGE('',*,*,#221,.T.);
#309=ORIENTED_EDGE('',*,*,#222,.T.);
#310=ORIENTED_EDGE('',*,*,#214,.F.);
#311=ORIENTED_EDGE('',*,*,#210,.F.);
#312=ORIENTED_EDGE('',*,*,#222,.F.);
#313=CYLINDRICAL_SURFACE('',#361,3.);
#314=CYLINDRICAL_SURFACE('',#366,41.8290481690211);
#315=CYLINDRICAL_SURFACE('',#370,4.);
#316=CYLINDRICAL_SURFACE('',#377,7.56766626729493);
#317=CYLINDRICAL_SURFACE('',#382,1.15);
#318=CYLINDRICAL_SURFACE('',#385,3.);
#319=CYLINDRICAL_SURFACE('',#388,5.99999999999999);
#320=CYLINDRICAL_SURFACE('',#391,6.00000000000001);
#321=CYLINDRICAL_SURFACE('',#404,5.21766616843848);
#322=CYLINDRICAL_SURFACE('',#409,5.21766636615137);
#323=ADVANCED_FACE('',(#40),#313,.T.);
#324=ADVANCED_FACE('',(#41),#31,.T.);
#325=ADVANCED_FACE('',(#42),#32,.F.);
#326=ADVANCED_FACE('',(#43),#314,.F.);
#327=ADVANCED_FACE('',(#44),#33,.T.);
#328=ADVANCED_FACE('',(#45),#315,.T.);
#329=ADVANCED_FACE('',(#46),#34,.T.);
#330=ADVANCED_FACE('',(#47),#35,.F.);
#331=ADVANCED_FACE('',(#48,#18),#316,.T.);
#332=ADVANCED_FACE('',(#49),#317,.F.);
#333=ADVANCED_FACE('',(#50),#318,.T.);
#334=ADVANCED_FACE('',(#51),#319,.F.);
#335=ADVANCED_FACE('',(#52),#320,.F.);
#336=ADVANCED_FACE('',(#53,#19),#36,.T.);
#337=ADVANCED_FACE('',(#54,#20),#37,.F.);
#338=ADVANCED_FACE('',(#55),#17,.F.);
#339=ADVANCED_FACE('',(#56),#15,.F.);
#340=ADVANCED_FACE('',(#57),#321,.F.);
#341=ADVANCED_FACE('',(#58,#21),#38,.T.);
#342=ADVANCED_FACE('',(#59,#22),#39,.T.);
#343=ADVANCED_FACE('',(#60),#322,.F.);
#344=ADVANCED_FACE('',(#61),#16,.F.);
#345=CLOSED_SHELL('',(#323,#324,#325));
#346=CLOSED_SHELL('',(#326,#327,#328,#329,#330,#331,#332,#333,#334,#335,
#336,#337,#338,#339,#340,#341,#342,#343,#344));
#347=DERIVED_UNIT_ELEMENT(#349,1.);
#348=DERIVED_UNIT_ELEMENT(#642,-3.);
#349=(
MASS_UNIT()
NAMED_UNIT(*)
SI_UNIT(.KILO.,.GRAM.)
);
#350=DERIVED_UNIT((#347,#348));
#351=MEASURE_REPRESENTATION_ITEM('density measure',
POSITIVE_RATIO_MEASURE(7850.),#350);
#352=PROPERTY_DEFINITION_REPRESENTATION(#357,#354);
#353=PROPERTY_DEFINITION_REPRESENTATION(#358,#355);
#354=REPRESENTATION('material name',(#356),#639);
#355=REPRESENTATION('density',(#351),#639);
#356=DESCRIPTIVE_REPRESENTATION_ITEM('\X2\94A2\X0\','\X2\94A2\X0\');
#357=PROPERTY_DEFINITION('material property','material name',#654);
#358=PROPERTY_DEFINITION('material property','density of part',#654);
#359=AXIS2_PLACEMENT_3D('',#537,#413,#414);
#360=AXIS2_PLACEMENT_3D('',#538,#415,#416);
#361=AXIS2_PLACEMENT_3D('',#539,#417,#418);
#362=AXIS2_PLACEMENT_3D('',#541,#419,#420);
#363=AXIS2_PLACEMENT_3D('',#544,#422,#423);
#364=AXIS2_PLACEMENT_3D('',#545,#424,#425);
#365=AXIS2_PLACEMENT_3D('',#546,#426,#427);
#366=AXIS2_PLACEMENT_3D('',#547,#428,#429);
#367=AXIS2_PLACEMENT_3D('',#550,#430,#431);
#368=AXIS2_PLACEMENT_3D('',#554,#433,#434);
#369=AXIS2_PLACEMENT_3D('',#556,#436,#437);
#370=AXIS2_PLACEMENT_3D('',#565,#442,#443);
#371=AXIS2_PLACEMENT_3D('',#566,#444,#445);
#372=AXIS2_PLACEMENT_3D('',#567,#446,#447);
#373=AXIS2_PLACEMENT_3D('',#568,#448,#449);
#374=AXIS2_PLACEMENT_3D('',#569,#450,#451);
#375=AXIS2_PLACEMENT_3D('',#570,#452,#453);
#376=AXIS2_PLACEMENT_3D('',#571,#454,#455);
#377=AXIS2_PLACEMENT_3D('',#572,#456,#457);
#378=AXIS2_PLACEMENT_3D('',#573,#458,#459);
#379=AXIS2_PLACEMENT_3D('',#574,#460,#461);
#380=AXIS2_PLACEMENT_3D('',#579,#463,#464);
#381=AXIS2_PLACEMENT_3D('',#582,#466,#467);
#382=AXIS2_PLACEMENT_3D('',#583,#468,#469);
#383=AXIS2_PLACEMENT_3D('',#585,#470,#471);
#384=AXIS2_PLACEMENT_3D('',#588,#473,#474);
#385=AXIS2_PLACEMENT_3D('',#589,#475,#476);
#386=AXIS2_PLACEMENT_3D('',#592,#477,#478);
#387=AXIS2_PLACEMENT_3D('',#596,#480,#481);
#388=AXIS2_PLACEMENT_3D('',#598,#483,#484);
#389=AXIS2_PLACEMENT_3D('',#599,#485,#486);
#390=AXIS2_PLACEMENT_3D('',#600,#487,#488);
#391=AXIS2_PLACEMENT_3D('',#601,#489,#490);
#392=AXIS2_PLACEMENT_3D('',#602,#491,#492);
#393=AXIS2_PLACEMENT_3D('',#603,#493,#494);
#394=AXIS2_PLACEMENT_3D('',#604,#495,#496);
#395=AXIS2_PLACEMENT_3D('',#605,#497,#498);
#396=AXIS2_PLACEMENT_3D('',#606,#499,#500);
#397=AXIS2_PLACEMENT_3D('',#609,#501,#502);
#398=AXIS2_PLACEMENT_3D('',#611,#503,#504);
#399=AXIS2_PLACEMENT_3D('',#613,#505,#506);
#400=AXIS2_PLACEMENT_3D('',#614,#507,#508);
#401=AXIS2_PLACEMENT_3D('',#615,#509,#510);
#402=AXIS2_PLACEMENT_3D('',#616,#511,#512);
#403=AXIS2_PLACEMENT_3D('',#619,#514,#515);
#404=AXIS2_PLACEMENT_3D('',#620,#516,#517);
#405=AXIS2_PLACEMENT_3D('',#623,#519,#520);
#406=AXIS2_PLACEMENT_3D('',#624,#521,#522);
#407=AXIS2_PLACEMENT_3D('',#625,#523,#524);
#408=AXIS2_PLACEMENT_3D('',#627,#525,#526);
#409=AXIS2_PLACEMENT_3D('',#628,#527,#528);
#410=AXIS2_PLACEMENT_3D('',#631,#530,#531);
#411=AXIS2_PLACEMENT_3D('',#632,#532,#533);
#412=AXIS2_PLACEMENT_3D('',#634,#535,#536);
#413=DIRECTION('axis',(0.,0.,1.));
#414=DIRECTION('refdir',(1.,0.,0.));
#415=DIRECTION('axis',(0.,0.,1.));
#416=DIRECTION('refdir',(1.,0.,0.));
#417=DIRECTION('center_axis',(0.,1.,0.));
#418=DIRECTION('ref_axis',(0.999999999948345,0.,1.01642017048175E-5));
#419=DIRECTION('center_axis',(2.46516527199658E-32,1.,2.46521538538006E-32));
#420=DIRECTION('ref_axis',(0.999999999948345,-2.46519032881566E-32,1.01642017048175E-5));
#421=DIRECTION('',(0.,-1.,0.));
#422=DIRECTION('center_axis',(-2.46516527199658E-32,-1.,-2.46521538538006E-32));
#423=DIRECTION('ref_axis',(0.999999999948345,-2.46519032881566E-32,1.01642017048175E-5));
#424=DIRECTION('center_axis',(-2.46516527199658E-32,-1.,-2.46521538538006E-32));
#425=DIRECTION('ref_axis',(0.999999999948344,-2.46519032881566E-32,1.01642017048175E-5));
#426=DIRECTION('center_axis',(-2.46516527199658E-32,-1.,-2.46521538538006E-32));
#427=DIRECTION('ref_axis',(0.999999999948344,-2.46519032881566E-32,1.01642017048175E-5));
#428=DIRECTION('center_axis',(0.,1.,0.));
#429=DIRECTION('ref_axis',(-0.222656520306019,0.,0.974896955562595));
#430=DIRECTION('center_axis',(0.,-1.,0.));
#431=DIRECTION('ref_axis',(-0.222656520306019,0.,0.974896955562595));
#432=DIRECTION('',(0.,1.,0.));
#433=DIRECTION('center_axis',(0.,-1.,0.));
#434=DIRECTION('ref_axis',(-0.222656520306019,0.,0.974896955562595));
#435=DIRECTION('',(0.,1.,0.));
#436=DIRECTION('center_axis',(-0.760941468661164,0.,0.648820530864884));
#437=DIRECTION('ref_axis',(0.648820530864884,0.,0.760941468661164));
#438=DIRECTION('',(0.648820530864884,0.,0.760941468661164));
#439=DIRECTION('',(-2.13849315392323E-8,-0.999999999999999,-2.50804042698683E-8));
#440=DIRECTION('',(0.648820530864884,0.,0.760941468661164));
#441=DIRECTION('',(0.,1.,0.));
#442=DIRECTION('center_axis',(0.,1.,0.));
#443=DIRECTION('ref_axis',(-0.510067060242356,0.,-0.860134637167764));
#444=DIRECTION('center_axis',(0.,-1.,0.));
#445=DIRECTION('ref_axis',(1.,0.,0.));
#446=DIRECTION('center_axis',(0.,1.,0.));
#447=DIRECTION('ref_axis',(1.,0.,0.));
#448=DIRECTION('center_axis',(0.,-1.,0.));
#449=DIRECTION('ref_axis',(1.,0.,0.));
#450=DIRECTION('center_axis',(-5.07994132824182E-8,-0.999999999999999,0.));
#451=DIRECTION('ref_axis',(0.999999999999999,-5.07994132824182E-8,0.));
#452=DIRECTION('center_axis',(0.,-1.,0.));
#453=DIRECTION('ref_axis',(1.,0.,0.));
#454=DIRECTION('center_axis',(-5.07994132824182E-8,-0.999999999999999,0.));
#455=DIRECTION('ref_axis',(0.999999999999999,-5.07994132824182E-8,0.));
#456=DIRECTION('center_axis',(-5.07994132824182E-8,-0.999999999999999,0.));
#457=DIRECTION('ref_axis',(0.999999999999999,-5.07994134257976E-8,0.));
#458=DIRECTION('center_axis',(-5.07994132824182E-8,-0.999999999999999,0.));
#459=DIRECTION('ref_axis',(0.999999999999999,-5.07994132824182E-8,0.));
#460=DIRECTION('center_axis',(-5.07994132824182E-8,-0.999999999999999,0.));
#461=DIRECTION('ref_axis',(0.999999999999999,-5.07994132824182E-8,0.));
#462=DIRECTION('',(0.,1.,0.));
#463=DIRECTION('center_axis',(0.,-1.,0.));
#464=DIRECTION('ref_axis',(1.,0.,0.));
#465=DIRECTION('',(0.,1.,0.));
#466=DIRECTION('center_axis',(0.,1.,0.));
#467=DIRECTION('ref_axis',(1.,0.,0.));
#468=DIRECTION('center_axis',(0.,1.,0.));
#469=DIRECTION('ref_axis',(1.,0.,0.));
#470=DIRECTION('center_axis',(0.,-1.,0.));
#471=DIRECTION('ref_axis',(1.,0.,0.));
#472=DIRECTION('',(0.,-1.,0.));
#473=DIRECTION('center_axis',(0.,1.,0.));
#474=DIRECTION('ref_axis',(1.,0.,0.));
#475=DIRECTION('center_axis',(0.,1.,0.));
#476=DIRECTION('ref_axis',(0.866025403784439,0.,0.5));
#477=DIRECTION('center_axis',(0.,-1.,0.));
#478=DIRECTION('ref_axis',(0.14544519305788,0.,-0.989366310229106));
#479=DIRECTION('',(0.,1.,0.));
#480=DIRECTION('center_axis',(0.,1.,0.));
#481=DIRECTION('ref_axis',(0.14544519305788,0.,-0.989366310229106));
#482=DIRECTION('',(0.,1.,0.));
#483=DIRECTION('center_axis',(0.,1.,0.));
#484=DIRECTION('ref_axis',(-0.37349914493122,0.,-0.92763052382705));
#485=DIRECTION('center_axis',(0.,-1.,0.));
#486=DIRECTION('ref_axis',(-0.37349914493122,0.,-0.92763052382705));
#487=DIRECTION('center_axis',(0.,-1.,0.));
#488=DIRECTION('ref_axis',(-0.37349914493122,0.,-0.92763052382705));
#489=DIRECTION('center_axis',(0.,1.,0.));
#490=DIRECTION('ref_axis',(-0.145445193057882,0.,0.989366310229106));
#491=DIRECTION('center_axis',(0.,-1.,0.));
#492=DIRECTION('ref_axis',(-0.145445193057882,0.,0.989366310229106));
#493=DIRECTION('center_axis',(0.,-1.,0.));
#494=DIRECTION('ref_axis',(-0.145445193057882,0.,0.989366310229106));
#495=DIRECTION('center_axis',(0.,-1.,0.));
#496=DIRECTION('ref_axis',(1.,0.,0.));
#497=DIRECTION('center_axis',(0.,-1.,0.));
#498=DIRECTION('ref_axis',(1.,0.,0.));
#499=DIRECTION('center_axis',(-5.07994132824182E-8,-0.999999999999999,0.));
#500=DIRECTION('ref_axis',(0.,0.,-1.));
#501=DIRECTION('center_axis',(-5.07994132824182E-8,-0.999999999999999,0.));
#502=DIRECTION('ref_axis',(0.999999999999999,-5.07994132824182E-8,0.));
#503=DIRECTION('center_axis',(-0.999999999999999,5.07994132824182E-8,0.));
#504=DIRECTION('ref_axis',(0.,0.,1.));
#505=DIRECTION('center_axis',(-5.07994132824182E-8,-0.999999999999999,0.));
#506=DIRECTION('ref_axis',(0.999999999999999,-5.07994132824182E-8,0.));
#507=DIRECTION('center_axis',(-5.07994132824182E-8,-0.999999999999999,0.));
#508=DIRECTION('ref_axis',(0.999999999999999,-5.07994132824182E-8,0.));
#509=DIRECTION('center_axis',(-5.07994132824182E-8,-0.999999999999999,0.));
#510=DIRECTION('ref_axis',(0.999999999999999,-5.07994132824182E-8,0.));
#511=DIRECTION('center_axis',(-5.07994132824182E-8,-0.999999999999999,0.));
#512=DIRECTION('ref_axis',(0.999999999999999,-5.07994134257976E-8,0.));
#513=DIRECTION('',(0.707106853027757,0.707106709345331,8.65956100225545E-17));
#514=DIRECTION('center_axis',(-5.07994132824182E-8,-0.999999999999999,0.));
#515=DIRECTION('ref_axis',(0.999999999999999,-5.07994132824182E-8,0.));
#516=DIRECTION('center_axis',(-5.07994132824182E-8,-0.999999999999999,0.));
#517=DIRECTION('ref_axis',(0.999999999999999,-5.07994134257976E-8,0.));
#518=DIRECTION('',(5.07994132824182E-8,0.999999999999999,0.));
#519=DIRECTION('center_axis',(-5.07994132824182E-8,-0.999999999999999,0.));
#520=DIRECTION('ref_axis',(0.999999999999999,-5.07994132824182E-8,0.));
#521=DIRECTION('center_axis',(5.07994132824182E-8,0.999999999999999,0.));
#522=DIRECTION('ref_axis',(0.,0.,1.));
#523=DIRECTION('center_axis',(-5.07994132824182E-8,-0.999999999999999,0.));
#524=DIRECTION('ref_axis',(0.,0.,-1.));
#525=DIRECTION('center_axis',(-5.07994132824182E-8,-0.999999999999999,0.));
#526=DIRECTION('ref_axis',(0.999999999999999,-5.07994132824182E-8,0.));
#527=DIRECTION('center_axis',(-5.07994132824182E-8,-0.999999999999999,0.));
#528=DIRECTION('ref_axis',(0.999999999999999,-5.07994134257976E-8,0.));
#529=DIRECTION('',(5.07994132824182E-8,0.999999999999999,0.));
#530=DIRECTION('center_axis',(-5.07994132824182E-8,-0.999999999999999,0.));
#531=DIRECTION('ref_axis',(0.999999999999999,-5.07994132824182E-8,0.));
#532=DIRECTION('center_axis',(5.07994132824182E-8,0.999999999999999,0.));
#533=DIRECTION('ref_axis',(0.999999999999999,-5.07994134257976E-8,0.));
#534=DIRECTION('',(-0.707106709345319,0.707106853027769,-8.65956012245425E-17));
#535=DIRECTION('',(-2.72127101602202E-9,-4.54580490465887E-17,1.));
#536=DIRECTION('',(0.999999999999999,-5.07994129570158E-8,2.72127096051086E-9));
#537=CARTESIAN_POINT('',(0.,0.,0.));
#538=CARTESIAN_POINT('',(0.,0.,0.));
#539=CARTESIAN_POINT('Origin',(37.1243553164406,-6.5,-36.3012702222124));
#540=CARTESIAN_POINT('',(34.1243553165956,0.5,-36.3013007148175));
#541=CARTESIAN_POINT('Origin',(37.1243553164406,0.5,-36.3012702222124));
#542=CARTESIAN_POINT('',(34.1243553165956,-6.5,-36.3013007148175));
#543=CARTESIAN_POINT('',(34.1243553165956,-6.5,-36.3013007148175));
#544=CARTESIAN_POINT('Origin',(37.1243553164406,-6.5,-36.3012702222124));
#545=CARTESIAN_POINT('Origin',(37.1243553164406,-6.5,-36.3012702222124));
#546=CARTESIAN_POINT('Origin',(37.1243553164406,0.5,-36.3012702222124));
#547=CARTESIAN_POINT('Origin',(35.9985001982217,-5.4999984649603,-91.4579768317917));
#548=CARTESIAN_POINT('',(26.6849898851946,-5.4999984649603,-50.678965117732));
#549=CARTESIAN_POINT('',(-3.0825858064402,-5.4999984649603,-76.546974604493));
#550=CARTESIAN_POINT('Origin',(35.9985001982217,-5.4999984649603,-91.4579768317917));
#551=CARTESIAN_POINT('',(-3.0825858064402,-0.499998464960296,-76.546974604493));
#552=CARTESIAN_POINT('',(-3.0825858064402,-5.4999984649603,-76.546974604493));
#553=CARTESIAN_POINT('',(26.6849898851946,-0.499998464960296,-50.678965117732));
#554=CARTESIAN_POINT('Origin',(35.9985001982217,-0.499998464960296,-91.4579768317917));
#555=CARTESIAN_POINT('',(26.6849898851946,-5.4999984649603,-50.678965117732));
#556=CARTESIAN_POINT('Origin',(-9.86357140903513,-5.4999984649603,-72.5257932191572));
#557=CARTESIAN_POINT('',(-9.86357140903513,-5.4999984649603,-72.5257932191572));
#558=CARTESIAN_POINT('',(19.2414484385929,-5.4999984649603,-38.391212861868));
#559=CARTESIAN_POINT('',(-9.86357140903513,-5.4999984649603,-72.5257932191572));
#560=CARTESIAN_POINT('',(19.2414484385929,-0.499998464960296,-38.391212861868));
#561=CARTESIAN_POINT('',(19.2414484920552,-2.99999961556699,-38.391212799167));
#562=CARTESIAN_POINT('',(-9.86357140903513,-0.499998464960296,-72.5257932191572));
#563=CARTESIAN_POINT('',(-9.86357140903513,-0.499998464960296,-72.5257932191572));
#564=CARTESIAN_POINT('',(-9.86357140903513,-5.4999984649603,-72.5257932191572));
#565=CARTESIAN_POINT('Origin',(-6.81980553439024,-5.4999984649603,-75.1210753426166));
#566=CARTESIAN_POINT('Origin',(-6.81980553439024,-5.4999984649603,-75.1210753426166));
#567=CARTESIAN_POINT('Origin',(-6.81980553439024,-0.499998464960296,-75.1210753426166));
#568=CARTESIAN_POINT('Origin',(7.93259217540218,-5.4999984649603,-58.7561441022423));
#569=CARTESIAN_POINT('Origin',(24.9999996190044,-5.49999961556699,-43.3012701892219));
#570=CARTESIAN_POINT('Origin',(7.93259217540218,-0.499998464960296,-58.7561441022423));
#571=CARTESIAN_POINT('Origin',(24.9999998730015,-0.499999615567,-43.3012701892219));
#572=CARTESIAN_POINT('Origin',(24.9999997460029,-2.99999961556699,-43.3012701892219));
#573=CARTESIAN_POINT('Origin',(24.9999996190044,-5.49999961556699,-43.3012701892219));
#574=CARTESIAN_POINT('Origin',(24.9999998730015,-0.499999615567,-43.3012701892219));
#575=CARTESIAN_POINT('',(32.4927549809533,-3.9999984649603,-44.363433896616));
#576=CARTESIAN_POINT('',(32.4927549809533,-1.9999984649603,-44.363433896616));
#577=CARTESIAN_POINT('',(32.4927549816171,-3.9999984649603,-44.3634338919332));
#578=CARTESIAN_POINT('',(27.8265165463978,-3.9999984649603,-36.2812718477351));
#579=CARTESIAN_POINT('Origin',(24.9999996952036,-3.9999984649603,-43.3012701892219));
#580=CARTESIAN_POINT('',(27.8265165463978,-1.9999984649603,-36.2812718477351));
#581=CARTESIAN_POINT('',(27.8265165753943,-3.9999984649603,-36.2812718594102));
#582=CARTESIAN_POINT('Origin',(24.9999997968024,-1.9999984649603,-43.3012701892219));
#583=CARTESIAN_POINT('Origin',(37.1243552719866,-3.9999984649603,-36.3012701892219));
#584=CARTESIAN_POINT('',(35.9743552719866,-1.9999984649603,-36.3012701892219));
#585=CARTESIAN_POINT('Origin',(37.1243552719866,-1.9999984649603,-36.3012701892219));
#586=CARTESIAN_POINT('',(35.9743552719866,-3.9999984649603,-36.3012701892219));
#587=CARTESIAN_POINT('',(35.9743552719866,-3.9999984649603,-36.3012701892219));
#588=CARTESIAN_POINT('Origin',(37.1243552719866,-3.9999984649603,-36.3012701892219));
#589=CARTESIAN_POINT('Origin',(37.1243552719866,-3.9999984649603,-36.3012701892219));
#590=CARTESIAN_POINT('',(37.5606908511602,-3.9999984649603,-39.2693691199093));
#591=CARTESIAN_POINT('',(34.7720739866527,-3.9999984649603,-34.4393430277389));
#592=CARTESIAN_POINT('Origin',(37.1243552719866,-3.9999984649603,-36.3012701892219));
#593=CARTESIAN_POINT('',(37.5606908511602,-1.9999984649603,-39.2693691199093));
#594=CARTESIAN_POINT('',(37.5606908511602,-3.9999984649603,-39.2693691199093));
#595=CARTESIAN_POINT('',(34.7720739866527,-1.9999984649603,-34.4393430277389));
#596=CARTESIAN_POINT('Origin',(37.1243552719866,-1.9999984649603,-36.3012701892219));
#597=CARTESIAN_POINT('',(34.7720739866527,-3.9999984649603,-34.4393430277389));
#598=CARTESIAN_POINT('Origin',(30.0675114159851,-3.9999984649603,-30.7154887047728));
#599=CARTESIAN_POINT('Origin',(30.0675114159851,-3.9999984649603,-30.7154887047728));
#600=CARTESIAN_POINT('Origin',(30.0675114159851,-1.9999984649603,-30.7154887047728));
#601=CARTESIAN_POINT('Origin',(38.4333620095075,-3.9999984649603,-45.2055669812839));
#602=CARTESIAN_POINT('Origin',(38.4333620095075,-3.9999984649603,-45.2055669812839));
#603=CARTESIAN_POINT('Origin',(38.4333620095075,-1.9999984649603,-45.2055669812839));
#604=CARTESIAN_POINT('Origin',(33.9754359091922,-3.9999984649603,-38.832352042919));
#605=CARTESIAN_POINT('Origin',(33.9754359091922,-1.9999984649603,-38.832352042919));
#606=CARTESIAN_POINT('Origin',(24.9999997460029,-2.99999977558515,-43.3012701892219));
#607=CARTESIAN_POINT('',(19.486317856515,-4.09601495065554,-43.3012701892219));
#608=CARTESIAN_POINT('',(24.999999690326,-4.09601523074735,-37.7875883554109));
#609=CARTESIAN_POINT('Origin',(24.999999690326,-4.09601523074735,-43.3012701892219));
#610=CARTESIAN_POINT('',(24.9999998016799,-1.90398420906906,-37.7875884667648));
#611=CARTESIAN_POINT('Origin',(24.9999997460029,-2.99999977558515,-38.883603921927));
#612=CARTESIAN_POINT('',(19.4863180792228,-1.90398392897726,-43.3012701892219));
#613=CARTESIAN_POINT('Origin',(24.9999998016799,-1.90398420906906,-43.3012701892219));
#614=CARTESIAN_POINT('Origin',(24.9999998016799,-1.90398420906906,-43.3012701892219));
#615=CARTESIAN_POINT('Origin',(24.999999690326,-4.09601523074735,-43.3012701892219));
#616=CARTESIAN_POINT('Origin',(24.9999998091986,-1.75597646116819,-43.3012701892219));
#617=CARTESIAN_POINT('',(19.7823336201367,-1.60796844821293,-43.3012701892219));
#618=CARTESIAN_POINT('',(19.6343258496798,-1.7559761885951,-43.3012701892219));
#619=CARTESIAN_POINT('Origin',(24.9999998167173,-1.60796871326732,-43.3012701892219));
#620=CARTESIAN_POINT('Origin',(24.9999998448594,-1.05398422410647,-43.3012701892219));
#621=CARTESIAN_POINT('',(19.782333704563,-0.49999946989124,-43.3012701892219));
#622=CARTESIAN_POINT('',(19.7823336764209,-1.05398395905209,-43.3012701892219));
#623=CARTESIAN_POINT('Origin',(24.9999998730015,-0.499999734945621,-43.3012701892219));
#624=CARTESIAN_POINT('Origin',(32.5676660132979,-0.500000000000001,-43.3012701892219));
#625=CARTESIAN_POINT('Origin',(30.2176660132979,-5.5,-43.3012701892219));
#626=CARTESIAN_POINT('',(19.782333252853,-5.49999946989122,-43.3012701892219));
#627=CARTESIAN_POINT('Origin',(24.9999996190044,-5.49999973494561,-43.3012701892219));
#628=CARTESIAN_POINT('Origin',(24.9999996471465,-4.94601524578476,-43.3012701892219));
#629=CARTESIAN_POINT('',(19.7823333091372,-4.39203049156952,-43.3012701892219));
#630=CARTESIAN_POINT('',(19.7823332809951,-4.94601498073037,-43.3012701892219));
#631=CARTESIAN_POINT('Origin',(24.9999996752886,-4.39203075662391,-43.3012701892219));
#632=CARTESIAN_POINT('Origin',(24.9999996828073,-4.24402299368563,-43.3012701892219));
#633=CARTESIAN_POINT('',(19.6343255968971,-4.24402272111253,-43.3012701892219));
#634=CARTESIAN_POINT('',(1.86956462770762E-7,1.53503970525817E-6,-6.80349871516976E-8));
#635=UNCERTAINTY_MEASURE_WITH_UNIT(LENGTH_MEASURE(0.01),#641,
'DISTANCE_ACCURACY_VALUE',
'Maximum model space distance between geometric entities at asserted c
onnectivities');
#636=UNCERTAINTY_MEASURE_WITH_UNIT(LENGTH_MEASURE(0.01),#641,
'DISTANCE_ACCURACY_VALUE',
'Maximum model space distance between geometric entities at asserted c
onnectivities');
#637=UNCERTAINTY_MEASURE_WITH_UNIT(LENGTH_MEASURE(0.01),#641,
'DISTANCE_ACCURACY_VALUE',
'Maximum model space distance between geometric entities at asserted c
onnectivities');
#638=(
GEOMETRIC_REPRESENTATION_CONTEXT(3)
GLOBAL_UNCERTAINTY_ASSIGNED_CONTEXT((#635))
GLOBAL_UNIT_ASSIGNED_CONTEXT((#641,#643,#644))
REPRESENTATION_CONTEXT('','3D')
);
#639=(
GEOMETRIC_REPRESENTATION_CONTEXT(3)
GLOBAL_UNCERTAINTY_ASSIGNED_CONTEXT((#636))
GLOBAL_UNIT_ASSIGNED_CONTEXT((#641,#643,#644))
REPRESENTATION_CONTEXT('','3D')
);
#640=(
GEOMETRIC_REPRESENTATION_CONTEXT(3)
GLOBAL_UNCERTAINTY_ASSIGNED_CONTEXT((#637))
GLOBAL_UNIT_ASSIGNED_CONTEXT((#641,#643,#644))
REPRESENTATION_CONTEXT('','3D')
);
#641=(
LENGTH_UNIT()
NAMED_UNIT(*)
SI_UNIT(.MILLI.,.METRE.)
);
#642=(
LENGTH_UNIT()
NAMED_UNIT(*)
SI_UNIT($,.METRE.)
);
#643=(
NAMED_UNIT(*)
PLANE_ANGLE_UNIT()
SI_UNIT($,.RADIAN.)
);
#644=(
NAMED_UNIT(*)
SI_UNIT($,.STERADIAN.)
SOLID_ANGLE_UNIT()
);
#645=SHAPE_DEFINITION_REPRESENTATION(#647,#650);
#646=SHAPE_DEFINITION_REPRESENTATION(#648,#651);
#647=PRODUCT_DEFINITION_SHAPE('',$,#653);
#648=PRODUCT_DEFINITION_SHAPE('',$,#654);
#649=PRODUCT_DEFINITION_SHAPE($,$,#14);
#650=SHAPE_REPRESENTATION('',(#359,#412),#638);
#651=SHAPE_REPRESENTATION('',(#360),#639);
#652=PRODUCT_DEFINITION_CONTEXT('part definition',#660,'design');
#653=PRODUCT_DEFINITION('\X2\5C0F817F\X0\','\X2\5C0F817F\X0\',#655,#652);
#654=PRODUCT_DEFINITION('COL_\X2\5C0F817F8FDE63A5\X0\',
'COL_\X2\5C0F817F8FDE63A5\X0\',#656,#652);
#655=PRODUCT_DEFINITION_FORMATION('',$,#662);
#656=PRODUCT_DEFINITION_FORMATION('',$,#663);
#657=PRODUCT_RELATED_PRODUCT_CATEGORY('\X2\5C0F817F\X0\','\X2\5C0F817F\X0\',
(#662));
#658=PRODUCT_RELATED_PRODUCT_CATEGORY('COL_\X2\5C0F817F8FDE63A5\X0\',
'COL_\X2\5C0F817F8FDE63A5\X0\',(#663));
#659=APPLICATION_PROTOCOL_DEFINITION('international standard',
'automotive_design',2009,#660);
#660=APPLICATION_CONTEXT(
'Core Data for Automotive Mechanical Design Process');
#661=PRODUCT_CONTEXT('part definition',#660,'mechanical');
#662=PRODUCT('\X2\5C0F817F\X0\','\X2\5C0F817F\X0\',$,(#661));
#663=PRODUCT('COL_\X2\5C0F817F8FDE63A5\X0\','COL_\X2\5C0F817F8FDE63A5\X0\',
$,(#661));
#664=PRESENTATION_STYLE_ASSIGNMENT((#665));
#665=SURFACE_STYLE_USAGE(.BOTH.,#666);
#666=SURFACE_SIDE_STYLE('',(#667));
#667=SURFACE_STYLE_FILL_AREA(#668);
#668=FILL_AREA_STYLE('\X2\94A2\X0\ - \X2\7F0E5149\X0\',(#669));
#669=FILL_AREA_STYLE_COLOUR('\X2\94A2\X0\ - \X2\7F0E5149\X0\',#670);
#670=COLOUR_RGB('\X2\94A2\X0\ - \X2\7F0E5149\X0\',0.627450980392157,0.627450980392157,
0.627450980392157);
ENDSEC;
END-ISO-10303-21;
