ISO-10303-21;
HEADER;
/* Generated by software containing ST-Developer
 * from STEP Tools, Inc. (www.steptools.com) 
 */

FILE_DESCRIPTION(
/* description */ (''),
/* implementation_level */ '2;1');

FILE_NAME(
/* name */ '',
/* time_stamp */ '2026-07-15T12:19:21+08:00',
/* author */ (''),
/* organization */ (''),
/* preprocessor_version */ 'ST-DEVELOPER v20.1',
/* originating_system */ 'Autodesk Translation Framework v15.8.0.0',
/* authorisation */ '');

FILE_SCHEMA (('AUTOMOTIVE_DESIGN { 1 0 10303 214 3 1 1 }'));
ENDSEC;

DATA;
#10=MECHANICAL_DESIGN_GEOMETRIC_PRESENTATION_REPRESENTATION('',(#27,#28),
#907);
#11=ITEM_DEFINED_TRANSFORMATION($,$,#507,#581);
#12=(
REPRESENTATION_RELATIONSHIP($,$,#918,#917)
REPRESENTATION_RELATIONSHIP_WITH_TRANSFORMATION(#11)
SHAPE_REPRESENTATION_RELATIONSHIP()
);
#13=CONTEXT_DEPENDENT_SHAPE_REPRESENTATION(#12,#916);
#14=NEXT_ASSEMBLY_USAGE_OCCURRENCE('COL_\X2\5C0F817F4F2052A8\X0\:1',
'COL_\X2\5C0F817F4F2052A8\X0\:1','COL_\X2\5C0F817F4F2052A8\X0\:1',#920,
#921,'COL_\X2\5C0F817F4F2052A8\X0\:1');
#15=FACE_BOUND('',#78,.T.);
#16=FACE_BOUND('',#80,.T.);
#17=FACE_BOUND('',#87,.T.);
#18=FACE_BOUND('',#88,.T.);
#19=FACE_BOUND('',#90,.T.);
#20=FACE_BOUND('',#92,.T.);
#21=FACE_BOUND('',#99,.T.);
#22=FACE_BOUND('',#100,.T.);
#23=SHAPE_REPRESENTATION_RELATIONSHIP('SRR','None',#918,#25);
#24=SHAPE_REPRESENTATION_RELATIONSHIP('SRR','None',#917,#26);
#25=ADVANCED_BREP_SHAPE_REPRESENTATION('',(#29),#906);
#26=ADVANCED_BREP_SHAPE_REPRESENTATION('',(#30),#905);
#27=STYLED_ITEM('',(#931),#29);
#28=STYLED_ITEM('',(#931),#30);
#29=MANIFOLD_SOLID_BREP('COL_\X2\5C0F817F4F2052A8\X0\',#492);
#30=MANIFOLD_SOLID_BREP('\X2\5B9E4F53\X0\1',#493);
#31=PLANE('',#511);
#32=PLANE('',#512);
#33=PLANE('',#545);
#34=PLANE('',#549);
#35=PLANE('',#562);
#36=PLANE('',#563);
#37=PLANE('',#567);
#38=PLANE('',#580);
#39=FACE_OUTER_BOUND('',#66,.T.);
#40=FACE_OUTER_BOUND('',#67,.T.);
#41=FACE_OUTER_BOUND('',#68,.T.);
#42=FACE_OUTER_BOUND('',#69,.T.);
#43=FACE_OUTER_BOUND('',#70,.T.);
#44=FACE_OUTER_BOUND('',#71,.T.);
#45=FACE_OUTER_BOUND('',#72,.T.);
#46=FACE_OUTER_BOUND('',#73,.T.);
#47=FACE_OUTER_BOUND('',#74,.T.);
#48=FACE_OUTER_BOUND('',#75,.T.);
#49=FACE_OUTER_BOUND('',#76,.T.);
#50=FACE_OUTER_BOUND('',#77,.T.);
#51=FACE_OUTER_BOUND('',#79,.T.);
#52=FACE_OUTER_BOUND('',#81,.T.);
#53=FACE_OUTER_BOUND('',#82,.T.);
#54=FACE_OUTER_BOUND('',#83,.T.);
#55=FACE_OUTER_BOUND('',#84,.T.);
#56=FACE_OUTER_BOUND('',#85,.T.);
#57=FACE_OUTER_BOUND('',#86,.T.);
#58=FACE_OUTER_BOUND('',#89,.T.);
#59=FACE_OUTER_BOUND('',#91,.T.);
#60=FACE_OUTER_BOUND('',#93,.T.);
#61=FACE_OUTER_BOUND('',#94,.T.);
#62=FACE_OUTER_BOUND('',#95,.T.);
#63=FACE_OUTER_BOUND('',#96,.T.);
#64=FACE_OUTER_BOUND('',#97,.T.);
#65=FACE_OUTER_BOUND('',#98,.T.);
#66=EDGE_LOOP('',(#308,#309,#310,#311));
#67=EDGE_LOOP('',(#312));
#68=EDGE_LOOP('',(#313));
#69=EDGE_LOOP('',(#314,#315,#316,#317));
#70=EDGE_LOOP('',(#318,#319,#320,#321,#322,#323,#324,#325,#326,#327,#328,
#329));
#71=EDGE_LOOP('',(#330,#331,#332,#333));
#72=EDGE_LOOP('',(#334,#335,#336,#337));
#73=EDGE_LOOP('',(#338,#339,#340,#341));
#74=EDGE_LOOP('',(#342,#343,#344,#345));
#75=EDGE_LOOP('',(#346,#347,#348,#349));
#76=EDGE_LOOP('',(#350,#351,#352,#353,#354,#355,#356,#357,#358,#359,#360,
#361));
#77=EDGE_LOOP('',(#362,#363,#364,#365,#366,#367,#368));
#78=EDGE_LOOP('',(#369));
#79=EDGE_LOOP('',(#370,#371,#372,#373,#374,#375));
#80=EDGE_LOOP('',(#376));
#81=EDGE_LOOP('',(#377,#378,#379,#380));
#82=EDGE_LOOP('',(#381,#382,#383,#384));
#83=EDGE_LOOP('',(#385,#386,#387,#388));
#84=EDGE_LOOP('',(#389,#390,#391,#392));
#85=EDGE_LOOP('',(#393,#394,#395,#396));
#86=EDGE_LOOP('',(#397,#398,#399,#400,#401));
#87=EDGE_LOOP('',(#402));
#88=EDGE_LOOP('',(#403));
#89=EDGE_LOOP('',(#404,#405,#406,#407,#408,#409,#410));
#90=EDGE_LOOP('',(#411));
#91=EDGE_LOOP('',(#412,#413,#414,#415,#416,#417));
#92=EDGE_LOOP('',(#418));
#93=EDGE_LOOP('',(#419,#420,#421,#422));
#94=EDGE_LOOP('',(#423,#424,#425,#426));
#95=EDGE_LOOP('',(#427,#428,#429,#430));
#96=EDGE_LOOP('',(#431,#432,#433,#434));
#97=EDGE_LOOP('',(#435,#436,#437,#438));
#98=EDGE_LOOP('',(#439,#440,#441,#442,#443));
#99=EDGE_LOOP('',(#444));
#100=EDGE_LOOP('',(#445));
#101=LINE('',#763,#124);
#102=LINE('',#772,#125);
#103=LINE('',#775,#126);
#104=LINE('',#782,#127);
#105=LINE('',#786,#128);
#106=LINE('',#790,#129);
#107=LINE('',#794,#130);
#108=LINE('',#797,#131);
#109=LINE('',#803,#132);
#110=LINE('',#806,#133);
#111=LINE('',#814,#134);
#112=LINE('',#820,#135);
#113=LINE('',#826,#136);
#114=LINE('',#832,#137);
#115=LINE('',#836,#138);
#116=LINE('',#841,#139);
#117=LINE('',#845,#140);
#118=LINE('',#860,#141);
#119=LINE('',#864,#142);
#120=LINE('',#867,#143);
#121=LINE('',#887,#144);
#122=LINE('',#891,#145);
#123=LINE('',#897,#146);
#124=VECTOR('',#590,3.);
#125=VECTOR('',#601,10.);
#126=VECTOR('',#604,10.);
#127=VECTOR('',#611,10.);
#128=VECTOR('',#614,10.);
#129=VECTOR('',#617,10.);
#130=VECTOR('',#620,10.);
#131=VECTOR('',#623,10.);
#132=VECTOR('',#628,10.);
#133=VECTOR('',#631,10.);
#134=VECTOR('',#642,10.);
#135=VECTOR('',#649,10.);
#136=VECTOR('',#656,10.);
#137=VECTOR('',#663,10.);
#138=VECTOR('',#666,10.);
#139=VECTOR('',#671,10.);
#140=VECTOR('',#674,10.);
#141=VECTOR('',#695,1.05);
#142=VECTOR('',#700,1.05);
#143=VECTOR('',#703,10.);
#144=VECTOR('',#734,1.05);
#145=VECTOR('',#739,1.05);
#146=VECTOR('',#748,10.);
#147=CIRCLE('',#509,3.);
#148=CIRCLE('',#510,3.);
#149=CIRCLE('',#514,2.);
#150=CIRCLE('',#515,2.);
#151=CIRCLE('',#517,8.);
#152=CIRCLE('',#518,8.);
#153=CIRCLE('',#519,8.);
#154=CIRCLE('',#520,8.);
#155=CIRCLE('',#521,8.);
#156=CIRCLE('',#522,8.);
#157=CIRCLE('',#524,2.);
#158=CIRCLE('',#525,2.);
#159=CIRCLE('',#527,4.5);
#160=CIRCLE('',#528,4.5);
#161=CIRCLE('',#530,2.);
#162=CIRCLE('',#531,2.);
#163=CIRCLE('',#533,4.5);
#164=CIRCLE('',#534,4.5);
#165=CIRCLE('',#536,2.);
#166=CIRCLE('',#537,2.);
#167=CIRCLE('',#539,14.0000000000004);
#168=CIRCLE('',#540,14.0000000000004);
#169=CIRCLE('',#541,14.0000000000004);
#170=CIRCLE('',#542,14.0000000000004);
#171=CIRCLE('',#543,14.0000000000004);
#172=CIRCLE('',#544,14.0000000000004);
#173=CIRCLE('',#546,3.);
#174=CIRCLE('',#547,3.);
#175=CIRCLE('',#548,1.05);
#176=CIRCLE('',#550,3.);
#177=CIRCLE('',#551,1.05);
#178=CIRCLE('',#553,1.05);
#179=CIRCLE('',#555,1.05);
#180=CIRCLE('',#557,3.);
#181=CIRCLE('',#559,3.);
#182=CIRCLE('',#561,3.);
#183=CIRCLE('',#564,3.);
#184=CIRCLE('',#565,3.);
#185=CIRCLE('',#566,1.05);
#186=CIRCLE('',#568,3.);
#187=CIRCLE('',#569,1.05);
#188=CIRCLE('',#571,1.05);
#189=CIRCLE('',#573,1.05);
#190=CIRCLE('',#575,3.);
#191=CIRCLE('',#577,3.);
#192=CIRCLE('',#579,3.);
#193=VERTEX_POINT('',#760);
#194=VERTEX_POINT('',#762);
#195=VERTEX_POINT('',#768);
#196=VERTEX_POINT('',#769);
#197=VERTEX_POINT('',#771);
#198=VERTEX_POINT('',#773);
#199=VERTEX_POINT('',#777);
#200=VERTEX_POINT('',#779);
#201=VERTEX_POINT('',#781);
#202=VERTEX_POINT('',#783);
#203=VERTEX_POINT('',#785);
#204=VERTEX_POINT('',#787);
#205=VERTEX_POINT('',#789);
#206=VERTEX_POINT('',#791);
#207=VERTEX_POINT('',#793);
#208=VERTEX_POINT('',#795);
#209=VERTEX_POINT('',#799);
#210=VERTEX_POINT('',#800);
#211=VERTEX_POINT('',#802);
#212=VERTEX_POINT('',#804);
#213=VERTEX_POINT('',#811);
#214=VERTEX_POINT('',#813);
#215=VERTEX_POINT('',#817);
#216=VERTEX_POINT('',#819);
#217=VERTEX_POINT('',#823);
#218=VERTEX_POINT('',#825);
#219=VERTEX_POINT('',#829);
#220=VERTEX_POINT('',#831);
#221=VERTEX_POINT('',#833);
#222=VERTEX_POINT('',#835);
#223=VERTEX_POINT('',#838);
#224=VERTEX_POINT('',#840);
#225=VERTEX_POINT('',#842);
#226=VERTEX_POINT('',#844);
#227=VERTEX_POINT('',#848);
#228=VERTEX_POINT('',#851);
#229=VERTEX_POINT('',#855);
#230=VERTEX_POINT('',#858);
#231=VERTEX_POINT('',#862);
#232=VERTEX_POINT('',#866);
#233=VERTEX_POINT('',#875);
#234=VERTEX_POINT('',#878);
#235=VERTEX_POINT('',#882);
#236=VERTEX_POINT('',#885);
#237=VERTEX_POINT('',#889);
#238=VERTEX_POINT('',#895);
#239=EDGE_CURVE('',#193,#193,#147,.T.);
#240=EDGE_CURVE('',#193,#194,#101,.T.);
#241=EDGE_CURVE('',#194,#194,#148,.T.);
#242=EDGE_CURVE('',#195,#196,#149,.F.);
#243=EDGE_CURVE('',#196,#197,#102,.T.);
#244=EDGE_CURVE('',#197,#198,#150,.F.);
#245=EDGE_CURVE('',#198,#195,#103,.T.);
#246=EDGE_CURVE('',#197,#199,#151,.T.);
#247=EDGE_CURVE('',#200,#196,#152,.T.);
#248=EDGE_CURVE('',#200,#201,#104,.T.);
#249=EDGE_CURVE('',#202,#201,#153,.T.);
#250=EDGE_CURVE('',#203,#202,#105,.T.);
#251=EDGE_CURVE('',#204,#203,#154,.T.);
#252=EDGE_CURVE('',#205,#204,#106,.T.);
#253=EDGE_CURVE('',#206,#205,#155,.T.);
#254=EDGE_CURVE('',#206,#207,#107,.T.);
#255=EDGE_CURVE('',#208,#207,#156,.T.);
#256=EDGE_CURVE('',#199,#208,#108,.T.);
#257=EDGE_CURVE('',#209,#210,#157,.F.);
#258=EDGE_CURVE('',#210,#211,#109,.T.);
#259=EDGE_CURVE('',#211,#212,#158,.F.);
#260=EDGE_CURVE('',#212,#209,#110,.T.);
#261=EDGE_CURVE('',#211,#198,#159,.T.);
#262=EDGE_CURVE('',#195,#210,#160,.T.);
#263=EDGE_CURVE('',#204,#213,#161,.F.);
#264=EDGE_CURVE('',#213,#214,#111,.T.);
#265=EDGE_CURVE('',#214,#205,#162,.F.);
#266=EDGE_CURVE('',#215,#213,#163,.T.);
#267=EDGE_CURVE('',#216,#215,#112,.T.);
#268=EDGE_CURVE('',#214,#216,#164,.T.);
#269=EDGE_CURVE('',#215,#217,#165,.F.);
#270=EDGE_CURVE('',#217,#218,#113,.T.);
#271=EDGE_CURVE('',#218,#216,#166,.F.);
#272=EDGE_CURVE('',#212,#219,#167,.T.);
#273=EDGE_CURVE('',#219,#220,#114,.T.);
#274=EDGE_CURVE('',#221,#220,#168,.T.);
#275=EDGE_CURVE('',#222,#221,#115,.T.);
#276=EDGE_CURVE('',#222,#218,#169,.T.);
#277=EDGE_CURVE('',#223,#217,#170,.T.);
#278=EDGE_CURVE('',#223,#224,#116,.T.);
#279=EDGE_CURVE('',#225,#224,#171,.T.);
#280=EDGE_CURVE('',#226,#225,#117,.T.);
#281=EDGE_CURVE('',#209,#226,#172,.T.);
#282=EDGE_CURVE('',#226,#227,#173,.T.);
#283=EDGE_CURVE('',#227,#200,#174,.T.);
#284=EDGE_CURVE('',#228,#228,#175,.T.);
#285=EDGE_CURVE('',#203,#223,#176,.T.);
#286=EDGE_CURVE('',#229,#229,#177,.T.);
#287=EDGE_CURVE('',#230,#230,#178,.T.);
#288=EDGE_CURVE('',#230,#229,#118,.T.);
#289=EDGE_CURVE('',#231,#231,#179,.T.);
#290=EDGE_CURVE('',#231,#228,#119,.T.);
#291=EDGE_CURVE('',#227,#232,#120,.T.);
#292=EDGE_CURVE('',#201,#232,#180,.T.);
#293=EDGE_CURVE('',#224,#202,#181,.T.);
#294=EDGE_CURVE('',#232,#225,#182,.T.);
#295=EDGE_CURVE('',#233,#199,#183,.T.);
#296=EDGE_CURVE('',#219,#233,#184,.T.);
#297=EDGE_CURVE('',#234,#234,#185,.T.);
#298=EDGE_CURVE('',#206,#222,#186,.T.);
#299=EDGE_CURVE('',#235,#235,#187,.T.);
#300=EDGE_CURVE('',#236,#236,#188,.T.);
#301=EDGE_CURVE('',#236,#235,#121,.T.);
#302=EDGE_CURVE('',#237,#237,#189,.T.);
#303=EDGE_CURVE('',#237,#234,#122,.T.);
#304=EDGE_CURVE('',#207,#221,#190,.T.);
#305=EDGE_CURVE('',#238,#208,#191,.T.);
#306=EDGE_CURVE('',#233,#238,#123,.T.);
#307=EDGE_CURVE('',#220,#238,#192,.T.);
#308=ORIENTED_EDGE('',*,*,#239,.F.);
#309=ORIENTED_EDGE('',*,*,#240,.T.);
#310=ORIENTED_EDGE('',*,*,#241,.F.);
#311=ORIENTED_EDGE('',*,*,#240,.F.);
#312=ORIENTED_EDGE('',*,*,#241,.T.);
#313=ORIENTED_EDGE('',*,*,#239,.T.);
#314=ORIENTED_EDGE('',*,*,#242,.T.);
#315=ORIENTED_EDGE('',*,*,#243,.T.);
#316=ORIENTED_EDGE('',*,*,#244,.T.);
#317=ORIENTED_EDGE('',*,*,#245,.T.);
#318=ORIENTED_EDGE('',*,*,#246,.F.);
#319=ORIENTED_EDGE('',*,*,#243,.F.);
#320=ORIENTED_EDGE('',*,*,#247,.F.);
#321=ORIENTED_EDGE('',*,*,#248,.T.);
#322=ORIENTED_EDGE('',*,*,#249,.F.);
#323=ORIENTED_EDGE('',*,*,#250,.F.);
#324=ORIENTED_EDGE('',*,*,#251,.F.);
#325=ORIENTED_EDGE('',*,*,#252,.F.);
#326=ORIENTED_EDGE('',*,*,#253,.F.);
#327=ORIENTED_EDGE('',*,*,#254,.T.);
#328=ORIENTED_EDGE('',*,*,#255,.F.);
#329=ORIENTED_EDGE('',*,*,#256,.F.);
#330=ORIENTED_EDGE('',*,*,#257,.T.);
#331=ORIENTED_EDGE('',*,*,#258,.T.);
#332=ORIENTED_EDGE('',*,*,#259,.T.);
#333=ORIENTED_EDGE('',*,*,#260,.T.);
#334=ORIENTED_EDGE('',*,*,#245,.F.);
#335=ORIENTED_EDGE('',*,*,#261,.F.);
#336=ORIENTED_EDGE('',*,*,#258,.F.);
#337=ORIENTED_EDGE('',*,*,#262,.F.);
#338=ORIENTED_EDGE('',*,*,#263,.T.);
#339=ORIENTED_EDGE('',*,*,#264,.T.);
#340=ORIENTED_EDGE('',*,*,#265,.T.);
#341=ORIENTED_EDGE('',*,*,#252,.T.);
#342=ORIENTED_EDGE('',*,*,#264,.F.);
#343=ORIENTED_EDGE('',*,*,#266,.F.);
#344=ORIENTED_EDGE('',*,*,#267,.F.);
#345=ORIENTED_EDGE('',*,*,#268,.F.);
#346=ORIENTED_EDGE('',*,*,#269,.T.);
#347=ORIENTED_EDGE('',*,*,#270,.T.);
#348=ORIENTED_EDGE('',*,*,#271,.T.);
#349=ORIENTED_EDGE('',*,*,#267,.T.);
#350=ORIENTED_EDGE('',*,*,#272,.T.);
#351=ORIENTED_EDGE('',*,*,#273,.T.);
#352=ORIENTED_EDGE('',*,*,#274,.F.);
#353=ORIENTED_EDGE('',*,*,#275,.F.);
#354=ORIENTED_EDGE('',*,*,#276,.T.);
#355=ORIENTED_EDGE('',*,*,#270,.F.);
#356=ORIENTED_EDGE('',*,*,#277,.F.);
#357=ORIENTED_EDGE('',*,*,#278,.T.);
#358=ORIENTED_EDGE('',*,*,#279,.F.);
#359=ORIENTED_EDGE('',*,*,#280,.F.);
#360=ORIENTED_EDGE('',*,*,#281,.F.);
#361=ORIENTED_EDGE('',*,*,#260,.F.);
#362=ORIENTED_EDGE('',*,*,#262,.T.);
#363=ORIENTED_EDGE('',*,*,#257,.F.);
#364=ORIENTED_EDGE('',*,*,#281,.T.);
#365=ORIENTED_EDGE('',*,*,#282,.T.);
#366=ORIENTED_EDGE('',*,*,#283,.T.);
#367=ORIENTED_EDGE('',*,*,#247,.T.);
#368=ORIENTED_EDGE('',*,*,#242,.F.);
#369=ORIENTED_EDGE('',*,*,#284,.T.);
#370=ORIENTED_EDGE('',*,*,#266,.T.);
#371=ORIENTED_EDGE('',*,*,#263,.F.);
#372=ORIENTED_EDGE('',*,*,#251,.T.);
#373=ORIENTED_EDGE('',*,*,#285,.T.);
#374=ORIENTED_EDGE('',*,*,#277,.T.);
#375=ORIENTED_EDGE('',*,*,#269,.F.);
#376=ORIENTED_EDGE('',*,*,#286,.T.);
#377=ORIENTED_EDGE('',*,*,#287,.F.);
#378=ORIENTED_EDGE('',*,*,#288,.T.);
#379=ORIENTED_EDGE('',*,*,#286,.F.);
#380=ORIENTED_EDGE('',*,*,#288,.F.);
#381=ORIENTED_EDGE('',*,*,#289,.F.);
#382=ORIENTED_EDGE('',*,*,#290,.T.);
#383=ORIENTED_EDGE('',*,*,#284,.F.);
#384=ORIENTED_EDGE('',*,*,#290,.F.);
#385=ORIENTED_EDGE('',*,*,#283,.F.);
#386=ORIENTED_EDGE('',*,*,#291,.T.);
#387=ORIENTED_EDGE('',*,*,#292,.F.);
#388=ORIENTED_EDGE('',*,*,#248,.F.);
#389=ORIENTED_EDGE('',*,*,#285,.F.);
#390=ORIENTED_EDGE('',*,*,#250,.T.);
#391=ORIENTED_EDGE('',*,*,#293,.F.);
#392=ORIENTED_EDGE('',*,*,#278,.F.);
#393=ORIENTED_EDGE('',*,*,#282,.F.);
#394=ORIENTED_EDGE('',*,*,#280,.T.);
#395=ORIENTED_EDGE('',*,*,#294,.F.);
#396=ORIENTED_EDGE('',*,*,#291,.F.);
#397=ORIENTED_EDGE('',*,*,#294,.T.);
#398=ORIENTED_EDGE('',*,*,#279,.T.);
#399=ORIENTED_EDGE('',*,*,#293,.T.);
#400=ORIENTED_EDGE('',*,*,#249,.T.);
#401=ORIENTED_EDGE('',*,*,#292,.T.);
#402=ORIENTED_EDGE('',*,*,#289,.T.);
#403=ORIENTED_EDGE('',*,*,#287,.T.);
#404=ORIENTED_EDGE('',*,*,#261,.T.);
#405=ORIENTED_EDGE('',*,*,#244,.F.);
#406=ORIENTED_EDGE('',*,*,#246,.T.);
#407=ORIENTED_EDGE('',*,*,#295,.F.);
#408=ORIENTED_EDGE('',*,*,#296,.F.);
#409=ORIENTED_EDGE('',*,*,#272,.F.);
#410=ORIENTED_EDGE('',*,*,#259,.F.);
#411=ORIENTED_EDGE('',*,*,#297,.F.);
#412=ORIENTED_EDGE('',*,*,#268,.T.);
#413=ORIENTED_EDGE('',*,*,#271,.F.);
#414=ORIENTED_EDGE('',*,*,#276,.F.);
#415=ORIENTED_EDGE('',*,*,#298,.F.);
#416=ORIENTED_EDGE('',*,*,#253,.T.);
#417=ORIENTED_EDGE('',*,*,#265,.F.);
#418=ORIENTED_EDGE('',*,*,#299,.F.);
#419=ORIENTED_EDGE('',*,*,#300,.F.);
#420=ORIENTED_EDGE('',*,*,#301,.T.);
#421=ORIENTED_EDGE('',*,*,#299,.T.);
#422=ORIENTED_EDGE('',*,*,#301,.F.);
#423=ORIENTED_EDGE('',*,*,#302,.F.);
#424=ORIENTED_EDGE('',*,*,#303,.T.);
#425=ORIENTED_EDGE('',*,*,#297,.T.);
#426=ORIENTED_EDGE('',*,*,#303,.F.);
#427=ORIENTED_EDGE('',*,*,#298,.T.);
#428=ORIENTED_EDGE('',*,*,#275,.T.);
#429=ORIENTED_EDGE('',*,*,#304,.F.);
#430=ORIENTED_EDGE('',*,*,#254,.F.);
#431=ORIENTED_EDGE('',*,*,#295,.T.);
#432=ORIENTED_EDGE('',*,*,#256,.T.);
#433=ORIENTED_EDGE('',*,*,#305,.F.);
#434=ORIENTED_EDGE('',*,*,#306,.F.);
#435=ORIENTED_EDGE('',*,*,#296,.T.);
#436=ORIENTED_EDGE('',*,*,#306,.T.);
#437=ORIENTED_EDGE('',*,*,#307,.F.);
#438=ORIENTED_EDGE('',*,*,#273,.F.);
#439=ORIENTED_EDGE('',*,*,#274,.T.);
#440=ORIENTED_EDGE('',*,*,#307,.T.);
#441=ORIENTED_EDGE('',*,*,#305,.T.);
#442=ORIENTED_EDGE('',*,*,#255,.T.);
#443=ORIENTED_EDGE('',*,*,#304,.T.);
#444=ORIENTED_EDGE('',*,*,#302,.T.);
#445=ORIENTED_EDGE('',*,*,#300,.T.);
#446=CYLINDRICAL_SURFACE('',#508,3.);
#447=CYLINDRICAL_SURFACE('',#513,2.);
#448=CYLINDRICAL_SURFACE('',#516,8.);
#449=CYLINDRICAL_SURFACE('',#523,2.);
#450=CYLINDRICAL_SURFACE('',#526,4.5);
#451=CYLINDRICAL_SURFACE('',#529,2.);
#452=CYLINDRICAL_SURFACE('',#532,4.5);
#453=CYLINDRICAL_SURFACE('',#535,2.);
#454=CYLINDRICAL_SURFACE('',#538,14.0000000000004);
#455=CYLINDRICAL_SURFACE('',#552,1.05);
#456=CYLINDRICAL_SURFACE('',#554,1.05);
#457=CYLINDRICAL_SURFACE('',#556,3.);
#458=CYLINDRICAL_SURFACE('',#558,3.);
#459=CYLINDRICAL_SURFACE('',#560,3.);
#460=CYLINDRICAL_SURFACE('',#570,1.05);
#461=CYLINDRICAL_SURFACE('',#572,1.05);
#462=CYLINDRICAL_SURFACE('',#574,3.);
#463=CYLINDRICAL_SURFACE('',#576,3.);
#464=CYLINDRICAL_SURFACE('',#578,3.);
#465=ADVANCED_FACE('',(#39),#446,.T.);
#466=ADVANCED_FACE('',(#40),#31,.T.);
#467=ADVANCED_FACE('',(#41),#32,.F.);
#468=ADVANCED_FACE('',(#42),#447,.T.);
#469=ADVANCED_FACE('',(#43),#448,.F.);
#470=ADVANCED_FACE('',(#44),#449,.T.);
#471=ADVANCED_FACE('',(#45),#450,.F.);
#472=ADVANCED_FACE('',(#46),#451,.T.);
#473=ADVANCED_FACE('',(#47),#452,.F.);
#474=ADVANCED_FACE('',(#48),#453,.T.);
#475=ADVANCED_FACE('',(#49),#454,.T.);
#476=ADVANCED_FACE('',(#50,#15),#33,.F.);
#477=ADVANCED_FACE('',(#51,#16),#34,.F.);
#478=ADVANCED_FACE('',(#52),#455,.F.);
#479=ADVANCED_FACE('',(#53),#456,.F.);
#480=ADVANCED_FACE('',(#54),#457,.T.);
#481=ADVANCED_FACE('',(#55),#458,.T.);
#482=ADVANCED_FACE('',(#56),#459,.T.);
#483=ADVANCED_FACE('',(#57,#17,#18),#35,.T.);
#484=ADVANCED_FACE('',(#58,#19),#36,.F.);
#485=ADVANCED_FACE('',(#59,#20),#37,.F.);
#486=ADVANCED_FACE('',(#60),#460,.F.);
#487=ADVANCED_FACE('',(#61),#461,.F.);
#488=ADVANCED_FACE('',(#62),#462,.T.);
#489=ADVANCED_FACE('',(#63),#463,.T.);
#490=ADVANCED_FACE('',(#64),#464,.T.);
#491=ADVANCED_FACE('',(#65,#21,#22),#38,.T.);
#492=CLOSED_SHELL('',(#465,#466,#467));
#493=CLOSED_SHELL('',(#468,#469,#470,#471,#472,#473,#474,#475,#476,#477,
#478,#479,#480,#481,#482,#483,#484,#485,#486,#487,#488,#489,#490,#491));
#494=DERIVED_UNIT_ELEMENT(#496,1.);
#495=DERIVED_UNIT_ELEMENT(#909,-3.);
#496=(
MASS_UNIT()
NAMED_UNIT(*)
SI_UNIT(.KILO.,.GRAM.)
);
#497=DERIVED_UNIT((#494,#495));
#498=MEASURE_REPRESENTATION_ITEM('density measure',
POSITIVE_RATIO_MEASURE(7850.),#497);
#499=PROPERTY_DEFINITION_REPRESENTATION(#504,#501);
#500=PROPERTY_DEFINITION_REPRESENTATION(#505,#502);
#501=REPRESENTATION('material name',(#503),#906);
#502=REPRESENTATION('density',(#498),#906);
#503=DESCRIPTIVE_REPRESENTATION_ITEM('\X2\94A2\X0\','\X2\94A2\X0\');
#504=PROPERTY_DEFINITION('material property','material name',#921);
#505=PROPERTY_DEFINITION('material property','density of part',#921);
#506=AXIS2_PLACEMENT_3D('',#757,#582,#583);
#507=AXIS2_PLACEMENT_3D('',#758,#584,#585);
#508=AXIS2_PLACEMENT_3D('',#759,#586,#587);
#509=AXIS2_PLACEMENT_3D('',#761,#588,#589);
#510=AXIS2_PLACEMENT_3D('',#764,#591,#592);
#511=AXIS2_PLACEMENT_3D('',#765,#593,#594);
#512=AXIS2_PLACEMENT_3D('',#766,#595,#596);
#513=AXIS2_PLACEMENT_3D('',#767,#597,#598);
#514=AXIS2_PLACEMENT_3D('',#770,#599,#600);
#515=AXIS2_PLACEMENT_3D('',#774,#602,#603);
#516=AXIS2_PLACEMENT_3D('',#776,#605,#606);
#517=AXIS2_PLACEMENT_3D('',#778,#607,#608);
#518=AXIS2_PLACEMENT_3D('',#780,#609,#610);
#519=AXIS2_PLACEMENT_3D('',#784,#612,#613);
#520=AXIS2_PLACEMENT_3D('',#788,#615,#616);
#521=AXIS2_PLACEMENT_3D('',#792,#618,#619);
#522=AXIS2_PLACEMENT_3D('',#796,#621,#622);
#523=AXIS2_PLACEMENT_3D('',#798,#624,#625);
#524=AXIS2_PLACEMENT_3D('',#801,#626,#627);
#525=AXIS2_PLACEMENT_3D('',#805,#629,#630);
#526=AXIS2_PLACEMENT_3D('',#807,#632,#633);
#527=AXIS2_PLACEMENT_3D('',#808,#634,#635);
#528=AXIS2_PLACEMENT_3D('',#809,#636,#637);
#529=AXIS2_PLACEMENT_3D('',#810,#638,#639);
#530=AXIS2_PLACEMENT_3D('',#812,#640,#641);
#531=AXIS2_PLACEMENT_3D('',#815,#643,#644);
#532=AXIS2_PLACEMENT_3D('',#816,#645,#646);
#533=AXIS2_PLACEMENT_3D('',#818,#647,#648);
#534=AXIS2_PLACEMENT_3D('',#821,#650,#651);
#535=AXIS2_PLACEMENT_3D('',#822,#652,#653);
#536=AXIS2_PLACEMENT_3D('',#824,#654,#655);
#537=AXIS2_PLACEMENT_3D('',#827,#657,#658);
#538=AXIS2_PLACEMENT_3D('',#828,#659,#660);
#539=AXIS2_PLACEMENT_3D('',#830,#661,#662);
#540=AXIS2_PLACEMENT_3D('',#834,#664,#665);
#541=AXIS2_PLACEMENT_3D('',#837,#667,#668);
#542=AXIS2_PLACEMENT_3D('',#839,#669,#670);
#543=AXIS2_PLACEMENT_3D('',#843,#672,#673);
#544=AXIS2_PLACEMENT_3D('',#846,#675,#676);
#545=AXIS2_PLACEMENT_3D('',#847,#677,#678);
#546=AXIS2_PLACEMENT_3D('',#849,#679,#680);
#547=AXIS2_PLACEMENT_3D('',#850,#681,#682);
#548=AXIS2_PLACEMENT_3D('',#852,#683,#684);
#549=AXIS2_PLACEMENT_3D('',#853,#685,#686);
#550=AXIS2_PLACEMENT_3D('',#854,#687,#688);
#551=AXIS2_PLACEMENT_3D('',#856,#689,#690);
#552=AXIS2_PLACEMENT_3D('',#857,#691,#692);
#553=AXIS2_PLACEMENT_3D('',#859,#693,#694);
#554=AXIS2_PLACEMENT_3D('',#861,#696,#697);
#555=AXIS2_PLACEMENT_3D('',#863,#698,#699);
#556=AXIS2_PLACEMENT_3D('',#865,#701,#702);
#557=AXIS2_PLACEMENT_3D('',#868,#704,#705);
#558=AXIS2_PLACEMENT_3D('',#869,#706,#707);
#559=AXIS2_PLACEMENT_3D('',#870,#708,#709);
#560=AXIS2_PLACEMENT_3D('',#871,#710,#711);
#561=AXIS2_PLACEMENT_3D('',#872,#712,#713);
#562=AXIS2_PLACEMENT_3D('',#873,#714,#715);
#563=AXIS2_PLACEMENT_3D('',#874,#716,#717);
#564=AXIS2_PLACEMENT_3D('',#876,#718,#719);
#565=AXIS2_PLACEMENT_3D('',#877,#720,#721);
#566=AXIS2_PLACEMENT_3D('',#879,#722,#723);
#567=AXIS2_PLACEMENT_3D('',#880,#724,#725);
#568=AXIS2_PLACEMENT_3D('',#881,#726,#727);
#569=AXIS2_PLACEMENT_3D('',#883,#728,#729);
#570=AXIS2_PLACEMENT_3D('',#884,#730,#731);
#571=AXIS2_PLACEMENT_3D('',#886,#732,#733);
#572=AXIS2_PLACEMENT_3D('',#888,#735,#736);
#573=AXIS2_PLACEMENT_3D('',#890,#737,#738);
#574=AXIS2_PLACEMENT_3D('',#892,#740,#741);
#575=AXIS2_PLACEMENT_3D('',#893,#742,#743);
#576=AXIS2_PLACEMENT_3D('',#894,#744,#745);
#577=AXIS2_PLACEMENT_3D('',#896,#746,#747);
#578=AXIS2_PLACEMENT_3D('',#898,#749,#750);
#579=AXIS2_PLACEMENT_3D('',#899,#751,#752);
#580=AXIS2_PLACEMENT_3D('',#900,#753,#754);
#581=AXIS2_PLACEMENT_3D('',#901,#755,#756);
#582=DIRECTION('axis',(0.,0.,1.));
#583=DIRECTION('refdir',(1.,0.,0.));
#584=DIRECTION('axis',(0.,0.,1.));
#585=DIRECTION('refdir',(1.,0.,0.));
#586=DIRECTION('center_axis',(0.,1.,0.));
#587=DIRECTION('ref_axis',(0.999999999948345,0.,1.01642017048175E-5));
#588=DIRECTION('center_axis',(2.46516527199658E-32,1.,2.46521538538006E-32));
#589=DIRECTION('ref_axis',(0.999999999948345,-2.46519032881566E-32,1.01642017048175E-5));
#590=DIRECTION('',(0.,-1.,0.));
#591=DIRECTION('center_axis',(-2.46516527199658E-32,-1.,-2.46521538538006E-32));
#592=DIRECTION('ref_axis',(0.999999999948345,-2.46519032881566E-32,1.01642017048175E-5));
#593=DIRECTION('center_axis',(-2.46516527199658E-32,-1.,-2.46521538538006E-32));
#594=DIRECTION('ref_axis',(0.999999999948344,-2.46519032881566E-32,1.01642017048175E-5));
#595=DIRECTION('center_axis',(-2.46516527199658E-32,-1.,-2.46521538538006E-32));
#596=DIRECTION('ref_axis',(0.999999999948344,-2.46519032881566E-32,1.01642017048175E-5));
#597=DIRECTION('center_axis',(0.,-1.,0.));
#598=DIRECTION('ref_axis',(0.98667410810391,0.,0.162708956106765));
#599=DIRECTION('center_axis',(0.,1.,0.));
#600=DIRECTION('ref_axis',(0.98667410810391,0.,0.162708956106765));
#601=DIRECTION('',(0.,-1.,0.));
#602=DIRECTION('center_axis',(0.,-1.,0.));
#603=DIRECTION('ref_axis',(0.98667410810391,0.,0.162708956106765));
#604=DIRECTION('',(0.,1.,0.));
#605=DIRECTION('center_axis',(0.,-1.,0.));
#606=DIRECTION('ref_axis',(-0.91505237271835,0.,0.403335040856257));
#607=DIRECTION('center_axis',(0.,-1.,0.));
#608=DIRECTION('ref_axis',(-0.91505237271835,0.,0.403335040856257));
#609=DIRECTION('center_axis',(0.,1.,0.));
#610=DIRECTION('ref_axis',(-0.91505237271835,0.,0.403335040856257));
#611=DIRECTION('',(0.,1.,0.));
#612=DIRECTION('center_axis',(0.,-1.,0.));
#613=DIRECTION('ref_axis',(-0.91505237271835,0.,0.403335040856257));
#614=DIRECTION('',(0.,1.,0.));
#615=DIRECTION('center_axis',(0.,1.,0.));
#616=DIRECTION('ref_axis',(-0.91505237271835,0.,0.403335040856257));
#617=DIRECTION('',(0.,1.,0.));
#618=DIRECTION('center_axis',(0.,-1.,0.));
#619=DIRECTION('ref_axis',(-0.91505237271835,0.,0.403335040856257));
#620=DIRECTION('',(0.,-1.,0.));
#621=DIRECTION('center_axis',(0.,1.,0.));
#622=DIRECTION('ref_axis',(-0.91505237271835,0.,0.403335040856257));
#623=DIRECTION('',(0.,-1.,0.));
#624=DIRECTION('center_axis',(0.,-1.,0.));
#625=DIRECTION('ref_axis',(0.345629985455824,0.,-0.938370882515974));
#626=DIRECTION('center_axis',(0.,1.,0.));
#627=DIRECTION('ref_axis',(0.345629985455824,0.,-0.938370882515974));
#628=DIRECTION('',(0.,-1.,0.));
#629=DIRECTION('center_axis',(0.,-1.,0.));
#630=DIRECTION('ref_axis',(0.345629985455824,0.,-0.938370882515974));
#631=DIRECTION('',(0.,1.,0.));
#632=DIRECTION('center_axis',(0.,-1.,0.));
#633=DIRECTION('ref_axis',(1.,0.,0.));
#634=DIRECTION('center_axis',(0.,1.,0.));
#635=DIRECTION('ref_axis',(1.,0.,0.));
#636=DIRECTION('center_axis',(0.,-1.,0.));
#637=DIRECTION('ref_axis',(1.,0.,0.));
#638=DIRECTION('center_axis',(0.,-1.,0.));
#639=DIRECTION('ref_axis',(0.613343899856544,0.,0.789815966228061));
#640=DIRECTION('center_axis',(0.,1.,0.));
#641=DIRECTION('ref_axis',(0.613343899856544,0.,0.789815966228061));
#642=DIRECTION('',(0.,-1.,0.));
#643=DIRECTION('center_axis',(0.,-1.,0.));
#644=DIRECTION('ref_axis',(0.613343899856544,0.,0.789815966228061));
#645=DIRECTION('center_axis',(0.,-1.,0.));
#646=DIRECTION('ref_axis',(1.,0.,0.));
#647=DIRECTION('center_axis',(0.,-1.,0.));
#648=DIRECTION('ref_axis',(1.,0.,0.));
#649=DIRECTION('',(0.,1.,0.));
#650=DIRECTION('center_axis',(0.,1.,0.));
#651=DIRECTION('ref_axis',(1.,0.,0.));
#652=DIRECTION('center_axis',(0.,-1.,0.));
#653=DIRECTION('ref_axis',(-0.660161990360873,0.,0.751123256518377));
#654=DIRECTION('center_axis',(0.,1.,0.));
#655=DIRECTION('ref_axis',(-0.660161990360873,0.,0.751123256518377));
#656=DIRECTION('',(0.,-1.,0.));
#657=DIRECTION('center_axis',(0.,-1.,0.));
#658=DIRECTION('ref_axis',(-0.660161990360873,0.,0.751123256518377));
#659=DIRECTION('center_axis',(0.,-1.,0.));
#660=DIRECTION('ref_axis',(-0.915052372718366,0.,0.40333504085622));
#661=DIRECTION('center_axis',(0.,-1.,0.));
#662=DIRECTION('ref_axis',(-0.915052372718366,0.,0.40333504085622));
#663=DIRECTION('',(0.,-1.,0.));
#664=DIRECTION('center_axis',(0.,-1.,0.));
#665=DIRECTION('ref_axis',(-0.915052372718366,0.,0.40333504085622));
#666=DIRECTION('',(0.,-1.,0.));
#667=DIRECTION('center_axis',(0.,-1.,0.));
#668=DIRECTION('ref_axis',(-0.915052372718366,0.,0.40333504085622));
#669=DIRECTION('center_axis',(0.,-1.,0.));
#670=DIRECTION('ref_axis',(-0.915052372718366,0.,0.40333504085622));
#671=DIRECTION('',(0.,1.,0.));
#672=DIRECTION('center_axis',(0.,1.,0.));
#673=DIRECTION('ref_axis',(-0.915052372718366,0.,0.40333504085622));
#674=DIRECTION('',(0.,1.,0.));
#675=DIRECTION('center_axis',(0.,-1.,0.));
#676=DIRECTION('ref_axis',(-0.915052372718366,0.,0.40333504085622));
#677=DIRECTION('center_axis',(0.,1.,0.));
#678=DIRECTION('ref_axis',(0.,0.,1.));
#679=DIRECTION('center_axis',(0.,-1.,0.));
#680=DIRECTION('ref_axis',(1.,0.,0.));
#681=DIRECTION('center_axis',(0.,-1.,0.));
#682=DIRECTION('ref_axis',(0.138752879024314,0.,-0.990327036166571));
#683=DIRECTION('center_axis',(0.,1.,0.));
#684=DIRECTION('ref_axis',(1.,0.,0.));
#685=DIRECTION('center_axis',(0.,1.,0.));
#686=DIRECTION('ref_axis',(0.,0.,1.));
#687=DIRECTION('center_axis',(0.,-1.,0.));
#688=DIRECTION('ref_axis',(1.,0.,0.));
#689=DIRECTION('center_axis',(0.,1.,0.));
#690=DIRECTION('ref_axis',(1.,0.,0.));
#691=DIRECTION('center_axis',(0.,1.,0.));
#692=DIRECTION('ref_axis',(1.,0.,0.));
#693=DIRECTION('center_axis',(0.,-1.,0.));
#694=DIRECTION('ref_axis',(1.,0.,0.));
#695=DIRECTION('',(0.,-1.,0.));
#696=DIRECTION('center_axis',(0.,1.,0.));
#697=DIRECTION('ref_axis',(1.,0.,0.));
#698=DIRECTION('center_axis',(0.,-1.,0.));
#699=DIRECTION('ref_axis',(1.,0.,0.));
#700=DIRECTION('',(0.,-1.,0.));
#701=DIRECTION('center_axis',(0.,1.,0.));
#702=DIRECTION('ref_axis',(0.138752879024314,0.,-0.990327036166571));
#703=DIRECTION('',(0.,1.,0.));
#704=DIRECTION('center_axis',(0.,1.,0.));
#705=DIRECTION('ref_axis',(0.138752879024314,0.,-0.990327036166571));
#706=DIRECTION('center_axis',(0.,1.,0.));
#707=DIRECTION('ref_axis',(1.,0.,0.));
#708=DIRECTION('center_axis',(0.,1.,0.));
#709=DIRECTION('ref_axis',(1.,0.,0.));
#710=DIRECTION('center_axis',(0.,1.,0.));
#711=DIRECTION('ref_axis',(1.,0.,0.));
#712=DIRECTION('center_axis',(0.,1.,0.));
#713=DIRECTION('ref_axis',(1.,0.,0.));
#714=DIRECTION('center_axis',(0.,1.,0.));
#715=DIRECTION('ref_axis',(0.,0.,1.));
#716=DIRECTION('center_axis',(0.,-1.,0.));
#717=DIRECTION('ref_axis',(1.,0.,0.));
#718=DIRECTION('center_axis',(0.,-1.,0.));
#719=DIRECTION('ref_axis',(0.138752879024314,0.,-0.990327036166571));
#720=DIRECTION('center_axis',(0.,-1.,0.));
#721=DIRECTION('ref_axis',(1.,0.,0.));
#722=DIRECTION('center_axis',(0.,1.,0.));
#723=DIRECTION('ref_axis',(1.,0.,0.));
#724=DIRECTION('center_axis',(0.,-1.,0.));
#725=DIRECTION('ref_axis',(1.,0.,0.));
#726=DIRECTION('center_axis',(0.,-1.,0.));
#727=DIRECTION('ref_axis',(1.,0.,0.));
#728=DIRECTION('center_axis',(0.,1.,0.));
#729=DIRECTION('ref_axis',(1.,0.,0.));
#730=DIRECTION('center_axis',(0.,-1.,0.));
#731=DIRECTION('ref_axis',(1.,0.,0.));
#732=DIRECTION('center_axis',(0.,1.,0.));
#733=DIRECTION('ref_axis',(1.,0.,0.));
#734=DIRECTION('',(0.,1.,0.));
#735=DIRECTION('center_axis',(0.,-1.,0.));
#736=DIRECTION('ref_axis',(1.,0.,0.));
#737=DIRECTION('center_axis',(0.,1.,0.));
#738=DIRECTION('ref_axis',(1.,0.,0.));
#739=DIRECTION('',(0.,1.,0.));
#740=DIRECTION('center_axis',(0.,-1.,0.));
#741=DIRECTION('ref_axis',(1.,0.,0.));
#742=DIRECTION('center_axis',(0.,-1.,0.));
#743=DIRECTION('ref_axis',(1.,0.,0.));
#744=DIRECTION('center_axis',(0.,-1.,0.));
#745=DIRECTION('ref_axis',(0.138752879024314,0.,-0.990327036166571));
#746=DIRECTION('center_axis',(0.,-1.,0.));
#747=DIRECTION('ref_axis',(0.138752879024314,0.,-0.990327036166571));
#748=DIRECTION('',(0.,-1.,0.));
#749=DIRECTION('center_axis',(0.,-1.,0.));
#750=DIRECTION('ref_axis',(1.,0.,0.));
#751=DIRECTION('center_axis',(0.,-1.,0.));
#752=DIRECTION('ref_axis',(1.,0.,0.));
#753=DIRECTION('center_axis',(0.,-1.,0.));
#754=DIRECTION('ref_axis',(1.,0.,0.));
#755=DIRECTION('',(0.,0.,1.));
#756=DIRECTION('',(1.,0.,0.));
#757=CARTESIAN_POINT('',(0.,0.,0.));
#758=CARTESIAN_POINT('',(0.,0.,0.));
#759=CARTESIAN_POINT('Origin',(12.12435575458,-6.5,7.00000000000155));
#760=CARTESIAN_POINT('',(9.12435575473496,0.5,6.99996950739644));
#761=CARTESIAN_POINT('Origin',(12.12435575458,0.5,7.00000000000155));
#762=CARTESIAN_POINT('',(9.12435575473496,-6.5,6.99996950739644));
#763=CARTESIAN_POINT('',(9.12435575473496,-6.5,6.99996950739644));
#764=CARTESIAN_POINT('Origin',(12.12435575458,-6.5,7.00000000000155));
#765=CARTESIAN_POINT('Origin',(12.12435575458,-6.5,7.00000000000155));
#766=CARTESIAN_POINT('Origin',(12.12435575458,0.5,7.00000000000155));
#767=CARTESIAN_POINT('Origin',(-17.6999185346383,-1.5,-3.65887765074405));
#768=CARTESIAN_POINT('',(-15.984360724898,-1.5,-4.68691529666896));
#769=CARTESIAN_POINT('',(-16.405280576813,-1.5,-2.13443921047901));
#770=CARTESIAN_POINT('Origin',(-17.6999185346383,-1.5,-3.65887765074405));
#771=CARTESIAN_POINT('',(-16.405280576813,-4.5,-2.13443921047901));
#772=CARTESIAN_POINT('',(-16.405280576813,-1.5,-2.13443921047901));
#773=CARTESIAN_POINT('',(-15.984360724898,-4.5,-4.68691529666896));
#774=CARTESIAN_POINT('Origin',(-17.6999185346383,-4.5,-3.65887765074405));
#775=CARTESIAN_POINT('',(-15.984360724898,-1.5,-4.68691529666896));
#776=CARTESIAN_POINT('Origin',(-11.2267287455114,-4.5,3.96331455058116));
#777=CARTESIAN_POINT('',(-12.243021629201,-4.5,-3.97186968008179));
#778=CARTESIAN_POINT('Origin',(-11.2267287455114,-4.5,3.96331455058116));
#779=CARTESIAN_POINT('',(-12.243021629201,-1.5,-3.97186968008179));
#780=CARTESIAN_POINT('Origin',(-11.2267287455114,-1.5,3.96331455058116));
#781=CARTESIAN_POINT('',(-12.243021629201,0.5,-3.97186968008179));
#782=CARTESIAN_POINT('',(-12.243021629201,-1.5,-3.97186968008179));
#783=CARTESIAN_POINT('',(-18.5471477272582,0.5,7.18999487743122));
#784=CARTESIAN_POINT('Origin',(-11.2267287455114,0.5,3.96331455058116));
#785=CARTESIAN_POINT('',(-18.5471477272582,-1.5,7.18999487743122));
#786=CARTESIAN_POINT('',(-18.5471477272582,-1.5,7.18999487743122));
#787=CARTESIAN_POINT('',(-19.0555985739104,-1.5,2.31747214926066));
#788=CARTESIAN_POINT('Origin',(-11.2267287455114,-1.5,3.96331455058116));
#789=CARTESIAN_POINT('',(-19.0555985739104,-4.5,2.31747214926066));
#790=CARTESIAN_POINT('',(-19.0555985739104,-4.5,2.31747214926066));
#791=CARTESIAN_POINT('',(-18.5471477272582,-4.5,7.18999487743122));
#792=CARTESIAN_POINT('Origin',(-11.2267287455114,-4.5,3.96331455058116));
#793=CARTESIAN_POINT('',(-18.5471477272582,-6.5,7.18999487743122));
#794=CARTESIAN_POINT('',(-18.5471477272582,-4.5,7.18999487743122));
#795=CARTESIAN_POINT('',(-12.243021629201,-6.5,-3.97186968008179));
#796=CARTESIAN_POINT('Origin',(-11.2267287455114,-6.5,3.96331455058116));
#797=CARTESIAN_POINT('',(-12.243021629201,-4.5,-3.97186968008179));
#798=CARTESIAN_POINT('Origin',(-18.4723095736866,-4.5,-5.60233014605993));
#799=CARTESIAN_POINT('',(-19.6799063783825,-1.5,-7.19660426216677));
#800=CARTESIAN_POINT('',(-16.5190929827006,-1.5,-6.03238240881072));
#801=CARTESIAN_POINT('Origin',(-18.4723095736866,-1.5,-5.60233014605993));
#802=CARTESIAN_POINT('',(-16.5190929827006,-4.5,-6.03238240881072));
#803=CARTESIAN_POINT('',(-16.5190929827006,-4.5,-6.03238240881072));
#804=CARTESIAN_POINT('',(-19.6799063783825,-4.5,-7.19660426216677));
#805=CARTESIAN_POINT('Origin',(-18.4723095736866,-4.5,-5.60233014605993));
#806=CARTESIAN_POINT('',(-19.6799063783825,-4.5,-7.19660426216677));
#807=CARTESIAN_POINT('Origin',(-12.1243556529821,-1.5,-7.));
#808=CARTESIAN_POINT('Origin',(-12.1243556529821,-4.5,-7.));
#809=CARTESIAN_POINT('Origin',(-12.1243556529821,-1.5,-7.));
#810=CARTESIAN_POINT('Origin',(-21.0128160310101,-4.5,1.90601154893053));
#811=CARTESIAN_POINT('',(-21.098812589288,-1.5,3.90416184156729));
#812=CARTESIAN_POINT('Origin',(-21.0128160310101,-1.5,1.90601154893053));
#813=CARTESIAN_POINT('',(-21.098812589288,-4.5,3.90416184156729));
#814=CARTESIAN_POINT('',(-21.098812589288,-4.5,3.90416184156729));
#815=CARTESIAN_POINT('Origin',(-21.0128160310101,-4.5,1.90601154893053));
#816=CARTESIAN_POINT('Origin',(-21.2923048454133,-1.5,8.39999999999999));
#817=CARTESIAN_POINT('',(-22.5364816216844,-1.5,4.07541630334345));
#818=CARTESIAN_POINT('Origin',(-21.2923048454133,-1.5,8.39999999999999));
#819=CARTESIAN_POINT('',(-22.5364816216844,-4.5,4.07541630334345));
#820=CARTESIAN_POINT('',(-22.5364816216844,-1.5,4.07541630334345));
#821=CARTESIAN_POINT('Origin',(-21.2923048454133,-4.5,8.39999999999999));
#822=CARTESIAN_POINT('Origin',(-23.0894490778049,-1.5,2.15337910482943));
#823=CARTESIAN_POINT('',(-25.0665691331872,-1.5,1.8517231972041));
#824=CARTESIAN_POINT('Origin',(-23.0894490778049,-1.5,2.15337910482943));
#825=CARTESIAN_POINT('',(-25.0665691331872,-4.5,1.8517231972041));
#826=CARTESIAN_POINT('',(-25.0665691331872,-1.5,1.8517231972041));
#827=CARTESIAN_POINT('Origin',(-23.0894490778049,-4.5,2.15337910482943));
#828=CARTESIAN_POINT('Origin',(-11.226728745511,-4.5,3.96331455058144));
#829=CARTESIAN_POINT('',(-12.3691629913834,-4.5,-9.9899948774313));
#830=CARTESIAN_POINT('Origin',(-11.226728745511,-4.5,3.96331455058144));
#831=CARTESIAN_POINT('',(-12.3691629913834,-6.5,-9.9899948774313));
#832=CARTESIAN_POINT('',(-12.3691629913834,-4.5,-9.9899948774313));
#833=CARTESIAN_POINT('',(-24.0374619635685,-6.5,9.61000512256868));
#834=CARTESIAN_POINT('Origin',(-11.226728745511,-6.5,3.96331455058144));
#835=CARTESIAN_POINT('',(-24.0374619635685,-4.5,9.61000512256868));
#836=CARTESIAN_POINT('',(-24.0374619635685,-4.5,9.61000512256868));
#837=CARTESIAN_POINT('Origin',(-11.226728745511,-4.5,3.96331455058144));
#838=CARTESIAN_POINT('',(-24.0374619635685,-1.5,9.61000512256868));
#839=CARTESIAN_POINT('Origin',(-11.226728745511,-1.5,3.96331455058144));
#840=CARTESIAN_POINT('',(-24.0374619635685,0.5,9.61000512256868));
#841=CARTESIAN_POINT('',(-24.0374619635685,-1.5,9.61000512256868));
#842=CARTESIAN_POINT('',(-12.3691629913834,0.5,-9.9899948774313));
#843=CARTESIAN_POINT('Origin',(-11.226728745511,0.5,3.96331455058144));
#844=CARTESIAN_POINT('',(-12.3691629913834,-1.5,-9.9899948774313));
#845=CARTESIAN_POINT('',(-12.3691629913834,-1.5,-9.9899948774313));
#846=CARTESIAN_POINT('Origin',(-11.226728745511,-1.5,3.96331455058144));
#847=CARTESIAN_POINT('Origin',(-17.1755421992468,-1.5,0.699999999999996));
#848=CARTESIAN_POINT('',(-12.5406142900551,-1.5,-4.02901889150029));
#849=CARTESIAN_POINT('Origin',(-12.1243556529821,-1.5,-7.));
#850=CARTESIAN_POINT('Origin',(-12.956872927128,-1.5,-1.05803778300057));
#851=CARTESIAN_POINT('',(-13.1743556529821,-1.5,-7.));
#852=CARTESIAN_POINT('Origin',(-12.1243556529821,-1.5,-7.));
#853=CARTESIAN_POINT('Origin',(-17.1755421992468,-1.5,0.699999999999996));
#854=CARTESIAN_POINT('Origin',(-21.2923048454133,-1.5,8.39999999999999));
#855=CARTESIAN_POINT('',(-22.3423048454133,-1.5,8.39999999999999));
#856=CARTESIAN_POINT('Origin',(-21.2923048454133,-1.5,8.39999999999999));
#857=CARTESIAN_POINT('Origin',(-21.2923048454133,-1.5,8.39999999999999));
#858=CARTESIAN_POINT('',(-22.3423048454133,0.5,8.39999999999999));
#859=CARTESIAN_POINT('Origin',(-21.2923048454133,0.5,8.39999999999999));
#860=CARTESIAN_POINT('',(-22.3423048454133,-1.5,8.39999999999999));
#861=CARTESIAN_POINT('Origin',(-12.1243556529821,-1.5,-7.));
#862=CARTESIAN_POINT('',(-13.1743556529821,0.5,-7.));
#863=CARTESIAN_POINT('Origin',(-12.1243556529821,0.5,-7.));
#864=CARTESIAN_POINT('',(-13.1743556529821,-1.5,-7.));
#865=CARTESIAN_POINT('Origin',(-12.956872927128,-1.5,-1.05803778300057));
#866=CARTESIAN_POINT('',(-12.5406142900551,0.5,-4.02901889150029));
#867=CARTESIAN_POINT('',(-12.5406142900551,-1.5,-4.02901889150029));
#868=CARTESIAN_POINT('Origin',(-12.956872927128,0.5,-1.05803778300057));
#869=CARTESIAN_POINT('Origin',(-21.2923048454133,-1.5,8.39999999999999));
#870=CARTESIAN_POINT('Origin',(-21.2923048454133,0.5,8.39999999999999));
#871=CARTESIAN_POINT('Origin',(-12.1243556529821,-1.5,-7.));
#872=CARTESIAN_POINT('Origin',(-12.1243556529821,0.5,-7.));
#873=CARTESIAN_POINT('Origin',(-17.1755421992468,0.5,0.699999999999996));
#874=CARTESIAN_POINT('Origin',(-17.1755421992468,-4.5,0.699999999999995));
#875=CARTESIAN_POINT('',(-12.5406142900551,-4.5,-4.02901889150029));
#876=CARTESIAN_POINT('Origin',(-12.956872927128,-4.5,-1.05803778300057));
#877=CARTESIAN_POINT('Origin',(-12.1243556529821,-4.5,-7.));
#878=CARTESIAN_POINT('',(-13.1743556529821,-4.5,-7.));
#879=CARTESIAN_POINT('Origin',(-12.1243556529821,-4.5,-7.));
#880=CARTESIAN_POINT('Origin',(-17.1755421992468,-4.5,0.699999999999995));
#881=CARTESIAN_POINT('Origin',(-21.2923048454133,-4.5,8.39999999999999));
#882=CARTESIAN_POINT('',(-22.3423048454133,-4.5,8.39999999999999));
#883=CARTESIAN_POINT('Origin',(-21.2923048454133,-4.5,8.39999999999999));
#884=CARTESIAN_POINT('Origin',(-21.2923048454133,-4.5,8.39999999999999));
#885=CARTESIAN_POINT('',(-22.3423048454133,-6.5,8.39999999999999));
#886=CARTESIAN_POINT('Origin',(-21.2923048454133,-6.5,8.39999999999999));
#887=CARTESIAN_POINT('',(-22.3423048454133,-4.5,8.39999999999999));
#888=CARTESIAN_POINT('Origin',(-12.1243556529821,-4.5,-7.));
#889=CARTESIAN_POINT('',(-13.1743556529821,-6.5,-7.));
#890=CARTESIAN_POINT('Origin',(-12.1243556529821,-6.5,-7.));
#891=CARTESIAN_POINT('',(-13.1743556529821,-4.5,-7.));
#892=CARTESIAN_POINT('Origin',(-21.2923048454133,-4.5,8.39999999999999));
#893=CARTESIAN_POINT('Origin',(-21.2923048454133,-6.5,8.39999999999999));
#894=CARTESIAN_POINT('Origin',(-12.956872927128,-4.5,-1.05803778300057));
#895=CARTESIAN_POINT('',(-12.5406142900551,-6.5,-4.02901889150029));
#896=CARTESIAN_POINT('Origin',(-12.956872927128,-6.5,-1.05803778300057));
#897=CARTESIAN_POINT('',(-12.5406142900551,-4.5,-4.02901889150029));
#898=CARTESIAN_POINT('Origin',(-12.1243556529821,-4.5,-7.));
#899=CARTESIAN_POINT('Origin',(-12.1243556529821,-6.5,-7.));
#900=CARTESIAN_POINT('Origin',(-17.1755421992468,-6.5,0.699999999999995));
#901=CARTESIAN_POINT('',(0.,0.,0.));
#902=UNCERTAINTY_MEASURE_WITH_UNIT(LENGTH_MEASURE(0.01),#908,
'DISTANCE_ACCURACY_VALUE',
'Maximum model space distance between geometric entities at asserted c
onnectivities');
#903=UNCERTAINTY_MEASURE_WITH_UNIT(LENGTH_MEASURE(0.01),#908,
'DISTANCE_ACCURACY_VALUE',
'Maximum model space distance between geometric entities at asserted c
onnectivities');
#904=UNCERTAINTY_MEASURE_WITH_UNIT(LENGTH_MEASURE(0.01),#908,
'DISTANCE_ACCURACY_VALUE',
'Maximum model space distance between geometric entities at asserted c
onnectivities');
#905=(
GEOMETRIC_REPRESENTATION_CONTEXT(3)
GLOBAL_UNCERTAINTY_ASSIGNED_CONTEXT((#902))
GLOBAL_UNIT_ASSIGNED_CONTEXT((#908,#910,#911))
REPRESENTATION_CONTEXT('','3D')
);
#906=(
GEOMETRIC_REPRESENTATION_CONTEXT(3)
GLOBAL_UNCERTAINTY_ASSIGNED_CONTEXT((#903))
GLOBAL_UNIT_ASSIGNED_CONTEXT((#908,#910,#911))
REPRESENTATION_CONTEXT('','3D')
);
#907=(
GEOMETRIC_REPRESENTATION_CONTEXT(3)
GLOBAL_UNCERTAINTY_ASSIGNED_CONTEXT((#904))
GLOBAL_UNIT_ASSIGNED_CONTEXT((#908,#910,#911))
REPRESENTATION_CONTEXT('','3D')
);
#908=(
LENGTH_UNIT()
NAMED_UNIT(*)
SI_UNIT(.MILLI.,.METRE.)
);
#909=(
LENGTH_UNIT()
NAMED_UNIT(*)
SI_UNIT($,.METRE.)
);
#910=(
NAMED_UNIT(*)
PLANE_ANGLE_UNIT()
SI_UNIT($,.RADIAN.)
);
#911=(
NAMED_UNIT(*)
SI_UNIT($,.STERADIAN.)
SOLID_ANGLE_UNIT()
);
#912=SHAPE_DEFINITION_REPRESENTATION(#914,#917);
#913=SHAPE_DEFINITION_REPRESENTATION(#915,#918);
#914=PRODUCT_DEFINITION_SHAPE('',$,#920);
#915=PRODUCT_DEFINITION_SHAPE('',$,#921);
#916=PRODUCT_DEFINITION_SHAPE($,$,#14);
#917=SHAPE_REPRESENTATION('',(#506,#581),#905);
#918=SHAPE_REPRESENTATION('',(#507),#906);
#919=PRODUCT_DEFINITION_CONTEXT('part definition',#927,'design');
#920=PRODUCT_DEFINITION('\X2\819D76D64F2052A8\X0\1','\X2\819D76D64F2052A8\X0\1',
#922,#919);
#921=PRODUCT_DEFINITION('COL_\X2\5C0F817F4F2052A8\X0\',
'COL_\X2\5C0F817F4F2052A8\X0\',#923,#919);
#922=PRODUCT_DEFINITION_FORMATION('',$,#929);
#923=PRODUCT_DEFINITION_FORMATION('',$,#930);
#924=PRODUCT_RELATED_PRODUCT_CATEGORY('\X2\819D76D64F2052A8\X0\1',
'\X2\819D76D64F2052A8\X0\1',(#929));
#925=PRODUCT_RELATED_PRODUCT_CATEGORY('COL_\X2\5C0F817F4F2052A8\X0\',
'COL_\X2\5C0F817F4F2052A8\X0\',(#930));
#926=APPLICATION_PROTOCOL_DEFINITION('international standard',
'automotive_design',2009,#927);
#927=APPLICATION_CONTEXT(
'Core Data for Automotive Mechanical Design Process');
#928=PRODUCT_CONTEXT('part definition',#927,'mechanical');
#929=PRODUCT('\X2\819D76D64F2052A8\X0\1','\X2\819D76D64F2052A8\X0\1',$,
(#928));
#930=PRODUCT('COL_\X2\5C0F817F4F2052A8\X0\','COL_\X2\5C0F817F4F2052A8\X0\',
$,(#928));
#931=PRESENTATION_STYLE_ASSIGNMENT((#932));
#932=SURFACE_STYLE_USAGE(.BOTH.,#933);
#933=SURFACE_SIDE_STYLE('',(#934));
#934=SURFACE_STYLE_FILL_AREA(#935);
#935=FILL_AREA_STYLE('\X2\94A2\X0\ - \X2\7F0E5149\X0\',(#936));
#936=FILL_AREA_STYLE_COLOUR('\X2\94A2\X0\ - \X2\7F0E5149\X0\',#937);
#937=COLOUR_RGB('\X2\94A2\X0\ - \X2\7F0E5149\X0\',0.627450980392157,0.627450980392157,
0.627450980392157);
ENDSEC;
END-ISO-10303-21;
