ISO-10303-21;
HEADER;
/* Generated by software containing ST-Developer
 * from STEP Tools, Inc. (www.steptools.com) 
 */

FILE_DESCRIPTION(
/* description */ (''),
/* implementation_level */ '2;1');

FILE_NAME(
/* name */ '',
/* time_stamp */ '2026-07-15T12:12:02+08:00',
/* author */ (''),
/* organization */ (''),
/* preprocessor_version */ 'ST-DEVELOPER v20.1',
/* originating_system */ 'Autodesk Translation Framework v15.8.0.0',
/* authorisation */ '');

FILE_SCHEMA (('AUTOMOTIVE_DESIGN { 1 0 10303 214 3 1 1 }'));
ENDSEC;

DATA;
#10=MECHANICAL_DESIGN_GEOMETRIC_PRESENTATION_REPRESENTATION('',(#13),#544);
#11=SHAPE_REPRESENTATION_RELATIONSHIP('SRR','None',#551,#12);
#12=ADVANCED_BREP_SHAPE_REPRESENTATION('',(#14),#543);
#13=STYLED_ITEM('',(#560),#14);
#14=MANIFOLD_SOLID_BREP('\X2\5927817F76D6677F\X0\',#296);
#15=FACE_BOUND('',#49,.T.);
#16=FACE_BOUND('',#51,.T.);
#17=FACE_BOUND('',#52,.T.);
#18=FACE_BOUND('',#54,.T.);
#19=FACE_BOUND('',#55,.T.);
#20=FACE_BOUND('',#66,.T.);
#21=FACE_BOUND('',#69,.T.);
#22=PLANE('',#316);
#23=PLANE('',#317);
#24=PLANE('',#323);
#25=PLANE('',#333);
#26=PLANE('',#347);
#27=PLANE('',#351);
#28=FACE_OUTER_BOUND('',#46,.T.);
#29=FACE_OUTER_BOUND('',#47,.T.);
#30=FACE_OUTER_BOUND('',#48,.T.);
#31=FACE_OUTER_BOUND('',#50,.T.);
#32=FACE_OUTER_BOUND('',#53,.T.);
#33=FACE_OUTER_BOUND('',#56,.T.);
#34=FACE_OUTER_BOUND('',#57,.T.);
#35=FACE_OUTER_BOUND('',#58,.T.);
#36=FACE_OUTER_BOUND('',#59,.T.);
#37=FACE_OUTER_BOUND('',#60,.T.);
#38=FACE_OUTER_BOUND('',#61,.T.);
#39=FACE_OUTER_BOUND('',#62,.T.);
#40=FACE_OUTER_BOUND('',#63,.T.);
#41=FACE_OUTER_BOUND('',#64,.T.);
#42=FACE_OUTER_BOUND('',#65,.T.);
#43=FACE_OUTER_BOUND('',#67,.T.);
#44=FACE_OUTER_BOUND('',#68,.T.);
#45=FACE_OUTER_BOUND('',#70,.T.);
#46=EDGE_LOOP('',(#188,#189,#190,#191));
#47=EDGE_LOOP('',(#192,#193,#194,#195));
#48=EDGE_LOOP('',(#196));
#49=EDGE_LOOP('',(#197));
#50=EDGE_LOOP('',(#198,#199,#200,#201));
#51=EDGE_LOOP('',(#202));
#52=EDGE_LOOP('',(#203));
#53=EDGE_LOOP('',(#204,#205,#206,#207));
#54=EDGE_LOOP('',(#208));
#55=EDGE_LOOP('',(#209));
#56=EDGE_LOOP('',(#210,#211,#212,#213));
#57=EDGE_LOOP('',(#214,#215,#216,#217));
#58=EDGE_LOOP('',(#218,#219,#220,#221,#222,#223,#224,#225));
#59=EDGE_LOOP('',(#226,#227,#228,#229));
#60=EDGE_LOOP('',(#230,#231,#232,#233));
#61=EDGE_LOOP('',(#234,#235,#236,#237));
#62=EDGE_LOOP('',(#238,#239,#240,#241,#242,#243,#244,#245));
#63=EDGE_LOOP('',(#246,#247,#248,#249));
#64=EDGE_LOOP('',(#250,#251,#252,#253));
#65=EDGE_LOOP('',(#254));
#66=EDGE_LOOP('',(#255));
#67=EDGE_LOOP('',(#256,#257,#258,#259));
#68=EDGE_LOOP('',(#260));
#69=EDGE_LOOP('',(#261));
#70=EDGE_LOOP('',(#262,#263,#264,#265));
#71=LINE('',#462,#84);
#72=LINE('',#468,#85);
#73=LINE('',#495,#86);
#74=LINE('',#498,#87);
#75=LINE('',#502,#88);
#76=LINE('',#516,#89);
#77=LINE('',#517,#90);
#78=LINE('',#519,#91);
#79=LINE('',#521,#92);
#80=LINE('',#523,#93);
#81=LINE('',#527,#94);
#82=LINE('',#535,#95);
#83=LINE('',#540,#96);
#84=VECTOR('',#360,0.999999999999996);
#85=VECTOR('',#367,2.7);
#86=VECTOR('',#398,10.);
#87=VECTOR('',#401,10.);
#88=VECTOR('',#406,10.);
#89=VECTOR('',#423,10.);
#90=VECTOR('',#424,10.);
#91=VECTOR('',#427,10.);
#92=VECTOR('',#430,10.);
#93=VECTOR('',#433,10.);
#94=VECTOR('',#438,2.7);
#95=VECTOR('',#449,3.9);
#96=VECTOR('',#456,1.);
#97=CIRCLE('',#311,0.999999999999996);
#98=CIRCLE('',#312,0.999999999999996);
#99=CIRCLE('',#314,2.7);
#100=CIRCLE('',#315,2.7);
#101=CIRCLE('',#318,10.);
#102=CIRCLE('',#319,30.3039824981886);
#103=CIRCLE('',#320,7.9999999990566);
#104=CIRCLE('',#321,57.7136705535787);
#105=CIRCLE('',#322,2.7);
#106=CIRCLE('',#324,40.0000000000009);
#107=CIRCLE('',#325,10.);
#108=CIRCLE('',#326,90.);
#109=CIRCLE('',#327,3.61766642965064);
#110=CIRCLE('',#328,3.9);
#111=CIRCLE('',#330,3.61766642965064);
#112=CIRCLE('',#332,40.0000000000009);
#113=CIRCLE('',#334,90.);
#114=CIRCLE('',#335,10.);
#115=CIRCLE('',#336,57.7136705535787);
#116=CIRCLE('',#337,7.9999999990566);
#117=CIRCLE('',#338,30.3039824981886);
#118=CIRCLE('',#339,10.);
#119=CIRCLE('',#346,2.7);
#120=CIRCLE('',#348,3.9);
#121=CIRCLE('',#349,1.);
#122=CIRCLE('',#352,1.);
#123=VERTEX_POINT('',#459);
#124=VERTEX_POINT('',#461);
#125=VERTEX_POINT('',#465);
#126=VERTEX_POINT('',#467);
#127=VERTEX_POINT('',#472);
#128=VERTEX_POINT('',#473);
#129=VERTEX_POINT('',#475);
#130=VERTEX_POINT('',#477);
#131=VERTEX_POINT('',#480);
#132=VERTEX_POINT('',#483);
#133=VERTEX_POINT('',#484);
#134=VERTEX_POINT('',#486);
#135=VERTEX_POINT('',#488);
#136=VERTEX_POINT('',#491);
#137=VERTEX_POINT('',#494);
#138=VERTEX_POINT('',#496);
#139=VERTEX_POINT('',#500);
#140=VERTEX_POINT('',#504);
#141=VERTEX_POINT('',#506);
#142=VERTEX_POINT('',#508);
#143=VERTEX_POINT('',#510);
#144=VERTEX_POINT('',#512);
#145=VERTEX_POINT('',#526);
#146=VERTEX_POINT('',#530);
#147=VERTEX_POINT('',#532);
#148=VERTEX_POINT('',#537);
#149=EDGE_CURVE('',#123,#123,#97,.T.);
#150=EDGE_CURVE('',#123,#124,#71,.T.);
#151=EDGE_CURVE('',#124,#124,#98,.T.);
#152=EDGE_CURVE('',#125,#125,#99,.T.);
#153=EDGE_CURVE('',#125,#126,#72,.T.);
#154=EDGE_CURVE('',#126,#126,#100,.T.);
#155=EDGE_CURVE('',#127,#128,#101,.T.);
#156=EDGE_CURVE('',#129,#128,#102,.T.);
#157=EDGE_CURVE('',#129,#130,#103,.T.);
#158=EDGE_CURVE('',#130,#127,#104,.T.);
#159=EDGE_CURVE('',#131,#131,#105,.T.);
#160=EDGE_CURVE('',#132,#133,#106,.T.);
#161=EDGE_CURVE('',#134,#133,#107,.T.);
#162=EDGE_CURVE('',#134,#135,#108,.T.);
#163=EDGE_CURVE('',#135,#132,#109,.T.);
#164=EDGE_CURVE('',#136,#136,#110,.T.);
#165=EDGE_CURVE('',#137,#135,#73,.T.);
#166=EDGE_CURVE('',#138,#137,#111,.T.);
#167=EDGE_CURVE('',#132,#138,#74,.T.);
#168=EDGE_CURVE('',#138,#139,#112,.T.);
#169=EDGE_CURVE('',#133,#139,#75,.T.);
#170=EDGE_CURVE('',#140,#137,#113,.T.);
#171=EDGE_CURVE('',#141,#140,#114,.T.);
#172=EDGE_CURVE('',#141,#142,#115,.T.);
#173=EDGE_CURVE('',#142,#143,#116,.T.);
#174=EDGE_CURVE('',#143,#144,#117,.T.);
#175=EDGE_CURVE('',#139,#144,#118,.T.);
#176=EDGE_CURVE('',#128,#144,#76,.T.);
#177=EDGE_CURVE('',#129,#143,#77,.T.);
#178=EDGE_CURVE('',#130,#142,#78,.T.);
#179=EDGE_CURVE('',#127,#141,#79,.T.);
#180=EDGE_CURVE('',#140,#134,#80,.T.);
#181=EDGE_CURVE('',#131,#145,#81,.T.);
#182=EDGE_CURVE('',#145,#145,#119,.T.);
#183=EDGE_CURVE('',#146,#146,#120,.T.);
#184=EDGE_CURVE('',#147,#147,#121,.T.);
#185=EDGE_CURVE('',#146,#136,#82,.T.);
#186=EDGE_CURVE('',#148,#148,#122,.T.);
#187=EDGE_CURVE('',#148,#147,#83,.T.);
#188=ORIENTED_EDGE('',*,*,#149,.T.);
#189=ORIENTED_EDGE('',*,*,#150,.T.);
#190=ORIENTED_EDGE('',*,*,#151,.F.);
#191=ORIENTED_EDGE('',*,*,#150,.F.);
#192=ORIENTED_EDGE('',*,*,#152,.F.);
#193=ORIENTED_EDGE('',*,*,#153,.T.);
#194=ORIENTED_EDGE('',*,*,#154,.T.);
#195=ORIENTED_EDGE('',*,*,#153,.F.);
#196=ORIENTED_EDGE('',*,*,#154,.F.);
#197=ORIENTED_EDGE('',*,*,#149,.F.);
#198=ORIENTED_EDGE('',*,*,#155,.T.);
#199=ORIENTED_EDGE('',*,*,#156,.F.);
#200=ORIENTED_EDGE('',*,*,#157,.T.);
#201=ORIENTED_EDGE('',*,*,#158,.T.);
#202=ORIENTED_EDGE('',*,*,#159,.T.);
#203=ORIENTED_EDGE('',*,*,#152,.T.);
#204=ORIENTED_EDGE('',*,*,#160,.T.);
#205=ORIENTED_EDGE('',*,*,#161,.F.);
#206=ORIENTED_EDGE('',*,*,#162,.T.);
#207=ORIENTED_EDGE('',*,*,#163,.T.);
#208=ORIENTED_EDGE('',*,*,#151,.T.);
#209=ORIENTED_EDGE('',*,*,#164,.T.);
#210=ORIENTED_EDGE('',*,*,#163,.F.);
#211=ORIENTED_EDGE('',*,*,#165,.F.);
#212=ORIENTED_EDGE('',*,*,#166,.F.);
#213=ORIENTED_EDGE('',*,*,#167,.F.);
#214=ORIENTED_EDGE('',*,*,#167,.T.);
#215=ORIENTED_EDGE('',*,*,#168,.T.);
#216=ORIENTED_EDGE('',*,*,#169,.F.);
#217=ORIENTED_EDGE('',*,*,#160,.F.);
#218=ORIENTED_EDGE('',*,*,#166,.T.);
#219=ORIENTED_EDGE('',*,*,#170,.F.);
#220=ORIENTED_EDGE('',*,*,#171,.F.);
#221=ORIENTED_EDGE('',*,*,#172,.T.);
#222=ORIENTED_EDGE('',*,*,#173,.T.);
#223=ORIENTED_EDGE('',*,*,#174,.T.);
#224=ORIENTED_EDGE('',*,*,#175,.F.);
#225=ORIENTED_EDGE('',*,*,#168,.F.);
#226=ORIENTED_EDGE('',*,*,#156,.T.);
#227=ORIENTED_EDGE('',*,*,#176,.T.);
#228=ORIENTED_EDGE('',*,*,#174,.F.);
#229=ORIENTED_EDGE('',*,*,#177,.F.);
#230=ORIENTED_EDGE('',*,*,#157,.F.);
#231=ORIENTED_EDGE('',*,*,#177,.T.);
#232=ORIENTED_EDGE('',*,*,#173,.F.);
#233=ORIENTED_EDGE('',*,*,#178,.F.);
#234=ORIENTED_EDGE('',*,*,#158,.F.);
#235=ORIENTED_EDGE('',*,*,#178,.T.);
#236=ORIENTED_EDGE('',*,*,#172,.F.);
#237=ORIENTED_EDGE('',*,*,#179,.F.);
#238=ORIENTED_EDGE('',*,*,#179,.T.);
#239=ORIENTED_EDGE('',*,*,#171,.T.);
#240=ORIENTED_EDGE('',*,*,#180,.T.);
#241=ORIENTED_EDGE('',*,*,#161,.T.);
#242=ORIENTED_EDGE('',*,*,#169,.T.);
#243=ORIENTED_EDGE('',*,*,#175,.T.);
#244=ORIENTED_EDGE('',*,*,#176,.F.);
#245=ORIENTED_EDGE('',*,*,#155,.F.);
#246=ORIENTED_EDGE('',*,*,#165,.T.);
#247=ORIENTED_EDGE('',*,*,#162,.F.);
#248=ORIENTED_EDGE('',*,*,#180,.F.);
#249=ORIENTED_EDGE('',*,*,#170,.T.);
#250=ORIENTED_EDGE('',*,*,#159,.F.);
#251=ORIENTED_EDGE('',*,*,#181,.T.);
#252=ORIENTED_EDGE('',*,*,#182,.T.);
#253=ORIENTED_EDGE('',*,*,#181,.F.);
#254=ORIENTED_EDGE('',*,*,#183,.T.);
#255=ORIENTED_EDGE('',*,*,#184,.F.);
#256=ORIENTED_EDGE('',*,*,#183,.F.);
#257=ORIENTED_EDGE('',*,*,#185,.T.);
#258=ORIENTED_EDGE('',*,*,#164,.F.);
#259=ORIENTED_EDGE('',*,*,#185,.F.);
#260=ORIENTED_EDGE('',*,*,#182,.F.);
#261=ORIENTED_EDGE('',*,*,#186,.T.);
#262=ORIENTED_EDGE('',*,*,#186,.F.);
#263=ORIENTED_EDGE('',*,*,#187,.T.);
#264=ORIENTED_EDGE('',*,*,#184,.T.);
#265=ORIENTED_EDGE('',*,*,#187,.F.);
#266=CYLINDRICAL_SURFACE('',#310,0.999999999999996);
#267=CYLINDRICAL_SURFACE('',#313,2.7);
#268=CYLINDRICAL_SURFACE('',#329,3.61766642965063);
#269=CYLINDRICAL_SURFACE('',#331,40.0000000000009);
#270=CYLINDRICAL_SURFACE('',#340,30.3039824981886);
#271=CYLINDRICAL_SURFACE('',#341,7.9999999990566);
#272=CYLINDRICAL_SURFACE('',#342,57.7136705535787);
#273=CYLINDRICAL_SURFACE('',#343,10.);
#274=CYLINDRICAL_SURFACE('',#344,90.);
#275=CYLINDRICAL_SURFACE('',#345,2.7);
#276=CYLINDRICAL_SURFACE('',#350,3.9);
#277=CYLINDRICAL_SURFACE('',#353,1.);
#278=ADVANCED_FACE('',(#28),#266,.F.);
#279=ADVANCED_FACE('',(#29),#267,.F.);
#280=ADVANCED_FACE('',(#30,#15),#22,.T.);
#281=ADVANCED_FACE('',(#31,#16,#17),#23,.T.);
#282=ADVANCED_FACE('',(#32,#18,#19),#24,.T.);
#283=ADVANCED_FACE('',(#33),#268,.T.);
#284=ADVANCED_FACE('',(#34),#269,.F.);
#285=ADVANCED_FACE('',(#35),#25,.F.);
#286=ADVANCED_FACE('',(#36),#270,.F.);
#287=ADVANCED_FACE('',(#37),#271,.T.);
#288=ADVANCED_FACE('',(#38),#272,.T.);
#289=ADVANCED_FACE('',(#39),#273,.T.);
#290=ADVANCED_FACE('',(#40),#274,.T.);
#291=ADVANCED_FACE('',(#41),#275,.F.);
#292=ADVANCED_FACE('',(#42,#20),#26,.T.);
#293=ADVANCED_FACE('',(#43),#276,.T.);
#294=ADVANCED_FACE('',(#44,#21),#27,.F.);
#295=ADVANCED_FACE('',(#45),#277,.F.);
#296=CLOSED_SHELL('',(#278,#279,#280,#281,#282,#283,#284,#285,#286,#287,
#288,#289,#290,#291,#292,#293,#294,#295));
#297=DERIVED_UNIT_ELEMENT(#299,1.);
#298=DERIVED_UNIT_ELEMENT(#546,-3.);
#299=(
MASS_UNIT()
NAMED_UNIT(*)
SI_UNIT(.KILO.,.GRAM.)
);
#300=DERIVED_UNIT((#297,#298));
#301=MEASURE_REPRESENTATION_ITEM('density measure',
POSITIVE_RATIO_MEASURE(7850.),#300);
#302=PROPERTY_DEFINITION_REPRESENTATION(#307,#304);
#303=PROPERTY_DEFINITION_REPRESENTATION(#308,#305);
#304=REPRESENTATION('material name',(#306),#543);
#305=REPRESENTATION('density',(#301),#543);
#306=DESCRIPTIVE_REPRESENTATION_ITEM('\X2\94A2\X0\','\X2\94A2\X0\');
#307=PROPERTY_DEFINITION('material property','material name',#553);
#308=PROPERTY_DEFINITION('material property','density of part',#553);
#309=AXIS2_PLACEMENT_3D('',#457,#354,#355);
#310=AXIS2_PLACEMENT_3D('',#458,#356,#357);
#311=AXIS2_PLACEMENT_3D('',#460,#358,#359);
#312=AXIS2_PLACEMENT_3D('',#463,#361,#362);
#313=AXIS2_PLACEMENT_3D('',#464,#363,#364);
#314=AXIS2_PLACEMENT_3D('',#466,#365,#366);
#315=AXIS2_PLACEMENT_3D('',#469,#368,#369);
#316=AXIS2_PLACEMENT_3D('',#470,#370,#371);
#317=AXIS2_PLACEMENT_3D('',#471,#372,#373);
#318=AXIS2_PLACEMENT_3D('',#474,#374,#375);
#319=AXIS2_PLACEMENT_3D('',#476,#376,#377);
#320=AXIS2_PLACEMENT_3D('',#478,#378,#379);
#321=AXIS2_PLACEMENT_3D('',#479,#380,#381);
#322=AXIS2_PLACEMENT_3D('',#481,#382,#383);
#323=AXIS2_PLACEMENT_3D('',#482,#384,#385);
#324=AXIS2_PLACEMENT_3D('',#485,#386,#387);
#325=AXIS2_PLACEMENT_3D('',#487,#388,#389);
#326=AXIS2_PLACEMENT_3D('',#489,#390,#391);
#327=AXIS2_PLACEMENT_3D('',#490,#392,#393);
#328=AXIS2_PLACEMENT_3D('',#492,#394,#395);
#329=AXIS2_PLACEMENT_3D('',#493,#396,#397);
#330=AXIS2_PLACEMENT_3D('',#497,#399,#400);
#331=AXIS2_PLACEMENT_3D('',#499,#402,#403);
#332=AXIS2_PLACEMENT_3D('',#501,#404,#405);
#333=AXIS2_PLACEMENT_3D('',#503,#407,#408);
#334=AXIS2_PLACEMENT_3D('',#505,#409,#410);
#335=AXIS2_PLACEMENT_3D('',#507,#411,#412);
#336=AXIS2_PLACEMENT_3D('',#509,#413,#414);
#337=AXIS2_PLACEMENT_3D('',#511,#415,#416);
#338=AXIS2_PLACEMENT_3D('',#513,#417,#418);
#339=AXIS2_PLACEMENT_3D('',#514,#419,#420);
#340=AXIS2_PLACEMENT_3D('',#515,#421,#422);
#341=AXIS2_PLACEMENT_3D('',#518,#425,#426);
#342=AXIS2_PLACEMENT_3D('',#520,#428,#429);
#343=AXIS2_PLACEMENT_3D('',#522,#431,#432);
#344=AXIS2_PLACEMENT_3D('',#524,#434,#435);
#345=AXIS2_PLACEMENT_3D('',#525,#436,#437);
#346=AXIS2_PLACEMENT_3D('',#528,#439,#440);
#347=AXIS2_PLACEMENT_3D('',#529,#441,#442);
#348=AXIS2_PLACEMENT_3D('',#531,#443,#444);
#349=AXIS2_PLACEMENT_3D('',#533,#445,#446);
#350=AXIS2_PLACEMENT_3D('',#534,#447,#448);
#351=AXIS2_PLACEMENT_3D('',#536,#450,#451);
#352=AXIS2_PLACEMENT_3D('',#538,#452,#453);
#353=AXIS2_PLACEMENT_3D('',#539,#454,#455);
#354=DIRECTION('axis',(0.,0.,1.));
#355=DIRECTION('refdir',(1.,0.,0.));
#356=DIRECTION('center_axis',(0.,1.,0.));
#357=DIRECTION('ref_axis',(1.,0.,0.));
#358=DIRECTION('center_axis',(0.,-1.,0.));
#359=DIRECTION('ref_axis',(1.,0.,0.));
#360=DIRECTION('',(0.,1.,0.));
#361=DIRECTION('center_axis',(0.,-1.,0.));
#362=DIRECTION('ref_axis',(1.,0.,0.));
#363=DIRECTION('center_axis',(0.,1.,0.));
#364=DIRECTION('ref_axis',(1.,0.,0.));
#365=DIRECTION('center_axis',(2.18952885050753E-47,1.,-1.16318720183212E-46));
#366=DIRECTION('ref_axis',(1.,0.,0.));
#367=DIRECTION('',(0.,1.,0.));
#368=DIRECTION('center_axis',(0.,1.,0.));
#369=DIRECTION('ref_axis',(1.,0.,0.));
#370=DIRECTION('center_axis',(0.,-1.,0.));
#371=DIRECTION('ref_axis',(1.,0.,0.));
#372=DIRECTION('center_axis',(-2.18952885050753E-47,-1.,1.16318720183212E-46));
#373=DIRECTION('ref_axis',(1.,-2.18952885050753E-47,2.82755145625544E-109));
#374=DIRECTION('center_axis',(0.,-1.,0.));
#375=DIRECTION('ref_axis',(1.,0.,0.));
#376=DIRECTION('center_axis',(-6.49376066138169E-140,-1.,-4.1573556750867E-142));
#377=DIRECTION('ref_axis',(0.990965861917503,-6.42951952009735E-140,-0.134114356107388));
#378=DIRECTION('center_axis',(0.,-1.,0.));
#379=DIRECTION('ref_axis',(-0.990965861917504,0.,0.134114356107387));
#380=DIRECTION('center_axis',(6.91738146406258E-140,-1.,3.12430051848283E-141));
#381=DIRECTION('ref_axis',(0.998784712686411,6.89357646891728E-140,-0.0492858773273196));
#382=DIRECTION('center_axis',(2.18952885050753E-47,1.,-1.16318720183212E-46));
#383=DIRECTION('ref_axis',(1.,-2.18952885050753E-47,0.));
#384=DIRECTION('center_axis',(0.,1.,0.));
#385=DIRECTION('ref_axis',(0.,0.,1.));
#386=DIRECTION('center_axis',(-4.43591612371693E-140,-1.,-4.78599258381174E-141));
#387=DIRECTION('ref_axis',(0.999800901648373,-4.42548303112441E-140,-0.0199538733859012));
#388=DIRECTION('center_axis',(0.,-1.,0.));
#389=DIRECTION('ref_axis',(1.,0.,0.));
#390=DIRECTION('center_axis',(-5.50892321624354E-140,1.,-7.00718399176396E-141));
#391=DIRECTION('ref_axis',(0.986143751949317,5.54883451460653E-140,0.165893039309439));
#392=DIRECTION('center_axis',(0.,1.,0.));
#393=DIRECTION('ref_axis',(1.,0.,0.));
#394=DIRECTION('center_axis',(0.,-1.,0.));
#395=DIRECTION('ref_axis',(1.,0.,0.));
#396=DIRECTION('center_axis',(-5.07994132824182E-8,-0.999999999999999,0.));
#397=DIRECTION('ref_axis',(0.0925840913798116,-4.70321782227983E-9,-0.99570486893626));
#398=DIRECTION('',(5.07994132824182E-8,0.999999999999999,0.));
#399=DIRECTION('center_axis',(-2.96244231428053E-139,-1.,0.));
#400=DIRECTION('ref_axis',(1.,0.,0.));
#401=DIRECTION('',(-5.07994132824182E-8,-0.999999999999999,0.));
#402=DIRECTION('center_axis',(0.,1.,0.));
#403=DIRECTION('ref_axis',(0.999800901648373,0.,-0.0199538733859012));
#404=DIRECTION('center_axis',(-2.96244231428053E-139,-1.,0.));
#405=DIRECTION('ref_axis',(0.999800901648373,0.,-0.0199538733859012));
#406=DIRECTION('',(0.,-1.,0.));
#407=DIRECTION('center_axis',(-2.96244231428053E-139,-1.,0.));
#408=DIRECTION('ref_axis',(1.,-2.96244231428053E-139,0.));
#409=DIRECTION('center_axis',(2.96244231428053E-139,1.,0.));
#410=DIRECTION('ref_axis',(0.986143751949317,0.,0.165893039309439));
#411=DIRECTION('center_axis',(2.96244231428053E-139,1.,0.));
#412=DIRECTION('ref_axis',(1.,0.,0.));
#413=DIRECTION('center_axis',(-6.91738146406258E-140,1.,-3.12430051848283E-141));
#414=DIRECTION('ref_axis',(0.998784712686411,6.89357646891728E-140,-0.0492858773273196));
#415=DIRECTION('center_axis',(0.,1.,0.));
#416=DIRECTION('ref_axis',(-0.990965861917504,0.,0.134114356107387));
#417=DIRECTION('center_axis',(-6.49376066138169E-140,-1.,-4.1573556750867E-142));
#418=DIRECTION('ref_axis',(0.990965861917503,-6.42951952009735E-140,-0.134114356107388));
#419=DIRECTION('center_axis',(2.96244231428053E-139,1.,0.));
#420=DIRECTION('ref_axis',(1.,0.,0.));
#421=DIRECTION('center_axis',(0.,1.,0.));
#422=DIRECTION('ref_axis',(0.990965861917503,0.,-0.134114356107388));
#423=DIRECTION('',(0.,1.,0.));
#424=DIRECTION('',(0.,1.,0.));
#425=DIRECTION('center_axis',(0.,1.,0.));
#426=DIRECTION('ref_axis',(-0.0917834136040541,0.,-0.99577899404797));
#427=DIRECTION('',(0.,1.,0.));
#428=DIRECTION('center_axis',(0.,1.,0.));
#429=DIRECTION('ref_axis',(0.998784712686411,0.,-0.0492858773273196));
#430=DIRECTION('',(0.,1.,0.));
#431=DIRECTION('center_axis',(0.,-1.,0.));
#432=DIRECTION('ref_axis',(-0.781769398186043,0.,0.6235676451355));
#433=DIRECTION('',(0.,1.,0.));
#434=DIRECTION('center_axis',(0.,1.,0.));
#435=DIRECTION('ref_axis',(0.986143751949317,0.,0.165893039309439));
#436=DIRECTION('center_axis',(0.,-1.,0.));
#437=DIRECTION('ref_axis',(1.,0.,0.));
#438=DIRECTION('',(0.,1.,0.));
#439=DIRECTION('center_axis',(0.,1.,0.));
#440=DIRECTION('ref_axis',(1.,0.,0.));
#441=DIRECTION('center_axis',(0.,1.,0.));
#442=DIRECTION('ref_axis',(0.,0.,1.));
#443=DIRECTION('center_axis',(0.,1.,0.));
#444=DIRECTION('ref_axis',(1.,0.,0.));
#445=DIRECTION('center_axis',(0.,1.,0.));
#446=DIRECTION('ref_axis',(1.,0.,0.));
#447=DIRECTION('center_axis',(0.,1.,0.));
#448=DIRECTION('ref_axis',(1.,0.,0.));
#449=DIRECTION('',(0.,-1.,0.));
#450=DIRECTION('center_axis',(0.,1.,0.));
#451=DIRECTION('ref_axis',(0.,0.,1.));
#452=DIRECTION('center_axis',(0.,1.,0.));
#453=DIRECTION('ref_axis',(1.,0.,0.));
#454=DIRECTION('center_axis',(0.,-1.,0.));
#455=DIRECTION('ref_axis',(1.,0.,0.));
#456=DIRECTION('',(0.,1.,0.));
#457=CARTESIAN_POINT('',(0.,0.,0.));
#458=CARTESIAN_POINT('Origin',(24.9999995936047,-9.,-43.3012701892219));
#459=CARTESIAN_POINT('',(23.9999995936047,-7.5,-43.3012701892219));
#460=CARTESIAN_POINT('Origin',(24.9999995936047,-7.5,-43.3012701892219));
#461=CARTESIAN_POINT('',(23.9999995936047,-6.,-43.3012701892219));
#462=CARTESIAN_POINT('',(23.9999995936047,-9.,-43.3012701892219));
#463=CARTESIAN_POINT('Origin',(24.9999995936047,-6.,-43.3012701892219));
#464=CARTESIAN_POINT('Origin',(24.9999995936047,-9.,-43.3012701892219));
#465=CARTESIAN_POINT('',(22.2999995936047,-9.,-43.3012701892219));
#466=CARTESIAN_POINT('Origin',(24.9999995936047,-9.,-43.3012701892219));
#467=CARTESIAN_POINT('',(22.2999995936047,-7.5,-43.3012701892219));
#468=CARTESIAN_POINT('',(22.2999995936047,-9.,-43.3012701892219));
#469=CARTESIAN_POINT('Origin',(24.9999995936047,-7.5,-43.3012701892219));
#470=CARTESIAN_POINT('Origin',(24.9999995936047,-7.5,-43.3012701892219));
#471=CARTESIAN_POINT('Origin',(-6.56858655152258E-47,-9.,3.48956160549637E-46));
#472=CARTESIAN_POINT('',(5.16691628927589,-9.,8.56171571938797));
#473=CARTESIAN_POINT('',(-3.21505177152045,-9.,-9.46907821084227));
#474=CARTESIAN_POINT('Origin',(0.,-9.,0.));
#475=CARTESIAN_POINT('',(17.0722731055948,-9.,-42.2283553404894));
#476=CARTESIAN_POINT('Origin',(-12.9579390302556,-9.,-38.1641562402552));
#477=CARTESIAN_POINT('',(32.990277700549,-9.,-43.695557207794));
#478=CARTESIAN_POINT('Origin',(25.,-9.,-43.3012701892219));
#479=CARTESIAN_POINT('Origin',(-24.653254160443,-9.,-40.8510883208275));
#480=CARTESIAN_POINT('',(-2.7,-9.,-3.30654635769785E-16));
#481=CARTESIAN_POINT('Origin',(-2.18952885050753E-47,-9.,1.16318720183212E-46));
#482=CARTESIAN_POINT('Origin',(10.,-6.,0.));
#483=CARTESIAN_POINT('',(22.1186781864635,-6.,-41.1136922260463));
#484=CARTESIAN_POINT('',(4.19725619571332,-6.,-9.07651036618954));
#485=CARTESIAN_POINT('Origin',(-17.8591311316575,-6.,-42.4458942092435));
#486=CARTESIAN_POINT('',(9.7825077995549,-6.,-2.07425677090545));
#487=CARTESIAN_POINT('Origin',(0.,-6.,0.));
#488=CARTESIAN_POINT('',(27.4285945711841,-6.,-40.6199576690006));
#489=CARTESIAN_POINT('Origin',(-60.9250067537475,-6.,-57.7559178964011));
#490=CARTESIAN_POINT('Origin',(24.9999995936047,-6.,-43.3012701892219));
#491=CARTESIAN_POINT('',(-3.9,-6.,-4.77612251667468E-16));
#492=CARTESIAN_POINT('Origin',(0.,-6.,0.));
#493=CARTESIAN_POINT('Origin',(24.9999995836472,-6.19601523765685,-43.3012701892219));
#494=CARTESIAN_POINT('',(27.4285945928351,-8.,-40.6199577806338));
#495=CARTESIAN_POINT('',(27.428594573306,-6.19601536102805,-40.6199576799412));
#496=CARTESIAN_POINT('',(22.1186781821916,-8.,-41.1136920978542));
#497=CARTESIAN_POINT('Origin',(24.9999994920059,-8.,-43.3012701892219));
#498=CARTESIAN_POINT('',(22.1186781860448,-6.19601509128742,-41.1136922134827));
#499=CARTESIAN_POINT('Origin',(-17.8591311316575,-9.,-42.4458942092435));
#500=CARTESIAN_POINT('',(4.19725619571332,-8.,-9.07651036618954));
#501=CARTESIAN_POINT('Origin',(-17.8591311316575,-8.,-42.4458942092435));
#502=CARTESIAN_POINT('',(4.19725619571332,-9.,-9.07651036618955));
#503=CARTESIAN_POINT('Origin',(14.9226823108076,-8.,-21.3697772344453));
#504=CARTESIAN_POINT('',(9.7825077995549,-8.,-2.07425677090545));
#505=CARTESIAN_POINT('Origin',(-60.9250067537475,-8.,-57.7559178964011));
#506=CARTESIAN_POINT('',(5.16691628927589,-8.,8.56171571938797));
#507=CARTESIAN_POINT('Origin',(0.,-8.,0.));
#508=CARTESIAN_POINT('',(32.990277700549,-8.,-43.695557207794));
#509=CARTESIAN_POINT('Origin',(-24.653254160443,-8.,-40.8510883208275));
#510=CARTESIAN_POINT('',(17.0722731055948,-8.,-42.2283553404894));
#511=CARTESIAN_POINT('Origin',(25.,-8.,-43.3012701892219));
#512=CARTESIAN_POINT('',(-3.21505177152045,-8.,-9.46907821084227));
#513=CARTESIAN_POINT('Origin',(-12.9579390302556,-8.,-38.1641562402552));
#514=CARTESIAN_POINT('Origin',(0.,-8.,0.));
#515=CARTESIAN_POINT('Origin',(-12.9579390302556,-9.,-38.1641562402552));
#516=CARTESIAN_POINT('',(-3.21505177152045,-9.,-9.46907821084227));
#517=CARTESIAN_POINT('',(17.0722731055948,-9.,-42.2283553404894));
#518=CARTESIAN_POINT('Origin',(25.,-9.,-43.3012701892219));
#519=CARTESIAN_POINT('',(32.990277700549,-9.,-43.695557207794));
#520=CARTESIAN_POINT('Origin',(-24.653254160443,-9.,-40.8510883208275));
#521=CARTESIAN_POINT('',(5.1669162892759,-9.,8.56171571938797));
#522=CARTESIAN_POINT('Origin',(0.,-7.5,0.));
#523=CARTESIAN_POINT('',(9.78250779955486,-9.,-2.07425677090543));
#524=CARTESIAN_POINT('Origin',(-60.9250067537475,-9.,-57.7559178964011));
#525=CARTESIAN_POINT('Origin',(-2.18952885050753E-47,-3.,1.16318720183212E-46));
#526=CARTESIAN_POINT('',(-2.7,-3.6,-3.30654635769785E-16));
#527=CARTESIAN_POINT('',(-2.7,-3.,-3.30654635769785E-16));
#528=CARTESIAN_POINT('Origin',(-2.18952885050753E-47,-3.6,1.16318720183212E-46));
#529=CARTESIAN_POINT('Origin',(0.,-1.6,0.));
#530=CARTESIAN_POINT('',(-3.9,-1.6,-4.77612251667468E-16));
#531=CARTESIAN_POINT('Origin',(0.,-1.6,0.));
#532=CARTESIAN_POINT('',(-1.,-1.6,1.22464679914735E-16));
#533=CARTESIAN_POINT('Origin',(1.97057596545677E-46,-1.6,-1.04686848164891E-45));
#534=CARTESIAN_POINT('Origin',(0.,-6.,0.));
#535=CARTESIAN_POINT('',(-3.9,-6.,4.77612251667468E-16));
#536=CARTESIAN_POINT('Origin',(-1.79884035375674E-62,-3.6,1.43907228300539E-61));
#537=CARTESIAN_POINT('',(-1.,-3.6,1.22464679914735E-16));
#538=CARTESIAN_POINT('Origin',(1.97057596545677E-46,-3.6,-1.04686848164891E-45));
#539=CARTESIAN_POINT('Origin',(1.97057596545677E-46,-1.6,-1.04686848164891E-45));
#540=CARTESIAN_POINT('',(-1.,-1.6,-1.22464679914735E-16));
#541=UNCERTAINTY_MEASURE_WITH_UNIT(LENGTH_MEASURE(0.01),#545,
'DISTANCE_ACCURACY_VALUE',
'Maximum model space distance between geometric entities at asserted c
onnectivities');
#542=UNCERTAINTY_MEASURE_WITH_UNIT(LENGTH_MEASURE(0.01),#545,
'DISTANCE_ACCURACY_VALUE',
'Maximum model space distance between geometric entities at asserted c
onnectivities');
#543=(
GEOMETRIC_REPRESENTATION_CONTEXT(3)
GLOBAL_UNCERTAINTY_ASSIGNED_CONTEXT((#541))
GLOBAL_UNIT_ASSIGNED_CONTEXT((#545,#547,#548))
REPRESENTATION_CONTEXT('','3D')
);
#544=(
GEOMETRIC_REPRESENTATION_CONTEXT(3)
GLOBAL_UNCERTAINTY_ASSIGNED_CONTEXT((#542))
GLOBAL_UNIT_ASSIGNED_CONTEXT((#545,#547,#548))
REPRESENTATION_CONTEXT('','3D')
);
#545=(
LENGTH_UNIT()
NAMED_UNIT(*)
SI_UNIT(.MILLI.,.METRE.)
);
#546=(
LENGTH_UNIT()
NAMED_UNIT(*)
SI_UNIT($,.METRE.)
);
#547=(
NAMED_UNIT(*)
PLANE_ANGLE_UNIT()
SI_UNIT($,.RADIAN.)
);
#548=(
NAMED_UNIT(*)
SI_UNIT($,.STERADIAN.)
SOLID_ANGLE_UNIT()
);
#549=SHAPE_DEFINITION_REPRESENTATION(#550,#551);
#550=PRODUCT_DEFINITION_SHAPE('',$,#553);
#551=SHAPE_REPRESENTATION('',(#309),#543);
#552=PRODUCT_DEFINITION_CONTEXT('part definition',#557,'design');
#553=PRODUCT_DEFINITION('\X2\5927817F76D6677F\X0\','\X2\5927817F76D6677F\X0\',
#554,#552);
#554=PRODUCT_DEFINITION_FORMATION('',$,#559);
#555=PRODUCT_RELATED_PRODUCT_CATEGORY('\X2\5927817F76D6677F\X0\',
'\X2\5927817F76D6677F\X0\',(#559));
#556=APPLICATION_PROTOCOL_DEFINITION('international standard',
'automotive_design',2009,#557);
#557=APPLICATION_CONTEXT(
'Core Data for Automotive Mechanical Design Process');
#558=PRODUCT_CONTEXT('part definition',#557,'mechanical');
#559=PRODUCT('\X2\5927817F76D6677F\X0\','\X2\5927817F76D6677F\X0\',$,(#558));
#560=PRESENTATION_STYLE_ASSIGNMENT((#561));
#561=SURFACE_STYLE_USAGE(.BOTH.,#562);
#562=SURFACE_SIDE_STYLE('',(#563));
#563=SURFACE_STYLE_FILL_AREA(#564);
#564=FILL_AREA_STYLE('\X2\94A2\X0\ - \X2\7F0E5149\X0\',(#565));
#565=FILL_AREA_STYLE_COLOUR('\X2\94A2\X0\ - \X2\7F0E5149\X0\',#566);
#566=COLOUR_RGB('\X2\94A2\X0\ - \X2\7F0E5149\X0\',0.627450980392157,0.627450980392157,
0.627450980392157);
ENDSEC;
END-ISO-10303-21;
