ISO-10303-21;
HEADER;
/* Generated by software containing ST-Developer
 * from STEP Tools, Inc. (www.steptools.com) 
 */

FILE_DESCRIPTION(
/* description */ (''),
/* implementation_level */ '2;1');

FILE_NAME(
/* name */ '',
/* time_stamp */ '2026-07-15T12:35:20+08:00',
/* author */ (''),
/* organization */ (''),
/* preprocessor_version */ 'ST-DEVELOPER v20.1',
/* originating_system */ 'Autodesk Translation Framework v15.8.0.0',
/* authorisation */ '');

FILE_SCHEMA (('AUTOMOTIVE_DESIGN { 1 0 10303 214 3 1 1 }'));
ENDSEC;

DATA;
#10=MECHANICAL_DESIGN_GEOMETRIC_PRESENTATION_REPRESENTATION('',(#30,#31),
#694);
#11=ITEM_DEFINED_TRANSFORMATION($,$,#390,#447);
#12=(
REPRESENTATION_RELATIONSHIP($,$,#705,#704)
REPRESENTATION_RELATIONSHIP_WITH_TRANSFORMATION(#11)
SHAPE_REPRESENTATION_RELATIONSHIP()
);
#13=CONTEXT_DEPENDENT_SHAPE_REPRESENTATION(#12,#703);
#14=NEXT_ASSEMBLY_USAGE_OCCURRENCE('COL_\X2\819D76D652A8529B8FDE63A5\X0\:
1','COL_\X2\819D76D652A8529B8FDE63A5\X0\:1','COL_\X2\819D76D652A8529B8FDE63A5\X0\:
1',#707,#708,'COL_\X2\819D76D652A8529B8FDE63A5\X0\:1');
#15=CONICAL_SURFACE('',#437,7.79800775541958,0.785398163397442);
#16=CONICAL_SURFACE('',#446,7.79800775541958,0.785398163397442);
#17=TOROIDAL_SURFACE('',#431,6.85,1.55);
#18=FACE_BOUND('',#73,.T.);
#19=FACE_BOUND('',#75,.T.);
#20=FACE_BOUND('',#77,.T.);
#21=FACE_BOUND('',#78,.T.);
#22=FACE_BOUND('',#84,.T.);
#23=FACE_BOUND('',#86,.T.);
#24=FACE_BOUND('',#91,.T.);
#25=FACE_BOUND('',#93,.T.);
#26=SHAPE_REPRESENTATION_RELATIONSHIP('SRR','None',#705,#28);
#27=SHAPE_REPRESENTATION_RELATIONSHIP('SRR','None',#704,#29);
#28=ADVANCED_BREP_SHAPE_REPRESENTATION('',(#32),#693);
#29=ADVANCED_BREP_SHAPE_REPRESENTATION('',(#33),#692);
#30=STYLED_ITEM('',(#718),#32);
#31=STYLED_ITEM('',(#718),#33);
#32=MANIFOLD_SOLID_BREP('COL_\X2\819D76D652A8529B8FDE63A5\X0\',#375);
#33=MANIFOLD_SOLID_BREP('\X2\5B9E4F53\X0\1',#376);
#34=PLANE('',#394);
#35=PLANE('',#395);
#36=PLANE('',#408);
#37=PLANE('',#410);
#38=PLANE('',#429);
#39=PLANE('',#430);
#40=PLANE('',#441);
#41=PLANE('',#442);
#42=FACE_OUTER_BOUND('',#65,.T.);
#43=FACE_OUTER_BOUND('',#66,.T.);
#44=FACE_OUTER_BOUND('',#67,.T.);
#45=FACE_OUTER_BOUND('',#68,.T.);
#46=FACE_OUTER_BOUND('',#69,.T.);
#47=FACE_OUTER_BOUND('',#70,.T.);
#48=FACE_OUTER_BOUND('',#71,.T.);
#49=FACE_OUTER_BOUND('',#72,.T.);
#50=FACE_OUTER_BOUND('',#74,.T.);
#51=FACE_OUTER_BOUND('',#76,.T.);
#52=FACE_OUTER_BOUND('',#79,.T.);
#53=FACE_OUTER_BOUND('',#80,.T.);
#54=FACE_OUTER_BOUND('',#81,.T.);
#55=FACE_OUTER_BOUND('',#82,.T.);
#56=FACE_OUTER_BOUND('',#83,.T.);
#57=FACE_OUTER_BOUND('',#85,.T.);
#58=FACE_OUTER_BOUND('',#87,.T.);
#59=FACE_OUTER_BOUND('',#88,.T.);
#60=FACE_OUTER_BOUND('',#89,.T.);
#61=FACE_OUTER_BOUND('',#90,.T.);
#62=FACE_OUTER_BOUND('',#92,.T.);
#63=FACE_OUTER_BOUND('',#94,.T.);
#64=FACE_OUTER_BOUND('',#95,.T.);
#65=EDGE_LOOP('',(#242,#243,#244,#245));
#66=EDGE_LOOP('',(#246));
#67=EDGE_LOOP('',(#247));
#68=EDGE_LOOP('',(#248,#249,#250,#251));
#69=EDGE_LOOP('',(#252,#253,#254,#255));
#70=EDGE_LOOP('',(#256,#257,#258,#259));
#71=EDGE_LOOP('',(#260,#261,#262,#263));
#72=EDGE_LOOP('',(#264,#265,#266,#267));
#73=EDGE_LOOP('',(#268));
#74=EDGE_LOOP('',(#269,#270,#271,#272));
#75=EDGE_LOOP('',(#273));
#76=EDGE_LOOP('',(#274,#275,#276,#277));
#77=EDGE_LOOP('',(#278,#279,#280,#281));
#78=EDGE_LOOP('',(#282,#283,#284,#285));
#79=EDGE_LOOP('',(#286,#287,#288,#289));
#80=EDGE_LOOP('',(#290,#291,#292,#293));
#81=EDGE_LOOP('',(#294,#295,#296,#297));
#82=EDGE_LOOP('',(#298,#299,#300,#301));
#83=EDGE_LOOP('',(#302,#303,#304,#305));
#84=EDGE_LOOP('',(#306));
#85=EDGE_LOOP('',(#307,#308,#309,#310));
#86=EDGE_LOOP('',(#311));
#87=EDGE_LOOP('',(#312,#313,#314,#315,#316,#317));
#88=EDGE_LOOP('',(#318,#319,#320,#321,#322));
#89=EDGE_LOOP('',(#323,#324,#325,#326));
#90=EDGE_LOOP('',(#327));
#91=EDGE_LOOP('',(#328));
#92=EDGE_LOOP('',(#329));
#93=EDGE_LOOP('',(#330));
#94=EDGE_LOOP('',(#331,#332,#333,#334));
#95=EDGE_LOOP('',(#335,#336,#337,#338,#339));
#96=LINE('',#588,#112);
#97=LINE('',#596,#113);
#98=LINE('',#603,#114);
#99=LINE('',#606,#115);
#100=LINE('',#612,#116);
#101=LINE('',#617,#117);
#102=LINE('',#627,#118);
#103=LINE('',#631,#119);
#104=LINE('',#635,#120);
#105=LINE('',#641,#121);
#106=LINE('',#648,#122);
#107=LINE('',#651,#123);
#108=LINE('',#672,#124);
#109=LINE('',#676,#125);
#110=LINE('',#684,#126);
#111=LINE('',#687,#127);
#112=VECTOR('',#456,3.);
#113=VECTOR('',#467,1.15);
#114=VECTOR('',#474,10.);
#115=VECTOR('',#477,10.);
#116=VECTOR('',#484,10.);
#117=VECTOR('',#489,10.);
#118=VECTOR('',#504,10.);
#119=VECTOR('',#507,10.);
#120=VECTOR('',#510,10.);
#121=VECTOR('',#517,1.15);
#122=VECTOR('',#524,10.);
#123=VECTOR('',#527,10.);
#124=VECTOR('',#558,7.79800775541958);
#125=VECTOR('',#563,7.65);
#126=VECTOR('',#574,7.65);
#127=VECTOR('',#579,7.79800775541958);
#128=CIRCLE('',#392,3.);
#129=CIRCLE('',#393,3.);
#130=CIRCLE('',#397,1.15);
#131=CIRCLE('',#398,1.15);
#132=CIRCLE('',#400,3.);
#133=CIRCLE('',#401,3.);
#134=CIRCLE('',#403,3.);
#135=CIRCLE('',#404,3.);
#136=CIRCLE('',#406,3.);
#137=CIRCLE('',#407,3.);
#138=CIRCLE('',#409,10.);
#139=CIRCLE('',#411,10.);
#140=CIRCLE('',#413,10.);
#141=CIRCLE('',#414,10.);
#142=CIRCLE('',#415,10.);
#143=CIRCLE('',#416,10.);
#144=CIRCLE('',#418,1.15);
#145=CIRCLE('',#419,1.15);
#146=CIRCLE('',#421,3.);
#147=CIRCLE('',#422,3.);
#148=CIRCLE('',#424,3.);
#149=CIRCLE('',#425,3.);
#150=CIRCLE('',#427,3.);
#151=CIRCLE('',#428,3.);
#152=CIRCLE('',#432,7.94601551083915);
#153=CIRCLE('',#433,1.55);
#154=CIRCLE('',#434,7.94601551083915);
#155=CIRCLE('',#435,7.94601551083915);
#156=CIRCLE('',#436,7.94601551083915);
#157=CIRCLE('',#438,7.65);
#158=CIRCLE('',#440,7.65);
#159=CIRCLE('',#443,7.65);
#160=CIRCLE('',#445,7.65);
#161=VERTEX_POINT('',#585);
#162=VERTEX_POINT('',#587);
#163=VERTEX_POINT('',#593);
#164=VERTEX_POINT('',#595);
#165=VERTEX_POINT('',#599);
#166=VERTEX_POINT('',#600);
#167=VERTEX_POINT('',#602);
#168=VERTEX_POINT('',#604);
#169=VERTEX_POINT('',#608);
#170=VERTEX_POINT('',#610);
#171=VERTEX_POINT('',#614);
#172=VERTEX_POINT('',#616);
#173=VERTEX_POINT('',#624);
#174=VERTEX_POINT('',#626);
#175=VERTEX_POINT('',#629);
#176=VERTEX_POINT('',#630);
#177=VERTEX_POINT('',#632);
#178=VERTEX_POINT('',#634);
#179=VERTEX_POINT('',#638);
#180=VERTEX_POINT('',#640);
#181=VERTEX_POINT('',#644);
#182=VERTEX_POINT('',#645);
#183=VERTEX_POINT('',#647);
#184=VERTEX_POINT('',#649);
#185=VERTEX_POINT('',#661);
#186=VERTEX_POINT('',#662);
#187=VERTEX_POINT('',#664);
#188=VERTEX_POINT('',#666);
#189=VERTEX_POINT('',#671);
#190=VERTEX_POINT('',#675);
#191=VERTEX_POINT('',#680);
#192=VERTEX_POINT('',#683);
#193=EDGE_CURVE('',#161,#161,#128,.T.);
#194=EDGE_CURVE('',#161,#162,#96,.T.);
#195=EDGE_CURVE('',#162,#162,#129,.T.);
#196=EDGE_CURVE('',#163,#163,#130,.T.);
#197=EDGE_CURVE('',#163,#164,#97,.T.);
#198=EDGE_CURVE('',#164,#164,#131,.T.);
#199=EDGE_CURVE('',#165,#166,#132,.T.);
#200=EDGE_CURVE('',#165,#167,#98,.T.);
#201=EDGE_CURVE('',#168,#167,#133,.T.);
#202=EDGE_CURVE('',#166,#168,#99,.T.);
#203=EDGE_CURVE('',#169,#166,#134,.T.);
#204=EDGE_CURVE('',#170,#168,#135,.T.);
#205=EDGE_CURVE('',#169,#170,#100,.T.);
#206=EDGE_CURVE('',#165,#171,#136,.T.);
#207=EDGE_CURVE('',#171,#172,#101,.T.);
#208=EDGE_CURVE('',#167,#172,#137,.T.);
#209=EDGE_CURVE('',#171,#169,#138,.T.);
#210=EDGE_CURVE('',#170,#172,#139,.T.);
#211=EDGE_CURVE('',#173,#173,#140,.T.);
#212=EDGE_CURVE('',#173,#174,#102,.T.);
#213=EDGE_CURVE('',#174,#174,#141,.T.);
#214=EDGE_CURVE('',#175,#176,#103,.T.);
#215=EDGE_CURVE('',#175,#177,#142,.T.);
#216=EDGE_CURVE('',#177,#178,#104,.T.);
#217=EDGE_CURVE('',#178,#176,#143,.T.);
#218=EDGE_CURVE('',#179,#179,#144,.T.);
#219=EDGE_CURVE('',#179,#180,#105,.T.);
#220=EDGE_CURVE('',#180,#180,#145,.T.);
#221=EDGE_CURVE('',#181,#182,#146,.T.);
#222=EDGE_CURVE('',#181,#183,#106,.T.);
#223=EDGE_CURVE('',#184,#183,#147,.T.);
#224=EDGE_CURVE('',#182,#184,#107,.T.);
#225=EDGE_CURVE('',#177,#182,#148,.T.);
#226=EDGE_CURVE('',#178,#184,#149,.T.);
#227=EDGE_CURVE('',#181,#175,#150,.T.);
#228=EDGE_CURVE('',#183,#176,#151,.T.);
#229=EDGE_CURVE('',#185,#186,#152,.T.);
#230=EDGE_CURVE('',#186,#187,#153,.T.);
#231=EDGE_CURVE('',#188,#187,#154,.T.);
#232=EDGE_CURVE('',#187,#188,#155,.T.);
#233=EDGE_CURVE('',#186,#185,#156,.T.);
#234=EDGE_CURVE('',#188,#189,#108,.T.);
#235=EDGE_CURVE('',#189,#189,#157,.T.);
#236=EDGE_CURVE('',#189,#190,#109,.T.);
#237=EDGE_CURVE('',#190,#190,#158,.T.);
#238=EDGE_CURVE('',#191,#191,#159,.T.);
#239=EDGE_CURVE('',#191,#192,#110,.T.);
#240=EDGE_CURVE('',#192,#192,#160,.T.);
#241=EDGE_CURVE('',#192,#185,#111,.T.);
#242=ORIENTED_EDGE('',*,*,#193,.F.);
#243=ORIENTED_EDGE('',*,*,#194,.T.);
#244=ORIENTED_EDGE('',*,*,#195,.F.);
#245=ORIENTED_EDGE('',*,*,#194,.F.);
#246=ORIENTED_EDGE('',*,*,#195,.T.);
#247=ORIENTED_EDGE('',*,*,#193,.T.);
#248=ORIENTED_EDGE('',*,*,#196,.F.);
#249=ORIENTED_EDGE('',*,*,#197,.T.);
#250=ORIENTED_EDGE('',*,*,#198,.F.);
#251=ORIENTED_EDGE('',*,*,#197,.F.);
#252=ORIENTED_EDGE('',*,*,#199,.F.);
#253=ORIENTED_EDGE('',*,*,#200,.T.);
#254=ORIENTED_EDGE('',*,*,#201,.F.);
#255=ORIENTED_EDGE('',*,*,#202,.F.);
#256=ORIENTED_EDGE('',*,*,#203,.T.);
#257=ORIENTED_EDGE('',*,*,#202,.T.);
#258=ORIENTED_EDGE('',*,*,#204,.F.);
#259=ORIENTED_EDGE('',*,*,#205,.F.);
#260=ORIENTED_EDGE('',*,*,#206,.T.);
#261=ORIENTED_EDGE('',*,*,#207,.T.);
#262=ORIENTED_EDGE('',*,*,#208,.F.);
#263=ORIENTED_EDGE('',*,*,#200,.F.);
#264=ORIENTED_EDGE('',*,*,#206,.F.);
#265=ORIENTED_EDGE('',*,*,#199,.T.);
#266=ORIENTED_EDGE('',*,*,#203,.F.);
#267=ORIENTED_EDGE('',*,*,#209,.F.);
#268=ORIENTED_EDGE('',*,*,#198,.T.);
#269=ORIENTED_EDGE('',*,*,#208,.T.);
#270=ORIENTED_EDGE('',*,*,#210,.F.);
#271=ORIENTED_EDGE('',*,*,#204,.T.);
#272=ORIENTED_EDGE('',*,*,#201,.T.);
#273=ORIENTED_EDGE('',*,*,#196,.T.);
#274=ORIENTED_EDGE('',*,*,#211,.F.);
#275=ORIENTED_EDGE('',*,*,#212,.T.);
#276=ORIENTED_EDGE('',*,*,#213,.T.);
#277=ORIENTED_EDGE('',*,*,#212,.F.);
#278=ORIENTED_EDGE('',*,*,#214,.F.);
#279=ORIENTED_EDGE('',*,*,#215,.T.);
#280=ORIENTED_EDGE('',*,*,#216,.T.);
#281=ORIENTED_EDGE('',*,*,#217,.T.);
#282=ORIENTED_EDGE('',*,*,#207,.F.);
#283=ORIENTED_EDGE('',*,*,#209,.T.);
#284=ORIENTED_EDGE('',*,*,#205,.T.);
#285=ORIENTED_EDGE('',*,*,#210,.T.);
#286=ORIENTED_EDGE('',*,*,#218,.F.);
#287=ORIENTED_EDGE('',*,*,#219,.T.);
#288=ORIENTED_EDGE('',*,*,#220,.F.);
#289=ORIENTED_EDGE('',*,*,#219,.F.);
#290=ORIENTED_EDGE('',*,*,#221,.F.);
#291=ORIENTED_EDGE('',*,*,#222,.T.);
#292=ORIENTED_EDGE('',*,*,#223,.F.);
#293=ORIENTED_EDGE('',*,*,#224,.F.);
#294=ORIENTED_EDGE('',*,*,#225,.T.);
#295=ORIENTED_EDGE('',*,*,#224,.T.);
#296=ORIENTED_EDGE('',*,*,#226,.F.);
#297=ORIENTED_EDGE('',*,*,#216,.F.);
#298=ORIENTED_EDGE('',*,*,#227,.T.);
#299=ORIENTED_EDGE('',*,*,#214,.T.);
#300=ORIENTED_EDGE('',*,*,#228,.F.);
#301=ORIENTED_EDGE('',*,*,#222,.F.);
#302=ORIENTED_EDGE('',*,*,#227,.F.);
#303=ORIENTED_EDGE('',*,*,#221,.T.);
#304=ORIENTED_EDGE('',*,*,#225,.F.);
#305=ORIENTED_EDGE('',*,*,#215,.F.);
#306=ORIENTED_EDGE('',*,*,#220,.T.);
#307=ORIENTED_EDGE('',*,*,#228,.T.);
#308=ORIENTED_EDGE('',*,*,#217,.F.);
#309=ORIENTED_EDGE('',*,*,#226,.T.);
#310=ORIENTED_EDGE('',*,*,#223,.T.);
#311=ORIENTED_EDGE('',*,*,#218,.T.);
#312=ORIENTED_EDGE('',*,*,#229,.T.);
#313=ORIENTED_EDGE('',*,*,#230,.T.);
#314=ORIENTED_EDGE('',*,*,#231,.F.);
#315=ORIENTED_EDGE('',*,*,#232,.F.);
#316=ORIENTED_EDGE('',*,*,#230,.F.);
#317=ORIENTED_EDGE('',*,*,#233,.T.);
#318=ORIENTED_EDGE('',*,*,#231,.T.);
#319=ORIENTED_EDGE('',*,*,#232,.T.);
#320=ORIENTED_EDGE('',*,*,#234,.T.);
#321=ORIENTED_EDGE('',*,*,#235,.F.);
#322=ORIENTED_EDGE('',*,*,#234,.F.);
#323=ORIENTED_EDGE('',*,*,#235,.T.);
#324=ORIENTED_EDGE('',*,*,#236,.T.);
#325=ORIENTED_EDGE('',*,*,#237,.F.);
#326=ORIENTED_EDGE('',*,*,#236,.F.);
#327=ORIENTED_EDGE('',*,*,#213,.F.);
#328=ORIENTED_EDGE('',*,*,#237,.T.);
#329=ORIENTED_EDGE('',*,*,#211,.T.);
#330=ORIENTED_EDGE('',*,*,#238,.F.);
#331=ORIENTED_EDGE('',*,*,#238,.T.);
#332=ORIENTED_EDGE('',*,*,#239,.T.);
#333=ORIENTED_EDGE('',*,*,#240,.F.);
#334=ORIENTED_EDGE('',*,*,#239,.F.);
#335=ORIENTED_EDGE('',*,*,#240,.T.);
#336=ORIENTED_EDGE('',*,*,#241,.T.);
#337=ORIENTED_EDGE('',*,*,#233,.F.);
#338=ORIENTED_EDGE('',*,*,#229,.F.);
#339=ORIENTED_EDGE('',*,*,#241,.F.);
#340=CYLINDRICAL_SURFACE('',#391,3.);
#341=CYLINDRICAL_SURFACE('',#396,1.15);
#342=CYLINDRICAL_SURFACE('',#399,3.);
#343=CYLINDRICAL_SURFACE('',#402,3.);
#344=CYLINDRICAL_SURFACE('',#405,3.);
#345=CYLINDRICAL_SURFACE('',#412,10.);
#346=CYLINDRICAL_SURFACE('',#417,1.15);
#347=CYLINDRICAL_SURFACE('',#420,3.);
#348=CYLINDRICAL_SURFACE('',#423,3.);
#349=CYLINDRICAL_SURFACE('',#426,3.);
#350=CYLINDRICAL_SURFACE('',#439,7.65);
#351=CYLINDRICAL_SURFACE('',#444,7.65);
#352=ADVANCED_FACE('',(#42),#340,.T.);
#353=ADVANCED_FACE('',(#43),#34,.T.);
#354=ADVANCED_FACE('',(#44),#35,.F.);
#355=ADVANCED_FACE('',(#45),#341,.F.);
#356=ADVANCED_FACE('',(#46),#342,.T.);
#357=ADVANCED_FACE('',(#47),#343,.F.);
#358=ADVANCED_FACE('',(#48),#344,.F.);
#359=ADVANCED_FACE('',(#49,#18),#36,.T.);
#360=ADVANCED_FACE('',(#50,#19),#37,.F.);
#361=ADVANCED_FACE('',(#51,#20,#21),#345,.T.);
#362=ADVANCED_FACE('',(#52),#346,.F.);
#363=ADVANCED_FACE('',(#53),#347,.T.);
#364=ADVANCED_FACE('',(#54),#348,.F.);
#365=ADVANCED_FACE('',(#55),#349,.F.);
#366=ADVANCED_FACE('',(#56,#22),#38,.T.);
#367=ADVANCED_FACE('',(#57,#23),#39,.F.);
#368=ADVANCED_FACE('',(#58),#17,.F.);
#369=ADVANCED_FACE('',(#59),#15,.F.);
#370=ADVANCED_FACE('',(#60),#350,.F.);
#371=ADVANCED_FACE('',(#61,#24),#40,.T.);
#372=ADVANCED_FACE('',(#62,#25),#41,.T.);
#373=ADVANCED_FACE('',(#63),#351,.F.);
#374=ADVANCED_FACE('',(#64),#16,.F.);
#375=CLOSED_SHELL('',(#352,#353,#354));
#376=CLOSED_SHELL('',(#355,#356,#357,#358,#359,#360,#361,#362,#363,#364,
#365,#366,#367,#368,#369,#370,#371,#372,#373,#374));
#377=DERIVED_UNIT_ELEMENT(#379,1.);
#378=DERIVED_UNIT_ELEMENT(#696,-3.);
#379=(
MASS_UNIT()
NAMED_UNIT(*)
SI_UNIT(.KILO.,.GRAM.)
);
#380=DERIVED_UNIT((#377,#378));
#381=MEASURE_REPRESENTATION_ITEM('density measure',
POSITIVE_RATIO_MEASURE(7850.),#380);
#382=PROPERTY_DEFINITION_REPRESENTATION(#387,#384);
#383=PROPERTY_DEFINITION_REPRESENTATION(#388,#385);
#384=REPRESENTATION('material name',(#386),#693);
#385=REPRESENTATION('density',(#381),#693);
#386=DESCRIPTIVE_REPRESENTATION_ITEM('\X2\94A2\X0\','\X2\94A2\X0\');
#387=PROPERTY_DEFINITION('material property','material name',#708);
#388=PROPERTY_DEFINITION('material property','density of part',#708);
#389=AXIS2_PLACEMENT_3D('',#582,#448,#449);
#390=AXIS2_PLACEMENT_3D('',#583,#450,#451);
#391=AXIS2_PLACEMENT_3D('',#584,#452,#453);
#392=AXIS2_PLACEMENT_3D('',#586,#454,#455);
#393=AXIS2_PLACEMENT_3D('',#589,#457,#458);
#394=AXIS2_PLACEMENT_3D('',#590,#459,#460);
#395=AXIS2_PLACEMENT_3D('',#591,#461,#462);
#396=AXIS2_PLACEMENT_3D('',#592,#463,#464);
#397=AXIS2_PLACEMENT_3D('',#594,#465,#466);
#398=AXIS2_PLACEMENT_3D('',#597,#468,#469);
#399=AXIS2_PLACEMENT_3D('',#598,#470,#471);
#400=AXIS2_PLACEMENT_3D('',#601,#472,#473);
#401=AXIS2_PLACEMENT_3D('',#605,#475,#476);
#402=AXIS2_PLACEMENT_3D('',#607,#478,#479);
#403=AXIS2_PLACEMENT_3D('',#609,#480,#481);
#404=AXIS2_PLACEMENT_3D('',#611,#482,#483);
#405=AXIS2_PLACEMENT_3D('',#613,#485,#486);
#406=AXIS2_PLACEMENT_3D('',#615,#487,#488);
#407=AXIS2_PLACEMENT_3D('',#618,#490,#491);
#408=AXIS2_PLACEMENT_3D('',#619,#492,#493);
#409=AXIS2_PLACEMENT_3D('',#620,#494,#495);
#410=AXIS2_PLACEMENT_3D('',#621,#496,#497);
#411=AXIS2_PLACEMENT_3D('',#622,#498,#499);
#412=AXIS2_PLACEMENT_3D('',#623,#500,#501);
#413=AXIS2_PLACEMENT_3D('',#625,#502,#503);
#414=AXIS2_PLACEMENT_3D('',#628,#505,#506);
#415=AXIS2_PLACEMENT_3D('',#633,#508,#509);
#416=AXIS2_PLACEMENT_3D('',#636,#511,#512);
#417=AXIS2_PLACEMENT_3D('',#637,#513,#514);
#418=AXIS2_PLACEMENT_3D('',#639,#515,#516);
#419=AXIS2_PLACEMENT_3D('',#642,#518,#519);
#420=AXIS2_PLACEMENT_3D('',#643,#520,#521);
#421=AXIS2_PLACEMENT_3D('',#646,#522,#523);
#422=AXIS2_PLACEMENT_3D('',#650,#525,#526);
#423=AXIS2_PLACEMENT_3D('',#652,#528,#529);
#424=AXIS2_PLACEMENT_3D('',#653,#530,#531);
#425=AXIS2_PLACEMENT_3D('',#654,#532,#533);
#426=AXIS2_PLACEMENT_3D('',#655,#534,#535);
#427=AXIS2_PLACEMENT_3D('',#656,#536,#537);
#428=AXIS2_PLACEMENT_3D('',#657,#538,#539);
#429=AXIS2_PLACEMENT_3D('',#658,#540,#541);
#430=AXIS2_PLACEMENT_3D('',#659,#542,#543);
#431=AXIS2_PLACEMENT_3D('',#660,#544,#545);
#432=AXIS2_PLACEMENT_3D('',#663,#546,#547);
#433=AXIS2_PLACEMENT_3D('',#665,#548,#549);
#434=AXIS2_PLACEMENT_3D('',#667,#550,#551);
#435=AXIS2_PLACEMENT_3D('',#668,#552,#553);
#436=AXIS2_PLACEMENT_3D('',#669,#554,#555);
#437=AXIS2_PLACEMENT_3D('',#670,#556,#557);
#438=AXIS2_PLACEMENT_3D('',#673,#559,#560);
#439=AXIS2_PLACEMENT_3D('',#674,#561,#562);
#440=AXIS2_PLACEMENT_3D('',#677,#564,#565);
#441=AXIS2_PLACEMENT_3D('',#678,#566,#567);
#442=AXIS2_PLACEMENT_3D('',#679,#568,#569);
#443=AXIS2_PLACEMENT_3D('',#681,#570,#571);
#444=AXIS2_PLACEMENT_3D('',#682,#572,#573);
#445=AXIS2_PLACEMENT_3D('',#685,#575,#576);
#446=AXIS2_PLACEMENT_3D('',#686,#577,#578);
#447=AXIS2_PLACEMENT_3D('',#688,#580,#581);
#448=DIRECTION('axis',(0.,0.,1.));
#449=DIRECTION('refdir',(1.,0.,0.));
#450=DIRECTION('axis',(0.,0.,1.));
#451=DIRECTION('refdir',(1.,0.,0.));
#452=DIRECTION('center_axis',(0.,1.,0.));
#453=DIRECTION('ref_axis',(0.999999999948344,0.,1.01642017048175E-5));
#454=DIRECTION('center_axis',(2.46516527199658E-32,1.,2.46521538538006E-32));
#455=DIRECTION('ref_axis',(0.999999999948344,-2.46519032881566E-32,1.01642017048175E-5));
#456=DIRECTION('',(0.,-1.,0.));
#457=DIRECTION('center_axis',(-2.46516527199658E-32,-1.,-2.46521538538006E-32));
#458=DIRECTION('ref_axis',(0.999999999948344,-2.46519032881566E-32,1.01642017048175E-5));
#459=DIRECTION('center_axis',(-2.46516527199658E-32,-1.,-2.46521538538006E-32));
#460=DIRECTION('ref_axis',(0.999999999948344,-2.46519032881566E-32,1.01642017048175E-5));
#461=DIRECTION('center_axis',(-2.46516527199658E-32,-1.,-2.46521538538006E-32));
#462=DIRECTION('ref_axis',(0.999999999948344,-2.46519032881566E-32,1.01642017048175E-5));
#463=DIRECTION('center_axis',(0.,1.,0.));
#464=DIRECTION('ref_axis',(-1.,0.,-1.22464679914735E-16));
#465=DIRECTION('center_axis',(0.,-1.,0.));
#466=DIRECTION('ref_axis',(-1.,0.,-1.22464679914735E-16));
#467=DIRECTION('',(0.,-1.,0.));
#468=DIRECTION('center_axis',(0.,1.,0.));
#469=DIRECTION('ref_axis',(-1.,0.,-1.22464679914735E-16));
#470=DIRECTION('center_axis',(0.,1.,0.));
#471=DIRECTION('ref_axis',(-0.866025403784438,0.,-0.5));
#472=DIRECTION('center_axis',(0.,-1.,0.));
#473=DIRECTION('ref_axis',(-0.138752879024314,0.,0.990327036166571));
#474=DIRECTION('',(0.,1.,0.));
#475=DIRECTION('center_axis',(0.,1.,0.));
#476=DIRECTION('ref_axis',(-0.138752879024314,0.,0.990327036166571));
#477=DIRECTION('',(0.,1.,0.));
#478=DIRECTION('center_axis',(0.,1.,0.));
#479=DIRECTION('ref_axis',(0.568824927831253,0.,0.822458632076879));
#480=DIRECTION('center_axis',(0.,-1.,0.));
#481=DIRECTION('ref_axis',(0.568824927831253,0.,0.822458632076879));
#482=DIRECTION('center_axis',(0.,-1.,0.));
#483=DIRECTION('ref_axis',(0.568824927831253,0.,0.822458632076879));
#484=DIRECTION('',(0.,1.,0.));
#485=DIRECTION('center_axis',(0.,1.,0.));
#486=DIRECTION('ref_axis',(0.138752879024314,0.,-0.990327036166571));
#487=DIRECTION('center_axis',(0.,-1.,0.));
#488=DIRECTION('ref_axis',(0.138752879024314,0.,-0.990327036166571));
#489=DIRECTION('',(0.,1.,0.));
#490=DIRECTION('center_axis',(0.,-1.,0.));
#491=DIRECTION('ref_axis',(0.138752879024314,0.,-0.990327036166571));
#492=DIRECTION('center_axis',(0.,-1.,0.));
#493=DIRECTION('ref_axis',(-1.,0.,-1.22464679914735E-16));
#494=DIRECTION('center_axis',(0.,-1.,0.));
#495=DIRECTION('ref_axis',(1.,0.,0.));
#496=DIRECTION('center_axis',(0.,-1.,0.));
#497=DIRECTION('ref_axis',(-1.,0.,-1.22464679914735E-16));
#498=DIRECTION('center_axis',(0.,1.,0.));
#499=DIRECTION('ref_axis',(1.,0.,0.));
#500=DIRECTION('center_axis',(0.,-1.,0.));
#501=DIRECTION('ref_axis',(1.,0.,0.));
#502=DIRECTION('center_axis',(0.,-1.,0.));
#503=DIRECTION('ref_axis',(1.,0.,0.));
#504=DIRECTION('',(0.,1.,0.));
#505=DIRECTION('center_axis',(0.,-1.,0.));
#506=DIRECTION('ref_axis',(1.,0.,0.));
#507=DIRECTION('',(0.,1.,0.));
#508=DIRECTION('center_axis',(0.,-1.,0.));
#509=DIRECTION('ref_axis',(1.,0.,0.));
#510=DIRECTION('',(0.,1.,0.));
#511=DIRECTION('center_axis',(0.,1.,0.));
#512=DIRECTION('ref_axis',(1.,0.,0.));
#513=DIRECTION('center_axis',(0.,1.,0.));
#514=DIRECTION('ref_axis',(1.,0.,0.));
#515=DIRECTION('center_axis',(0.,-1.,0.));
#516=DIRECTION('ref_axis',(1.,0.,0.));
#517=DIRECTION('',(0.,-1.,0.));
#518=DIRECTION('center_axis',(0.,1.,0.));
#519=DIRECTION('ref_axis',(1.,0.,0.));
#520=DIRECTION('center_axis',(0.,1.,0.));
#521=DIRECTION('ref_axis',(0.866025403784438,0.,0.5));
#522=DIRECTION('center_axis',(0.,-1.,0.));
#523=DIRECTION('ref_axis',(0.138752879024314,0.,-0.990327036166571));
#524=DIRECTION('',(0.,1.,0.));
#525=DIRECTION('center_axis',(0.,1.,0.));
#526=DIRECTION('ref_axis',(0.138752879024314,0.,-0.990327036166571));
#527=DIRECTION('',(0.,1.,0.));
#528=DIRECTION('center_axis',(0.,1.,0.));
#529=DIRECTION('ref_axis',(-0.568824927831253,0.,-0.822458632076878));
#530=DIRECTION('center_axis',(0.,-1.,0.));
#531=DIRECTION('ref_axis',(-0.568824927831253,0.,-0.822458632076878));
#532=DIRECTION('center_axis',(0.,-1.,0.));
#533=DIRECTION('ref_axis',(-0.568824927831253,0.,-0.822458632076878));
#534=DIRECTION('center_axis',(0.,1.,0.));
#535=DIRECTION('ref_axis',(-0.138752879024314,0.,0.990327036166571));
#536=DIRECTION('center_axis',(0.,-1.,0.));
#537=DIRECTION('ref_axis',(-0.138752879024314,0.,0.990327036166571));
#538=DIRECTION('center_axis',(0.,-1.,0.));
#539=DIRECTION('ref_axis',(-0.138752879024314,0.,0.990327036166571));
#540=DIRECTION('center_axis',(0.,-1.,0.));
#541=DIRECTION('ref_axis',(1.,0.,0.));
#542=DIRECTION('center_axis',(0.,-1.,0.));
#543=DIRECTION('ref_axis',(1.,0.,0.));
#544=DIRECTION('center_axis',(0.,-1.,0.));
#545=DIRECTION('ref_axis',(0.,0.,-1.));
#546=DIRECTION('center_axis',(0.,-1.,0.));
#547=DIRECTION('ref_axis',(1.,0.,0.));
#548=DIRECTION('center_axis',(-1.,0.,-1.22464679914735E-16));
#549=DIRECTION('ref_axis',(-1.22464679914735E-16,0.,1.));
#550=DIRECTION('center_axis',(0.,-1.,0.));
#551=DIRECTION('ref_axis',(1.,0.,0.));
#552=DIRECTION('center_axis',(0.,-1.,0.));
#553=DIRECTION('ref_axis',(1.,0.,0.));
#554=DIRECTION('center_axis',(0.,-1.,0.));
#555=DIRECTION('ref_axis',(1.,0.,0.));
#556=DIRECTION('center_axis',(0.,-1.,0.));
#557=DIRECTION('ref_axis',(1.,0.,0.));
#558=DIRECTION('',(0.707106781186543,0.707106781186552,8.65956056235487E-17));
#559=DIRECTION('center_axis',(0.,-1.,0.));
#560=DIRECTION('ref_axis',(1.,0.,0.));
#561=DIRECTION('center_axis',(0.,-1.,0.));
#562=DIRECTION('ref_axis',(1.,0.,0.));
#563=DIRECTION('',(0.,1.,0.));
#564=DIRECTION('center_axis',(0.,-1.,0.));
#565=DIRECTION('ref_axis',(1.,0.,0.));
#566=DIRECTION('center_axis',(0.,1.,0.));
#567=DIRECTION('ref_axis',(0.,0.,1.));
#568=DIRECTION('center_axis',(0.,-1.,0.));
#569=DIRECTION('ref_axis',(0.,0.,-1.));
#570=DIRECTION('center_axis',(0.,-1.,0.));
#571=DIRECTION('ref_axis',(1.,0.,0.));
#572=DIRECTION('center_axis',(0.,-1.,0.));
#573=DIRECTION('ref_axis',(1.,0.,0.));
#574=DIRECTION('',(0.,1.,0.));
#575=DIRECTION('center_axis',(0.,-1.,0.));
#576=DIRECTION('ref_axis',(1.,0.,0.));
#577=DIRECTION('center_axis',(0.,1.,0.));
#578=DIRECTION('ref_axis',(1.,0.,0.));
#579=DIRECTION('',(-0.707106781186543,0.707106781186552,-8.65956056235487E-17));
#580=DIRECTION('',(0.,0.,1.));
#581=DIRECTION('',(1.,0.,0.));
#582=CARTESIAN_POINT('',(0.,0.,0.));
#583=CARTESIAN_POINT('',(0.,0.,0.));
#584=CARTESIAN_POINT('Origin',(-12.1243556529821,-6.5,-7.));
#585=CARTESIAN_POINT('',(-15.1243556528272,0.5,-7.00003049260511));
#586=CARTESIAN_POINT('Origin',(-12.1243556529821,0.5,-7.));
#587=CARTESIAN_POINT('',(-15.1243556528272,-6.5,-7.00003049260511));
#588=CARTESIAN_POINT('',(-15.1243556528272,-6.5,-7.00003049260511));
#589=CARTESIAN_POINT('Origin',(-12.1243556529821,-6.5,-7.));
#590=CARTESIAN_POINT('Origin',(-12.1243556529821,-6.5,-7.));
#591=CARTESIAN_POINT('Origin',(-12.1243556529821,0.5,-7.));
#592=CARTESIAN_POINT('Origin',(-12.1243556529821,-4.,-7.));
#593=CARTESIAN_POINT('',(-10.9743556529821,-2.,-7.));
#594=CARTESIAN_POINT('Origin',(-12.1243556529821,-2.,-7.));
#595=CARTESIAN_POINT('',(-10.9743556529821,-4.,-7.));
#596=CARTESIAN_POINT('',(-10.9743556529821,-4.,-7.));
#597=CARTESIAN_POINT('Origin',(-12.1243556529821,-4.,-7.));
#598=CARTESIAN_POINT('Origin',(-12.1243556529821,-4.,-7.));
#599=CARTESIAN_POINT('',(-12.5406142900551,-4.,-4.02901889150029));
#600=CARTESIAN_POINT('',(-9.75953985739421,-4.,-8.84598110849971));
#601=CARTESIAN_POINT('Origin',(-12.1243556529821,-4.,-7.));
#602=CARTESIAN_POINT('',(-12.5406142900551,-2.,-4.02901889150029));
#603=CARTESIAN_POINT('',(-12.5406142900551,-4.,-4.02901889150029));
#604=CARTESIAN_POINT('',(-9.75953985739421,-2.,-8.84598110849971));
#605=CARTESIAN_POINT('Origin',(-12.1243556529821,-2.,-7.));
#606=CARTESIAN_POINT('',(-9.75953985739421,-4.,-8.84598110849971));
#607=CARTESIAN_POINT('Origin',(-7.39472406180628,-4.,-10.6919622169994));
#608=CARTESIAN_POINT('',(-5.68824927831252,-4.,-8.22458632076879));
#609=CARTESIAN_POINT('Origin',(-7.39472406180628,-4.,-10.6919622169994));
#610=CARTESIAN_POINT('',(-5.68824927831252,-2.,-8.22458632076879));
#611=CARTESIAN_POINT('Origin',(-7.39472406180628,-2.,-10.6919622169994));
#612=CARTESIAN_POINT('',(-5.68824927831252,-4.,-8.22458632076878));
#613=CARTESIAN_POINT('Origin',(-12.956872927128,-4.,-1.05803778300057));
#614=CARTESIAN_POINT('',(-9.96682532856002,-4.,-0.813875217692749));
#615=CARTESIAN_POINT('Origin',(-12.956872927128,-4.,-1.05803778300057));
#616=CARTESIAN_POINT('',(-9.96682532856002,-2.,-0.813875217692749));
#617=CARTESIAN_POINT('',(-9.96682532856002,-4.,-0.813875217692749));
#618=CARTESIAN_POINT('Origin',(-12.956872927128,-2.,-1.05803778300057));
#619=CARTESIAN_POINT('Origin',(-10.4063024656473,-4.,-5.40693760884637));
#620=CARTESIAN_POINT('Origin',(0.,-4.,0.));
#621=CARTESIAN_POINT('Origin',(-10.4063024656473,-2.,-5.40693760884637));
#622=CARTESIAN_POINT('Origin',(0.,-2.,0.));
#623=CARTESIAN_POINT('Origin',(0.,-3.,0.));
#624=CARTESIAN_POINT('',(-10.,-5.,-1.22464679914735E-15));
#625=CARTESIAN_POINT('Origin',(0.,-5.,0.));
#626=CARTESIAN_POINT('',(-10.,-1.,-1.22464679914735E-15));
#627=CARTESIAN_POINT('',(-10.,-3.,-1.22464679914735E-15));
#628=CARTESIAN_POINT('Origin',(0.,-1.,0.));
#629=CARTESIAN_POINT('',(9.96682532856002,-4.,0.813875217692748));
#630=CARTESIAN_POINT('',(9.96682532856002,-2.,0.813875217692748));
#631=CARTESIAN_POINT('',(9.96682532856002,-4.,0.813875217692748));
#632=CARTESIAN_POINT('',(5.68824927831252,-4.,8.22458632076879));
#633=CARTESIAN_POINT('Origin',(0.,-4.,0.));
#634=CARTESIAN_POINT('',(5.68824927831252,-2.,8.22458632076879));
#635=CARTESIAN_POINT('',(5.68824927831253,-4.,8.22458632076879));
#636=CARTESIAN_POINT('Origin',(0.,-2.,0.));
#637=CARTESIAN_POINT('Origin',(12.1243556529821,-4.,7.));
#638=CARTESIAN_POINT('',(10.9743556529821,-2.,7.));
#639=CARTESIAN_POINT('Origin',(12.1243556529821,-2.,7.));
#640=CARTESIAN_POINT('',(10.9743556529821,-4.,7.));
#641=CARTESIAN_POINT('',(10.9743556529821,-4.,7.));
#642=CARTESIAN_POINT('Origin',(12.1243556529821,-4.,7.));
#643=CARTESIAN_POINT('Origin',(12.1243556529821,-4.,7.));
#644=CARTESIAN_POINT('',(12.5406142900551,-4.,4.02901889150029));
#645=CARTESIAN_POINT('',(9.75953985739422,-4.,8.84598110849971));
#646=CARTESIAN_POINT('Origin',(12.1243556529821,-4.,7.));
#647=CARTESIAN_POINT('',(12.5406142900551,-2.,4.02901889150029));
#648=CARTESIAN_POINT('',(12.5406142900551,-4.,4.02901889150029));
#649=CARTESIAN_POINT('',(9.75953985739422,-2.,8.84598110849971));
#650=CARTESIAN_POINT('Origin',(12.1243556529821,-2.,7.));
#651=CARTESIAN_POINT('',(9.75953985739422,-4.,8.84598110849971));
#652=CARTESIAN_POINT('Origin',(7.39472406180628,-4.,10.6919622169994));
#653=CARTESIAN_POINT('Origin',(7.39472406180628,-4.,10.6919622169994));
#654=CARTESIAN_POINT('Origin',(7.39472406180628,-2.,10.6919622169994));
#655=CARTESIAN_POINT('Origin',(12.956872927128,-4.,1.05803778300057));
#656=CARTESIAN_POINT('Origin',(12.956872927128,-4.,1.05803778300057));
#657=CARTESIAN_POINT('Origin',(12.956872927128,-2.,1.05803778300057));
#658=CARTESIAN_POINT('Origin',(10.4063024656473,-4.,5.40693760884637));
#659=CARTESIAN_POINT('Origin',(10.4063024656473,-2.,5.40693760884637));
#660=CARTESIAN_POINT('Origin',(0.,-3.,0.));
#661=CARTESIAN_POINT('',(-7.94601551083915,-4.09601551083915,-9.73106246132438E-16));
#662=CARTESIAN_POINT('',(-9.73106246132438E-16,-4.09601551083915,7.94601551083915));
#663=CARTESIAN_POINT('Origin',(0.,-4.09601551083915,0.));
#664=CARTESIAN_POINT('',(-9.73106246132438E-16,-1.90398448916085,7.94601551083915));
#665=CARTESIAN_POINT('Origin',(-8.38883057415937E-16,-3.,6.85));
#666=CARTESIAN_POINT('',(-7.94601551083915,-1.90398448916085,-9.73106246132439E-16));
#667=CARTESIAN_POINT('Origin',(0.,-1.90398448916085,0.));
#668=CARTESIAN_POINT('Origin',(0.,-1.90398448916085,0.));
#669=CARTESIAN_POINT('Origin',(0.,-4.09601551083915,0.));
#670=CARTESIAN_POINT('Origin',(0.,-1.75597673374128,0.));
#671=CARTESIAN_POINT('',(-7.65,-1.6079689783217,-9.36854801347725E-16));
#672=CARTESIAN_POINT('',(-7.79800775541958,-1.75597673374128,-9.54980523740082E-16));
#673=CARTESIAN_POINT('Origin',(0.,-1.6079689783217,0.));
#674=CARTESIAN_POINT('Origin',(0.,-1.30398448916085,0.));
#675=CARTESIAN_POINT('',(-7.65,-1.,-9.36854801347725E-16));
#676=CARTESIAN_POINT('',(-7.65,-1.30398448916085,-9.36854801347725E-16));
#677=CARTESIAN_POINT('Origin',(0.,-1.,0.));
#678=CARTESIAN_POINT('Origin',(10.,-1.,0.));
#679=CARTESIAN_POINT('Origin',(7.65,-5.,0.));
#680=CARTESIAN_POINT('',(-7.65,-5.,-9.36854801347725E-16));
#681=CARTESIAN_POINT('Origin',(0.,-5.,0.));
#682=CARTESIAN_POINT('Origin',(0.,-4.69601551083915,0.));
#683=CARTESIAN_POINT('',(-7.65,-4.3920310216783,-9.36854801347725E-16));
#684=CARTESIAN_POINT('',(-7.65,-4.69601551083915,-9.36854801347725E-16));
#685=CARTESIAN_POINT('Origin',(0.,-4.3920310216783,0.));
#686=CARTESIAN_POINT('Origin',(0.,-4.24402326625873,0.));
#687=CARTESIAN_POINT('',(-7.79800775541958,-4.24402326625873,-9.54980523740082E-16));
#688=CARTESIAN_POINT('',(0.,0.,0.));
#689=UNCERTAINTY_MEASURE_WITH_UNIT(LENGTH_MEASURE(0.01),#695,
'DISTANCE_ACCURACY_VALUE',
'Maximum model space distance between geometric entities at asserted c
onnectivities');
#690=UNCERTAINTY_MEASURE_WITH_UNIT(LENGTH_MEASURE(0.01),#695,
'DISTANCE_ACCURACY_VALUE',
'Maximum model space distance between geometric entities at asserted c
onnectivities');
#691=UNCERTAINTY_MEASURE_WITH_UNIT(LENGTH_MEASURE(0.01),#695,
'DISTANCE_ACCURACY_VALUE',
'Maximum model space distance between geometric entities at asserted c
onnectivities');
#692=(
GEOMETRIC_REPRESENTATION_CONTEXT(3)
GLOBAL_UNCERTAINTY_ASSIGNED_CONTEXT((#689))
GLOBAL_UNIT_ASSIGNED_CONTEXT((#695,#697,#698))
REPRESENTATION_CONTEXT('','3D')
);
#693=(
GEOMETRIC_REPRESENTATION_CONTEXT(3)
GLOBAL_UNCERTAINTY_ASSIGNED_CONTEXT((#690))
GLOBAL_UNIT_ASSIGNED_CONTEXT((#695,#697,#698))
REPRESENTATION_CONTEXT('','3D')
);
#694=(
GEOMETRIC_REPRESENTATION_CONTEXT(3)
GLOBAL_UNCERTAINTY_ASSIGNED_CONTEXT((#691))
GLOBAL_UNIT_ASSIGNED_CONTEXT((#695,#697,#698))
REPRESENTATION_CONTEXT('','3D')
);
#695=(
LENGTH_UNIT()
NAMED_UNIT(*)
SI_UNIT(.MILLI.,.METRE.)
);
#696=(
LENGTH_UNIT()
NAMED_UNIT(*)
SI_UNIT($,.METRE.)
);
#697=(
NAMED_UNIT(*)
PLANE_ANGLE_UNIT()
SI_UNIT($,.RADIAN.)
);
#698=(
NAMED_UNIT(*)
SI_UNIT($,.STERADIAN.)
SOLID_ANGLE_UNIT()
);
#699=SHAPE_DEFINITION_REPRESENTATION(#701,#704);
#700=SHAPE_DEFINITION_REPRESENTATION(#702,#705);
#701=PRODUCT_DEFINITION_SHAPE('',$,#707);
#702=PRODUCT_DEFINITION_SHAPE('',$,#708);
#703=PRODUCT_DEFINITION_SHAPE($,$,#14);
#704=SHAPE_REPRESENTATION('',(#389,#447),#692);
#705=SHAPE_REPRESENTATION('',(#390),#693);
#706=PRODUCT_DEFINITION_CONTEXT('part definition',#714,'design');
#707=PRODUCT_DEFINITION('\X2\819D76D68F6C52A8\X0\','\X2\819D76D68F6C52A8\X0\',
#709,#706);
#708=PRODUCT_DEFINITION('COL_\X2\819D76D652A8529B8FDE63A5\X0\',
'COL_\X2\819D76D652A8529B8FDE63A5\X0\',#710,#706);
#709=PRODUCT_DEFINITION_FORMATION('',$,#716);
#710=PRODUCT_DEFINITION_FORMATION('',$,#717);
#711=PRODUCT_RELATED_PRODUCT_CATEGORY('\X2\819D76D68F6C52A8\X0\',
'\X2\819D76D68F6C52A8\X0\',(#716));
#712=PRODUCT_RELATED_PRODUCT_CATEGORY('COL_\X2\819D76D652A8529B8FDE63A5\X0\',
'COL_\X2\819D76D652A8529B8FDE63A5\X0\',(#717));
#713=APPLICATION_PROTOCOL_DEFINITION('international standard',
'automotive_design',2009,#714);
#714=APPLICATION_CONTEXT(
'Core Data for Automotive Mechanical Design Process');
#715=PRODUCT_CONTEXT('part definition',#714,'mechanical');
#716=PRODUCT('\X2\819D76D68F6C52A8\X0\','\X2\819D76D68F6C52A8\X0\',$,(#715));
#717=PRODUCT('COL_\X2\819D76D652A8529B8FDE63A5\X0\',
'COL_\X2\819D76D652A8529B8FDE63A5\X0\',$,(#715));
#718=PRESENTATION_STYLE_ASSIGNMENT((#719));
#719=SURFACE_STYLE_USAGE(.BOTH.,#720);
#720=SURFACE_SIDE_STYLE('',(#721));
#721=SURFACE_STYLE_FILL_AREA(#722);
#722=FILL_AREA_STYLE('\X2\94A2\X0\ - \X2\7F0E5149\X0\',(#723));
#723=FILL_AREA_STYLE_COLOUR('\X2\94A2\X0\ - \X2\7F0E5149\X0\',#724);
#724=COLOUR_RGB('\X2\94A2\X0\ - \X2\7F0E5149\X0\',0.627450980392157,0.627450980392157,
0.627450980392157);
ENDSEC;
END-ISO-10303-21;
