ISO-10303-21;
HEADER;
/* Generated by software containing ST-Developer
 * from STEP Tools, Inc. (www.steptools.com) 
 */

FILE_DESCRIPTION(
/* description */ (''),
/* implementation_level */ '2;1');

FILE_NAME(
/* name */ '',
/* time_stamp */ '2026-07-14T16:58:24+08:00',
/* author */ (''),
/* organization */ (''),
/* preprocessor_version */ 'ST-DEVELOPER v20.1',
/* originating_system */ 'Autodesk Translation Framework v15.8.0.0',
/* authorisation */ '');

FILE_SCHEMA (('AUTOMOTIVE_DESIGN { 1 0 10303 214 3 1 1 }'));
ENDSEC;

DATA;
#10=MECHANICAL_DESIGN_GEOMETRIC_PRESENTATION_REPRESENTATION('',(#13),#570);
#11=SHAPE_REPRESENTATION_RELATIONSHIP('SRR','None',#577,#12);
#12=ADVANCED_BREP_SHAPE_REPRESENTATION('',(#14),#569);
#13=STYLED_ITEM('',(#586),#14);
#14=MANIFOLD_SOLID_BREP('\X2\5C0F817F\X0\',#310);
#15=CONICAL_SURFACE('',#360,5.36567395951885,0.785398214196853);
#16=CONICAL_SURFACE('',#369,5.36567408591015,0.785398112598027);
#17=TOROIDAL_SURFACE('',#354,4.41766626729493,1.55);
#18=FACE_BOUND('',#55,.T.);
#19=FACE_BOUND('',#61,.T.);
#20=FACE_BOUND('',#63,.T.);
#21=FACE_BOUND('',#68,.T.);
#22=FACE_BOUND('',#70,.T.);
#23=PLANE('',#327);
#24=PLANE('',#331);
#25=PLANE('',#333);
#26=PLANE('',#352);
#27=PLANE('',#353);
#28=PLANE('',#364);
#29=PLANE('',#365);
#30=FACE_OUTER_BOUND('',#49,.T.);
#31=FACE_OUTER_BOUND('',#50,.T.);
#32=FACE_OUTER_BOUND('',#51,.T.);
#33=FACE_OUTER_BOUND('',#52,.T.);
#34=FACE_OUTER_BOUND('',#53,.T.);
#35=FACE_OUTER_BOUND('',#54,.T.);
#36=FACE_OUTER_BOUND('',#56,.T.);
#37=FACE_OUTER_BOUND('',#57,.T.);
#38=FACE_OUTER_BOUND('',#58,.T.);
#39=FACE_OUTER_BOUND('',#59,.T.);
#40=FACE_OUTER_BOUND('',#60,.T.);
#41=FACE_OUTER_BOUND('',#62,.T.);
#42=FACE_OUTER_BOUND('',#64,.T.);
#43=FACE_OUTER_BOUND('',#65,.T.);
#44=FACE_OUTER_BOUND('',#66,.T.);
#45=FACE_OUTER_BOUND('',#67,.T.);
#46=FACE_OUTER_BOUND('',#69,.T.);
#47=FACE_OUTER_BOUND('',#71,.T.);
#48=FACE_OUTER_BOUND('',#72,.T.);
#49=EDGE_LOOP('',(#198,#199,#200,#201));
#50=EDGE_LOOP('',(#202,#203,#204,#205));
#51=EDGE_LOOP('',(#206,#207,#208,#209));
#52=EDGE_LOOP('',(#210,#211,#212,#213));
#53=EDGE_LOOP('',(#214,#215,#216,#217));
#54=EDGE_LOOP('',(#218,#219,#220,#221));
#55=EDGE_LOOP('',(#222,#223,#224,#225));
#56=EDGE_LOOP('',(#226,#227,#228,#229));
#57=EDGE_LOOP('',(#230,#231,#232,#233));
#58=EDGE_LOOP('',(#234,#235,#236,#237));
#59=EDGE_LOOP('',(#238,#239,#240,#241));
#60=EDGE_LOOP('',(#242,#243,#244,#245));
#61=EDGE_LOOP('',(#246));
#62=EDGE_LOOP('',(#247,#248,#249,#250));
#63=EDGE_LOOP('',(#251));
#64=EDGE_LOOP('',(#252,#253,#254,#255,#256,#257));
#65=EDGE_LOOP('',(#258,#259,#260,#261,#262));
#66=EDGE_LOOP('',(#263,#264,#265,#266));
#67=EDGE_LOOP('',(#267,#268));
#68=EDGE_LOOP('',(#269));
#69=EDGE_LOOP('',(#270,#271));
#70=EDGE_LOOP('',(#272));
#71=EDGE_LOOP('',(#273,#274,#275,#276));
#72=EDGE_LOOP('',(#277,#278,#279,#280,#281));
#73=LINE('',#485,#88);
#74=LINE('',#488,#89);
#75=LINE('',#492,#90);
#76=LINE('',#494,#91);
#77=LINE('',#496,#92);
#78=LINE('',#497,#93);
#79=LINE('',#510,#94);
#80=LINE('',#514,#95);
#81=LINE('',#520,#96);
#82=LINE('',#527,#97);
#83=LINE('',#530,#98);
#84=LINE('',#551,#99);
#85=LINE('',#555,#100);
#86=LINE('',#563,#101);
#87=LINE('',#566,#102);
#88=VECTOR('',#376,10.);
#89=VECTOR('',#379,10.);
#90=VECTOR('',#382,10.);
#91=VECTOR('',#383,10.);
#92=VECTOR('',#384,10.);
#93=VECTOR('',#385,10.);
#94=VECTOR('',#406,10.);
#95=VECTOR('',#409,10.);
#96=VECTOR('',#416,1.15);
#97=VECTOR('',#423,10.);
#98=VECTOR('',#426,10.);
#99=VECTOR('',#457,5.36567395951885);
#100=VECTOR('',#462,5.21766616843848);
#101=VECTOR('',#473,5.21766636615137);
#102=VECTOR('',#478,5.36567408591015);
#103=CIRCLE('',#325,41.8290481690211);
#104=CIRCLE('',#326,41.8290481690211);
#105=CIRCLE('',#329,4.);
#106=CIRCLE('',#330,4.);
#107=CIRCLE('',#332,7.56766639429346);
#108=CIRCLE('',#334,7.56766614029639);
#109=CIRCLE('',#336,7.56766639429346);
#110=CIRCLE('',#337,7.56766614029639);
#111=CIRCLE('',#338,7.56766626729494);
#112=CIRCLE('',#339,7.56766626729494);
#113=CIRCLE('',#341,1.15);
#114=CIRCLE('',#342,1.15);
#115=CIRCLE('',#344,3.);
#116=CIRCLE('',#345,3.);
#117=CIRCLE('',#347,5.99999999999999);
#118=CIRCLE('',#348,5.99999999999999);
#119=CIRCLE('',#350,6.00000000000001);
#120=CIRCLE('',#351,6.00000000000001);
#121=CIRCLE('',#355,5.51368183381102);
#122=CIRCLE('',#356,1.55);
#123=CIRCLE('',#357,5.51368172245713);
#124=CIRCLE('',#358,5.51368172245713);
#125=CIRCLE('',#359,5.51368183381102);
#126=CIRCLE('',#361,5.21766619658057);
#127=CIRCLE('',#363,5.21766614029639);
#128=CIRCLE('',#366,5.21766639429346);
#129=CIRCLE('',#368,5.21766633800928);
#130=VERTEX_POINT('',#481);
#131=VERTEX_POINT('',#482);
#132=VERTEX_POINT('',#484);
#133=VERTEX_POINT('',#486);
#134=VERTEX_POINT('',#490);
#135=VERTEX_POINT('',#491);
#136=VERTEX_POINT('',#493);
#137=VERTEX_POINT('',#495);
#138=VERTEX_POINT('',#508);
#139=VERTEX_POINT('',#509);
#140=VERTEX_POINT('',#511);
#141=VERTEX_POINT('',#513);
#142=VERTEX_POINT('',#517);
#143=VERTEX_POINT('',#519);
#144=VERTEX_POINT('',#523);
#145=VERTEX_POINT('',#524);
#146=VERTEX_POINT('',#526);
#147=VERTEX_POINT('',#528);
#148=VERTEX_POINT('',#540);
#149=VERTEX_POINT('',#541);
#150=VERTEX_POINT('',#543);
#151=VERTEX_POINT('',#545);
#152=VERTEX_POINT('',#550);
#153=VERTEX_POINT('',#554);
#154=VERTEX_POINT('',#559);
#155=VERTEX_POINT('',#562);
#156=EDGE_CURVE('',#130,#131,#103,.T.);
#157=EDGE_CURVE('',#131,#132,#73,.T.);
#158=EDGE_CURVE('',#133,#132,#104,.T.);
#159=EDGE_CURVE('',#130,#133,#74,.T.);
#160=EDGE_CURVE('',#134,#135,#75,.T.);
#161=EDGE_CURVE('',#136,#135,#76,.T.);
#162=EDGE_CURVE('',#137,#136,#77,.T.);
#163=EDGE_CURVE('',#134,#137,#78,.T.);
#164=EDGE_CURVE('',#134,#131,#105,.T.);
#165=EDGE_CURVE('',#132,#137,#106,.T.);
#166=EDGE_CURVE('',#135,#130,#107,.T.);
#167=EDGE_CURVE('',#136,#133,#108,.T.);
#168=EDGE_CURVE('',#130,#135,#109,.T.);
#169=EDGE_CURVE('',#133,#136,#110,.T.);
#170=EDGE_CURVE('',#138,#139,#79,.T.);
#171=EDGE_CURVE('',#138,#140,#111,.T.);
#172=EDGE_CURVE('',#140,#141,#80,.T.);
#173=EDGE_CURVE('',#141,#139,#112,.T.);
#174=EDGE_CURVE('',#142,#142,#113,.T.);
#175=EDGE_CURVE('',#142,#143,#81,.T.);
#176=EDGE_CURVE('',#143,#143,#114,.T.);
#177=EDGE_CURVE('',#144,#145,#115,.T.);
#178=EDGE_CURVE('',#144,#146,#82,.T.);
#179=EDGE_CURVE('',#147,#146,#116,.T.);
#180=EDGE_CURVE('',#145,#147,#83,.T.);
#181=EDGE_CURVE('',#140,#145,#117,.T.);
#182=EDGE_CURVE('',#141,#147,#118,.T.);
#183=EDGE_CURVE('',#144,#138,#119,.T.);
#184=EDGE_CURVE('',#146,#139,#120,.T.);
#185=EDGE_CURVE('',#148,#149,#121,.T.);
#186=EDGE_CURVE('',#149,#150,#122,.T.);
#187=EDGE_CURVE('',#151,#150,#123,.T.);
#188=EDGE_CURVE('',#150,#151,#124,.T.);
#189=EDGE_CURVE('',#149,#148,#125,.T.);
#190=EDGE_CURVE('',#151,#152,#84,.T.);
#191=EDGE_CURVE('',#152,#152,#126,.T.);
#192=EDGE_CURVE('',#152,#153,#85,.T.);
#193=EDGE_CURVE('',#153,#153,#127,.T.);
#194=EDGE_CURVE('',#154,#154,#128,.T.);
#195=EDGE_CURVE('',#154,#155,#86,.T.);
#196=EDGE_CURVE('',#155,#155,#129,.T.);
#197=EDGE_CURVE('',#155,#148,#87,.T.);
#198=ORIENTED_EDGE('',*,*,#156,.T.);
#199=ORIENTED_EDGE('',*,*,#157,.T.);
#200=ORIENTED_EDGE('',*,*,#158,.F.);
#201=ORIENTED_EDGE('',*,*,#159,.F.);
#202=ORIENTED_EDGE('',*,*,#160,.T.);
#203=ORIENTED_EDGE('',*,*,#161,.F.);
#204=ORIENTED_EDGE('',*,*,#162,.F.);
#205=ORIENTED_EDGE('',*,*,#163,.F.);
#206=ORIENTED_EDGE('',*,*,#164,.F.);
#207=ORIENTED_EDGE('',*,*,#163,.T.);
#208=ORIENTED_EDGE('',*,*,#165,.F.);
#209=ORIENTED_EDGE('',*,*,#157,.F.);
#210=ORIENTED_EDGE('',*,*,#164,.T.);
#211=ORIENTED_EDGE('',*,*,#156,.F.);
#212=ORIENTED_EDGE('',*,*,#166,.F.);
#213=ORIENTED_EDGE('',*,*,#160,.F.);
#214=ORIENTED_EDGE('',*,*,#165,.T.);
#215=ORIENTED_EDGE('',*,*,#162,.T.);
#216=ORIENTED_EDGE('',*,*,#167,.T.);
#217=ORIENTED_EDGE('',*,*,#158,.T.);
#218=ORIENTED_EDGE('',*,*,#161,.T.);
#219=ORIENTED_EDGE('',*,*,#168,.F.);
#220=ORIENTED_EDGE('',*,*,#159,.T.);
#221=ORIENTED_EDGE('',*,*,#169,.T.);
#222=ORIENTED_EDGE('',*,*,#170,.F.);
#223=ORIENTED_EDGE('',*,*,#171,.T.);
#224=ORIENTED_EDGE('',*,*,#172,.T.);
#225=ORIENTED_EDGE('',*,*,#173,.T.);
#226=ORIENTED_EDGE('',*,*,#174,.F.);
#227=ORIENTED_EDGE('',*,*,#175,.T.);
#228=ORIENTED_EDGE('',*,*,#176,.F.);
#229=ORIENTED_EDGE('',*,*,#175,.F.);
#230=ORIENTED_EDGE('',*,*,#177,.F.);
#231=ORIENTED_EDGE('',*,*,#178,.T.);
#232=ORIENTED_EDGE('',*,*,#179,.F.);
#233=ORIENTED_EDGE('',*,*,#180,.F.);
#234=ORIENTED_EDGE('',*,*,#181,.T.);
#235=ORIENTED_EDGE('',*,*,#180,.T.);
#236=ORIENTED_EDGE('',*,*,#182,.F.);
#237=ORIENTED_EDGE('',*,*,#172,.F.);
#238=ORIENTED_EDGE('',*,*,#183,.T.);
#239=ORIENTED_EDGE('',*,*,#170,.T.);
#240=ORIENTED_EDGE('',*,*,#184,.F.);
#241=ORIENTED_EDGE('',*,*,#178,.F.);
#242=ORIENTED_EDGE('',*,*,#183,.F.);
#243=ORIENTED_EDGE('',*,*,#177,.T.);
#244=ORIENTED_EDGE('',*,*,#181,.F.);
#245=ORIENTED_EDGE('',*,*,#171,.F.);
#246=ORIENTED_EDGE('',*,*,#176,.T.);
#247=ORIENTED_EDGE('',*,*,#184,.T.);
#248=ORIENTED_EDGE('',*,*,#173,.F.);
#249=ORIENTED_EDGE('',*,*,#182,.T.);
#250=ORIENTED_EDGE('',*,*,#179,.T.);
#251=ORIENTED_EDGE('',*,*,#174,.T.);
#252=ORIENTED_EDGE('',*,*,#185,.T.);
#253=ORIENTED_EDGE('',*,*,#186,.T.);
#254=ORIENTED_EDGE('',*,*,#187,.F.);
#255=ORIENTED_EDGE('',*,*,#188,.F.);
#256=ORIENTED_EDGE('',*,*,#186,.F.);
#257=ORIENTED_EDGE('',*,*,#189,.T.);
#258=ORIENTED_EDGE('',*,*,#187,.T.);
#259=ORIENTED_EDGE('',*,*,#188,.T.);
#260=ORIENTED_EDGE('',*,*,#190,.T.);
#261=ORIENTED_EDGE('',*,*,#191,.F.);
#262=ORIENTED_EDGE('',*,*,#190,.F.);
#263=ORIENTED_EDGE('',*,*,#191,.T.);
#264=ORIENTED_EDGE('',*,*,#192,.T.);
#265=ORIENTED_EDGE('',*,*,#193,.F.);
#266=ORIENTED_EDGE('',*,*,#192,.F.);
#267=ORIENTED_EDGE('',*,*,#169,.F.);
#268=ORIENTED_EDGE('',*,*,#167,.F.);
#269=ORIENTED_EDGE('',*,*,#193,.T.);
#270=ORIENTED_EDGE('',*,*,#168,.T.);
#271=ORIENTED_EDGE('',*,*,#166,.T.);
#272=ORIENTED_EDGE('',*,*,#194,.F.);
#273=ORIENTED_EDGE('',*,*,#194,.T.);
#274=ORIENTED_EDGE('',*,*,#195,.T.);
#275=ORIENTED_EDGE('',*,*,#196,.F.);
#276=ORIENTED_EDGE('',*,*,#195,.F.);
#277=ORIENTED_EDGE('',*,*,#196,.T.);
#278=ORIENTED_EDGE('',*,*,#197,.T.);
#279=ORIENTED_EDGE('',*,*,#189,.F.);
#280=ORIENTED_EDGE('',*,*,#185,.F.);
#281=ORIENTED_EDGE('',*,*,#197,.F.);
#282=CYLINDRICAL_SURFACE('',#324,41.8290481690211);
#283=CYLINDRICAL_SURFACE('',#328,4.);
#284=CYLINDRICAL_SURFACE('',#335,7.56766626729493);
#285=CYLINDRICAL_SURFACE('',#340,1.15);
#286=CYLINDRICAL_SURFACE('',#343,3.);
#287=CYLINDRICAL_SURFACE('',#346,5.99999999999999);
#288=CYLINDRICAL_SURFACE('',#349,6.00000000000001);
#289=CYLINDRICAL_SURFACE('',#362,5.21766616843848);
#290=CYLINDRICAL_SURFACE('',#367,5.21766636615137);
#291=ADVANCED_FACE('',(#30),#282,.F.);
#292=ADVANCED_FACE('',(#31),#23,.T.);
#293=ADVANCED_FACE('',(#32),#283,.T.);
#294=ADVANCED_FACE('',(#33),#24,.T.);
#295=ADVANCED_FACE('',(#34),#25,.F.);
#296=ADVANCED_FACE('',(#35,#18),#284,.T.);
#297=ADVANCED_FACE('',(#36),#285,.F.);
#298=ADVANCED_FACE('',(#37),#286,.T.);
#299=ADVANCED_FACE('',(#38),#287,.F.);
#300=ADVANCED_FACE('',(#39),#288,.F.);
#301=ADVANCED_FACE('',(#40,#19),#26,.T.);
#302=ADVANCED_FACE('',(#41,#20),#27,.F.);
#303=ADVANCED_FACE('',(#42),#17,.F.);
#304=ADVANCED_FACE('',(#43),#15,.F.);
#305=ADVANCED_FACE('',(#44),#289,.F.);
#306=ADVANCED_FACE('',(#45,#21),#28,.T.);
#307=ADVANCED_FACE('',(#46,#22),#29,.T.);
#308=ADVANCED_FACE('',(#47),#290,.F.);
#309=ADVANCED_FACE('',(#48),#16,.F.);
#310=CLOSED_SHELL('',(#291,#292,#293,#294,#295,#296,#297,#298,#299,#300,
#301,#302,#303,#304,#305,#306,#307,#308,#309));
#311=DERIVED_UNIT_ELEMENT(#313,1.);
#312=DERIVED_UNIT_ELEMENT(#572,-3.);
#313=(
MASS_UNIT()
NAMED_UNIT(*)
SI_UNIT(.KILO.,.GRAM.)
);
#314=DERIVED_UNIT((#311,#312));
#315=MEASURE_REPRESENTATION_ITEM('density measure',
POSITIVE_RATIO_MEASURE(7850.),#314);
#316=PROPERTY_DEFINITION_REPRESENTATION(#321,#318);
#317=PROPERTY_DEFINITION_REPRESENTATION(#322,#319);
#318=REPRESENTATION('material name',(#320),#569);
#319=REPRESENTATION('density',(#315),#569);
#320=DESCRIPTIVE_REPRESENTATION_ITEM('\X2\94A2\X0\','\X2\94A2\X0\');
#321=PROPERTY_DEFINITION('material property','material name',#579);
#322=PROPERTY_DEFINITION('material property','density of part',#579);
#323=AXIS2_PLACEMENT_3D('',#479,#370,#371);
#324=AXIS2_PLACEMENT_3D('',#480,#372,#373);
#325=AXIS2_PLACEMENT_3D('',#483,#374,#375);
#326=AXIS2_PLACEMENT_3D('',#487,#377,#378);
#327=AXIS2_PLACEMENT_3D('',#489,#380,#381);
#328=AXIS2_PLACEMENT_3D('',#498,#386,#387);
#329=AXIS2_PLACEMENT_3D('',#499,#388,#389);
#330=AXIS2_PLACEMENT_3D('',#500,#390,#391);
#331=AXIS2_PLACEMENT_3D('',#501,#392,#393);
#332=AXIS2_PLACEMENT_3D('',#502,#394,#395);
#333=AXIS2_PLACEMENT_3D('',#503,#396,#397);
#334=AXIS2_PLACEMENT_3D('',#504,#398,#399);
#335=AXIS2_PLACEMENT_3D('',#505,#400,#401);
#336=AXIS2_PLACEMENT_3D('',#506,#402,#403);
#337=AXIS2_PLACEMENT_3D('',#507,#404,#405);
#338=AXIS2_PLACEMENT_3D('',#512,#407,#408);
#339=AXIS2_PLACEMENT_3D('',#515,#410,#411);
#340=AXIS2_PLACEMENT_3D('',#516,#412,#413);
#341=AXIS2_PLACEMENT_3D('',#518,#414,#415);
#342=AXIS2_PLACEMENT_3D('',#521,#417,#418);
#343=AXIS2_PLACEMENT_3D('',#522,#419,#420);
#344=AXIS2_PLACEMENT_3D('',#525,#421,#422);
#345=AXIS2_PLACEMENT_3D('',#529,#424,#425);
#346=AXIS2_PLACEMENT_3D('',#531,#427,#428);
#347=AXIS2_PLACEMENT_3D('',#532,#429,#430);
#348=AXIS2_PLACEMENT_3D('',#533,#431,#432);
#349=AXIS2_PLACEMENT_3D('',#534,#433,#434);
#350=AXIS2_PLACEMENT_3D('',#535,#435,#436);
#351=AXIS2_PLACEMENT_3D('',#536,#437,#438);
#352=AXIS2_PLACEMENT_3D('',#537,#439,#440);
#353=AXIS2_PLACEMENT_3D('',#538,#441,#442);
#354=AXIS2_PLACEMENT_3D('',#539,#443,#444);
#355=AXIS2_PLACEMENT_3D('',#542,#445,#446);
#356=AXIS2_PLACEMENT_3D('',#544,#447,#448);
#357=AXIS2_PLACEMENT_3D('',#546,#449,#450);
#358=AXIS2_PLACEMENT_3D('',#547,#451,#452);
#359=AXIS2_PLACEMENT_3D('',#548,#453,#454);
#360=AXIS2_PLACEMENT_3D('',#549,#455,#456);
#361=AXIS2_PLACEMENT_3D('',#552,#458,#459);
#362=AXIS2_PLACEMENT_3D('',#553,#460,#461);
#363=AXIS2_PLACEMENT_3D('',#556,#463,#464);
#364=AXIS2_PLACEMENT_3D('',#557,#465,#466);
#365=AXIS2_PLACEMENT_3D('',#558,#467,#468);
#366=AXIS2_PLACEMENT_3D('',#560,#469,#470);
#367=AXIS2_PLACEMENT_3D('',#561,#471,#472);
#368=AXIS2_PLACEMENT_3D('',#564,#474,#475);
#369=AXIS2_PLACEMENT_3D('',#565,#476,#477);
#370=DIRECTION('axis',(0.,0.,1.));
#371=DIRECTION('refdir',(1.,0.,0.));
#372=DIRECTION('center_axis',(0.,1.,0.));
#373=DIRECTION('ref_axis',(-0.222656520306019,0.,0.974896955562595));
#374=DIRECTION('center_axis',(0.,-1.,0.));
#375=DIRECTION('ref_axis',(-0.222656520306019,0.,0.974896955562595));
#376=DIRECTION('',(0.,1.,0.));
#377=DIRECTION('center_axis',(0.,-1.,0.));
#378=DIRECTION('ref_axis',(-0.222656520306019,0.,0.974896955562595));
#379=DIRECTION('',(0.,1.,0.));
#380=DIRECTION('center_axis',(-0.760941468661164,0.,0.648820530864884));
#381=DIRECTION('ref_axis',(0.648820530864884,0.,0.760941468661164));
#382=DIRECTION('',(0.648820530864884,0.,0.760941468661164));
#383=DIRECTION('',(-2.13849315392323E-8,-0.999999999999999,-2.50804042698683E-8));
#384=DIRECTION('',(0.648820530864884,0.,0.760941468661164));
#385=DIRECTION('',(0.,1.,0.));
#386=DIRECTION('center_axis',(0.,1.,0.));
#387=DIRECTION('ref_axis',(-0.510067060242356,0.,-0.860134637167764));
#388=DIRECTION('center_axis',(0.,-1.,0.));
#389=DIRECTION('ref_axis',(1.,0.,0.));
#390=DIRECTION('center_axis',(0.,1.,0.));
#391=DIRECTION('ref_axis',(1.,0.,0.));
#392=DIRECTION('center_axis',(0.,-1.,0.));
#393=DIRECTION('ref_axis',(1.,0.,0.));
#394=DIRECTION('center_axis',(-5.07994132824182E-8,-0.999999999999999,0.));
#395=DIRECTION('ref_axis',(0.999999999999999,-5.07994132824182E-8,0.));
#396=DIRECTION('center_axis',(0.,-1.,0.));
#397=DIRECTION('ref_axis',(1.,0.,0.));
#398=DIRECTION('center_axis',(-5.07994132824182E-8,-0.999999999999999,0.));
#399=DIRECTION('ref_axis',(0.999999999999999,-5.07994132824182E-8,0.));
#400=DIRECTION('center_axis',(-5.07994132824182E-8,-0.999999999999999,0.));
#401=DIRECTION('ref_axis',(0.999999999999999,-5.07994134257976E-8,0.));
#402=DIRECTION('center_axis',(-5.07994132824182E-8,-0.999999999999999,0.));
#403=DIRECTION('ref_axis',(0.999999999999999,-5.07994132824182E-8,0.));
#404=DIRECTION('center_axis',(-5.07994132824182E-8,-0.999999999999999,0.));
#405=DIRECTION('ref_axis',(0.999999999999999,-5.07994132824182E-8,0.));
#406=DIRECTION('',(0.,1.,0.));
#407=DIRECTION('center_axis',(0.,-1.,0.));
#408=DIRECTION('ref_axis',(1.,0.,0.));
#409=DIRECTION('',(0.,1.,0.));
#410=DIRECTION('center_axis',(0.,1.,0.));
#411=DIRECTION('ref_axis',(1.,0.,0.));
#412=DIRECTION('center_axis',(0.,1.,0.));
#413=DIRECTION('ref_axis',(1.,0.,0.));
#414=DIRECTION('center_axis',(0.,-1.,0.));
#415=DIRECTION('ref_axis',(1.,0.,0.));
#416=DIRECTION('',(0.,-1.,0.));
#417=DIRECTION('center_axis',(0.,1.,0.));
#418=DIRECTION('ref_axis',(1.,0.,0.));
#419=DIRECTION('center_axis',(0.,1.,0.));
#420=DIRECTION('ref_axis',(0.866025403784439,0.,0.5));
#421=DIRECTION('center_axis',(0.,-1.,0.));
#422=DIRECTION('ref_axis',(0.14544519305788,0.,-0.989366310229106));
#423=DIRECTION('',(0.,1.,0.));
#424=DIRECTION('center_axis',(0.,1.,0.));
#425=DIRECTION('ref_axis',(0.14544519305788,0.,-0.989366310229106));
#426=DIRECTION('',(0.,1.,0.));
#427=DIRECTION('center_axis',(0.,1.,0.));
#428=DIRECTION('ref_axis',(-0.37349914493122,0.,-0.92763052382705));
#429=DIRECTION('center_axis',(0.,-1.,0.));
#430=DIRECTION('ref_axis',(-0.37349914493122,0.,-0.92763052382705));
#431=DIRECTION('center_axis',(0.,-1.,0.));
#432=DIRECTION('ref_axis',(-0.37349914493122,0.,-0.92763052382705));
#433=DIRECTION('center_axis',(0.,1.,0.));
#434=DIRECTION('ref_axis',(-0.145445193057882,0.,0.989366310229106));
#435=DIRECTION('center_axis',(0.,-1.,0.));
#436=DIRECTION('ref_axis',(-0.145445193057882,0.,0.989366310229106));
#437=DIRECTION('center_axis',(0.,-1.,0.));
#438=DIRECTION('ref_axis',(-0.145445193057882,0.,0.989366310229106));
#439=DIRECTION('center_axis',(0.,-1.,0.));
#440=DIRECTION('ref_axis',(1.,0.,0.));
#441=DIRECTION('center_axis',(0.,-1.,0.));
#442=DIRECTION('ref_axis',(1.,0.,0.));
#443=DIRECTION('center_axis',(-5.07994132824182E-8,-0.999999999999999,0.));
#444=DIRECTION('ref_axis',(0.,0.,-1.));
#445=DIRECTION('center_axis',(-5.07994132824182E-8,-0.999999999999999,0.));
#446=DIRECTION('ref_axis',(0.999999999999999,-5.07994132824182E-8,0.));
#447=DIRECTION('center_axis',(-0.999999999999999,5.07994132824182E-8,0.));
#448=DIRECTION('ref_axis',(0.,0.,1.));
#449=DIRECTION('center_axis',(-5.07994132824182E-8,-0.999999999999999,0.));
#450=DIRECTION('ref_axis',(0.999999999999999,-5.07994132824182E-8,0.));
#451=DIRECTION('center_axis',(-5.07994132824182E-8,-0.999999999999999,0.));
#452=DIRECTION('ref_axis',(0.999999999999999,-5.07994132824182E-8,0.));
#453=DIRECTION('center_axis',(-5.07994132824182E-8,-0.999999999999999,0.));
#454=DIRECTION('ref_axis',(0.999999999999999,-5.07994132824182E-8,0.));
#455=DIRECTION('center_axis',(-5.07994132824182E-8,-0.999999999999999,0.));
#456=DIRECTION('ref_axis',(0.999999999999999,-5.07994134257976E-8,0.));
#457=DIRECTION('',(0.707106853027757,0.707106709345331,8.65956100225545E-17));
#458=DIRECTION('center_axis',(-5.07994132824182E-8,-0.999999999999999,0.));
#459=DIRECTION('ref_axis',(0.999999999999999,-5.07994132824182E-8,0.));
#460=DIRECTION('center_axis',(-5.07994132824182E-8,-0.999999999999999,0.));
#461=DIRECTION('ref_axis',(0.999999999999999,-5.07994134257976E-8,0.));
#462=DIRECTION('',(5.07994132824182E-8,0.999999999999999,0.));
#463=DIRECTION('center_axis',(-5.07994132824182E-8,-0.999999999999999,0.));
#464=DIRECTION('ref_axis',(0.999999999999999,-5.07994132824182E-8,0.));
#465=DIRECTION('center_axis',(5.07994132824182E-8,0.999999999999999,0.));
#466=DIRECTION('ref_axis',(0.,0.,1.));
#467=DIRECTION('center_axis',(-5.07994132824182E-8,-0.999999999999999,0.));
#468=DIRECTION('ref_axis',(0.,0.,-1.));
#469=DIRECTION('center_axis',(-5.07994132824182E-8,-0.999999999999999,0.));
#470=DIRECTION('ref_axis',(0.999999999999999,-5.07994132824182E-8,0.));
#471=DIRECTION('center_axis',(-5.07994132824182E-8,-0.999999999999999,0.));
#472=DIRECTION('ref_axis',(0.999999999999999,-5.07994134257976E-8,0.));
#473=DIRECTION('',(5.07994132824182E-8,0.999999999999999,0.));
#474=DIRECTION('center_axis',(-5.07994132824182E-8,-0.999999999999999,0.));
#475=DIRECTION('ref_axis',(0.999999999999999,-5.07994132824182E-8,0.));
#476=DIRECTION('center_axis',(5.07994132824182E-8,0.999999999999999,0.));
#477=DIRECTION('ref_axis',(0.999999999999999,-5.07994134257976E-8,0.));
#478=DIRECTION('',(-0.707106709345319,0.707106853027769,-8.65956012245425E-17));
#479=CARTESIAN_POINT('',(0.,0.,0.));
#480=CARTESIAN_POINT('Origin',(35.9985001982217,-5.4999984649603,-91.4579768317917));
#481=CARTESIAN_POINT('',(26.6849898851946,-5.4999984649603,-50.678965117732));
#482=CARTESIAN_POINT('',(-3.0825858064402,-5.4999984649603,-76.546974604493));
#483=CARTESIAN_POINT('Origin',(35.9985001982217,-5.4999984649603,-91.4579768317917));
#484=CARTESIAN_POINT('',(-3.0825858064402,-0.499998464960296,-76.546974604493));
#485=CARTESIAN_POINT('',(-3.0825858064402,-5.4999984649603,-76.546974604493));
#486=CARTESIAN_POINT('',(26.6849898851946,-0.499998464960296,-50.678965117732));
#487=CARTESIAN_POINT('Origin',(35.9985001982217,-0.499998464960296,-91.4579768317917));
#488=CARTESIAN_POINT('',(26.6849898851946,-5.4999984649603,-50.678965117732));
#489=CARTESIAN_POINT('Origin',(-9.86357140903513,-5.4999984649603,-72.5257932191572));
#490=CARTESIAN_POINT('',(-9.86357140903513,-5.4999984649603,-72.5257932191572));
#491=CARTESIAN_POINT('',(19.2414484385929,-5.4999984649603,-38.391212861868));
#492=CARTESIAN_POINT('',(-9.86357140903513,-5.4999984649603,-72.5257932191572));
#493=CARTESIAN_POINT('',(19.2414484385929,-0.499998464960296,-38.391212861868));
#494=CARTESIAN_POINT('',(19.2414484920552,-2.99999961556699,-38.391212799167));
#495=CARTESIAN_POINT('',(-9.86357140903513,-0.499998464960296,-72.5257932191572));
#496=CARTESIAN_POINT('',(-9.86357140903513,-0.499998464960296,-72.5257932191572));
#497=CARTESIAN_POINT('',(-9.86357140903513,-5.4999984649603,-72.5257932191572));
#498=CARTESIAN_POINT('Origin',(-6.81980553439024,-5.4999984649603,-75.1210753426166));
#499=CARTESIAN_POINT('Origin',(-6.81980553439024,-5.4999984649603,-75.1210753426166));
#500=CARTESIAN_POINT('Origin',(-6.81980553439024,-0.499998464960296,-75.1210753426166));
#501=CARTESIAN_POINT('Origin',(7.93259217540218,-5.4999984649603,-58.7561441022423));
#502=CARTESIAN_POINT('Origin',(24.9999996190044,-5.49999961556699,-43.3012701892219));
#503=CARTESIAN_POINT('Origin',(7.93259217540218,-0.499998464960296,-58.7561441022423));
#504=CARTESIAN_POINT('Origin',(24.9999998730015,-0.499999615567,-43.3012701892219));
#505=CARTESIAN_POINT('Origin',(24.9999997460029,-2.99999961556699,-43.3012701892219));
#506=CARTESIAN_POINT('Origin',(24.9999996190044,-5.49999961556699,-43.3012701892219));
#507=CARTESIAN_POINT('Origin',(24.9999998730015,-0.499999615567,-43.3012701892219));
#508=CARTESIAN_POINT('',(32.4927549809533,-3.9999984649603,-44.363433896616));
#509=CARTESIAN_POINT('',(32.4927549809533,-1.9999984649603,-44.363433896616));
#510=CARTESIAN_POINT('',(32.4927549816171,-3.9999984649603,-44.3634338919332));
#511=CARTESIAN_POINT('',(27.8265165463978,-3.9999984649603,-36.2812718477351));
#512=CARTESIAN_POINT('Origin',(24.9999996952036,-3.9999984649603,-43.3012701892219));
#513=CARTESIAN_POINT('',(27.8265165463978,-1.9999984649603,-36.2812718477351));
#514=CARTESIAN_POINT('',(27.8265165753943,-3.9999984649603,-36.2812718594102));
#515=CARTESIAN_POINT('Origin',(24.9999997968024,-1.9999984649603,-43.3012701892219));
#516=CARTESIAN_POINT('Origin',(37.1243552719866,-3.9999984649603,-36.3012701892219));
#517=CARTESIAN_POINT('',(35.9743552719866,-1.9999984649603,-36.3012701892219));
#518=CARTESIAN_POINT('Origin',(37.1243552719866,-1.9999984649603,-36.3012701892219));
#519=CARTESIAN_POINT('',(35.9743552719866,-3.9999984649603,-36.3012701892219));
#520=CARTESIAN_POINT('',(35.9743552719866,-3.9999984649603,-36.3012701892219));
#521=CARTESIAN_POINT('Origin',(37.1243552719866,-3.9999984649603,-36.3012701892219));
#522=CARTESIAN_POINT('Origin',(37.1243552719866,-3.9999984649603,-36.3012701892219));
#523=CARTESIAN_POINT('',(37.5606908511602,-3.9999984649603,-39.2693691199093));
#524=CARTESIAN_POINT('',(34.7720739866527,-3.9999984649603,-34.4393430277389));
#525=CARTESIAN_POINT('Origin',(37.1243552719866,-3.9999984649603,-36.3012701892219));
#526=CARTESIAN_POINT('',(37.5606908511602,-1.9999984649603,-39.2693691199093));
#527=CARTESIAN_POINT('',(37.5606908511602,-3.9999984649603,-39.2693691199093));
#528=CARTESIAN_POINT('',(34.7720739866527,-1.9999984649603,-34.4393430277389));
#529=CARTESIAN_POINT('Origin',(37.1243552719866,-1.9999984649603,-36.3012701892219));
#530=CARTESIAN_POINT('',(34.7720739866527,-3.9999984649603,-34.4393430277389));
#531=CARTESIAN_POINT('Origin',(30.0675114159851,-3.9999984649603,-30.7154887047728));
#532=CARTESIAN_POINT('Origin',(30.0675114159851,-3.9999984649603,-30.7154887047728));
#533=CARTESIAN_POINT('Origin',(30.0675114159851,-1.9999984649603,-30.7154887047728));
#534=CARTESIAN_POINT('Origin',(38.4333620095075,-3.9999984649603,-45.2055669812839));
#535=CARTESIAN_POINT('Origin',(38.4333620095075,-3.9999984649603,-45.2055669812839));
#536=CARTESIAN_POINT('Origin',(38.4333620095075,-1.9999984649603,-45.2055669812839));
#537=CARTESIAN_POINT('Origin',(33.9754359091922,-3.9999984649603,-38.832352042919));
#538=CARTESIAN_POINT('Origin',(33.9754359091922,-1.9999984649603,-38.832352042919));
#539=CARTESIAN_POINT('Origin',(24.9999997460029,-2.99999977558515,-43.3012701892219));
#540=CARTESIAN_POINT('',(19.486317856515,-4.09601495065554,-43.3012701892219));
#541=CARTESIAN_POINT('',(24.999999690326,-4.09601523074735,-37.7875883554109));
#542=CARTESIAN_POINT('Origin',(24.999999690326,-4.09601523074735,-43.3012701892219));
#543=CARTESIAN_POINT('',(24.9999998016799,-1.90398420906906,-37.7875884667648));
#544=CARTESIAN_POINT('Origin',(24.9999997460029,-2.99999977558515,-38.883603921927));
#545=CARTESIAN_POINT('',(19.4863180792228,-1.90398392897726,-43.3012701892219));
#546=CARTESIAN_POINT('Origin',(24.9999998016799,-1.90398420906906,-43.3012701892219));
#547=CARTESIAN_POINT('Origin',(24.9999998016799,-1.90398420906906,-43.3012701892219));
#548=CARTESIAN_POINT('Origin',(24.999999690326,-4.09601523074735,-43.3012701892219));
#549=CARTESIAN_POINT('Origin',(24.9999998091986,-1.75597646116819,-43.3012701892219));
#550=CARTESIAN_POINT('',(19.7823336201367,-1.60796844821293,-43.3012701892219));
#551=CARTESIAN_POINT('',(19.6343258496798,-1.7559761885951,-43.3012701892219));
#552=CARTESIAN_POINT('Origin',(24.9999998167173,-1.60796871326732,-43.3012701892219));
#553=CARTESIAN_POINT('Origin',(24.9999998448594,-1.05398422410647,-43.3012701892219));
#554=CARTESIAN_POINT('',(19.782333704563,-0.49999946989124,-43.3012701892219));
#555=CARTESIAN_POINT('',(19.7823336764209,-1.05398395905209,-43.3012701892219));
#556=CARTESIAN_POINT('Origin',(24.9999998730015,-0.499999734945621,-43.3012701892219));
#557=CARTESIAN_POINT('Origin',(32.5676660132979,-0.500000000000001,-43.3012701892219));
#558=CARTESIAN_POINT('Origin',(30.2176660132979,-5.5,-43.3012701892219));
#559=CARTESIAN_POINT('',(19.782333252853,-5.49999946989122,-43.3012701892219));
#560=CARTESIAN_POINT('Origin',(24.9999996190044,-5.49999973494561,-43.3012701892219));
#561=CARTESIAN_POINT('Origin',(24.9999996471465,-4.94601524578476,-43.3012701892219));
#562=CARTESIAN_POINT('',(19.7823333091372,-4.39203049156952,-43.3012701892219));
#563=CARTESIAN_POINT('',(19.7823332809951,-4.94601498073037,-43.3012701892219));
#564=CARTESIAN_POINT('Origin',(24.9999996752886,-4.39203075662391,-43.3012701892219));
#565=CARTESIAN_POINT('Origin',(24.9999996828073,-4.24402299368563,-43.3012701892219));
#566=CARTESIAN_POINT('',(19.6343255968971,-4.24402272111253,-43.3012701892219));
#567=UNCERTAINTY_MEASURE_WITH_UNIT(LENGTH_MEASURE(0.01),#571,
'DISTANCE_ACCURACY_VALUE',
'Maximum model space distance between geometric entities at asserted c
onnectivities');
#568=UNCERTAINTY_MEASURE_WITH_UNIT(LENGTH_MEASURE(0.01),#571,
'DISTANCE_ACCURACY_VALUE',
'Maximum model space distance between geometric entities at asserted c
onnectivities');
#569=(
GEOMETRIC_REPRESENTATION_CONTEXT(3)
GLOBAL_UNCERTAINTY_ASSIGNED_CONTEXT((#567))
GLOBAL_UNIT_ASSIGNED_CONTEXT((#571,#573,#574))
REPRESENTATION_CONTEXT('','3D')
);
#570=(
GEOMETRIC_REPRESENTATION_CONTEXT(3)
GLOBAL_UNCERTAINTY_ASSIGNED_CONTEXT((#568))
GLOBAL_UNIT_ASSIGNED_CONTEXT((#571,#573,#574))
REPRESENTATION_CONTEXT('','3D')
);
#571=(
LENGTH_UNIT()
NAMED_UNIT(*)
SI_UNIT(.MILLI.,.METRE.)
);
#572=(
LENGTH_UNIT()
NAMED_UNIT(*)
SI_UNIT($,.METRE.)
);
#573=(
NAMED_UNIT(*)
PLANE_ANGLE_UNIT()
SI_UNIT($,.RADIAN.)
);
#574=(
NAMED_UNIT(*)
SI_UNIT($,.STERADIAN.)
SOLID_ANGLE_UNIT()
);
#575=SHAPE_DEFINITION_REPRESENTATION(#576,#577);
#576=PRODUCT_DEFINITION_SHAPE('',$,#579);
#577=SHAPE_REPRESENTATION('',(#323),#569);
#578=PRODUCT_DEFINITION_CONTEXT('part definition',#583,'design');
#579=PRODUCT_DEFINITION('\X2\5C0F817F\X0\','\X2\5C0F817F\X0\',#580,#578);
#580=PRODUCT_DEFINITION_FORMATION('',$,#585);
#581=PRODUCT_RELATED_PRODUCT_CATEGORY('\X2\5C0F817F\X0\','\X2\5C0F817F\X0\',
(#585));
#582=APPLICATION_PROTOCOL_DEFINITION('international standard',
'automotive_design',2009,#583);
#583=APPLICATION_CONTEXT(
'Core Data for Automotive Mechanical Design Process');
#584=PRODUCT_CONTEXT('part definition',#583,'mechanical');
#585=PRODUCT('\X2\5C0F817F\X0\','\X2\5C0F817F\X0\',$,(#584));
#586=PRESENTATION_STYLE_ASSIGNMENT((#587));
#587=SURFACE_STYLE_USAGE(.BOTH.,#588);
#588=SURFACE_SIDE_STYLE('',(#589));
#589=SURFACE_STYLE_FILL_AREA(#590);
#590=FILL_AREA_STYLE('\X2\94A2\X0\ - \X2\7F0E5149\X0\',(#591));
#591=FILL_AREA_STYLE_COLOUR('\X2\94A2\X0\ - \X2\7F0E5149\X0\',#592);
#592=COLOUR_RGB('\X2\94A2\X0\ - \X2\7F0E5149\X0\',0.627450980392157,0.627450980392157,
0.627450980392157);
ENDSEC;
END-ISO-10303-21;
