ISO-10303-21;
HEADER;
/* Generated by software containing ST-Developer
 * from STEP Tools, Inc. (www.steptools.com) 
 */

FILE_DESCRIPTION(
/* description */ (''),
/* implementation_level */ '2;1');

FILE_NAME(
/* name */ '',
/* time_stamp */ '2026-07-15T10:33:11+08:00',
/* author */ (''),
/* organization */ (''),
/* preprocessor_version */ 'ST-DEVELOPER v20.1',
/* originating_system */ 'Autodesk Translation Framework v15.8.0.0',
/* authorisation */ '');

FILE_SCHEMA (('AUTOMOTIVE_DESIGN { 1 0 10303 214 3 1 1 }'));
ENDSEC;

DATA;
#10=MECHANICAL_DESIGN_GEOMETRIC_PRESENTATION_REPRESENTATION('',(#13),#624);
#11=SHAPE_REPRESENTATION_RELATIONSHIP('SRR','None',#631,#12);
#12=ADVANCED_BREP_SHAPE_REPRESENTATION('',(#14),#623);
#13=STYLED_ITEM('',(#640),#14);
#14=MANIFOLD_SOLID_BREP('\X2\5B9E4F53\X0\1',#340);
#15=CONICAL_SURFACE('',#395,7.79800775541958,0.785398163397442);
#16=CONICAL_SURFACE('',#404,7.79800775541958,0.785398163397442);
#17=TOROIDAL_SURFACE('',#389,6.85,1.55);
#18=FACE_BOUND('',#57,.T.);
#19=FACE_BOUND('',#59,.T.);
#20=FACE_BOUND('',#61,.T.);
#21=FACE_BOUND('',#62,.T.);
#22=FACE_BOUND('',#68,.T.);
#23=FACE_BOUND('',#70,.T.);
#24=FACE_BOUND('',#75,.T.);
#25=FACE_BOUND('',#77,.T.);
#26=PLANE('',#366);
#27=PLANE('',#368);
#28=PLANE('',#387);
#29=PLANE('',#388);
#30=PLANE('',#399);
#31=PLANE('',#400);
#32=FACE_OUTER_BOUND('',#52,.T.);
#33=FACE_OUTER_BOUND('',#53,.T.);
#34=FACE_OUTER_BOUND('',#54,.T.);
#35=FACE_OUTER_BOUND('',#55,.T.);
#36=FACE_OUTER_BOUND('',#56,.T.);
#37=FACE_OUTER_BOUND('',#58,.T.);
#38=FACE_OUTER_BOUND('',#60,.T.);
#39=FACE_OUTER_BOUND('',#63,.T.);
#40=FACE_OUTER_BOUND('',#64,.T.);
#41=FACE_OUTER_BOUND('',#65,.T.);
#42=FACE_OUTER_BOUND('',#66,.T.);
#43=FACE_OUTER_BOUND('',#67,.T.);
#44=FACE_OUTER_BOUND('',#69,.T.);
#45=FACE_OUTER_BOUND('',#71,.T.);
#46=FACE_OUTER_BOUND('',#72,.T.);
#47=FACE_OUTER_BOUND('',#73,.T.);
#48=FACE_OUTER_BOUND('',#74,.T.);
#49=FACE_OUTER_BOUND('',#76,.T.);
#50=FACE_OUTER_BOUND('',#78,.T.);
#51=FACE_OUTER_BOUND('',#79,.T.);
#52=EDGE_LOOP('',(#217,#218,#219,#220));
#53=EDGE_LOOP('',(#221,#222,#223,#224));
#54=EDGE_LOOP('',(#225,#226,#227,#228));
#55=EDGE_LOOP('',(#229,#230,#231,#232));
#56=EDGE_LOOP('',(#233,#234,#235,#236));
#57=EDGE_LOOP('',(#237));
#58=EDGE_LOOP('',(#238,#239,#240,#241));
#59=EDGE_LOOP('',(#242));
#60=EDGE_LOOP('',(#243,#244,#245,#246));
#61=EDGE_LOOP('',(#247,#248,#249,#250));
#62=EDGE_LOOP('',(#251,#252,#253,#254));
#63=EDGE_LOOP('',(#255,#256,#257,#258));
#64=EDGE_LOOP('',(#259,#260,#261,#262));
#65=EDGE_LOOP('',(#263,#264,#265,#266));
#66=EDGE_LOOP('',(#267,#268,#269,#270));
#67=EDGE_LOOP('',(#271,#272,#273,#274));
#68=EDGE_LOOP('',(#275));
#69=EDGE_LOOP('',(#276,#277,#278,#279));
#70=EDGE_LOOP('',(#280));
#71=EDGE_LOOP('',(#281,#282,#283,#284,#285,#286));
#72=EDGE_LOOP('',(#287,#288,#289,#290,#291));
#73=EDGE_LOOP('',(#292,#293,#294,#295));
#74=EDGE_LOOP('',(#296));
#75=EDGE_LOOP('',(#297));
#76=EDGE_LOOP('',(#298));
#77=EDGE_LOOP('',(#299));
#78=EDGE_LOOP('',(#300,#301,#302,#303));
#79=EDGE_LOOP('',(#304,#305,#306,#307,#308));
#80=LINE('',#529,#95);
#81=LINE('',#536,#96);
#82=LINE('',#539,#97);
#83=LINE('',#545,#98);
#84=LINE('',#550,#99);
#85=LINE('',#560,#100);
#86=LINE('',#564,#101);
#87=LINE('',#568,#102);
#88=LINE('',#574,#103);
#89=LINE('',#581,#104);
#90=LINE('',#584,#105);
#91=LINE('',#605,#106);
#92=LINE('',#609,#107);
#93=LINE('',#617,#108);
#94=LINE('',#620,#109);
#95=VECTOR('',#411,1.15);
#96=VECTOR('',#418,10.);
#97=VECTOR('',#421,10.);
#98=VECTOR('',#428,10.);
#99=VECTOR('',#433,10.);
#100=VECTOR('',#448,10.);
#101=VECTOR('',#451,10.);
#102=VECTOR('',#454,10.);
#103=VECTOR('',#461,1.15);
#104=VECTOR('',#468,10.);
#105=VECTOR('',#471,10.);
#106=VECTOR('',#502,7.79800775541958);
#107=VECTOR('',#507,7.65);
#108=VECTOR('',#518,7.65);
#109=VECTOR('',#523,7.79800775541958);
#110=CIRCLE('',#355,1.15);
#111=CIRCLE('',#356,1.15);
#112=CIRCLE('',#358,3.);
#113=CIRCLE('',#359,3.);
#114=CIRCLE('',#361,3.);
#115=CIRCLE('',#362,3.);
#116=CIRCLE('',#364,3.);
#117=CIRCLE('',#365,3.);
#118=CIRCLE('',#367,10.);
#119=CIRCLE('',#369,10.);
#120=CIRCLE('',#371,10.);
#121=CIRCLE('',#372,10.);
#122=CIRCLE('',#373,10.);
#123=CIRCLE('',#374,10.);
#124=CIRCLE('',#376,1.15);
#125=CIRCLE('',#377,1.15);
#126=CIRCLE('',#379,3.);
#127=CIRCLE('',#380,3.);
#128=CIRCLE('',#382,3.);
#129=CIRCLE('',#383,3.);
#130=CIRCLE('',#385,3.);
#131=CIRCLE('',#386,3.);
#132=CIRCLE('',#390,7.94601551083915);
#133=CIRCLE('',#391,1.55);
#134=CIRCLE('',#392,7.94601551083915);
#135=CIRCLE('',#393,7.94601551083915);
#136=CIRCLE('',#394,7.94601551083915);
#137=CIRCLE('',#396,7.65);
#138=CIRCLE('',#398,7.65);
#139=CIRCLE('',#401,7.65);
#140=CIRCLE('',#403,7.65);
#141=VERTEX_POINT('',#526);
#142=VERTEX_POINT('',#528);
#143=VERTEX_POINT('',#532);
#144=VERTEX_POINT('',#533);
#145=VERTEX_POINT('',#535);
#146=VERTEX_POINT('',#537);
#147=VERTEX_POINT('',#541);
#148=VERTEX_POINT('',#543);
#149=VERTEX_POINT('',#547);
#150=VERTEX_POINT('',#549);
#151=VERTEX_POINT('',#557);
#152=VERTEX_POINT('',#559);
#153=VERTEX_POINT('',#562);
#154=VERTEX_POINT('',#563);
#155=VERTEX_POINT('',#565);
#156=VERTEX_POINT('',#567);
#157=VERTEX_POINT('',#571);
#158=VERTEX_POINT('',#573);
#159=VERTEX_POINT('',#577);
#160=VERTEX_POINT('',#578);
#161=VERTEX_POINT('',#580);
#162=VERTEX_POINT('',#582);
#163=VERTEX_POINT('',#594);
#164=VERTEX_POINT('',#595);
#165=VERTEX_POINT('',#597);
#166=VERTEX_POINT('',#599);
#167=VERTEX_POINT('',#604);
#168=VERTEX_POINT('',#608);
#169=VERTEX_POINT('',#613);
#170=VERTEX_POINT('',#616);
#171=EDGE_CURVE('',#141,#141,#110,.T.);
#172=EDGE_CURVE('',#141,#142,#80,.T.);
#173=EDGE_CURVE('',#142,#142,#111,.T.);
#174=EDGE_CURVE('',#143,#144,#112,.T.);
#175=EDGE_CURVE('',#143,#145,#81,.T.);
#176=EDGE_CURVE('',#146,#145,#113,.T.);
#177=EDGE_CURVE('',#144,#146,#82,.T.);
#178=EDGE_CURVE('',#147,#144,#114,.T.);
#179=EDGE_CURVE('',#148,#146,#115,.T.);
#180=EDGE_CURVE('',#147,#148,#83,.T.);
#181=EDGE_CURVE('',#143,#149,#116,.T.);
#182=EDGE_CURVE('',#149,#150,#84,.T.);
#183=EDGE_CURVE('',#145,#150,#117,.T.);
#184=EDGE_CURVE('',#149,#147,#118,.T.);
#185=EDGE_CURVE('',#148,#150,#119,.T.);
#186=EDGE_CURVE('',#151,#151,#120,.T.);
#187=EDGE_CURVE('',#151,#152,#85,.T.);
#188=EDGE_CURVE('',#152,#152,#121,.T.);
#189=EDGE_CURVE('',#153,#154,#86,.T.);
#190=EDGE_CURVE('',#153,#155,#122,.T.);
#191=EDGE_CURVE('',#155,#156,#87,.T.);
#192=EDGE_CURVE('',#156,#154,#123,.T.);
#193=EDGE_CURVE('',#157,#157,#124,.T.);
#194=EDGE_CURVE('',#157,#158,#88,.T.);
#195=EDGE_CURVE('',#158,#158,#125,.T.);
#196=EDGE_CURVE('',#159,#160,#126,.T.);
#197=EDGE_CURVE('',#159,#161,#89,.T.);
#198=EDGE_CURVE('',#162,#161,#127,.T.);
#199=EDGE_CURVE('',#160,#162,#90,.T.);
#200=EDGE_CURVE('',#155,#160,#128,.T.);
#201=EDGE_CURVE('',#156,#162,#129,.T.);
#202=EDGE_CURVE('',#159,#153,#130,.T.);
#203=EDGE_CURVE('',#161,#154,#131,.T.);
#204=EDGE_CURVE('',#163,#164,#132,.T.);
#205=EDGE_CURVE('',#164,#165,#133,.T.);
#206=EDGE_CURVE('',#166,#165,#134,.T.);
#207=EDGE_CURVE('',#165,#166,#135,.T.);
#208=EDGE_CURVE('',#164,#163,#136,.T.);
#209=EDGE_CURVE('',#166,#167,#91,.T.);
#210=EDGE_CURVE('',#167,#167,#137,.T.);
#211=EDGE_CURVE('',#167,#168,#92,.T.);
#212=EDGE_CURVE('',#168,#168,#138,.T.);
#213=EDGE_CURVE('',#169,#169,#139,.T.);
#214=EDGE_CURVE('',#169,#170,#93,.T.);
#215=EDGE_CURVE('',#170,#170,#140,.T.);
#216=EDGE_CURVE('',#170,#163,#94,.T.);
#217=ORIENTED_EDGE('',*,*,#171,.F.);
#218=ORIENTED_EDGE('',*,*,#172,.T.);
#219=ORIENTED_EDGE('',*,*,#173,.F.);
#220=ORIENTED_EDGE('',*,*,#172,.F.);
#221=ORIENTED_EDGE('',*,*,#174,.F.);
#222=ORIENTED_EDGE('',*,*,#175,.T.);
#223=ORIENTED_EDGE('',*,*,#176,.F.);
#224=ORIENTED_EDGE('',*,*,#177,.F.);
#225=ORIENTED_EDGE('',*,*,#178,.T.);
#226=ORIENTED_EDGE('',*,*,#177,.T.);
#227=ORIENTED_EDGE('',*,*,#179,.F.);
#228=ORIENTED_EDGE('',*,*,#180,.F.);
#229=ORIENTED_EDGE('',*,*,#181,.T.);
#230=ORIENTED_EDGE('',*,*,#182,.T.);
#231=ORIENTED_EDGE('',*,*,#183,.F.);
#232=ORIENTED_EDGE('',*,*,#175,.F.);
#233=ORIENTED_EDGE('',*,*,#181,.F.);
#234=ORIENTED_EDGE('',*,*,#174,.T.);
#235=ORIENTED_EDGE('',*,*,#178,.F.);
#236=ORIENTED_EDGE('',*,*,#184,.F.);
#237=ORIENTED_EDGE('',*,*,#173,.T.);
#238=ORIENTED_EDGE('',*,*,#183,.T.);
#239=ORIENTED_EDGE('',*,*,#185,.F.);
#240=ORIENTED_EDGE('',*,*,#179,.T.);
#241=ORIENTED_EDGE('',*,*,#176,.T.);
#242=ORIENTED_EDGE('',*,*,#171,.T.);
#243=ORIENTED_EDGE('',*,*,#186,.F.);
#244=ORIENTED_EDGE('',*,*,#187,.T.);
#245=ORIENTED_EDGE('',*,*,#188,.T.);
#246=ORIENTED_EDGE('',*,*,#187,.F.);
#247=ORIENTED_EDGE('',*,*,#189,.F.);
#248=ORIENTED_EDGE('',*,*,#190,.T.);
#249=ORIENTED_EDGE('',*,*,#191,.T.);
#250=ORIENTED_EDGE('',*,*,#192,.T.);
#251=ORIENTED_EDGE('',*,*,#182,.F.);
#252=ORIENTED_EDGE('',*,*,#184,.T.);
#253=ORIENTED_EDGE('',*,*,#180,.T.);
#254=ORIENTED_EDGE('',*,*,#185,.T.);
#255=ORIENTED_EDGE('',*,*,#193,.F.);
#256=ORIENTED_EDGE('',*,*,#194,.T.);
#257=ORIENTED_EDGE('',*,*,#195,.F.);
#258=ORIENTED_EDGE('',*,*,#194,.F.);
#259=ORIENTED_EDGE('',*,*,#196,.F.);
#260=ORIENTED_EDGE('',*,*,#197,.T.);
#261=ORIENTED_EDGE('',*,*,#198,.F.);
#262=ORIENTED_EDGE('',*,*,#199,.F.);
#263=ORIENTED_EDGE('',*,*,#200,.T.);
#264=ORIENTED_EDGE('',*,*,#199,.T.);
#265=ORIENTED_EDGE('',*,*,#201,.F.);
#266=ORIENTED_EDGE('',*,*,#191,.F.);
#267=ORIENTED_EDGE('',*,*,#202,.T.);
#268=ORIENTED_EDGE('',*,*,#189,.T.);
#269=ORIENTED_EDGE('',*,*,#203,.F.);
#270=ORIENTED_EDGE('',*,*,#197,.F.);
#271=ORIENTED_EDGE('',*,*,#202,.F.);
#272=ORIENTED_EDGE('',*,*,#196,.T.);
#273=ORIENTED_EDGE('',*,*,#200,.F.);
#274=ORIENTED_EDGE('',*,*,#190,.F.);
#275=ORIENTED_EDGE('',*,*,#195,.T.);
#276=ORIENTED_EDGE('',*,*,#203,.T.);
#277=ORIENTED_EDGE('',*,*,#192,.F.);
#278=ORIENTED_EDGE('',*,*,#201,.T.);
#279=ORIENTED_EDGE('',*,*,#198,.T.);
#280=ORIENTED_EDGE('',*,*,#193,.T.);
#281=ORIENTED_EDGE('',*,*,#204,.T.);
#282=ORIENTED_EDGE('',*,*,#205,.T.);
#283=ORIENTED_EDGE('',*,*,#206,.F.);
#284=ORIENTED_EDGE('',*,*,#207,.F.);
#285=ORIENTED_EDGE('',*,*,#205,.F.);
#286=ORIENTED_EDGE('',*,*,#208,.T.);
#287=ORIENTED_EDGE('',*,*,#206,.T.);
#288=ORIENTED_EDGE('',*,*,#207,.T.);
#289=ORIENTED_EDGE('',*,*,#209,.T.);
#290=ORIENTED_EDGE('',*,*,#210,.F.);
#291=ORIENTED_EDGE('',*,*,#209,.F.);
#292=ORIENTED_EDGE('',*,*,#210,.T.);
#293=ORIENTED_EDGE('',*,*,#211,.T.);
#294=ORIENTED_EDGE('',*,*,#212,.F.);
#295=ORIENTED_EDGE('',*,*,#211,.F.);
#296=ORIENTED_EDGE('',*,*,#188,.F.);
#297=ORIENTED_EDGE('',*,*,#212,.T.);
#298=ORIENTED_EDGE('',*,*,#186,.T.);
#299=ORIENTED_EDGE('',*,*,#213,.F.);
#300=ORIENTED_EDGE('',*,*,#213,.T.);
#301=ORIENTED_EDGE('',*,*,#214,.T.);
#302=ORIENTED_EDGE('',*,*,#215,.F.);
#303=ORIENTED_EDGE('',*,*,#214,.F.);
#304=ORIENTED_EDGE('',*,*,#215,.T.);
#305=ORIENTED_EDGE('',*,*,#216,.T.);
#306=ORIENTED_EDGE('',*,*,#208,.F.);
#307=ORIENTED_EDGE('',*,*,#204,.F.);
#308=ORIENTED_EDGE('',*,*,#216,.F.);
#309=CYLINDRICAL_SURFACE('',#354,1.15);
#310=CYLINDRICAL_SURFACE('',#357,3.);
#311=CYLINDRICAL_SURFACE('',#360,3.);
#312=CYLINDRICAL_SURFACE('',#363,3.);
#313=CYLINDRICAL_SURFACE('',#370,10.);
#314=CYLINDRICAL_SURFACE('',#375,1.15);
#315=CYLINDRICAL_SURFACE('',#378,3.);
#316=CYLINDRICAL_SURFACE('',#381,3.);
#317=CYLINDRICAL_SURFACE('',#384,3.);
#318=CYLINDRICAL_SURFACE('',#397,7.65);
#319=CYLINDRICAL_SURFACE('',#402,7.65);
#320=ADVANCED_FACE('',(#32),#309,.F.);
#321=ADVANCED_FACE('',(#33),#310,.T.);
#322=ADVANCED_FACE('',(#34),#311,.F.);
#323=ADVANCED_FACE('',(#35),#312,.F.);
#324=ADVANCED_FACE('',(#36,#18),#26,.T.);
#325=ADVANCED_FACE('',(#37,#19),#27,.F.);
#326=ADVANCED_FACE('',(#38,#20,#21),#313,.T.);
#327=ADVANCED_FACE('',(#39),#314,.F.);
#328=ADVANCED_FACE('',(#40),#315,.T.);
#329=ADVANCED_FACE('',(#41),#316,.F.);
#330=ADVANCED_FACE('',(#42),#317,.F.);
#331=ADVANCED_FACE('',(#43,#22),#28,.T.);
#332=ADVANCED_FACE('',(#44,#23),#29,.F.);
#333=ADVANCED_FACE('',(#45),#17,.F.);
#334=ADVANCED_FACE('',(#46),#15,.F.);
#335=ADVANCED_FACE('',(#47),#318,.F.);
#336=ADVANCED_FACE('',(#48,#24),#30,.T.);
#337=ADVANCED_FACE('',(#49,#25),#31,.T.);
#338=ADVANCED_FACE('',(#50),#319,.F.);
#339=ADVANCED_FACE('',(#51),#16,.F.);
#340=CLOSED_SHELL('',(#320,#321,#322,#323,#324,#325,#326,#327,#328,#329,
#330,#331,#332,#333,#334,#335,#336,#337,#338,#339));
#341=DERIVED_UNIT_ELEMENT(#343,1.);
#342=DERIVED_UNIT_ELEMENT(#626,-3.);
#343=(
MASS_UNIT()
NAMED_UNIT(*)
SI_UNIT(.KILO.,.GRAM.)
);
#344=DERIVED_UNIT((#341,#342));
#345=MEASURE_REPRESENTATION_ITEM('density measure',
POSITIVE_RATIO_MEASURE(7850.),#344);
#346=PROPERTY_DEFINITION_REPRESENTATION(#351,#348);
#347=PROPERTY_DEFINITION_REPRESENTATION(#352,#349);
#348=REPRESENTATION('material name',(#350),#623);
#349=REPRESENTATION('density',(#345),#623);
#350=DESCRIPTIVE_REPRESENTATION_ITEM('\X2\94A2\X0\','\X2\94A2\X0\');
#351=PROPERTY_DEFINITION('material property','material name',#633);
#352=PROPERTY_DEFINITION('material property','density of part',#633);
#353=AXIS2_PLACEMENT_3D('',#524,#405,#406);
#354=AXIS2_PLACEMENT_3D('',#525,#407,#408);
#355=AXIS2_PLACEMENT_3D('',#527,#409,#410);
#356=AXIS2_PLACEMENT_3D('',#530,#412,#413);
#357=AXIS2_PLACEMENT_3D('',#531,#414,#415);
#358=AXIS2_PLACEMENT_3D('',#534,#416,#417);
#359=AXIS2_PLACEMENT_3D('',#538,#419,#420);
#360=AXIS2_PLACEMENT_3D('',#540,#422,#423);
#361=AXIS2_PLACEMENT_3D('',#542,#424,#425);
#362=AXIS2_PLACEMENT_3D('',#544,#426,#427);
#363=AXIS2_PLACEMENT_3D('',#546,#429,#430);
#364=AXIS2_PLACEMENT_3D('',#548,#431,#432);
#365=AXIS2_PLACEMENT_3D('',#551,#434,#435);
#366=AXIS2_PLACEMENT_3D('',#552,#436,#437);
#367=AXIS2_PLACEMENT_3D('',#553,#438,#439);
#368=AXIS2_PLACEMENT_3D('',#554,#440,#441);
#369=AXIS2_PLACEMENT_3D('',#555,#442,#443);
#370=AXIS2_PLACEMENT_3D('',#556,#444,#445);
#371=AXIS2_PLACEMENT_3D('',#558,#446,#447);
#372=AXIS2_PLACEMENT_3D('',#561,#449,#450);
#373=AXIS2_PLACEMENT_3D('',#566,#452,#453);
#374=AXIS2_PLACEMENT_3D('',#569,#455,#456);
#375=AXIS2_PLACEMENT_3D('',#570,#457,#458);
#376=AXIS2_PLACEMENT_3D('',#572,#459,#460);
#377=AXIS2_PLACEMENT_3D('',#575,#462,#463);
#378=AXIS2_PLACEMENT_3D('',#576,#464,#465);
#379=AXIS2_PLACEMENT_3D('',#579,#466,#467);
#380=AXIS2_PLACEMENT_3D('',#583,#469,#470);
#381=AXIS2_PLACEMENT_3D('',#585,#472,#473);
#382=AXIS2_PLACEMENT_3D('',#586,#474,#475);
#383=AXIS2_PLACEMENT_3D('',#587,#476,#477);
#384=AXIS2_PLACEMENT_3D('',#588,#478,#479);
#385=AXIS2_PLACEMENT_3D('',#589,#480,#481);
#386=AXIS2_PLACEMENT_3D('',#590,#482,#483);
#387=AXIS2_PLACEMENT_3D('',#591,#484,#485);
#388=AXIS2_PLACEMENT_3D('',#592,#486,#487);
#389=AXIS2_PLACEMENT_3D('',#593,#488,#489);
#390=AXIS2_PLACEMENT_3D('',#596,#490,#491);
#391=AXIS2_PLACEMENT_3D('',#598,#492,#493);
#392=AXIS2_PLACEMENT_3D('',#600,#494,#495);
#393=AXIS2_PLACEMENT_3D('',#601,#496,#497);
#394=AXIS2_PLACEMENT_3D('',#602,#498,#499);
#395=AXIS2_PLACEMENT_3D('',#603,#500,#501);
#396=AXIS2_PLACEMENT_3D('',#606,#503,#504);
#397=AXIS2_PLACEMENT_3D('',#607,#505,#506);
#398=AXIS2_PLACEMENT_3D('',#610,#508,#509);
#399=AXIS2_PLACEMENT_3D('',#611,#510,#511);
#400=AXIS2_PLACEMENT_3D('',#612,#512,#513);
#401=AXIS2_PLACEMENT_3D('',#614,#514,#515);
#402=AXIS2_PLACEMENT_3D('',#615,#516,#517);
#403=AXIS2_PLACEMENT_3D('',#618,#519,#520);
#404=AXIS2_PLACEMENT_3D('',#619,#521,#522);
#405=DIRECTION('axis',(0.,0.,1.));
#406=DIRECTION('refdir',(1.,0.,0.));
#407=DIRECTION('center_axis',(0.,1.,0.));
#408=DIRECTION('ref_axis',(-1.,0.,-1.22464679914735E-16));
#409=DIRECTION('center_axis',(0.,-1.,0.));
#410=DIRECTION('ref_axis',(-1.,0.,-1.22464679914735E-16));
#411=DIRECTION('',(0.,-1.,0.));
#412=DIRECTION('center_axis',(0.,1.,0.));
#413=DIRECTION('ref_axis',(-1.,0.,-1.22464679914735E-16));
#414=DIRECTION('center_axis',(0.,1.,0.));
#415=DIRECTION('ref_axis',(-0.866025403784438,0.,-0.5));
#416=DIRECTION('center_axis',(0.,-1.,0.));
#417=DIRECTION('ref_axis',(-0.138752879024314,0.,0.990327036166571));
#418=DIRECTION('',(0.,1.,0.));
#419=DIRECTION('center_axis',(0.,1.,0.));
#420=DIRECTION('ref_axis',(-0.138752879024314,0.,0.990327036166571));
#421=DIRECTION('',(0.,1.,0.));
#422=DIRECTION('center_axis',(0.,1.,0.));
#423=DIRECTION('ref_axis',(0.568824927831253,0.,0.822458632076879));
#424=DIRECTION('center_axis',(0.,-1.,0.));
#425=DIRECTION('ref_axis',(0.568824927831253,0.,0.822458632076879));
#426=DIRECTION('center_axis',(0.,-1.,0.));
#427=DIRECTION('ref_axis',(0.568824927831253,0.,0.822458632076879));
#428=DIRECTION('',(0.,1.,0.));
#429=DIRECTION('center_axis',(0.,1.,0.));
#430=DIRECTION('ref_axis',(0.138752879024314,0.,-0.990327036166571));
#431=DIRECTION('center_axis',(0.,-1.,0.));
#432=DIRECTION('ref_axis',(0.138752879024314,0.,-0.990327036166571));
#433=DIRECTION('',(0.,1.,0.));
#434=DIRECTION('center_axis',(0.,-1.,0.));
#435=DIRECTION('ref_axis',(0.138752879024314,0.,-0.990327036166571));
#436=DIRECTION('center_axis',(0.,-1.,0.));
#437=DIRECTION('ref_axis',(-1.,0.,-1.22464679914735E-16));
#438=DIRECTION('center_axis',(0.,-1.,0.));
#439=DIRECTION('ref_axis',(1.,0.,0.));
#440=DIRECTION('center_axis',(0.,-1.,0.));
#441=DIRECTION('ref_axis',(-1.,0.,-1.22464679914735E-16));
#442=DIRECTION('center_axis',(0.,1.,0.));
#443=DIRECTION('ref_axis',(1.,0.,0.));
#444=DIRECTION('center_axis',(0.,-1.,0.));
#445=DIRECTION('ref_axis',(1.,0.,0.));
#446=DIRECTION('center_axis',(0.,-1.,0.));
#447=DIRECTION('ref_axis',(1.,0.,0.));
#448=DIRECTION('',(0.,1.,0.));
#449=DIRECTION('center_axis',(0.,-1.,0.));
#450=DIRECTION('ref_axis',(1.,0.,0.));
#451=DIRECTION('',(0.,1.,0.));
#452=DIRECTION('center_axis',(0.,-1.,0.));
#453=DIRECTION('ref_axis',(1.,0.,0.));
#454=DIRECTION('',(0.,1.,0.));
#455=DIRECTION('center_axis',(0.,1.,0.));
#456=DIRECTION('ref_axis',(1.,0.,0.));
#457=DIRECTION('center_axis',(0.,1.,0.));
#458=DIRECTION('ref_axis',(1.,0.,0.));
#459=DIRECTION('center_axis',(0.,-1.,0.));
#460=DIRECTION('ref_axis',(1.,0.,0.));
#461=DIRECTION('',(0.,-1.,0.));
#462=DIRECTION('center_axis',(0.,1.,0.));
#463=DIRECTION('ref_axis',(1.,0.,0.));
#464=DIRECTION('center_axis',(0.,1.,0.));
#465=DIRECTION('ref_axis',(0.866025403784438,0.,0.5));
#466=DIRECTION('center_axis',(0.,-1.,0.));
#467=DIRECTION('ref_axis',(0.138752879024314,0.,-0.990327036166571));
#468=DIRECTION('',(0.,1.,0.));
#469=DIRECTION('center_axis',(0.,1.,0.));
#470=DIRECTION('ref_axis',(0.138752879024314,0.,-0.990327036166571));
#471=DIRECTION('',(0.,1.,0.));
#472=DIRECTION('center_axis',(0.,1.,0.));
#473=DIRECTION('ref_axis',(-0.568824927831253,0.,-0.822458632076878));
#474=DIRECTION('center_axis',(0.,-1.,0.));
#475=DIRECTION('ref_axis',(-0.568824927831253,0.,-0.822458632076878));
#476=DIRECTION('center_axis',(0.,-1.,0.));
#477=DIRECTION('ref_axis',(-0.568824927831253,0.,-0.822458632076878));
#478=DIRECTION('center_axis',(0.,1.,0.));
#479=DIRECTION('ref_axis',(-0.138752879024314,0.,0.990327036166571));
#480=DIRECTION('center_axis',(0.,-1.,0.));
#481=DIRECTION('ref_axis',(-0.138752879024314,0.,0.990327036166571));
#482=DIRECTION('center_axis',(0.,-1.,0.));
#483=DIRECTION('ref_axis',(-0.138752879024314,0.,0.990327036166571));
#484=DIRECTION('center_axis',(0.,-1.,0.));
#485=DIRECTION('ref_axis',(1.,0.,0.));
#486=DIRECTION('center_axis',(0.,-1.,0.));
#487=DIRECTION('ref_axis',(1.,0.,0.));
#488=DIRECTION('center_axis',(0.,-1.,0.));
#489=DIRECTION('ref_axis',(0.,0.,-1.));
#490=DIRECTION('center_axis',(0.,-1.,0.));
#491=DIRECTION('ref_axis',(1.,0.,0.));
#492=DIRECTION('center_axis',(-1.,0.,-1.22464679914735E-16));
#493=DIRECTION('ref_axis',(-1.22464679914735E-16,0.,1.));
#494=DIRECTION('center_axis',(0.,-1.,0.));
#495=DIRECTION('ref_axis',(1.,0.,0.));
#496=DIRECTION('center_axis',(0.,-1.,0.));
#497=DIRECTION('ref_axis',(1.,0.,0.));
#498=DIRECTION('center_axis',(0.,-1.,0.));
#499=DIRECTION('ref_axis',(1.,0.,0.));
#500=DIRECTION('center_axis',(0.,-1.,0.));
#501=DIRECTION('ref_axis',(1.,0.,0.));
#502=DIRECTION('',(0.707106781186543,0.707106781186552,8.65956056235487E-17));
#503=DIRECTION('center_axis',(0.,-1.,0.));
#504=DIRECTION('ref_axis',(1.,0.,0.));
#505=DIRECTION('center_axis',(0.,-1.,0.));
#506=DIRECTION('ref_axis',(1.,0.,0.));
#507=DIRECTION('',(0.,1.,0.));
#508=DIRECTION('center_axis',(0.,-1.,0.));
#509=DIRECTION('ref_axis',(1.,0.,0.));
#510=DIRECTION('center_axis',(0.,1.,0.));
#511=DIRECTION('ref_axis',(0.,0.,1.));
#512=DIRECTION('center_axis',(0.,-1.,0.));
#513=DIRECTION('ref_axis',(0.,0.,-1.));
#514=DIRECTION('center_axis',(0.,-1.,0.));
#515=DIRECTION('ref_axis',(1.,0.,0.));
#516=DIRECTION('center_axis',(0.,-1.,0.));
#517=DIRECTION('ref_axis',(1.,0.,0.));
#518=DIRECTION('',(0.,1.,0.));
#519=DIRECTION('center_axis',(0.,-1.,0.));
#520=DIRECTION('ref_axis',(1.,0.,0.));
#521=DIRECTION('center_axis',(0.,1.,0.));
#522=DIRECTION('ref_axis',(1.,0.,0.));
#523=DIRECTION('',(-0.707106781186543,0.707106781186552,-8.65956056235487E-17));
#524=CARTESIAN_POINT('',(0.,0.,0.));
#525=CARTESIAN_POINT('Origin',(-12.1243556529821,-4.,-7.));
#526=CARTESIAN_POINT('',(-10.9743556529821,-2.,-7.));
#527=CARTESIAN_POINT('Origin',(-12.1243556529821,-2.,-7.));
#528=CARTESIAN_POINT('',(-10.9743556529821,-4.,-7.));
#529=CARTESIAN_POINT('',(-10.9743556529821,-4.,-7.));
#530=CARTESIAN_POINT('Origin',(-12.1243556529821,-4.,-7.));
#531=CARTESIAN_POINT('Origin',(-12.1243556529821,-4.,-7.));
#532=CARTESIAN_POINT('',(-12.5406142900551,-4.,-4.02901889150029));
#533=CARTESIAN_POINT('',(-9.75953985739421,-4.,-8.84598110849971));
#534=CARTESIAN_POINT('Origin',(-12.1243556529821,-4.,-7.));
#535=CARTESIAN_POINT('',(-12.5406142900551,-2.,-4.02901889150029));
#536=CARTESIAN_POINT('',(-12.5406142900551,-4.,-4.02901889150029));
#537=CARTESIAN_POINT('',(-9.75953985739421,-2.,-8.84598110849971));
#538=CARTESIAN_POINT('Origin',(-12.1243556529821,-2.,-7.));
#539=CARTESIAN_POINT('',(-9.75953985739421,-4.,-8.84598110849971));
#540=CARTESIAN_POINT('Origin',(-7.39472406180628,-4.,-10.6919622169994));
#541=CARTESIAN_POINT('',(-5.68824927831252,-4.,-8.22458632076879));
#542=CARTESIAN_POINT('Origin',(-7.39472406180628,-4.,-10.6919622169994));
#543=CARTESIAN_POINT('',(-5.68824927831252,-2.,-8.22458632076879));
#544=CARTESIAN_POINT('Origin',(-7.39472406180628,-2.,-10.6919622169994));
#545=CARTESIAN_POINT('',(-5.68824927831252,-4.,-8.22458632076878));
#546=CARTESIAN_POINT('Origin',(-12.956872927128,-4.,-1.05803778300057));
#547=CARTESIAN_POINT('',(-9.96682532856002,-4.,-0.813875217692749));
#548=CARTESIAN_POINT('Origin',(-12.956872927128,-4.,-1.05803778300057));
#549=CARTESIAN_POINT('',(-9.96682532856002,-2.,-0.813875217692749));
#550=CARTESIAN_POINT('',(-9.96682532856002,-4.,-0.813875217692749));
#551=CARTESIAN_POINT('Origin',(-12.956872927128,-2.,-1.05803778300057));
#552=CARTESIAN_POINT('Origin',(-10.4063024656473,-4.,-5.40693760884637));
#553=CARTESIAN_POINT('Origin',(0.,-4.,0.));
#554=CARTESIAN_POINT('Origin',(-10.4063024656473,-2.,-5.40693760884637));
#555=CARTESIAN_POINT('Origin',(0.,-2.,0.));
#556=CARTESIAN_POINT('Origin',(0.,-3.,0.));
#557=CARTESIAN_POINT('',(-10.,-5.,-1.22464679914735E-15));
#558=CARTESIAN_POINT('Origin',(0.,-5.,0.));
#559=CARTESIAN_POINT('',(-10.,-1.,-1.22464679914735E-15));
#560=CARTESIAN_POINT('',(-10.,-3.,-1.22464679914735E-15));
#561=CARTESIAN_POINT('Origin',(0.,-1.,0.));
#562=CARTESIAN_POINT('',(9.96682532856002,-4.,0.813875217692748));
#563=CARTESIAN_POINT('',(9.96682532856002,-2.,0.813875217692748));
#564=CARTESIAN_POINT('',(9.96682532856002,-4.,0.813875217692748));
#565=CARTESIAN_POINT('',(5.68824927831252,-4.,8.22458632076879));
#566=CARTESIAN_POINT('Origin',(0.,-4.,0.));
#567=CARTESIAN_POINT('',(5.68824927831252,-2.,8.22458632076879));
#568=CARTESIAN_POINT('',(5.68824927831253,-4.,8.22458632076879));
#569=CARTESIAN_POINT('Origin',(0.,-2.,0.));
#570=CARTESIAN_POINT('Origin',(12.1243556529821,-4.,7.));
#571=CARTESIAN_POINT('',(10.9743556529821,-2.,7.));
#572=CARTESIAN_POINT('Origin',(12.1243556529821,-2.,7.));
#573=CARTESIAN_POINT('',(10.9743556529821,-4.,7.));
#574=CARTESIAN_POINT('',(10.9743556529821,-4.,7.));
#575=CARTESIAN_POINT('Origin',(12.1243556529821,-4.,7.));
#576=CARTESIAN_POINT('Origin',(12.1243556529821,-4.,7.));
#577=CARTESIAN_POINT('',(12.5406142900551,-4.,4.02901889150029));
#578=CARTESIAN_POINT('',(9.75953985739422,-4.,8.84598110849971));
#579=CARTESIAN_POINT('Origin',(12.1243556529821,-4.,7.));
#580=CARTESIAN_POINT('',(12.5406142900551,-2.,4.02901889150029));
#581=CARTESIAN_POINT('',(12.5406142900551,-4.,4.02901889150029));
#582=CARTESIAN_POINT('',(9.75953985739422,-2.,8.84598110849971));
#583=CARTESIAN_POINT('Origin',(12.1243556529821,-2.,7.));
#584=CARTESIAN_POINT('',(9.75953985739422,-4.,8.84598110849971));
#585=CARTESIAN_POINT('Origin',(7.39472406180628,-4.,10.6919622169994));
#586=CARTESIAN_POINT('Origin',(7.39472406180628,-4.,10.6919622169994));
#587=CARTESIAN_POINT('Origin',(7.39472406180628,-2.,10.6919622169994));
#588=CARTESIAN_POINT('Origin',(12.956872927128,-4.,1.05803778300057));
#589=CARTESIAN_POINT('Origin',(12.956872927128,-4.,1.05803778300057));
#590=CARTESIAN_POINT('Origin',(12.956872927128,-2.,1.05803778300057));
#591=CARTESIAN_POINT('Origin',(10.4063024656473,-4.,5.40693760884637));
#592=CARTESIAN_POINT('Origin',(10.4063024656473,-2.,5.40693760884637));
#593=CARTESIAN_POINT('Origin',(0.,-3.,0.));
#594=CARTESIAN_POINT('',(-7.94601551083915,-4.09601551083915,-9.73106246132438E-16));
#595=CARTESIAN_POINT('',(-9.73106246132438E-16,-4.09601551083915,7.94601551083915));
#596=CARTESIAN_POINT('Origin',(0.,-4.09601551083915,0.));
#597=CARTESIAN_POINT('',(-9.73106246132438E-16,-1.90398448916085,7.94601551083915));
#598=CARTESIAN_POINT('Origin',(-8.38883057415937E-16,-3.,6.85));
#599=CARTESIAN_POINT('',(-7.94601551083915,-1.90398448916085,-9.73106246132439E-16));
#600=CARTESIAN_POINT('Origin',(0.,-1.90398448916085,0.));
#601=CARTESIAN_POINT('Origin',(0.,-1.90398448916085,0.));
#602=CARTESIAN_POINT('Origin',(0.,-4.09601551083915,0.));
#603=CARTESIAN_POINT('Origin',(0.,-1.75597673374128,0.));
#604=CARTESIAN_POINT('',(-7.65,-1.6079689783217,-9.36854801347725E-16));
#605=CARTESIAN_POINT('',(-7.79800775541958,-1.75597673374128,-9.54980523740082E-16));
#606=CARTESIAN_POINT('Origin',(0.,-1.6079689783217,0.));
#607=CARTESIAN_POINT('Origin',(0.,-1.30398448916085,0.));
#608=CARTESIAN_POINT('',(-7.65,-1.,-9.36854801347725E-16));
#609=CARTESIAN_POINT('',(-7.65,-1.30398448916085,-9.36854801347725E-16));
#610=CARTESIAN_POINT('Origin',(0.,-1.,0.));
#611=CARTESIAN_POINT('Origin',(10.,-1.,0.));
#612=CARTESIAN_POINT('Origin',(7.65,-5.,0.));
#613=CARTESIAN_POINT('',(-7.65,-5.,-9.36854801347725E-16));
#614=CARTESIAN_POINT('Origin',(0.,-5.,0.));
#615=CARTESIAN_POINT('Origin',(0.,-4.69601551083915,0.));
#616=CARTESIAN_POINT('',(-7.65,-4.3920310216783,-9.36854801347725E-16));
#617=CARTESIAN_POINT('',(-7.65,-4.69601551083915,-9.36854801347725E-16));
#618=CARTESIAN_POINT('Origin',(0.,-4.3920310216783,0.));
#619=CARTESIAN_POINT('Origin',(0.,-4.24402326625873,0.));
#620=CARTESIAN_POINT('',(-7.79800775541958,-4.24402326625873,-9.54980523740082E-16));
#621=UNCERTAINTY_MEASURE_WITH_UNIT(LENGTH_MEASURE(0.01),#625,
'DISTANCE_ACCURACY_VALUE',
'Maximum model space distance between geometric entities at asserted c
onnectivities');
#622=UNCERTAINTY_MEASURE_WITH_UNIT(LENGTH_MEASURE(0.01),#625,
'DISTANCE_ACCURACY_VALUE',
'Maximum model space distance between geometric entities at asserted c
onnectivities');
#623=(
GEOMETRIC_REPRESENTATION_CONTEXT(3)
GLOBAL_UNCERTAINTY_ASSIGNED_CONTEXT((#621))
GLOBAL_UNIT_ASSIGNED_CONTEXT((#625,#627,#628))
REPRESENTATION_CONTEXT('','3D')
);
#624=(
GEOMETRIC_REPRESENTATION_CONTEXT(3)
GLOBAL_UNCERTAINTY_ASSIGNED_CONTEXT((#622))
GLOBAL_UNIT_ASSIGNED_CONTEXT((#625,#627,#628))
REPRESENTATION_CONTEXT('','3D')
);
#625=(
LENGTH_UNIT()
NAMED_UNIT(*)
SI_UNIT(.MILLI.,.METRE.)
);
#626=(
LENGTH_UNIT()
NAMED_UNIT(*)
SI_UNIT($,.METRE.)
);
#627=(
NAMED_UNIT(*)
PLANE_ANGLE_UNIT()
SI_UNIT($,.RADIAN.)
);
#628=(
NAMED_UNIT(*)
SI_UNIT($,.STERADIAN.)
SOLID_ANGLE_UNIT()
);
#629=SHAPE_DEFINITION_REPRESENTATION(#630,#631);
#630=PRODUCT_DEFINITION_SHAPE('',$,#633);
#631=SHAPE_REPRESENTATION('',(#353),#623);
#632=PRODUCT_DEFINITION_CONTEXT('part definition',#637,'design');
#633=PRODUCT_DEFINITION('\X2\819D76D68F6C52A8\X0\','\X2\819D76D68F6C52A8\X0\',
#634,#632);
#634=PRODUCT_DEFINITION_FORMATION('',$,#639);
#635=PRODUCT_RELATED_PRODUCT_CATEGORY('\X2\819D76D68F6C52A8\X0\',
'\X2\819D76D68F6C52A8\X0\',(#639));
#636=APPLICATION_PROTOCOL_DEFINITION('international standard',
'automotive_design',2009,#637);
#637=APPLICATION_CONTEXT(
'Core Data for Automotive Mechanical Design Process');
#638=PRODUCT_CONTEXT('part definition',#637,'mechanical');
#639=PRODUCT('\X2\819D76D68F6C52A8\X0\','\X2\819D76D68F6C52A8\X0\',$,(#638));
#640=PRESENTATION_STYLE_ASSIGNMENT((#641));
#641=SURFACE_STYLE_USAGE(.BOTH.,#642);
#642=SURFACE_SIDE_STYLE('',(#643));
#643=SURFACE_STYLE_FILL_AREA(#644);
#644=FILL_AREA_STYLE('\X2\94A2\X0\ - \X2\7F0E5149\X0\',(#645));
#645=FILL_AREA_STYLE_COLOUR('\X2\94A2\X0\ - \X2\7F0E5149\X0\',#646);
#646=COLOUR_RGB('\X2\94A2\X0\ - \X2\7F0E5149\X0\',0.627450980392157,0.627450980392157,
0.627450980392157);
ENDSEC;
END-ISO-10303-21;
