ISO-10303-21;
HEADER;
/* Generated by software containing ST-Developer
 * from STEP Tools, Inc. (www.steptools.com) 
 */

FILE_DESCRIPTION(
/* description */ (''),
/* implementation_level */ '2;1');

FILE_NAME(
/* name */ '',
/* time_stamp */ '2026-07-15T10:33:11+08:00',
/* author */ (''),
/* organization */ (''),
/* preprocessor_version */ 'ST-DEVELOPER v20.1',
/* originating_system */ 'Autodesk Translation Framework v15.8.0.0',
/* authorisation */ '');

FILE_SCHEMA (('AUTOMOTIVE_DESIGN { 1 0 10303 214 3 1 1 }'));
ENDSEC;

DATA;
#10=MECHANICAL_DESIGN_GEOMETRIC_PRESENTATION_REPRESENTATION('',(#13),#837);
#11=SHAPE_REPRESENTATION_RELATIONSHIP('SRR','None',#844,#12);
#12=ADVANCED_BREP_SHAPE_REPRESENTATION('',(#14),#836);
#13=STYLED_ITEM('',(#853),#14);
#14=MANIFOLD_SOLID_BREP('\X2\5B9E4F53\X0\1',#457);
#15=FACE_BOUND('',#62,.T.);
#16=FACE_BOUND('',#64,.T.);
#17=FACE_BOUND('',#71,.T.);
#18=FACE_BOUND('',#72,.T.);
#19=FACE_BOUND('',#74,.T.);
#20=FACE_BOUND('',#76,.T.);
#21=FACE_BOUND('',#83,.T.);
#22=FACE_BOUND('',#84,.T.);
#23=PLANE('',#503);
#24=PLANE('',#507);
#25=PLANE('',#520);
#26=PLANE('',#521);
#27=PLANE('',#525);
#28=PLANE('',#538);
#29=FACE_OUTER_BOUND('',#53,.T.);
#30=FACE_OUTER_BOUND('',#54,.T.);
#31=FACE_OUTER_BOUND('',#55,.T.);
#32=FACE_OUTER_BOUND('',#56,.T.);
#33=FACE_OUTER_BOUND('',#57,.T.);
#34=FACE_OUTER_BOUND('',#58,.T.);
#35=FACE_OUTER_BOUND('',#59,.T.);
#36=FACE_OUTER_BOUND('',#60,.T.);
#37=FACE_OUTER_BOUND('',#61,.T.);
#38=FACE_OUTER_BOUND('',#63,.T.);
#39=FACE_OUTER_BOUND('',#65,.T.);
#40=FACE_OUTER_BOUND('',#66,.T.);
#41=FACE_OUTER_BOUND('',#67,.T.);
#42=FACE_OUTER_BOUND('',#68,.T.);
#43=FACE_OUTER_BOUND('',#69,.T.);
#44=FACE_OUTER_BOUND('',#70,.T.);
#45=FACE_OUTER_BOUND('',#73,.T.);
#46=FACE_OUTER_BOUND('',#75,.T.);
#47=FACE_OUTER_BOUND('',#77,.T.);
#48=FACE_OUTER_BOUND('',#78,.T.);
#49=FACE_OUTER_BOUND('',#79,.T.);
#50=FACE_OUTER_BOUND('',#80,.T.);
#51=FACE_OUTER_BOUND('',#81,.T.);
#52=FACE_OUTER_BOUND('',#82,.T.);
#53=EDGE_LOOP('',(#283,#284,#285,#286));
#54=EDGE_LOOP('',(#287,#288,#289,#290,#291,#292,#293,#294,#295,#296,#297,
#298));
#55=EDGE_LOOP('',(#299,#300,#301,#302));
#56=EDGE_LOOP('',(#303,#304,#305,#306));
#57=EDGE_LOOP('',(#307,#308,#309,#310));
#58=EDGE_LOOP('',(#311,#312,#313,#314));
#59=EDGE_LOOP('',(#315,#316,#317,#318));
#60=EDGE_LOOP('',(#319,#320,#321,#322,#323,#324,#325,#326,#327,#328,#329,
#330));
#61=EDGE_LOOP('',(#331,#332,#333,#334,#335,#336,#337));
#62=EDGE_LOOP('',(#338));
#63=EDGE_LOOP('',(#339,#340,#341,#342,#343,#344));
#64=EDGE_LOOP('',(#345));
#65=EDGE_LOOP('',(#346,#347,#348,#349));
#66=EDGE_LOOP('',(#350,#351,#352,#353));
#67=EDGE_LOOP('',(#354,#355,#356,#357));
#68=EDGE_LOOP('',(#358,#359,#360,#361));
#69=EDGE_LOOP('',(#362,#363,#364,#365));
#70=EDGE_LOOP('',(#366,#367,#368,#369,#370));
#71=EDGE_LOOP('',(#371));
#72=EDGE_LOOP('',(#372));
#73=EDGE_LOOP('',(#373,#374,#375,#376,#377,#378,#379));
#74=EDGE_LOOP('',(#380));
#75=EDGE_LOOP('',(#381,#382,#383,#384,#385,#386));
#76=EDGE_LOOP('',(#387));
#77=EDGE_LOOP('',(#388,#389,#390,#391));
#78=EDGE_LOOP('',(#392,#393,#394,#395));
#79=EDGE_LOOP('',(#396,#397,#398,#399));
#80=EDGE_LOOP('',(#400,#401,#402,#403));
#81=EDGE_LOOP('',(#404,#405,#406,#407));
#82=EDGE_LOOP('',(#408,#409,#410,#411,#412));
#83=EDGE_LOOP('',(#413));
#84=EDGE_LOOP('',(#414));
#85=LINE('',#705,#107);
#86=LINE('',#708,#108);
#87=LINE('',#715,#109);
#88=LINE('',#719,#110);
#89=LINE('',#723,#111);
#90=LINE('',#727,#112);
#91=LINE('',#730,#113);
#92=LINE('',#736,#114);
#93=LINE('',#739,#115);
#94=LINE('',#747,#116);
#95=LINE('',#753,#117);
#96=LINE('',#759,#118);
#97=LINE('',#765,#119);
#98=LINE('',#769,#120);
#99=LINE('',#774,#121);
#100=LINE('',#778,#122);
#101=LINE('',#793,#123);
#102=LINE('',#797,#124);
#103=LINE('',#800,#125);
#104=LINE('',#820,#126);
#105=LINE('',#824,#127);
#106=LINE('',#830,#128);
#107=VECTOR('',#545,10.);
#108=VECTOR('',#548,10.);
#109=VECTOR('',#555,10.);
#110=VECTOR('',#558,10.);
#111=VECTOR('',#561,10.);
#112=VECTOR('',#564,10.);
#113=VECTOR('',#567,10.);
#114=VECTOR('',#572,10.);
#115=VECTOR('',#575,10.);
#116=VECTOR('',#586,10.);
#117=VECTOR('',#593,10.);
#118=VECTOR('',#600,10.);
#119=VECTOR('',#607,10.);
#120=VECTOR('',#610,10.);
#121=VECTOR('',#615,10.);
#122=VECTOR('',#618,10.);
#123=VECTOR('',#639,1.05);
#124=VECTOR('',#644,1.05);
#125=VECTOR('',#647,10.);
#126=VECTOR('',#678,1.05);
#127=VECTOR('',#683,1.05);
#128=VECTOR('',#692,10.);
#129=CIRCLE('',#472,2.);
#130=CIRCLE('',#473,2.);
#131=CIRCLE('',#475,8.);
#132=CIRCLE('',#476,8.);
#133=CIRCLE('',#477,8.);
#134=CIRCLE('',#478,8.);
#135=CIRCLE('',#479,8.);
#136=CIRCLE('',#480,8.);
#137=CIRCLE('',#482,2.);
#138=CIRCLE('',#483,2.);
#139=CIRCLE('',#485,4.5);
#140=CIRCLE('',#486,4.5);
#141=CIRCLE('',#488,2.);
#142=CIRCLE('',#489,2.);
#143=CIRCLE('',#491,4.5);
#144=CIRCLE('',#492,4.5);
#145=CIRCLE('',#494,2.);
#146=CIRCLE('',#495,2.);
#147=CIRCLE('',#497,14.0000000000004);
#148=CIRCLE('',#498,14.0000000000004);
#149=CIRCLE('',#499,14.0000000000004);
#150=CIRCLE('',#500,14.0000000000004);
#151=CIRCLE('',#501,14.0000000000004);
#152=CIRCLE('',#502,14.0000000000004);
#153=CIRCLE('',#504,3.);
#154=CIRCLE('',#505,3.);
#155=CIRCLE('',#506,1.05);
#156=CIRCLE('',#508,3.);
#157=CIRCLE('',#509,1.05);
#158=CIRCLE('',#511,1.05);
#159=CIRCLE('',#513,1.05);
#160=CIRCLE('',#515,3.);
#161=CIRCLE('',#517,3.);
#162=CIRCLE('',#519,3.);
#163=CIRCLE('',#522,3.);
#164=CIRCLE('',#523,3.);
#165=CIRCLE('',#524,1.05);
#166=CIRCLE('',#526,3.);
#167=CIRCLE('',#527,1.05);
#168=CIRCLE('',#529,1.05);
#169=CIRCLE('',#531,1.05);
#170=CIRCLE('',#533,3.);
#171=CIRCLE('',#535,3.);
#172=CIRCLE('',#537,3.);
#173=VERTEX_POINT('',#701);
#174=VERTEX_POINT('',#702);
#175=VERTEX_POINT('',#704);
#176=VERTEX_POINT('',#706);
#177=VERTEX_POINT('',#710);
#178=VERTEX_POINT('',#712);
#179=VERTEX_POINT('',#714);
#180=VERTEX_POINT('',#716);
#181=VERTEX_POINT('',#718);
#182=VERTEX_POINT('',#720);
#183=VERTEX_POINT('',#722);
#184=VERTEX_POINT('',#724);
#185=VERTEX_POINT('',#726);
#186=VERTEX_POINT('',#728);
#187=VERTEX_POINT('',#732);
#188=VERTEX_POINT('',#733);
#189=VERTEX_POINT('',#735);
#190=VERTEX_POINT('',#737);
#191=VERTEX_POINT('',#744);
#192=VERTEX_POINT('',#746);
#193=VERTEX_POINT('',#750);
#194=VERTEX_POINT('',#752);
#195=VERTEX_POINT('',#756);
#196=VERTEX_POINT('',#758);
#197=VERTEX_POINT('',#762);
#198=VERTEX_POINT('',#764);
#199=VERTEX_POINT('',#766);
#200=VERTEX_POINT('',#768);
#201=VERTEX_POINT('',#771);
#202=VERTEX_POINT('',#773);
#203=VERTEX_POINT('',#775);
#204=VERTEX_POINT('',#777);
#205=VERTEX_POINT('',#781);
#206=VERTEX_POINT('',#784);
#207=VERTEX_POINT('',#788);
#208=VERTEX_POINT('',#791);
#209=VERTEX_POINT('',#795);
#210=VERTEX_POINT('',#799);
#211=VERTEX_POINT('',#808);
#212=VERTEX_POINT('',#811);
#213=VERTEX_POINT('',#815);
#214=VERTEX_POINT('',#818);
#215=VERTEX_POINT('',#822);
#216=VERTEX_POINT('',#828);
#217=EDGE_CURVE('',#173,#174,#129,.F.);
#218=EDGE_CURVE('',#174,#175,#85,.T.);
#219=EDGE_CURVE('',#175,#176,#130,.F.);
#220=EDGE_CURVE('',#176,#173,#86,.T.);
#221=EDGE_CURVE('',#175,#177,#131,.T.);
#222=EDGE_CURVE('',#178,#174,#132,.T.);
#223=EDGE_CURVE('',#178,#179,#87,.T.);
#224=EDGE_CURVE('',#180,#179,#133,.T.);
#225=EDGE_CURVE('',#181,#180,#88,.T.);
#226=EDGE_CURVE('',#182,#181,#134,.T.);
#227=EDGE_CURVE('',#183,#182,#89,.T.);
#228=EDGE_CURVE('',#184,#183,#135,.T.);
#229=EDGE_CURVE('',#184,#185,#90,.T.);
#230=EDGE_CURVE('',#186,#185,#136,.T.);
#231=EDGE_CURVE('',#177,#186,#91,.T.);
#232=EDGE_CURVE('',#187,#188,#137,.F.);
#233=EDGE_CURVE('',#188,#189,#92,.T.);
#234=EDGE_CURVE('',#189,#190,#138,.F.);
#235=EDGE_CURVE('',#190,#187,#93,.T.);
#236=EDGE_CURVE('',#189,#176,#139,.T.);
#237=EDGE_CURVE('',#173,#188,#140,.T.);
#238=EDGE_CURVE('',#182,#191,#141,.F.);
#239=EDGE_CURVE('',#191,#192,#94,.T.);
#240=EDGE_CURVE('',#192,#183,#142,.F.);
#241=EDGE_CURVE('',#193,#191,#143,.T.);
#242=EDGE_CURVE('',#194,#193,#95,.T.);
#243=EDGE_CURVE('',#192,#194,#144,.T.);
#244=EDGE_CURVE('',#193,#195,#145,.F.);
#245=EDGE_CURVE('',#195,#196,#96,.T.);
#246=EDGE_CURVE('',#196,#194,#146,.F.);
#247=EDGE_CURVE('',#190,#197,#147,.T.);
#248=EDGE_CURVE('',#197,#198,#97,.T.);
#249=EDGE_CURVE('',#199,#198,#148,.T.);
#250=EDGE_CURVE('',#200,#199,#98,.T.);
#251=EDGE_CURVE('',#200,#196,#149,.T.);
#252=EDGE_CURVE('',#201,#195,#150,.T.);
#253=EDGE_CURVE('',#201,#202,#99,.T.);
#254=EDGE_CURVE('',#203,#202,#151,.T.);
#255=EDGE_CURVE('',#204,#203,#100,.T.);
#256=EDGE_CURVE('',#187,#204,#152,.T.);
#257=EDGE_CURVE('',#204,#205,#153,.T.);
#258=EDGE_CURVE('',#205,#178,#154,.T.);
#259=EDGE_CURVE('',#206,#206,#155,.T.);
#260=EDGE_CURVE('',#181,#201,#156,.T.);
#261=EDGE_CURVE('',#207,#207,#157,.T.);
#262=EDGE_CURVE('',#208,#208,#158,.T.);
#263=EDGE_CURVE('',#208,#207,#101,.T.);
#264=EDGE_CURVE('',#209,#209,#159,.T.);
#265=EDGE_CURVE('',#209,#206,#102,.T.);
#266=EDGE_CURVE('',#205,#210,#103,.T.);
#267=EDGE_CURVE('',#179,#210,#160,.T.);
#268=EDGE_CURVE('',#202,#180,#161,.T.);
#269=EDGE_CURVE('',#210,#203,#162,.T.);
#270=EDGE_CURVE('',#211,#177,#163,.T.);
#271=EDGE_CURVE('',#197,#211,#164,.T.);
#272=EDGE_CURVE('',#212,#212,#165,.T.);
#273=EDGE_CURVE('',#184,#200,#166,.T.);
#274=EDGE_CURVE('',#213,#213,#167,.T.);
#275=EDGE_CURVE('',#214,#214,#168,.T.);
#276=EDGE_CURVE('',#214,#213,#104,.T.);
#277=EDGE_CURVE('',#215,#215,#169,.T.);
#278=EDGE_CURVE('',#215,#212,#105,.T.);
#279=EDGE_CURVE('',#185,#199,#170,.T.);
#280=EDGE_CURVE('',#216,#186,#171,.T.);
#281=EDGE_CURVE('',#211,#216,#106,.T.);
#282=EDGE_CURVE('',#198,#216,#172,.T.);
#283=ORIENTED_EDGE('',*,*,#217,.T.);
#284=ORIENTED_EDGE('',*,*,#218,.T.);
#285=ORIENTED_EDGE('',*,*,#219,.T.);
#286=ORIENTED_EDGE('',*,*,#220,.T.);
#287=ORIENTED_EDGE('',*,*,#221,.F.);
#288=ORIENTED_EDGE('',*,*,#218,.F.);
#289=ORIENTED_EDGE('',*,*,#222,.F.);
#290=ORIENTED_EDGE('',*,*,#223,.T.);
#291=ORIENTED_EDGE('',*,*,#224,.F.);
#292=ORIENTED_EDGE('',*,*,#225,.F.);
#293=ORIENTED_EDGE('',*,*,#226,.F.);
#294=ORIENTED_EDGE('',*,*,#227,.F.);
#295=ORIENTED_EDGE('',*,*,#228,.F.);
#296=ORIENTED_EDGE('',*,*,#229,.T.);
#297=ORIENTED_EDGE('',*,*,#230,.F.);
#298=ORIENTED_EDGE('',*,*,#231,.F.);
#299=ORIENTED_EDGE('',*,*,#232,.T.);
#300=ORIENTED_EDGE('',*,*,#233,.T.);
#301=ORIENTED_EDGE('',*,*,#234,.T.);
#302=ORIENTED_EDGE('',*,*,#235,.T.);
#303=ORIENTED_EDGE('',*,*,#220,.F.);
#304=ORIENTED_EDGE('',*,*,#236,.F.);
#305=ORIENTED_EDGE('',*,*,#233,.F.);
#306=ORIENTED_EDGE('',*,*,#237,.F.);
#307=ORIENTED_EDGE('',*,*,#238,.T.);
#308=ORIENTED_EDGE('',*,*,#239,.T.);
#309=ORIENTED_EDGE('',*,*,#240,.T.);
#310=ORIENTED_EDGE('',*,*,#227,.T.);
#311=ORIENTED_EDGE('',*,*,#239,.F.);
#312=ORIENTED_EDGE('',*,*,#241,.F.);
#313=ORIENTED_EDGE('',*,*,#242,.F.);
#314=ORIENTED_EDGE('',*,*,#243,.F.);
#315=ORIENTED_EDGE('',*,*,#244,.T.);
#316=ORIENTED_EDGE('',*,*,#245,.T.);
#317=ORIENTED_EDGE('',*,*,#246,.T.);
#318=ORIENTED_EDGE('',*,*,#242,.T.);
#319=ORIENTED_EDGE('',*,*,#247,.T.);
#320=ORIENTED_EDGE('',*,*,#248,.T.);
#321=ORIENTED_EDGE('',*,*,#249,.F.);
#322=ORIENTED_EDGE('',*,*,#250,.F.);
#323=ORIENTED_EDGE('',*,*,#251,.T.);
#324=ORIENTED_EDGE('',*,*,#245,.F.);
#325=ORIENTED_EDGE('',*,*,#252,.F.);
#326=ORIENTED_EDGE('',*,*,#253,.T.);
#327=ORIENTED_EDGE('',*,*,#254,.F.);
#328=ORIENTED_EDGE('',*,*,#255,.F.);
#329=ORIENTED_EDGE('',*,*,#256,.F.);
#330=ORIENTED_EDGE('',*,*,#235,.F.);
#331=ORIENTED_EDGE('',*,*,#237,.T.);
#332=ORIENTED_EDGE('',*,*,#232,.F.);
#333=ORIENTED_EDGE('',*,*,#256,.T.);
#334=ORIENTED_EDGE('',*,*,#257,.T.);
#335=ORIENTED_EDGE('',*,*,#258,.T.);
#336=ORIENTED_EDGE('',*,*,#222,.T.);
#337=ORIENTED_EDGE('',*,*,#217,.F.);
#338=ORIENTED_EDGE('',*,*,#259,.T.);
#339=ORIENTED_EDGE('',*,*,#241,.T.);
#340=ORIENTED_EDGE('',*,*,#238,.F.);
#341=ORIENTED_EDGE('',*,*,#226,.T.);
#342=ORIENTED_EDGE('',*,*,#260,.T.);
#343=ORIENTED_EDGE('',*,*,#252,.T.);
#344=ORIENTED_EDGE('',*,*,#244,.F.);
#345=ORIENTED_EDGE('',*,*,#261,.T.);
#346=ORIENTED_EDGE('',*,*,#262,.F.);
#347=ORIENTED_EDGE('',*,*,#263,.T.);
#348=ORIENTED_EDGE('',*,*,#261,.F.);
#349=ORIENTED_EDGE('',*,*,#263,.F.);
#350=ORIENTED_EDGE('',*,*,#264,.F.);
#351=ORIENTED_EDGE('',*,*,#265,.T.);
#352=ORIENTED_EDGE('',*,*,#259,.F.);
#353=ORIENTED_EDGE('',*,*,#265,.F.);
#354=ORIENTED_EDGE('',*,*,#258,.F.);
#355=ORIENTED_EDGE('',*,*,#266,.T.);
#356=ORIENTED_EDGE('',*,*,#267,.F.);
#357=ORIENTED_EDGE('',*,*,#223,.F.);
#358=ORIENTED_EDGE('',*,*,#260,.F.);
#359=ORIENTED_EDGE('',*,*,#225,.T.);
#360=ORIENTED_EDGE('',*,*,#268,.F.);
#361=ORIENTED_EDGE('',*,*,#253,.F.);
#362=ORIENTED_EDGE('',*,*,#257,.F.);
#363=ORIENTED_EDGE('',*,*,#255,.T.);
#364=ORIENTED_EDGE('',*,*,#269,.F.);
#365=ORIENTED_EDGE('',*,*,#266,.F.);
#366=ORIENTED_EDGE('',*,*,#269,.T.);
#367=ORIENTED_EDGE('',*,*,#254,.T.);
#368=ORIENTED_EDGE('',*,*,#268,.T.);
#369=ORIENTED_EDGE('',*,*,#224,.T.);
#370=ORIENTED_EDGE('',*,*,#267,.T.);
#371=ORIENTED_EDGE('',*,*,#264,.T.);
#372=ORIENTED_EDGE('',*,*,#262,.T.);
#373=ORIENTED_EDGE('',*,*,#236,.T.);
#374=ORIENTED_EDGE('',*,*,#219,.F.);
#375=ORIENTED_EDGE('',*,*,#221,.T.);
#376=ORIENTED_EDGE('',*,*,#270,.F.);
#377=ORIENTED_EDGE('',*,*,#271,.F.);
#378=ORIENTED_EDGE('',*,*,#247,.F.);
#379=ORIENTED_EDGE('',*,*,#234,.F.);
#380=ORIENTED_EDGE('',*,*,#272,.F.);
#381=ORIENTED_EDGE('',*,*,#243,.T.);
#382=ORIENTED_EDGE('',*,*,#246,.F.);
#383=ORIENTED_EDGE('',*,*,#251,.F.);
#384=ORIENTED_EDGE('',*,*,#273,.F.);
#385=ORIENTED_EDGE('',*,*,#228,.T.);
#386=ORIENTED_EDGE('',*,*,#240,.F.);
#387=ORIENTED_EDGE('',*,*,#274,.F.);
#388=ORIENTED_EDGE('',*,*,#275,.F.);
#389=ORIENTED_EDGE('',*,*,#276,.T.);
#390=ORIENTED_EDGE('',*,*,#274,.T.);
#391=ORIENTED_EDGE('',*,*,#276,.F.);
#392=ORIENTED_EDGE('',*,*,#277,.F.);
#393=ORIENTED_EDGE('',*,*,#278,.T.);
#394=ORIENTED_EDGE('',*,*,#272,.T.);
#395=ORIENTED_EDGE('',*,*,#278,.F.);
#396=ORIENTED_EDGE('',*,*,#273,.T.);
#397=ORIENTED_EDGE('',*,*,#250,.T.);
#398=ORIENTED_EDGE('',*,*,#279,.F.);
#399=ORIENTED_EDGE('',*,*,#229,.F.);
#400=ORIENTED_EDGE('',*,*,#270,.T.);
#401=ORIENTED_EDGE('',*,*,#231,.T.);
#402=ORIENTED_EDGE('',*,*,#280,.F.);
#403=ORIENTED_EDGE('',*,*,#281,.F.);
#404=ORIENTED_EDGE('',*,*,#271,.T.);
#405=ORIENTED_EDGE('',*,*,#281,.T.);
#406=ORIENTED_EDGE('',*,*,#282,.F.);
#407=ORIENTED_EDGE('',*,*,#248,.F.);
#408=ORIENTED_EDGE('',*,*,#249,.T.);
#409=ORIENTED_EDGE('',*,*,#282,.T.);
#410=ORIENTED_EDGE('',*,*,#280,.T.);
#411=ORIENTED_EDGE('',*,*,#230,.T.);
#412=ORIENTED_EDGE('',*,*,#279,.T.);
#413=ORIENTED_EDGE('',*,*,#277,.T.);
#414=ORIENTED_EDGE('',*,*,#275,.T.);
#415=CYLINDRICAL_SURFACE('',#471,2.);
#416=CYLINDRICAL_SURFACE('',#474,8.);
#417=CYLINDRICAL_SURFACE('',#481,2.);
#418=CYLINDRICAL_SURFACE('',#484,4.5);
#419=CYLINDRICAL_SURFACE('',#487,2.);
#420=CYLINDRICAL_SURFACE('',#490,4.5);
#421=CYLINDRICAL_SURFACE('',#493,2.);
#422=CYLINDRICAL_SURFACE('',#496,14.0000000000004);
#423=CYLINDRICAL_SURFACE('',#510,1.05);
#424=CYLINDRICAL_SURFACE('',#512,1.05);
#425=CYLINDRICAL_SURFACE('',#514,3.);
#426=CYLINDRICAL_SURFACE('',#516,3.);
#427=CYLINDRICAL_SURFACE('',#518,3.);
#428=CYLINDRICAL_SURFACE('',#528,1.05);
#429=CYLINDRICAL_SURFACE('',#530,1.05);
#430=CYLINDRICAL_SURFACE('',#532,3.);
#431=CYLINDRICAL_SURFACE('',#534,3.);
#432=CYLINDRICAL_SURFACE('',#536,3.);
#433=ADVANCED_FACE('',(#29),#415,.T.);
#434=ADVANCED_FACE('',(#30),#416,.F.);
#435=ADVANCED_FACE('',(#31),#417,.T.);
#436=ADVANCED_FACE('',(#32),#418,.F.);
#437=ADVANCED_FACE('',(#33),#419,.T.);
#438=ADVANCED_FACE('',(#34),#420,.F.);
#439=ADVANCED_FACE('',(#35),#421,.T.);
#440=ADVANCED_FACE('',(#36),#422,.T.);
#441=ADVANCED_FACE('',(#37,#15),#23,.F.);
#442=ADVANCED_FACE('',(#38,#16),#24,.F.);
#443=ADVANCED_FACE('',(#39),#423,.F.);
#444=ADVANCED_FACE('',(#40),#424,.F.);
#445=ADVANCED_FACE('',(#41),#425,.T.);
#446=ADVANCED_FACE('',(#42),#426,.T.);
#447=ADVANCED_FACE('',(#43),#427,.T.);
#448=ADVANCED_FACE('',(#44,#17,#18),#25,.T.);
#449=ADVANCED_FACE('',(#45,#19),#26,.F.);
#450=ADVANCED_FACE('',(#46,#20),#27,.F.);
#451=ADVANCED_FACE('',(#47),#428,.F.);
#452=ADVANCED_FACE('',(#48),#429,.F.);
#453=ADVANCED_FACE('',(#49),#430,.T.);
#454=ADVANCED_FACE('',(#50),#431,.T.);
#455=ADVANCED_FACE('',(#51),#432,.T.);
#456=ADVANCED_FACE('',(#52,#21,#22),#28,.T.);
#457=CLOSED_SHELL('',(#433,#434,#435,#436,#437,#438,#439,#440,#441,#442,
#443,#444,#445,#446,#447,#448,#449,#450,#451,#452,#453,#454,#455,#456));
#458=DERIVED_UNIT_ELEMENT(#460,1.);
#459=DERIVED_UNIT_ELEMENT(#839,-3.);
#460=(
MASS_UNIT()
NAMED_UNIT(*)
SI_UNIT(.KILO.,.GRAM.)
);
#461=DERIVED_UNIT((#458,#459));
#462=MEASURE_REPRESENTATION_ITEM('density measure',
POSITIVE_RATIO_MEASURE(7850.),#461);
#463=PROPERTY_DEFINITION_REPRESENTATION(#468,#465);
#464=PROPERTY_DEFINITION_REPRESENTATION(#469,#466);
#465=REPRESENTATION('material name',(#467),#836);
#466=REPRESENTATION('density',(#462),#836);
#467=DESCRIPTIVE_REPRESENTATION_ITEM('\X2\94A2\X0\','\X2\94A2\X0\');
#468=PROPERTY_DEFINITION('material property','material name',#846);
#469=PROPERTY_DEFINITION('material property','density of part',#846);
#470=AXIS2_PLACEMENT_3D('',#699,#539,#540);
#471=AXIS2_PLACEMENT_3D('',#700,#541,#542);
#472=AXIS2_PLACEMENT_3D('',#703,#543,#544);
#473=AXIS2_PLACEMENT_3D('',#707,#546,#547);
#474=AXIS2_PLACEMENT_3D('',#709,#549,#550);
#475=AXIS2_PLACEMENT_3D('',#711,#551,#552);
#476=AXIS2_PLACEMENT_3D('',#713,#553,#554);
#477=AXIS2_PLACEMENT_3D('',#717,#556,#557);
#478=AXIS2_PLACEMENT_3D('',#721,#559,#560);
#479=AXIS2_PLACEMENT_3D('',#725,#562,#563);
#480=AXIS2_PLACEMENT_3D('',#729,#565,#566);
#481=AXIS2_PLACEMENT_3D('',#731,#568,#569);
#482=AXIS2_PLACEMENT_3D('',#734,#570,#571);
#483=AXIS2_PLACEMENT_3D('',#738,#573,#574);
#484=AXIS2_PLACEMENT_3D('',#740,#576,#577);
#485=AXIS2_PLACEMENT_3D('',#741,#578,#579);
#486=AXIS2_PLACEMENT_3D('',#742,#580,#581);
#487=AXIS2_PLACEMENT_3D('',#743,#582,#583);
#488=AXIS2_PLACEMENT_3D('',#745,#584,#585);
#489=AXIS2_PLACEMENT_3D('',#748,#587,#588);
#490=AXIS2_PLACEMENT_3D('',#749,#589,#590);
#491=AXIS2_PLACEMENT_3D('',#751,#591,#592);
#492=AXIS2_PLACEMENT_3D('',#754,#594,#595);
#493=AXIS2_PLACEMENT_3D('',#755,#596,#597);
#494=AXIS2_PLACEMENT_3D('',#757,#598,#599);
#495=AXIS2_PLACEMENT_3D('',#760,#601,#602);
#496=AXIS2_PLACEMENT_3D('',#761,#603,#604);
#497=AXIS2_PLACEMENT_3D('',#763,#605,#606);
#498=AXIS2_PLACEMENT_3D('',#767,#608,#609);
#499=AXIS2_PLACEMENT_3D('',#770,#611,#612);
#500=AXIS2_PLACEMENT_3D('',#772,#613,#614);
#501=AXIS2_PLACEMENT_3D('',#776,#616,#617);
#502=AXIS2_PLACEMENT_3D('',#779,#619,#620);
#503=AXIS2_PLACEMENT_3D('',#780,#621,#622);
#504=AXIS2_PLACEMENT_3D('',#782,#623,#624);
#505=AXIS2_PLACEMENT_3D('',#783,#625,#626);
#506=AXIS2_PLACEMENT_3D('',#785,#627,#628);
#507=AXIS2_PLACEMENT_3D('',#786,#629,#630);
#508=AXIS2_PLACEMENT_3D('',#787,#631,#632);
#509=AXIS2_PLACEMENT_3D('',#789,#633,#634);
#510=AXIS2_PLACEMENT_3D('',#790,#635,#636);
#511=AXIS2_PLACEMENT_3D('',#792,#637,#638);
#512=AXIS2_PLACEMENT_3D('',#794,#640,#641);
#513=AXIS2_PLACEMENT_3D('',#796,#642,#643);
#514=AXIS2_PLACEMENT_3D('',#798,#645,#646);
#515=AXIS2_PLACEMENT_3D('',#801,#648,#649);
#516=AXIS2_PLACEMENT_3D('',#802,#650,#651);
#517=AXIS2_PLACEMENT_3D('',#803,#652,#653);
#518=AXIS2_PLACEMENT_3D('',#804,#654,#655);
#519=AXIS2_PLACEMENT_3D('',#805,#656,#657);
#520=AXIS2_PLACEMENT_3D('',#806,#658,#659);
#521=AXIS2_PLACEMENT_3D('',#807,#660,#661);
#522=AXIS2_PLACEMENT_3D('',#809,#662,#663);
#523=AXIS2_PLACEMENT_3D('',#810,#664,#665);
#524=AXIS2_PLACEMENT_3D('',#812,#666,#667);
#525=AXIS2_PLACEMENT_3D('',#813,#668,#669);
#526=AXIS2_PLACEMENT_3D('',#814,#670,#671);
#527=AXIS2_PLACEMENT_3D('',#816,#672,#673);
#528=AXIS2_PLACEMENT_3D('',#817,#674,#675);
#529=AXIS2_PLACEMENT_3D('',#819,#676,#677);
#530=AXIS2_PLACEMENT_3D('',#821,#679,#680);
#531=AXIS2_PLACEMENT_3D('',#823,#681,#682);
#532=AXIS2_PLACEMENT_3D('',#825,#684,#685);
#533=AXIS2_PLACEMENT_3D('',#826,#686,#687);
#534=AXIS2_PLACEMENT_3D('',#827,#688,#689);
#535=AXIS2_PLACEMENT_3D('',#829,#690,#691);
#536=AXIS2_PLACEMENT_3D('',#831,#693,#694);
#537=AXIS2_PLACEMENT_3D('',#832,#695,#696);
#538=AXIS2_PLACEMENT_3D('',#833,#697,#698);
#539=DIRECTION('axis',(0.,0.,1.));
#540=DIRECTION('refdir',(1.,0.,0.));
#541=DIRECTION('center_axis',(0.,-1.,0.));
#542=DIRECTION('ref_axis',(0.98667410810391,0.,0.162708956106765));
#543=DIRECTION('center_axis',(0.,1.,0.));
#544=DIRECTION('ref_axis',(0.98667410810391,0.,0.162708956106765));
#545=DIRECTION('',(0.,-1.,0.));
#546=DIRECTION('center_axis',(0.,-1.,0.));
#547=DIRECTION('ref_axis',(0.98667410810391,0.,0.162708956106765));
#548=DIRECTION('',(0.,1.,0.));
#549=DIRECTION('center_axis',(0.,-1.,0.));
#550=DIRECTION('ref_axis',(-0.91505237271835,0.,0.403335040856257));
#551=DIRECTION('center_axis',(0.,-1.,0.));
#552=DIRECTION('ref_axis',(-0.91505237271835,0.,0.403335040856257));
#553=DIRECTION('center_axis',(0.,1.,0.));
#554=DIRECTION('ref_axis',(-0.91505237271835,0.,0.403335040856257));
#555=DIRECTION('',(0.,1.,0.));
#556=DIRECTION('center_axis',(0.,-1.,0.));
#557=DIRECTION('ref_axis',(-0.91505237271835,0.,0.403335040856257));
#558=DIRECTION('',(0.,1.,0.));
#559=DIRECTION('center_axis',(0.,1.,0.));
#560=DIRECTION('ref_axis',(-0.91505237271835,0.,0.403335040856257));
#561=DIRECTION('',(0.,1.,0.));
#562=DIRECTION('center_axis',(0.,-1.,0.));
#563=DIRECTION('ref_axis',(-0.91505237271835,0.,0.403335040856257));
#564=DIRECTION('',(0.,-1.,0.));
#565=DIRECTION('center_axis',(0.,1.,0.));
#566=DIRECTION('ref_axis',(-0.91505237271835,0.,0.403335040856257));
#567=DIRECTION('',(0.,-1.,0.));
#568=DIRECTION('center_axis',(0.,-1.,0.));
#569=DIRECTION('ref_axis',(0.345629985455824,0.,-0.938370882515974));
#570=DIRECTION('center_axis',(0.,1.,0.));
#571=DIRECTION('ref_axis',(0.345629985455824,0.,-0.938370882515974));
#572=DIRECTION('',(0.,-1.,0.));
#573=DIRECTION('center_axis',(0.,-1.,0.));
#574=DIRECTION('ref_axis',(0.345629985455824,0.,-0.938370882515974));
#575=DIRECTION('',(0.,1.,0.));
#576=DIRECTION('center_axis',(0.,-1.,0.));
#577=DIRECTION('ref_axis',(1.,0.,0.));
#578=DIRECTION('center_axis',(0.,1.,0.));
#579=DIRECTION('ref_axis',(1.,0.,0.));
#580=DIRECTION('center_axis',(0.,-1.,0.));
#581=DIRECTION('ref_axis',(1.,0.,0.));
#582=DIRECTION('center_axis',(0.,-1.,0.));
#583=DIRECTION('ref_axis',(0.613343899856544,0.,0.789815966228061));
#584=DIRECTION('center_axis',(0.,1.,0.));
#585=DIRECTION('ref_axis',(0.613343899856544,0.,0.789815966228061));
#586=DIRECTION('',(0.,-1.,0.));
#587=DIRECTION('center_axis',(0.,-1.,0.));
#588=DIRECTION('ref_axis',(0.613343899856544,0.,0.789815966228061));
#589=DIRECTION('center_axis',(0.,-1.,0.));
#590=DIRECTION('ref_axis',(1.,0.,0.));
#591=DIRECTION('center_axis',(0.,-1.,0.));
#592=DIRECTION('ref_axis',(1.,0.,0.));
#593=DIRECTION('',(0.,1.,0.));
#594=DIRECTION('center_axis',(0.,1.,0.));
#595=DIRECTION('ref_axis',(1.,0.,0.));
#596=DIRECTION('center_axis',(0.,-1.,0.));
#597=DIRECTION('ref_axis',(-0.660161990360873,0.,0.751123256518377));
#598=DIRECTION('center_axis',(0.,1.,0.));
#599=DIRECTION('ref_axis',(-0.660161990360873,0.,0.751123256518377));
#600=DIRECTION('',(0.,-1.,0.));
#601=DIRECTION('center_axis',(0.,-1.,0.));
#602=DIRECTION('ref_axis',(-0.660161990360873,0.,0.751123256518377));
#603=DIRECTION('center_axis',(0.,-1.,0.));
#604=DIRECTION('ref_axis',(-0.915052372718366,0.,0.40333504085622));
#605=DIRECTION('center_axis',(0.,-1.,0.));
#606=DIRECTION('ref_axis',(-0.915052372718366,0.,0.40333504085622));
#607=DIRECTION('',(0.,-1.,0.));
#608=DIRECTION('center_axis',(0.,-1.,0.));
#609=DIRECTION('ref_axis',(-0.915052372718366,0.,0.40333504085622));
#610=DIRECTION('',(0.,-1.,0.));
#611=DIRECTION('center_axis',(0.,-1.,0.));
#612=DIRECTION('ref_axis',(-0.915052372718366,0.,0.40333504085622));
#613=DIRECTION('center_axis',(0.,-1.,0.));
#614=DIRECTION('ref_axis',(-0.915052372718366,0.,0.40333504085622));
#615=DIRECTION('',(0.,1.,0.));
#616=DIRECTION('center_axis',(0.,1.,0.));
#617=DIRECTION('ref_axis',(-0.915052372718366,0.,0.40333504085622));
#618=DIRECTION('',(0.,1.,0.));
#619=DIRECTION('center_axis',(0.,-1.,0.));
#620=DIRECTION('ref_axis',(-0.915052372718366,0.,0.40333504085622));
#621=DIRECTION('center_axis',(0.,1.,0.));
#622=DIRECTION('ref_axis',(0.,0.,1.));
#623=DIRECTION('center_axis',(0.,-1.,0.));
#624=DIRECTION('ref_axis',(1.,0.,0.));
#625=DIRECTION('center_axis',(0.,-1.,0.));
#626=DIRECTION('ref_axis',(0.138752879024314,0.,-0.990327036166571));
#627=DIRECTION('center_axis',(0.,1.,0.));
#628=DIRECTION('ref_axis',(1.,0.,0.));
#629=DIRECTION('center_axis',(0.,1.,0.));
#630=DIRECTION('ref_axis',(0.,0.,1.));
#631=DIRECTION('center_axis',(0.,-1.,0.));
#632=DIRECTION('ref_axis',(1.,0.,0.));
#633=DIRECTION('center_axis',(0.,1.,0.));
#634=DIRECTION('ref_axis',(1.,0.,0.));
#635=DIRECTION('center_axis',(0.,1.,0.));
#636=DIRECTION('ref_axis',(1.,0.,0.));
#637=DIRECTION('center_axis',(0.,-1.,0.));
#638=DIRECTION('ref_axis',(1.,0.,0.));
#639=DIRECTION('',(0.,-1.,0.));
#640=DIRECTION('center_axis',(0.,1.,0.));
#641=DIRECTION('ref_axis',(1.,0.,0.));
#642=DIRECTION('center_axis',(0.,-1.,0.));
#643=DIRECTION('ref_axis',(1.,0.,0.));
#644=DIRECTION('',(0.,-1.,0.));
#645=DIRECTION('center_axis',(0.,1.,0.));
#646=DIRECTION('ref_axis',(0.138752879024314,0.,-0.990327036166571));
#647=DIRECTION('',(0.,1.,0.));
#648=DIRECTION('center_axis',(0.,1.,0.));
#649=DIRECTION('ref_axis',(0.138752879024314,0.,-0.990327036166571));
#650=DIRECTION('center_axis',(0.,1.,0.));
#651=DIRECTION('ref_axis',(1.,0.,0.));
#652=DIRECTION('center_axis',(0.,1.,0.));
#653=DIRECTION('ref_axis',(1.,0.,0.));
#654=DIRECTION('center_axis',(0.,1.,0.));
#655=DIRECTION('ref_axis',(1.,0.,0.));
#656=DIRECTION('center_axis',(0.,1.,0.));
#657=DIRECTION('ref_axis',(1.,0.,0.));
#658=DIRECTION('center_axis',(0.,1.,0.));
#659=DIRECTION('ref_axis',(0.,0.,1.));
#660=DIRECTION('center_axis',(0.,-1.,0.));
#661=DIRECTION('ref_axis',(1.,0.,0.));
#662=DIRECTION('center_axis',(0.,-1.,0.));
#663=DIRECTION('ref_axis',(0.138752879024314,0.,-0.990327036166571));
#664=DIRECTION('center_axis',(0.,-1.,0.));
#665=DIRECTION('ref_axis',(1.,0.,0.));
#666=DIRECTION('center_axis',(0.,1.,0.));
#667=DIRECTION('ref_axis',(1.,0.,0.));
#668=DIRECTION('center_axis',(0.,-1.,0.));
#669=DIRECTION('ref_axis',(1.,0.,0.));
#670=DIRECTION('center_axis',(0.,-1.,0.));
#671=DIRECTION('ref_axis',(1.,0.,0.));
#672=DIRECTION('center_axis',(0.,1.,0.));
#673=DIRECTION('ref_axis',(1.,0.,0.));
#674=DIRECTION('center_axis',(0.,-1.,0.));
#675=DIRECTION('ref_axis',(1.,0.,0.));
#676=DIRECTION('center_axis',(0.,1.,0.));
#677=DIRECTION('ref_axis',(1.,0.,0.));
#678=DIRECTION('',(0.,1.,0.));
#679=DIRECTION('center_axis',(0.,-1.,0.));
#680=DIRECTION('ref_axis',(1.,0.,0.));
#681=DIRECTION('center_axis',(0.,1.,0.));
#682=DIRECTION('ref_axis',(1.,0.,0.));
#683=DIRECTION('',(0.,1.,0.));
#684=DIRECTION('center_axis',(0.,-1.,0.));
#685=DIRECTION('ref_axis',(1.,0.,0.));
#686=DIRECTION('center_axis',(0.,-1.,0.));
#687=DIRECTION('ref_axis',(1.,0.,0.));
#688=DIRECTION('center_axis',(0.,-1.,0.));
#689=DIRECTION('ref_axis',(0.138752879024314,0.,-0.990327036166571));
#690=DIRECTION('center_axis',(0.,-1.,0.));
#691=DIRECTION('ref_axis',(0.138752879024314,0.,-0.990327036166571));
#692=DIRECTION('',(0.,-1.,0.));
#693=DIRECTION('center_axis',(0.,-1.,0.));
#694=DIRECTION('ref_axis',(1.,0.,0.));
#695=DIRECTION('center_axis',(0.,-1.,0.));
#696=DIRECTION('ref_axis',(1.,0.,0.));
#697=DIRECTION('center_axis',(0.,-1.,0.));
#698=DIRECTION('ref_axis',(1.,0.,0.));
#699=CARTESIAN_POINT('',(0.,0.,0.));
#700=CARTESIAN_POINT('Origin',(-17.6999185346383,-1.5,-3.65887765074405));
#701=CARTESIAN_POINT('',(-15.984360724898,-1.5,-4.68691529666896));
#702=CARTESIAN_POINT('',(-16.405280576813,-1.5,-2.13443921047901));
#703=CARTESIAN_POINT('Origin',(-17.6999185346383,-1.5,-3.65887765074405));
#704=CARTESIAN_POINT('',(-16.405280576813,-4.5,-2.13443921047901));
#705=CARTESIAN_POINT('',(-16.405280576813,-1.5,-2.13443921047901));
#706=CARTESIAN_POINT('',(-15.984360724898,-4.5,-4.68691529666896));
#707=CARTESIAN_POINT('Origin',(-17.6999185346383,-4.5,-3.65887765074405));
#708=CARTESIAN_POINT('',(-15.984360724898,-1.5,-4.68691529666896));
#709=CARTESIAN_POINT('Origin',(-11.2267287455114,-4.5,3.96331455058116));
#710=CARTESIAN_POINT('',(-12.243021629201,-4.5,-3.97186968008179));
#711=CARTESIAN_POINT('Origin',(-11.2267287455114,-4.5,3.96331455058116));
#712=CARTESIAN_POINT('',(-12.243021629201,-1.5,-3.97186968008179));
#713=CARTESIAN_POINT('Origin',(-11.2267287455114,-1.5,3.96331455058116));
#714=CARTESIAN_POINT('',(-12.243021629201,0.5,-3.97186968008179));
#715=CARTESIAN_POINT('',(-12.243021629201,-1.5,-3.97186968008179));
#716=CARTESIAN_POINT('',(-18.5471477272582,0.5,7.18999487743122));
#717=CARTESIAN_POINT('Origin',(-11.2267287455114,0.5,3.96331455058116));
#718=CARTESIAN_POINT('',(-18.5471477272582,-1.5,7.18999487743122));
#719=CARTESIAN_POINT('',(-18.5471477272582,-1.5,7.18999487743122));
#720=CARTESIAN_POINT('',(-19.0555985739104,-1.5,2.31747214926066));
#721=CARTESIAN_POINT('Origin',(-11.2267287455114,-1.5,3.96331455058116));
#722=CARTESIAN_POINT('',(-19.0555985739104,-4.5,2.31747214926066));
#723=CARTESIAN_POINT('',(-19.0555985739104,-4.5,2.31747214926066));
#724=CARTESIAN_POINT('',(-18.5471477272582,-4.5,7.18999487743122));
#725=CARTESIAN_POINT('Origin',(-11.2267287455114,-4.5,3.96331455058116));
#726=CARTESIAN_POINT('',(-18.5471477272582,-6.5,7.18999487743122));
#727=CARTESIAN_POINT('',(-18.5471477272582,-4.5,7.18999487743122));
#728=CARTESIAN_POINT('',(-12.243021629201,-6.5,-3.97186968008179));
#729=CARTESIAN_POINT('Origin',(-11.2267287455114,-6.5,3.96331455058116));
#730=CARTESIAN_POINT('',(-12.243021629201,-4.5,-3.97186968008179));
#731=CARTESIAN_POINT('Origin',(-18.4723095736866,-4.5,-5.60233014605993));
#732=CARTESIAN_POINT('',(-19.6799063783825,-1.5,-7.19660426216677));
#733=CARTESIAN_POINT('',(-16.5190929827006,-1.5,-6.03238240881072));
#734=CARTESIAN_POINT('Origin',(-18.4723095736866,-1.5,-5.60233014605993));
#735=CARTESIAN_POINT('',(-16.5190929827006,-4.5,-6.03238240881072));
#736=CARTESIAN_POINT('',(-16.5190929827006,-4.5,-6.03238240881072));
#737=CARTESIAN_POINT('',(-19.6799063783825,-4.5,-7.19660426216677));
#738=CARTESIAN_POINT('Origin',(-18.4723095736866,-4.5,-5.60233014605993));
#739=CARTESIAN_POINT('',(-19.6799063783825,-4.5,-7.19660426216677));
#740=CARTESIAN_POINT('Origin',(-12.1243556529821,-1.5,-7.));
#741=CARTESIAN_POINT('Origin',(-12.1243556529821,-4.5,-7.));
#742=CARTESIAN_POINT('Origin',(-12.1243556529821,-1.5,-7.));
#743=CARTESIAN_POINT('Origin',(-21.0128160310101,-4.5,1.90601154893053));
#744=CARTESIAN_POINT('',(-21.098812589288,-1.5,3.90416184156729));
#745=CARTESIAN_POINT('Origin',(-21.0128160310101,-1.5,1.90601154893053));
#746=CARTESIAN_POINT('',(-21.098812589288,-4.5,3.90416184156729));
#747=CARTESIAN_POINT('',(-21.098812589288,-4.5,3.90416184156729));
#748=CARTESIAN_POINT('Origin',(-21.0128160310101,-4.5,1.90601154893053));
#749=CARTESIAN_POINT('Origin',(-21.2923048454133,-1.5,8.39999999999999));
#750=CARTESIAN_POINT('',(-22.5364816216844,-1.5,4.07541630334345));
#751=CARTESIAN_POINT('Origin',(-21.2923048454133,-1.5,8.39999999999999));
#752=CARTESIAN_POINT('',(-22.5364816216844,-4.5,4.07541630334345));
#753=CARTESIAN_POINT('',(-22.5364816216844,-1.5,4.07541630334345));
#754=CARTESIAN_POINT('Origin',(-21.2923048454133,-4.5,8.39999999999999));
#755=CARTESIAN_POINT('Origin',(-23.0894490778049,-1.5,2.15337910482943));
#756=CARTESIAN_POINT('',(-25.0665691331872,-1.5,1.8517231972041));
#757=CARTESIAN_POINT('Origin',(-23.0894490778049,-1.5,2.15337910482943));
#758=CARTESIAN_POINT('',(-25.0665691331872,-4.5,1.8517231972041));
#759=CARTESIAN_POINT('',(-25.0665691331872,-1.5,1.8517231972041));
#760=CARTESIAN_POINT('Origin',(-23.0894490778049,-4.5,2.15337910482943));
#761=CARTESIAN_POINT('Origin',(-11.226728745511,-4.5,3.96331455058144));
#762=CARTESIAN_POINT('',(-12.3691629913834,-4.5,-9.9899948774313));
#763=CARTESIAN_POINT('Origin',(-11.226728745511,-4.5,3.96331455058144));
#764=CARTESIAN_POINT('',(-12.3691629913834,-6.5,-9.9899948774313));
#765=CARTESIAN_POINT('',(-12.3691629913834,-4.5,-9.9899948774313));
#766=CARTESIAN_POINT('',(-24.0374619635685,-6.5,9.61000512256868));
#767=CARTESIAN_POINT('Origin',(-11.226728745511,-6.5,3.96331455058144));
#768=CARTESIAN_POINT('',(-24.0374619635685,-4.5,9.61000512256868));
#769=CARTESIAN_POINT('',(-24.0374619635685,-4.5,9.61000512256868));
#770=CARTESIAN_POINT('Origin',(-11.226728745511,-4.5,3.96331455058144));
#771=CARTESIAN_POINT('',(-24.0374619635685,-1.5,9.61000512256868));
#772=CARTESIAN_POINT('Origin',(-11.226728745511,-1.5,3.96331455058144));
#773=CARTESIAN_POINT('',(-24.0374619635685,0.5,9.61000512256868));
#774=CARTESIAN_POINT('',(-24.0374619635685,-1.5,9.61000512256868));
#775=CARTESIAN_POINT('',(-12.3691629913834,0.5,-9.9899948774313));
#776=CARTESIAN_POINT('Origin',(-11.226728745511,0.5,3.96331455058144));
#777=CARTESIAN_POINT('',(-12.3691629913834,-1.5,-9.9899948774313));
#778=CARTESIAN_POINT('',(-12.3691629913834,-1.5,-9.9899948774313));
#779=CARTESIAN_POINT('Origin',(-11.226728745511,-1.5,3.96331455058144));
#780=CARTESIAN_POINT('Origin',(-17.1755421992468,-1.5,0.699999999999996));
#781=CARTESIAN_POINT('',(-12.5406142900551,-1.5,-4.02901889150029));
#782=CARTESIAN_POINT('Origin',(-12.1243556529821,-1.5,-7.));
#783=CARTESIAN_POINT('Origin',(-12.956872927128,-1.5,-1.05803778300057));
#784=CARTESIAN_POINT('',(-13.1743556529821,-1.5,-7.));
#785=CARTESIAN_POINT('Origin',(-12.1243556529821,-1.5,-7.));
#786=CARTESIAN_POINT('Origin',(-17.1755421992468,-1.5,0.699999999999996));
#787=CARTESIAN_POINT('Origin',(-21.2923048454133,-1.5,8.39999999999999));
#788=CARTESIAN_POINT('',(-22.3423048454133,-1.5,8.39999999999999));
#789=CARTESIAN_POINT('Origin',(-21.2923048454133,-1.5,8.39999999999999));
#790=CARTESIAN_POINT('Origin',(-21.2923048454133,-1.5,8.39999999999999));
#791=CARTESIAN_POINT('',(-22.3423048454133,0.5,8.39999999999999));
#792=CARTESIAN_POINT('Origin',(-21.2923048454133,0.5,8.39999999999999));
#793=CARTESIAN_POINT('',(-22.3423048454133,-1.5,8.39999999999999));
#794=CARTESIAN_POINT('Origin',(-12.1243556529821,-1.5,-7.));
#795=CARTESIAN_POINT('',(-13.1743556529821,0.5,-7.));
#796=CARTESIAN_POINT('Origin',(-12.1243556529821,0.5,-7.));
#797=CARTESIAN_POINT('',(-13.1743556529821,-1.5,-7.));
#798=CARTESIAN_POINT('Origin',(-12.956872927128,-1.5,-1.05803778300057));
#799=CARTESIAN_POINT('',(-12.5406142900551,0.5,-4.02901889150029));
#800=CARTESIAN_POINT('',(-12.5406142900551,-1.5,-4.02901889150029));
#801=CARTESIAN_POINT('Origin',(-12.956872927128,0.5,-1.05803778300057));
#802=CARTESIAN_POINT('Origin',(-21.2923048454133,-1.5,8.39999999999999));
#803=CARTESIAN_POINT('Origin',(-21.2923048454133,0.5,8.39999999999999));
#804=CARTESIAN_POINT('Origin',(-12.1243556529821,-1.5,-7.));
#805=CARTESIAN_POINT('Origin',(-12.1243556529821,0.5,-7.));
#806=CARTESIAN_POINT('Origin',(-17.1755421992468,0.5,0.699999999999996));
#807=CARTESIAN_POINT('Origin',(-17.1755421992468,-4.5,0.699999999999995));
#808=CARTESIAN_POINT('',(-12.5406142900551,-4.5,-4.02901889150029));
#809=CARTESIAN_POINT('Origin',(-12.956872927128,-4.5,-1.05803778300057));
#810=CARTESIAN_POINT('Origin',(-12.1243556529821,-4.5,-7.));
#811=CARTESIAN_POINT('',(-13.1743556529821,-4.5,-7.));
#812=CARTESIAN_POINT('Origin',(-12.1243556529821,-4.5,-7.));
#813=CARTESIAN_POINT('Origin',(-17.1755421992468,-4.5,0.699999999999995));
#814=CARTESIAN_POINT('Origin',(-21.2923048454133,-4.5,8.39999999999999));
#815=CARTESIAN_POINT('',(-22.3423048454133,-4.5,8.39999999999999));
#816=CARTESIAN_POINT('Origin',(-21.2923048454133,-4.5,8.39999999999999));
#817=CARTESIAN_POINT('Origin',(-21.2923048454133,-4.5,8.39999999999999));
#818=CARTESIAN_POINT('',(-22.3423048454133,-6.5,8.39999999999999));
#819=CARTESIAN_POINT('Origin',(-21.2923048454133,-6.5,8.39999999999999));
#820=CARTESIAN_POINT('',(-22.3423048454133,-4.5,8.39999999999999));
#821=CARTESIAN_POINT('Origin',(-12.1243556529821,-4.5,-7.));
#822=CARTESIAN_POINT('',(-13.1743556529821,-6.5,-7.));
#823=CARTESIAN_POINT('Origin',(-12.1243556529821,-6.5,-7.));
#824=CARTESIAN_POINT('',(-13.1743556529821,-4.5,-7.));
#825=CARTESIAN_POINT('Origin',(-21.2923048454133,-4.5,8.39999999999999));
#826=CARTESIAN_POINT('Origin',(-21.2923048454133,-6.5,8.39999999999999));
#827=CARTESIAN_POINT('Origin',(-12.956872927128,-4.5,-1.05803778300057));
#828=CARTESIAN_POINT('',(-12.5406142900551,-6.5,-4.02901889150029));
#829=CARTESIAN_POINT('Origin',(-12.956872927128,-6.5,-1.05803778300057));
#830=CARTESIAN_POINT('',(-12.5406142900551,-4.5,-4.02901889150029));
#831=CARTESIAN_POINT('Origin',(-12.1243556529821,-4.5,-7.));
#832=CARTESIAN_POINT('Origin',(-12.1243556529821,-6.5,-7.));
#833=CARTESIAN_POINT('Origin',(-17.1755421992468,-6.5,0.699999999999995));
#834=UNCERTAINTY_MEASURE_WITH_UNIT(LENGTH_MEASURE(0.01),#838,
'DISTANCE_ACCURACY_VALUE',
'Maximum model space distance between geometric entities at asserted c
onnectivities');
#835=UNCERTAINTY_MEASURE_WITH_UNIT(LENGTH_MEASURE(0.01),#838,
'DISTANCE_ACCURACY_VALUE',
'Maximum model space distance between geometric entities at asserted c
onnectivities');
#836=(
GEOMETRIC_REPRESENTATION_CONTEXT(3)
GLOBAL_UNCERTAINTY_ASSIGNED_CONTEXT((#834))
GLOBAL_UNIT_ASSIGNED_CONTEXT((#838,#840,#841))
REPRESENTATION_CONTEXT('','3D')
);
#837=(
GEOMETRIC_REPRESENTATION_CONTEXT(3)
GLOBAL_UNCERTAINTY_ASSIGNED_CONTEXT((#835))
GLOBAL_UNIT_ASSIGNED_CONTEXT((#838,#840,#841))
REPRESENTATION_CONTEXT('','3D')
);
#838=(
LENGTH_UNIT()
NAMED_UNIT(*)
SI_UNIT(.MILLI.,.METRE.)
);
#839=(
LENGTH_UNIT()
NAMED_UNIT(*)
SI_UNIT($,.METRE.)
);
#840=(
NAMED_UNIT(*)
PLANE_ANGLE_UNIT()
SI_UNIT($,.RADIAN.)
);
#841=(
NAMED_UNIT(*)
SI_UNIT($,.STERADIAN.)
SOLID_ANGLE_UNIT()
);
#842=SHAPE_DEFINITION_REPRESENTATION(#843,#844);
#843=PRODUCT_DEFINITION_SHAPE('',$,#846);
#844=SHAPE_REPRESENTATION('',(#470),#836);
#845=PRODUCT_DEFINITION_CONTEXT('part definition',#850,'design');
#846=PRODUCT_DEFINITION('\X2\819D76D64F2052A8\X0\1','\X2\819D76D64F2052A8\X0\1',
#847,#845);
#847=PRODUCT_DEFINITION_FORMATION('',$,#852);
#848=PRODUCT_RELATED_PRODUCT_CATEGORY('\X2\819D76D64F2052A8\X0\1',
'\X2\819D76D64F2052A8\X0\1',(#852));
#849=APPLICATION_PROTOCOL_DEFINITION('international standard',
'automotive_design',2009,#850);
#850=APPLICATION_CONTEXT(
'Core Data for Automotive Mechanical Design Process');
#851=PRODUCT_CONTEXT('part definition',#850,'mechanical');
#852=PRODUCT('\X2\819D76D64F2052A8\X0\1','\X2\819D76D64F2052A8\X0\1',$,
(#851));
#853=PRESENTATION_STYLE_ASSIGNMENT((#854));
#854=SURFACE_STYLE_USAGE(.BOTH.,#855);
#855=SURFACE_SIDE_STYLE('',(#856));
#856=SURFACE_STYLE_FILL_AREA(#857);
#857=FILL_AREA_STYLE('\X2\94A2\X0\ - \X2\7F0E5149\X0\',(#858));
#858=FILL_AREA_STYLE_COLOUR('\X2\94A2\X0\ - \X2\7F0E5149\X0\',#859);
#859=COLOUR_RGB('\X2\94A2\X0\ - \X2\7F0E5149\X0\',0.627450980392157,0.627450980392157,
0.627450980392157);
ENDSEC;
END-ISO-10303-21;
